<svg width="200" height="60" viewBox="0 0 200 60" fill="none" xmlns="http://www.w3.org/2000/svg">
<path d="M192.269 0H7.73105C3.46131 0 0 3.41452 0 7.62655V52.3734C0 56.5855 3.46131 60 7.73105 60H192.269C196.539 60 200 56.5855 200 52.3734V7.62655C200 3.41452 196.539 0 192.269 0Z" fill="black"/>
<path d="M12.4166 24.8291C9.17194 30.4548 11.2344 38.9947 14.8206 44.1696C16.6112 46.7584 18.425 49.0812 20.9078 49.0812C20.955 49.0812 21.0015 49.0812 21.0495 49.0812C22.2167 49.0356 23.0598 48.6761 23.8747 48.329C24.7866 47.9397 25.7374 47.5371 27.2221 47.5371C28.6314 47.5371 29.5358 47.9264 30.407 48.3033C31.2783 48.6802 32.1479 49.0596 33.4593 49.0348C36.2563 48.9826 37.9739 46.4759 39.4893 44.2641C40.6238 42.5968 41.5135 40.7757 42.1313 38.8563L42.142 38.8215C42.1668 38.7482 42.1635 38.6683 42.1329 38.5972C42.1023 38.5261 42.0465 38.4688 41.9762 38.4363L41.9539 38.4264C41.4615 38.2251 37.14 36.3098 37.0944 31.0885C37.0521 26.8463 40.3357 24.6005 40.9906 24.1938L41.0213 24.1739C41.0567 24.1513 41.0873 24.1217 41.1111 24.0871C41.1349 24.0524 41.1515 24.0133 41.1598 23.9721C41.1682 23.9309 41.1681 23.8884 41.1597 23.8472C41.1513 23.8061 41.1347 23.767 41.1108 23.7323C38.8444 20.4188 35.3701 19.9217 33.9708 19.8588C33.7642 19.8381 33.5567 19.8278 33.3491 19.8281C31.706 19.8281 30.1318 20.4478 28.8676 20.9465C27.9947 21.2902 27.2412 21.5868 26.7214 21.5868C26.137 21.5868 25.3785 21.2861 24.5014 20.939C23.3267 20.4726 21.9962 19.9449 20.5878 19.9449H20.4891C17.2172 19.9913 14.1226 21.8643 12.4166 24.8291Z" fill="white"/>
<path d="M33.9777 10.7314C31.9948 10.8143 29.6148 12.032 28.1931 13.6971C26.9844 15.0954 25.804 17.4248 26.1149 19.78C26.1245 19.8514 26.1582 19.9174 26.2106 19.9669C26.2629 20.0165 26.3306 20.0467 26.4025 20.0525C26.5368 20.0624 26.6728 20.0674 26.8087 20.0674C28.7485 20.0674 30.8409 18.9955 32.2692 17.2691C33.7729 15.4466 34.5331 13.1064 34.3035 11.0114C34.2946 10.9323 34.256 10.8595 34.1956 10.8075C34.1352 10.7556 34.0573 10.7284 33.9777 10.7314Z" fill="white"/>
<path d="M56.7988 10.5698H60.5599C61.5464 10.5698 62.4221 10.7733 63.1869 11.1803C63.9285 11.5654 64.5472 12.1506 64.9726 12.8694C65.4044 13.6127 65.6251 14.4596 65.6109 15.319C65.625 16.1781 65.4043 17.0247 64.9726 17.7677C64.5474 18.4868 63.9287 19.0721 63.1869 19.4568C62.4226 19.8644 61.5469 20.0682 60.5599 20.0682H56.7988V10.5698ZM60.5052 19.4436C61.3834 19.4436 62.1571 19.2696 62.8263 18.9217C63.4727 18.5952 64.0106 18.0885 64.3749 17.4629C64.7442 16.8098 64.932 16.0699 64.9187 15.3198C64.9325 14.5696 64.745 13.8293 64.3757 13.1759C64.0116 12.5502 63.4737 12.0434 62.8272 11.7171C62.1573 11.3692 61.3836 11.1953 60.506 11.1953H57.491V19.4444L60.5052 19.4436Z" fill="white"/>
<path d="M68.7541 19.6605C68.2204 19.3585 67.7809 18.9146 67.4842 18.3782C67.181 17.8079 67.0225 17.172 67.0225 16.5263C67.0225 15.8806 67.181 15.2447 67.4842 14.6744C67.7809 14.138 68.2204 13.6941 68.7541 13.3921C69.3102 13.0893 69.9334 12.9307 70.5667 12.9307C71.2 12.9307 71.8232 13.0893 72.3793 13.3921C72.9126 13.6944 73.3518 14.1382 73.6484 14.6744C73.9516 15.2447 74.1101 15.8806 74.1101 16.5263C74.1101 17.172 73.9516 17.8079 73.6484 18.3782C73.3518 18.9144 72.9126 19.3582 72.3793 19.6605C71.8232 19.9633 71.2 20.122 70.5667 20.122C69.9334 20.122 69.3102 19.9633 68.7541 19.6605ZM72.0261 19.1304C72.4562 18.8775 72.8086 18.5116 73.0449 18.0725C73.2901 17.5936 73.418 17.0634 73.418 16.5255C73.418 15.9876 73.2901 15.4573 73.0449 14.9785C72.8082 14.5396 72.4559 14.1738 72.0261 13.9206C71.5802 13.6713 71.0777 13.5404 70.5667 13.5404C70.0557 13.5404 69.5532 13.6713 69.1073 13.9206C68.6772 14.1734 68.3249 14.5393 68.0885 14.9785C67.8433 15.4573 67.7154 15.9876 67.7154 16.5255C67.7154 17.0634 67.8433 17.5936 68.0885 18.0725C68.3246 18.5118 68.6771 18.8777 69.1073 19.1304C69.5532 19.3797 70.0557 19.5106 70.5667 19.5106C71.0777 19.5106 71.5802 19.3797 72.0261 19.1304Z" fill="white"/>
<path d="M86.1406 12.9854L83.4522 20.0681H82.8147L80.4256 13.9214L78.0216 20.0681H77.3974L74.709 12.9854H75.3606L77.7232 19.3076L80.1404 12.9854H80.7207L83.1248 19.2944L85.5147 12.9854H86.1406Z" fill="white"/>
<path d="M93.2832 13.7046C93.7989 14.2198 94.0567 14.9615 94.0567 15.9296V20.0716H93.3777V15.9827C93.3777 15.1874 93.1763 14.5816 92.7734 14.1652C92.3705 13.7488 91.8071 13.5406 91.0831 13.5406C90.2508 13.5406 89.5946 13.7891 89.1143 14.2861C88.6341 14.7831 88.3942 15.4525 88.3948 16.2941V20.0666H87.7158V12.9839H88.3691V14.5164C88.6072 14.0261 88.9884 13.6194 89.4625 13.35C89.9466 13.0689 90.5191 12.9286 91.1801 12.9292C92.066 12.9303 92.7671 13.1888 93.2832 13.7046Z" fill="white"/>
<path d="M96.8535 10H97.5325V20.0683H96.8535V10Z" fill="white"/>
<path d="M101.355 19.6605C100.821 19.3585 100.381 18.9146 100.085 18.3782C99.7816 17.8079 99.623 17.172 99.623 16.5263C99.623 15.8806 99.7816 15.2447 100.085 14.6744C100.381 14.138 100.821 13.6941 101.355 13.3921C101.911 13.0893 102.534 12.9307 103.167 12.9307C103.801 12.9307 104.424 13.0893 104.98 13.3921C105.513 13.6943 105.953 14.1381 106.25 14.6744C106.553 15.2449 106.711 15.8807 106.711 16.5263C106.711 17.172 106.553 17.8078 106.25 18.3782C105.953 18.9145 105.513 19.3583 104.98 19.6605C104.424 19.9633 103.801 20.122 103.167 20.122C102.534 20.122 101.911 19.9633 101.355 19.6605ZM104.627 19.1312C105.057 18.8783 105.409 18.5124 105.646 18.0733C105.891 17.5945 106.019 17.0642 106.019 16.5263C106.019 15.9884 105.891 15.4582 105.646 14.9793C105.409 14.5404 105.056 14.1746 104.627 13.9214C104.181 13.6721 103.678 13.5412 103.167 13.5412C102.656 13.5412 102.154 13.6721 101.708 13.9214C101.278 14.1743 100.925 14.5402 100.689 14.9793C100.444 15.4582 100.316 15.9884 100.316 16.5263C100.316 17.0642 100.444 17.5945 100.689 18.0733C100.925 18.5123 101.278 18.878 101.708 19.1304C102.154 19.3797 102.656 19.5106 103.167 19.5106C103.678 19.5106 104.181 19.3797 104.627 19.1304V19.1312Z" fill="white"/>
<path d="M113.201 13.6025C113.672 14.0498 113.907 14.7079 113.907 15.5766V20.0681H113.255V18.8057C113.029 19.2218 112.682 19.5599 112.261 19.7757C111.826 20.0071 111.305 20.1225 110.699 20.122C109.911 20.122 109.289 19.9367 108.832 19.5661C108.611 19.3925 108.434 19.1695 108.315 18.9149C108.195 18.6604 108.138 18.3815 108.146 18.1007C108.146 17.5125 108.357 17.0354 108.777 16.6692C109.198 16.3031 109.87 16.1197 110.794 16.1192H113.224V15.5492C113.224 14.8865 113.045 14.3845 112.687 14.0432C112.33 13.7019 111.807 13.5302 111.12 13.528C110.658 13.5261 110.2 13.6089 109.769 13.7723C109.366 13.9182 108.995 14.1392 108.675 14.4235L108.336 13.9347C108.709 13.6066 109.143 13.3552 109.613 13.1949C110.114 13.0184 110.642 12.929 111.174 12.9307C112.052 12.9307 112.728 13.1546 113.201 13.6025ZM112.298 19.1585C112.723 18.8712 113.048 18.4586 113.228 17.9781V16.6452H110.811C110.114 16.6452 109.609 16.7719 109.298 17.0254C108.986 17.2789 108.83 17.6271 108.829 18.07C108.821 18.2801 108.864 18.489 108.953 18.679C109.043 18.8691 109.178 19.0347 109.345 19.1619C109.689 19.4297 110.174 19.5634 110.798 19.5628C111.386 19.565 111.886 19.4303 112.298 19.1585Z" fill="white"/>
<path d="M123.02 10V20.0683H122.357V18.3991C122.095 18.9298 121.685 19.373 121.176 19.6748C120.652 19.9774 120.056 20.132 119.451 20.1221C118.823 20.1309 118.205 19.9716 117.659 19.6607C117.129 19.3602 116.693 18.9185 116.399 18.385C116.089 17.8152 115.932 17.1746 115.944 16.5261C115.933 15.8752 116.089 15.2324 116.399 14.6597C116.69 14.1253 117.125 13.6834 117.655 13.3848C118.202 13.0783 118.82 12.9214 119.447 12.93C120.045 12.9206 120.635 13.0756 121.151 13.3782C121.654 13.6774 122.066 14.1093 122.34 14.6266V10H123.02ZM120.948 19.1306C121.377 18.8776 121.73 18.5117 121.966 18.0727C122.211 17.594 122.34 17.0637 122.34 16.5257C122.34 15.9877 122.211 15.4574 121.966 14.9786C121.729 14.5402 121.377 14.1747 120.948 13.9216C120.502 13.6723 119.999 13.5414 119.488 13.5414C118.977 13.5414 118.474 13.6723 118.028 13.9216C117.598 14.1745 117.246 14.5404 117.01 14.9795C116.764 15.4582 116.636 15.9885 116.636 16.5265C116.636 17.0645 116.764 17.5948 117.01 18.0735C117.246 18.5124 117.598 18.8781 118.028 19.1306C118.474 19.3798 118.977 19.5107 119.488 19.5107C119.999 19.5107 120.502 19.3798 120.948 19.1306Z" fill="white"/>
<path d="M130.329 19.6605C129.796 19.3582 129.357 18.9144 129.06 18.3782C128.757 17.8079 128.599 17.172 128.599 16.5263C128.599 15.8806 128.757 15.2447 129.06 14.6744C129.357 14.1382 129.796 13.6944 130.329 13.3921C130.886 13.0893 131.509 12.9307 132.142 12.9307C132.776 12.9307 133.399 13.0893 133.955 13.3921C134.489 13.6944 134.928 14.1382 135.225 14.6744C135.528 15.2447 135.686 15.8806 135.686 16.5263C135.686 17.172 135.528 17.8079 135.225 18.3782C134.928 18.9144 134.489 19.3582 133.955 19.6605C133.399 19.9633 132.776 20.1219 132.142 20.1219C131.509 20.1219 130.886 19.9633 130.329 19.6605ZM133.602 19.1312C134.032 18.8783 134.384 18.5124 134.62 18.0733C134.866 17.5946 134.994 17.0643 134.994 16.5263C134.994 15.9883 134.866 15.458 134.62 14.9793C134.384 14.5405 134.032 14.1747 133.602 13.9214C133.156 13.6721 132.654 13.5412 132.142 13.5412C131.631 13.5412 131.129 13.6721 130.683 13.9214C130.253 14.1747 129.901 14.5405 129.665 14.9793C129.419 15.458 129.291 15.9883 129.291 16.5263C129.291 17.0643 129.419 17.5946 129.665 18.0733C129.901 18.5121 130.253 18.8777 130.683 19.1304C131.129 19.3797 131.631 19.5105 132.142 19.5105C132.654 19.5105 133.156 19.3797 133.602 19.1304V19.1312Z" fill="white"/>
<path d="M143.358 13.7046C143.874 14.2198 144.132 14.9615 144.132 15.9296V20.0716H143.453V15.9827C143.453 15.1874 143.251 14.5816 142.849 14.1652C142.446 13.7488 141.882 13.5406 141.158 13.5406C140.325 13.5406 139.669 13.7891 139.19 14.2861C138.71 14.7831 138.47 15.4525 138.47 16.2941V20.0666H137.791V12.9839H138.439V14.5164C138.677 14.0262 139.058 13.6195 139.532 13.35C140.017 13.0689 140.589 12.9286 141.25 12.9292C142.139 12.9303 142.842 13.1888 143.358 13.7046Z" fill="white"/>
<path d="M153.935 19.62C153.75 19.7908 153.53 19.9184 153.29 19.9936C153.029 20.0795 152.756 20.1229 152.482 20.122C151.867 20.122 151.391 19.9525 151.056 19.6134C150.721 19.2743 150.554 18.8016 150.554 18.1952V13.5686H149.25V12.9887H150.554V11.438H151.233V12.9854H153.487V13.5653H151.233V18.1215C151.233 18.5832 151.343 18.9338 151.564 19.1735C151.787 19.4129 152.114 19.533 152.549 19.533C152.953 19.5475 153.346 19.4066 153.649 19.1396L153.935 19.62Z" fill="white"/>
<path d="M161.389 13.7046C161.906 14.2198 162.164 14.9615 162.163 15.9296V20.0716H161.485V15.9827C161.485 15.1874 161.284 14.5816 160.881 14.1652C160.478 13.7488 159.915 13.5406 159.191 13.5406C158.358 13.5406 157.701 13.7891 157.222 14.2861C156.742 14.7831 156.502 15.4525 156.502 16.2941V20.0666H155.823V10H156.502V14.4642C156.739 13.984 157.119 13.5885 157.589 13.3318C158.069 13.0651 158.635 12.9317 159.287 12.9317C160.173 12.9311 160.873 13.1888 161.389 13.7046Z" fill="white"/>
<path d="M170.961 16.6892H164.865C164.873 17.2084 165.019 17.7161 165.286 18.1613C165.543 18.5845 165.912 18.9285 166.352 19.1554C166.82 19.397 167.341 19.5193 167.868 19.5116C168.308 19.5166 168.745 19.432 169.151 19.2631C169.536 19.1023 169.874 18.848 170.135 18.5233L170.529 18.9715C170.217 19.3459 169.819 19.6392 169.369 19.8264C168.824 20.0472 168.238 20.1468 167.651 20.1182C167.064 20.0896 166.49 19.9334 165.97 19.6607C165.426 19.3642 164.975 18.9225 164.668 18.385C164.35 17.8179 164.188 17.1763 164.2 16.526C164.189 15.8815 164.341 15.2446 164.641 14.6738C164.92 14.1423 165.34 13.6984 165.856 13.3914C166.384 13.0901 166.982 12.9311 167.59 12.9299C168.198 12.9288 168.796 13.0855 169.325 13.3848C169.838 13.6893 170.256 14.1297 170.533 14.6572C170.834 15.2253 170.986 15.8602 170.975 16.5029L170.961 16.6892ZM166.25 13.8603C165.852 14.0807 165.522 14.4041 165.292 14.7964C165.048 15.2118 164.906 15.679 164.878 16.1599H170.309C170.29 15.6805 170.15 15.2136 169.902 14.803C169.663 14.4066 169.324 14.08 168.918 13.8562C168.513 13.6324 168.056 13.5192 167.593 13.5281C167.124 13.5213 166.661 13.6357 166.25 13.8603Z" fill="white"/>
<path d="M66.8508 41.0646H58.7269L57.1253 44.8214H54.0166L61.3257 28.5898H64.2951L71.6274 44.8214H68.4731L66.8508 41.0646ZM65.8561 38.6996L62.793 31.6044L59.7531 38.6996H65.8561Z" fill="white"/>
<path d="M83.5227 33.0881C84.4638 33.6044 85.2397 34.376 85.7609 35.314C86.302 36.2733 86.5728 37.3778 86.5733 38.6276C86.5739 39.8774 86.3031 40.9866 85.7609 41.9553C85.2427 42.8982 84.4663 43.6741 83.5227 44.1919C82.5721 44.7171 81.4944 44.98 80.2897 44.9806C78.6184 44.9806 77.2957 44.4239 76.3213 43.3105V49.3164H73.4199V32.4395H76.1829V34.0623C76.6549 33.4805 77.2654 33.0262 77.9586 32.741C78.6975 32.4412 79.4889 32.2919 80.2863 32.302C81.4928 32.302 82.5716 32.564 83.5227 33.0881ZM82.595 41.4359C83.2831 40.7251 83.6271 39.7898 83.6271 38.6301C83.6271 37.4703 83.2831 36.5351 82.595 35.8243C81.9059 35.1136 81.028 34.7582 79.9614 34.7582C79.3039 34.7481 78.6555 34.9122 78.0821 35.2337C77.5213 35.5523 77.0616 36.0222 76.7557 36.5898C76.4308 37.1774 76.2683 37.8575 76.2683 38.6301C76.2683 39.4027 76.4333 40.0823 76.7632 40.6688C77.0689 41.2367 77.5286 41.707 78.0896 42.0257C78.663 42.3472 79.3114 42.5113 79.9688 42.5012C81.031 42.5023 81.9064 42.1472 82.595 41.4359Z" fill="white"/>
<path d="M99.4407 33.0881C100.381 33.6048 101.157 34.3763 101.679 35.314C102.22 36.2733 102.49 37.3778 102.49 38.6276C102.49 39.8773 102.22 40.9865 101.679 41.9552C101.16 42.8978 100.384 43.6735 99.4407 44.1919C98.489 44.7171 97.4113 44.9799 96.2076 44.9805C94.537 44.9805 93.2142 44.4238 92.2393 43.3105V49.3163H89.3379V32.4395H92.0992V34.0623C92.5708 33.4803 93.1811 33.026 93.8741 32.741C94.6141 32.44 95.407 32.2902 96.206 32.3003C97.4108 32.3014 98.489 32.564 99.4407 33.0881ZM98.5122 41.4358C99.2002 40.725 99.5445 39.7898 99.5451 38.63C99.5456 37.4703 99.2013 36.535 98.5122 35.8243C97.8236 35.1135 96.9457 34.7581 95.8785 34.7581C95.2211 34.7481 94.5727 34.9122 93.9992 35.2336C93.4384 35.5522 92.9788 36.0222 92.6729 36.5897C92.3479 37.1773 92.1857 37.8574 92.1863 38.63C92.1868 39.4027 92.3512 40.0822 92.6795 40.6687C92.9852 41.2366 93.4449 41.7069 94.0059 42.0256C94.5793 42.3471 95.2277 42.5111 95.8852 42.5011C96.9485 42.5022 97.8241 42.1471 98.5122 41.4358Z" fill="white"/>
<path d="M113.338 44.5201C112.17 44.165 111.246 43.6933 110.565 43.1052L111.61 40.7633C112.273 41.2896 113.089 41.7187 114.058 42.0506C114.994 42.3772 115.978 42.5452 116.97 42.5477C118.176 42.5477 119.077 42.3544 119.673 41.9678C120.27 41.5812 120.567 41.0709 120.566 40.4369C120.572 40.221 120.531 40.0064 120.445 39.8082C120.359 39.61 120.23 39.433 120.069 39.2896C119.701 38.9684 119.271 38.7274 118.805 38.5821C118.294 38.4126 117.598 38.2193 116.716 38.0023C115.479 37.709 114.477 37.4155 113.711 37.1217C112.95 36.8311 112.273 36.357 111.739 35.7416C111.189 35.1164 110.915 34.2701 110.915 33.2025C110.908 32.3322 111.162 31.4798 111.646 30.7563C112.134 30.0223 112.869 29.4389 113.851 29.0059C114.833 28.5729 116.036 28.3564 117.459 28.3564C118.445 28.3563 119.427 28.481 120.382 28.7276C121.264 28.9414 122.103 29.3021 122.865 29.7945L121.912 32.1364C121.214 31.725 120.465 31.4054 119.685 31.1854C118.953 30.9751 118.196 30.8658 117.434 30.8607C116.242 30.8607 115.358 31.0617 114.782 31.4638C114.205 31.8658 113.915 32.399 113.911 33.0634C113.904 33.2778 113.946 33.4911 114.032 33.6877C114.118 33.8843 114.246 34.0593 114.409 34.1999C114.778 34.515 115.209 34.7517 115.673 34.8958C116.183 35.0653 116.879 35.2586 117.761 35.4757C118.968 35.7518 119.958 36.0417 120.731 36.3455C121.494 36.6393 122.174 37.1127 122.715 37.7256C123.265 38.3436 123.539 39.1783 123.539 40.2298C123.548 41.0967 123.293 41.9458 122.808 42.6645C122.321 43.3907 121.582 43.9706 120.592 44.4041C119.602 44.8376 118.394 45.0541 116.968 45.0535C115.739 45.0566 114.515 44.8768 113.338 44.5201Z" fill="white"/>
<path d="M133.7 44.1478C133.333 44.4396 132.909 44.6528 132.456 44.7741C131.954 44.9153 131.435 44.9856 130.914 44.9828C129.552 44.9828 128.5 44.6272 127.758 43.9159C127.015 43.2046 126.644 42.1688 126.644 40.8086V34.8508H124.603V32.5313H126.644V29.7031H129.546V32.5321H132.862V34.8516H129.546V40.7406C129.546 41.3437 129.692 41.8037 129.986 42.1207C130.279 42.4377 130.705 42.5962 131.263 42.5962C131.912 42.5962 132.454 42.4261 132.887 42.0859L133.7 44.1478Z" fill="white"/>
<path d="M137.853 44.172C136.871 43.6539 136.055 42.8706 135.498 41.9113C134.933 40.9454 134.651 39.8517 134.651 38.63C134.651 37.4084 134.933 36.3188 135.498 35.3612C136.058 34.4069 136.874 33.6277 137.853 33.1113C138.858 32.5706 139.987 32.3003 141.241 32.3003C142.512 32.3003 143.649 32.5706 144.652 33.1113C145.631 33.6282 146.447 34.4073 147.007 35.3612C147.572 36.3194 147.854 37.409 147.854 38.63C147.853 39.8511 147.571 40.9449 147.007 41.9113C146.45 42.8696 145.636 43.6528 144.656 44.172C143.65 44.7132 142.513 44.9838 141.245 44.9838C139.989 44.9838 138.858 44.7132 137.853 44.172ZM143.886 41.4383C144.583 40.7275 144.93 39.7923 144.93 38.6325C144.929 37.4728 144.581 36.5375 143.886 35.8268C143.19 35.116 142.308 34.7606 141.241 34.7606C140.174 34.7606 139.295 35.1152 138.605 35.8243C137.916 36.5361 137.572 37.4714 137.572 38.63C137.572 39.7887 137.916 40.7239 138.605 41.4358C139.293 42.1471 140.171 42.5028 141.238 42.5028C142.306 42.5028 143.189 42.1471 143.886 41.4358V41.4383Z" fill="white"/>
<path d="M157.808 32.302V35.0614C157.587 35.0176 157.361 34.9943 157.135 34.9918C156.006 34.9918 155.124 35.3201 154.49 35.9768C153.856 36.6334 153.539 37.5802 153.539 38.8173V44.8232H150.638V32.4395H153.399V34.2479C154.234 32.9506 155.704 32.302 157.808 32.302Z" fill="white"/>
<path d="M171.753 39.5578H162.031C162.175 40.4272 162.654 41.2055 163.366 41.7258C164.084 42.2592 164.978 42.526 166.046 42.526C167.407 42.526 168.528 42.0775 169.41 41.1807L170.965 42.9659C170.399 43.6376 169.673 44.1561 168.854 44.4735C168.002 44.8132 167.043 44.9833 165.976 44.9838C164.615 44.9838 163.416 44.7132 162.379 44.172C161.377 43.6647 160.543 42.8799 159.975 41.9113C159.411 40.9454 159.129 39.8517 159.129 38.63C159.129 37.4245 159.403 36.3384 159.952 35.372C160.488 34.4199 161.279 33.6367 162.238 33.1113C163.212 32.5706 164.311 32.3003 165.533 32.3003C166.739 32.3003 167.818 32.5668 168.77 33.0997C169.711 33.6233 170.483 34.4033 170.997 35.3488C171.53 36.3152 171.797 37.4322 171.797 38.6996C171.8 38.9009 171.785 39.1867 171.753 39.5578ZM163.18 35.4416C162.538 35.9905 162.147 36.7211 162.008 37.6335H169.039C168.915 36.7372 168.536 36.0104 167.902 35.4532C167.268 34.8959 166.479 34.6187 165.535 34.6214C164.607 34.6214 163.822 34.8948 163.18 35.4416Z" fill="white"/>
</svg>
