<svg width="240" height="24" viewBox="0 0 240 24" fill="none" xmlns="http://www.w3.org/2000/svg">
<path d="M24.0318 10.584C26.2238 10.584 27.6318 8.952 27.6318 7.368V7.336H30.8798V13.016H31.9998V2.552H30.8798V6.344H27.6318C27.5838 4.792 26.1918 3.192 24.0318 3.192C21.8398 3.192 20.4318 4.824 20.4318 6.408V7.368C20.4318 8.952 21.8398 10.584 24.0318 10.584ZM24.0318 4.2C25.5198 4.2 26.5438 5.304 26.5438 6.504V7.272C26.5438 8.472 25.5198 9.576 24.0318 9.576C22.5438 9.576 21.5198 8.472 21.5198 7.272V6.504C21.5198 5.304 22.5438 4.2 24.0318 4.2ZM24.1918 12.216H23.0558V17H32.3678V16.008H24.1918V12.216ZM34.8983 4.984H37.5863V7.16C37.5863 8.584 37.4263 9.24 36.6583 10.216C36.1783 10.84 35.2183 11.864 34.2743 12.76L35.0263 13.512C36.0343 12.52 36.7703 11.704 37.3623 11.016C37.8423 10.44 38.1143 9.992 38.1623 9.816H38.1783C38.2423 9.992 38.5783 10.504 39.0423 11.032C39.5863 11.64 40.4343 12.616 41.1383 13.32L41.8743 12.6C40.9783 11.704 40.2103 10.856 39.6823 10.2C38.8823 9.176 38.7063 8.648 38.7063 7.16V4.984H41.2823V3.992H34.8983V4.984ZM40.4983 7.496V8.52H43.0903V16.456H44.2103V2.856H43.0903V7.496H40.4983ZM47.0583 2.552H45.9383V17.176H47.0583V2.552ZM65.1568 2.552H64.0368V7.8H60.7568C60.7408 5.16 59.3968 3.592 57.1568 3.592C54.9008 3.592 53.5568 5.16 53.5568 7.816V9.32C53.5568 11.992 54.9008 13.56 57.1568 13.56C59.4128 13.56 60.7568 11.992 60.7568 9.32V8.824H64.0368V17.176H65.1568V2.552ZM59.6528 9.128C59.6528 11.56 58.6608 12.52 57.1568 12.52C55.6528 12.52 54.6608 11.56 54.6608 9.128V8.024C54.6608 5.592 55.6528 4.648 57.1568 4.648C58.6608 4.648 59.6528 5.592 59.6528 8.024V9.128ZM79.6553 2.552H78.5193V17.176H79.6553V2.552ZM68.6473 13.304H71.6553C73.4473 13.304 75.3673 13.192 77.0633 12.888L76.9193 11.88C75.1273 12.184 73.5753 12.28 71.9433 12.28H69.7833V4.888H75.5913V3.864H68.6473V13.304ZM94.2658 2.552H93.1458V7.192H89.6737V8.216H93.1458V17.176H94.2658V2.552ZM84.7938 10.104C84.0418 10.952 83.1618 11.8 82.1058 12.728L82.8578 13.512C83.8018 12.68 84.8578 11.608 85.4178 11C85.8978 10.472 86.5058 9.72 86.5538 9.512H86.5698C86.6498 9.72 87.1138 10.248 87.5938 10.76C88.2338 11.448 89.1298 12.328 90.1378 13.288L90.8738 12.52C89.6737 11.432 88.7298 10.472 88.0898 9.736C87.2258 8.744 87.1298 8.216 87.1298 6.984V3.624H85.9618V7.064C85.9618 8.328 85.8018 8.952 84.7938 10.104ZM108.044 2.552H106.908V17.176H108.044V8.92H110.476V7.912H108.044V2.552ZM98.8603 3.752H97.7243V13.16H100.556C102.076 13.16 103.98 13.048 105.692 12.744L105.548 11.736C103.804 12.04 102.204 12.136 100.668 12.136H98.8603V3.752ZM121.615 7.48H123.487V12.616H124.991V2.68H123.487V6.136H121.615V3.464H115.807V10.488H121.615V7.48ZM119.887 12.2H118.303V17.08H128.047V15.704H119.887V12.2ZM126.255 12.968H127.775V2.488H126.255V12.968ZM117.327 4.792H120.095V9.16H117.327V4.792ZM141.857 17.336V16.024H133.937V14.664H141.441V10.744H132.305V12.056H139.889V13.384H132.385V17.336H141.857ZM137.217 5.544H132.033V4.264H137.505V2.968H130.481V9.48C134.769 9.48 136.689 9.384 138.737 9.128L138.593 7.864C136.897 8.088 135.313 8.168 132.033 8.168V6.84H137.217V5.544ZM143.537 5.432H141.441V2.488H139.873V10.008H141.441V6.808H143.537V5.432ZM149.044 7.48L144.644 7.576L144.692 8.904L148.868 8.76C148.548 9.928 147.54 11.08 144.564 12.92L145.444 14.152C148.82 11.976 149.988 10.728 150.388 9.128H152.548V16.52H154.1V2.792H152.548V7.752H150.564C150.564 7.528 150.58 7.288 150.58 7.032V3.896H144.996V5.24H149.044V7.48ZM157.172 2.488H155.62V17.24H157.172V2.488ZM171.254 17.24V2.488H169.67V7.672H166.822C166.79 4.92 165.238 3.496 163.11 3.496C160.95 3.496 159.398 4.936 159.398 7.768V9.432C159.398 12.248 160.95 13.688 163.11 13.688C165.27 13.688 166.822 12.248 166.822 9.432V9.064H169.67V17.24H171.254ZM163.11 12.264C161.958 12.264 160.918 11.464 160.918 9.208V7.992C160.918 5.736 161.958 4.936 163.11 4.936C164.262 4.936 165.302 5.736 165.302 7.992V9.208C165.302 11.464 164.262 12.264 163.11 12.264ZM189.641 2.552H188.521V7.192H185.049V8.216H188.521V17.176H189.641V2.552ZM180.169 10.104C179.417 10.952 178.537 11.8 177.481 12.728L178.233 13.512C179.177 12.68 180.233 11.608 180.793 11C181.273 10.472 181.881 9.72 181.929 9.512H181.945C182.025 9.72 182.489 10.248 182.969 10.76C183.609 11.448 184.505 12.328 185.513 13.288L186.249 12.52C185.049 11.432 184.105 10.472 183.465 9.736C182.601 8.744 182.505 8.216 182.505 6.984V3.624H181.337V7.064C181.337 8.328 181.177 8.952 180.169 10.104ZM204.203 2.552H203.067V17.176H204.203V2.552ZM199.931 3.752H198.811V7.368H194.331V3.752H193.211V13.304H199.931V3.752ZM194.331 8.376H198.811V12.28H194.331V8.376ZM213.374 7.832C213.518 8.152 214.094 8.68 215.246 9.448C216.206 10.088 217.502 10.856 218.638 11.48L219.23 10.6C217.854 9.88 216.638 9.16 215.886 8.648C214.302 7.576 213.95 7.08 213.95 5.352V3.592H212.782V5.352C212.782 7.08 212.414 7.576 210.83 8.648C210.078 9.16 208.846 9.896 207.454 10.616L208.062 11.512C209.214 10.888 210.526 10.104 211.486 9.464C212.638 8.696 213.23 8.152 213.358 7.832H213.374ZM206.654 14.136V15.112H220.094V14.136H206.654Z" fill="#1DBFB3"/>
</svg>
