<svg width="720" height="200" viewBox="0 0 720 200" fill="none" xmlns="http://www.w3.org/2000/svg">
<path d="M49.4575 43.3025C46.8825 40.5675 45.5 37.5 45.5 32.5275C45.5 23.7775 51.6425 15.935 60.575 12.0575L62.8075 15.5025C54.47 20.0125 52.84 25.865 52.19 29.555C53.5325 28.86 55.29 28.6175 57.0125 28.7775C61.5225 29.195 65.0775 32.8975 65.0775 37.5C65.0775 39.8206 64.1556 42.0462 62.5147 43.6872C60.8737 45.3281 58.6481 46.25 56.3275 46.25C53.645 46.25 51.08 45.025 49.4575 43.3025ZM74.4575 43.3025C71.8825 40.5675 70.5 37.5 70.5 32.5275C70.5 23.7775 76.6425 15.935 85.575 12.0575L87.8075 15.5025C79.47 20.0125 77.84 25.865 77.19 29.555C78.5325 28.86 80.29 28.6175 82.0125 28.7775C86.5225 29.195 90.0775 32.8975 90.0775 37.5C90.0775 39.8206 89.1556 42.0462 87.5147 43.6872C85.8737 45.3281 83.6481 46.25 81.3275 46.25C78.645 46.25 76.08 45.025 74.4575 43.3025Z" fill="white"/>
<path d="M155.003 15.52C145.563 15.52 137.483 22.48 137.483 30.88V36.16C137.483 44.56 145.563 51.52 155.003 51.52C164.443 51.52 172.523 44.56 172.523 36.16V34.8H190.523V64.08H193.963V12.08H190.523V31.6H172.523V30.88C172.523 22.48 164.443 15.52 155.003 15.52ZM155.003 48.24C147.163 48.24 140.923 42.72 140.923 35.52V31.52C140.923 24.32 147.163 18.8 155.003 18.8C162.843 18.8 169.163 24.32 169.163 31.52V35.52C169.163 42.72 162.843 48.24 155.003 48.24ZM154.043 60.24H150.603V83.68H196.283V80.48H154.043V60.24ZM225.735 46.32C226.215 48.64 228.535 51.36 231.335 54.64C234.295 58.16 237.415 61.36 241.095 65.12L243.415 62.88C239.575 59.12 236.135 55.52 232.615 51.2C227.815 45.28 227.255 42.72 227.255 37.68V22.56H241.255V19.44H209.575V22.56H223.815V37.68C223.815 42.88 223.095 46.56 218.135 52.16C214.215 56.64 211.655 59.44 207.015 63.76L209.255 66.08C214.055 61.6 217.335 57.92 219.575 55.36C222.135 52.4 225.255 48.64 225.655 46.32H225.735ZM251.815 37.44H237.095V40.72H251.815V80.96H255.255V13.6H251.815V37.44ZM269.095 12.08H265.655V84.56H269.095V12.08ZM320.548 66.16C332.308 66.16 337.988 57.68 337.988 45.28V41.92H356.388V84.56H359.828V12.08H356.388V38.72H337.988V38.32C337.988 25.92 332.308 17.44 320.548 17.44C308.788 17.44 303.108 25.92 303.108 38.32V45.28C303.108 57.68 308.788 66.16 320.548 66.16ZM320.548 20.64C330.068 20.64 334.548 27.84 334.548 39.28V44.32C334.548 55.76 330.068 62.96 320.548 62.96C311.028 62.96 306.548 55.76 306.548 44.32V39.28C306.548 27.84 311.028 20.64 320.548 20.64ZM432.56 84.56V12.08H429.12V84.56H432.56ZM412.88 18.72H378.32V64.96H397.28C404.8 64.96 413.76 64.32 420.4 63.04L419.92 59.84C413.12 61.2 405.52 61.76 398.48 61.76H381.76V22H412.88V18.72ZM482.973 38.96H501.933V84.56H505.373V12.08H501.933V35.68H482.973V38.96ZM467.693 44.4C468.253 46.72 471.373 49.76 473.373 51.84C476.973 55.52 481.693 60.16 486.413 64.48L488.733 62.16C483.293 57.2 478.333 52.4 474.493 48.24C470.093 43.52 469.293 41.36 469.293 34.08V17.44H465.693V34.08C465.693 41.44 465.293 43.68 460.173 49.6C456.253 54.08 451.613 58.56 445.933 63.52L448.253 66C453.213 61.76 458.573 56.16 460.893 53.68C463.293 51.04 467.133 46.88 467.613 44.4H467.693ZM586.985 39.44H574.025V12.08H570.585V84.56H574.025V42.64H586.985V39.44ZM527.465 17.92H524.025V64.32H540.745C549.065 64.32 557.465 63.52 563.305 62.4L562.825 59.2C556.505 60.48 548.425 61.12 541.545 61.12H527.465V17.92ZM100.916 116.72V151.04H129.076V135.52H140.356V161.92H145.876V112.72H140.356V130.48H129.076V116.72H100.916ZM123.556 146.08H106.436V121.68H123.556V146.08ZM119.156 160H113.476V184H161.556V179.04H119.156V160ZM159.956 111.76H154.436V163.68H159.956V111.76ZM183.809 153.12V158H222.769V166.8H184.209V185.12H230.209V180.32H189.729V171.52H228.289V153.12H183.809ZM174.609 145.68C197.249 145.68 204.689 145.52 215.329 144.24L214.689 139.44C203.489 140.64 197.649 140.8 180.129 140.8V132.4H207.489V127.52H180.129V119.12H208.929V114.24H174.609V145.68ZM228.289 111.76H222.689V148.8H228.289V132.08H239.489V127.12H228.289V111.76ZM248.461 169.12C265.181 158.16 271.101 152.4 273.101 143.76H285.981V181.28H291.581V113.28H285.981V138.72H273.741C273.901 136.96 273.981 135.04 273.981 132.88V118.88H246.781V123.92H268.541V132.56C268.541 134.32 268.541 135.92 268.461 137.44L245.021 137.92L245.181 142.72L267.901 142C266.381 149.44 261.421 154.32 245.421 164.72L248.461 169.12ZM306.301 111.76H300.701V184.88H306.301V111.76ZM377.034 111.76H371.434V138H355.034C354.954 124.8 348.234 116.96 337.034 116.96C325.754 116.96 319.034 124.8 319.034 138.08V145.6C319.034 158.96 325.754 166.8 337.034 166.8C348.314 166.8 355.034 158.96 355.034 145.6V143.12H371.434V184.88H377.034V111.76ZM349.514 144.64C349.514 156.8 344.554 161.6 337.034 161.6C329.514 161.6 324.554 156.8 324.554 144.64V139.12C324.554 126.96 329.514 122.24 337.034 122.24C344.554 122.24 349.514 126.96 349.514 139.12V144.64ZM446.566 138.96H465.526V184.56H468.966V112.08H465.526V135.68H446.566V138.96ZM431.286 144.4C431.846 146.72 434.966 149.76 436.966 151.84C440.566 155.52 445.286 160.16 450.006 164.48L452.326 162.16C446.886 157.2 441.926 152.4 438.086 148.24C433.686 143.52 432.886 141.36 432.886 134.08V117.44H429.286V134.08C429.286 141.44 428.886 143.68 423.766 149.6C419.846 154.08 415.206 158.56 409.526 163.52L411.846 166C416.806 161.76 422.166 156.16 424.486 153.68C426.886 151.04 430.726 146.88 431.206 144.4H431.286ZM542.259 184.56V112.08H538.819V184.56H542.259ZM520.979 165.2V118.24H517.539V136.88H491.539V118.24H488.099V165.2H520.979ZM491.539 140.08H517.539V162H491.539V140.08ZM555.071 170.72V173.76H621.791V170.72H555.071ZM588.591 136.32C589.391 138.4 591.711 141.28 597.951 145.44C602.991 148.8 610.911 153.28 615.791 155.84L617.631 153.12C609.471 148.88 604.751 146.08 600.911 143.6C592.271 138 590.351 136.16 590.351 126.8V118.48H586.671V126.8C586.671 136.16 584.751 138 576.111 143.6C572.271 146.08 567.551 148.88 559.391 153.12L561.231 155.84C566.111 153.28 574.031 148.8 579.071 145.44C585.471 141.2 587.791 138.4 588.511 136.32H588.591Z" fill="white"/>
<path d="M670.543 16.6975C673.118 19.4325 674.5 22.5 674.5 27.4725C674.5 36.2225 668.358 44.065 659.425 47.9425L657.193 44.4975C665.53 39.9875 667.16 34.135 667.81 30.445C666.468 31.14 664.71 31.3825 662.988 31.2225C658.478 30.805 654.923 27.1025 654.923 22.5C654.923 20.1794 655.844 17.9538 657.485 16.3128C659.126 14.6719 661.352 13.75 663.673 13.75C666.355 13.75 668.92 14.975 670.543 16.6975ZM645.543 16.6975C648.118 19.4325 649.5 22.5 649.5 27.4725C649.5 36.2225 643.358 44.065 634.425 47.9425L632.193 44.4975C640.53 39.9875 642.16 34.135 642.81 30.445C641.468 31.14 639.71 31.3825 637.988 31.2225C633.478 30.805 629.925 27.1025 629.925 22.5C629.925 20.1794 630.847 17.9538 632.488 16.3128C634.129 14.6719 636.354 13.75 638.675 13.75C641.358 13.75 643.923 14.975 645.545 16.6975H645.543Z" fill="white"/>
</svg>
