<svg width="300" height="100" viewBox="0 0 300 100" fill="none" xmlns="http://www.w3.org/2000/svg">
<path opacity="0.5" d="M28.4212 92.78C28.4212 93.3688 28.6552 93.9335 29.0715 94.3498C29.4879 94.7661 30.0525 95 30.6413 95H51.3623C51.9511 95 52.5158 94.7661 52.9322 94.3498C53.3485 93.9335 53.5824 93.3688 53.5824 92.78V71.32H28.4212V92.78Z" fill="#F5FCFB"/>
<path opacity="0.5" d="M6.22006 45.42C5.63125 45.42 5.06663 45.6539 4.65028 46.0702C4.23393 46.4866 3.99995 47.0512 3.99995 47.64V68.36C3.99995 68.9488 4.23393 69.5134 4.65028 69.9298C5.06663 70.3461 5.63125 70.58 6.22006 70.58H27.6811V45.42H6.22006Z" fill="#F5FCFB"/>
<path opacity="0.5" d="M53.5824 23.22C53.5824 22.6312 53.3485 22.0666 52.9322 21.6503C52.5158 21.2339 51.9511 21 51.3623 21H30.6413C30.0525 21 29.4879 21.2339 29.0715 21.6503C28.6552 22.0666 28.4212 22.6312 28.4212 23.22V44.68H53.5824V23.22Z" fill="#F5FCFB"/>
<path d="M73.4746 42.9003H28.9504C27.7492 42.9003 26.5972 43.3774 25.7479 44.2268C24.8985 45.0761 24.4213 46.228 24.4213 47.4291V68.5746C24.4213 69.7757 24.8985 70.9276 25.7479 71.7769C26.5972 72.6263 27.7492 73.1034 28.9504 73.1034H35.9807L40.0509 78.6534C40.1602 78.8025 40.303 78.9238 40.4679 79.0074C40.6328 79.091 40.8151 79.1345 41 79.1345C41.1849 79.1345 41.3671 79.091 41.532 79.0074C41.6969 78.9238 41.8398 78.8025 41.9491 78.6534L46.0193 73.1034H73.4709C74.6721 73.1034 75.8241 72.6263 76.6734 71.7769C77.5228 70.9276 77.9999 69.7757 77.9999 68.5746V47.4291C78 46.2286 77.5234 45.0773 76.6748 44.2281C75.8262 43.3789 74.6752 42.9013 73.4746 42.9003Z" fill="#F5FCFB"/>
<path d="M138.86 36.0529H131.958V67.7285H138.86V54.3285H145.549V48.0263H138.86V36.0529Z" fill="#F5FCFB"/>
<path d="M100.5 77.444H131.958V89.3863H138.86V71.3151H100.5V77.444Z" fill="#F5FCFB"/>
<path d="M127.793 58.7685C120.722 59.5685 115.024 59.684 107.349 59.684V46.0085H124.34V39.8796H100.5V65.8129C114.585 65.8129 121.762 65.6974 128.393 64.7818L127.793 58.7685Z" fill="#F5FCFB"/>
<path d="M184.349 54.6752H177.158V60.8618H184.349V89.3863H191.309V36.0529H184.349V54.6752Z" fill="#F5FCFB"/>
<path d="M161.771 69.7862H157.989V60.7329H173.167V54.604H157.989V46.0085H174.922V39.8796H151.082V75.9151H160.122C166.789 75.9151 174.211 75.7418 179.305 74.884L178.593 68.8129C173.442 69.5418 166.976 69.7862 161.771 69.7862Z" fill="#F5FCFB"/>
<path d="M223.433 55.3196H227.353V73.0974H234.251V36.0574H227.353V48.9463H223.433C222.678 43.2085 218.545 38.6885 211.313 38.6885C203.256 38.6885 199.082 44.2529 199.082 50.9196V53.2974C199.082 59.964 203.256 65.5285 211.313 65.5285C218.505 65.5018 222.62 61.0351 223.433 55.3196ZM205.865 52.9418V51.2618C205.865 47.3774 207.776 44.8263 211.313 44.8263C214.851 44.8263 216.762 47.3774 216.762 51.2618V52.9418C216.762 56.7685 214.851 59.3774 211.313 59.3774C207.776 59.3774 205.865 56.804 205.865 52.9196V52.9418Z" fill="#F5FCFB"/>
<path d="M244.256 36.0529H237.3V73.0974H244.256V36.0529Z" fill="#F5FCFB"/>
<path d="M216.936 71.2974H209.576V89.3863H244.26V83.1241H216.936V71.2974Z" fill="#F5FCFB"/>
<path d="M279.096 50.1818V39.8796H272.496V50.3418C272.496 53.9685 271.509 55.9151 270.078 58.3418C269.631 59.1235 269.135 59.8761 268.593 60.5951C268.052 59.8761 267.556 59.1235 267.109 58.3418C265.678 55.9062 264.687 53.9596 264.687 50.3418V39.8796H258.087V50.1818C258.087 54.0751 257.265 56.5107 255.558 59.3285C253.904 62.0391 252.105 64.6578 250.167 67.1729L255.056 70.9107C256.922 68.364 258.136 66.6885 259.345 64.8485C260.678 62.7907 261.269 61.8174 261.487 60.9507H261.545C261.82 61.8174 262.536 62.844 264.073 64.9018C265.229 66.4173 266.713 68.2574 268.585 70.3151C270.451 68.2574 271.94 66.4173 273.096 64.9018C274.633 62.844 275.349 61.8174 275.625 60.9507H275.678C275.9 61.8174 276.505 62.7907 277.825 64.8485C279.033 66.6885 280.242 68.364 282.113 70.9107L287.002 67.1729C285.069 64.6556 283.275 62.0339 281.629 59.3196C279.922 56.5107 279.096 54.0751 279.096 50.1818Z" fill="#F5FCFB"/>
<path d="M288.927 36.0529V48.8929H282.842V55.2707H288.927V89.3863H295.887V36.0529H288.927Z" fill="#F5FCFB"/>
<path d="M112.866 5.50003H111.588V21.952H112.866V5.50003ZM108.06 6.85003H106.8V10.918H101.76V6.85003H100.5V17.596H108.06V6.85003ZM101.76 12.052H106.8V16.444H101.76V12.052Z" fill="#F5FCFB"/>
<path d="M125.148 5.84203H123.888V21.142H125.148V12.556H127.542V21.952H128.802V5.50003H127.542V11.422H125.148V5.84203ZM115.5 7.06603V17.47H117.642C119.46 17.47 121.008 17.38 122.736 17.092L122.592 15.958C120.954 16.246 119.496 16.318 117.534 16.318H116.778V8.21803H121.71V7.06603H115.5Z" fill="#F5FCFB"/>
<path d="M138.565 6.52603H131.239V14.284H138.565V6.52603ZM137.359 13.168H132.445V7.64203H137.359V13.168ZM139.645 8.12803V9.22603H142.651V11.692H139.645V12.79H142.651V17.272H143.893V5.50003H142.651V8.12803H139.645ZM135.091 16.372H133.813V21.754H144.307V20.638H135.091V16.372Z" fill="#F5FCFB"/>
<path d="M150.865 6.61603V14.338H157.201V10.846H159.739V16.786H160.981V5.71603H159.739V9.71203H157.201V6.61603H150.865ZM155.959 13.222H152.107V7.73203H155.959V13.222ZM154.969 16.354H153.691V21.754H164.509V20.638H154.969V16.354ZM164.149 5.50003H162.907V17.182H164.149V5.50003Z" fill="#F5FCFB"/>
<path d="M168.619 14.806V15.904H177.385V17.884H168.709V22.006H179.059V20.926H169.951V18.946H178.627V14.806H168.619ZM166.549 13.132C171.643 13.132 173.317 13.096 175.711 12.808L175.567 11.728C173.047 11.998 171.733 12.034 167.791 12.034V10.144H173.947V9.04603H167.791V7.15603H174.271V6.05803H166.549V13.132ZM178.627 5.50003H177.367V13.834H178.627V10.072H181.147V8.95603H178.627V5.50003Z" fill="#F5FCFB"/>
<path d="M182.27 18.406C186.032 15.94 187.364 14.644 187.814 12.7H190.712V21.142H191.972V5.84203H190.712V11.566H187.958C187.994 11.17 188.012 10.738 188.012 10.252V7.10203H181.892V8.23603H186.788V10.18C186.788 10.576 186.788 10.936 186.77 11.278L181.496 11.386L181.532 12.466L186.644 12.304C186.302 13.978 185.186 15.076 181.586 17.416L182.27 18.406ZM195.284 5.50003H194.024V21.952H195.284V5.50003Z" fill="#F5FCFB"/>
<path d="M210.302 5.50003H209.042V11.404H205.352C205.334 8.43403 203.822 6.67003 201.302 6.67003C198.764 6.67003 197.252 8.43403 197.252 11.422V13.114C197.252 16.12 198.764 17.884 201.302 17.884C203.84 17.884 205.352 16.12 205.352 13.114V12.556H209.042V21.952H210.302V5.50003ZM204.11 12.898C204.11 15.634 202.994 16.714 201.302 16.714C199.61 16.714 198.494 15.634 198.494 12.898V11.656C198.494 8.92003 199.61 7.85803 201.302 7.85803C202.994 7.85803 204.11 8.92003 204.11 11.656V12.898Z" fill="#F5FCFB"/>
<path d="M230.27 5.50003H229.01V10.72H225.104V11.872H229.01V21.952H230.27V5.50003ZM219.614 13.996C218.768 14.95 217.778 15.904 216.59 16.948L217.436 17.83C218.498 16.894 219.686 15.688 220.316 15.004C220.856 14.41 221.54 13.564 221.594 13.33H221.612C221.702 13.564 222.224 14.158 222.764 14.734C223.484 15.508 224.492 16.498 225.626 17.578L226.454 16.714C225.104 15.49 224.042 14.41 223.322 13.582C222.35 12.466 222.242 11.872 222.242 10.486V6.70603H220.928V10.576C220.928 11.998 220.748 12.7 219.614 13.996Z" fill="#F5FCFB"/>
<path d="M245.757 5.50003H244.479V21.952H245.757V5.50003ZM240.951 6.85003H239.691V10.918H234.651V6.85003H233.391V17.596H240.951V6.85003ZM234.651 12.052H239.691V16.444H234.651V12.052Z" fill="#F5FCFB"/>
<path d="M255.177 11.44C255.339 11.8 255.987 12.394 257.283 13.258C258.363 13.978 259.821 14.842 261.099 15.544L261.765 14.554C260.217 13.744 258.849 12.934 258.003 12.358C256.221 11.152 255.825 10.594 255.825 8.65003V6.67003H254.511V8.65003C254.511 10.594 254.097 11.152 252.315 12.358C251.469 12.934 250.083 13.762 248.517 14.572L249.201 15.58C250.497 14.878 251.973 13.996 253.053 13.276C254.349 12.412 255.015 11.8 255.159 11.44H255.177ZM247.617 18.532V19.63H262.737V18.532H247.617Z" fill="#F5FCFB"/>
</svg>
