<svg width="144" height="48" viewBox="0 0 144 48" fill="none" xmlns="http://www.w3.org/2000/svg">
<path opacity="0.5" d="M13.6421 44.5344C13.6421 44.817 13.7544 45.0881 13.9542 45.2879C14.1541 45.4877 14.4251 45.6 14.7077 45.6H24.6538C24.9365 45.6 25.2075 45.4877 25.4074 45.2879C25.6072 45.0881 25.7195 44.817 25.7195 44.5344V34.2336H13.6421V44.5344Z" fill="#1DBFB3"/>
<path opacity="0.5" d="M2.98558 21.8016C2.70295 21.8016 2.43193 21.9139 2.23208 22.1137C2.03223 22.3136 1.91992 22.5846 1.91992 22.8672V32.8128C1.91992 33.0954 2.03223 33.3665 2.23208 33.5663C2.43193 33.7661 2.70295 33.8784 2.98558 33.8784H13.2869V21.8016H2.98558Z" fill="#1DBFB3"/>
<path opacity="0.5" d="M25.7195 11.1456C25.7195 10.863 25.6072 10.592 25.4074 10.3921C25.2075 10.1923 24.9365 10.08 24.6538 10.08H14.7077C14.4251 10.08 14.1541 10.1923 13.9542 10.3921C13.7544 10.592 13.6421 10.863 13.6421 11.1456V21.4464H25.7195V11.1456Z" fill="#1DBFB3"/>
<path d="M35.2677 20.5921H13.8961C13.3195 20.5921 12.7666 20.8212 12.3589 21.2288C11.9512 21.6365 11.7222 22.1894 11.7222 22.766V32.9158C11.7222 33.4923 11.9512 34.0453 12.3589 34.4529C12.7666 34.8606 13.3195 35.0896 13.8961 35.0896H17.2707L19.2244 37.7536C19.2768 37.8252 19.3454 37.8834 19.4245 37.9235C19.5037 37.9637 19.5912 37.9846 19.6799 37.9846C19.7687 37.9846 19.8561 37.9637 19.9353 37.9235C20.0144 37.8834 20.083 37.8252 20.1355 37.7536L22.0892 35.0896H35.266C35.8425 35.0896 36.3955 34.8606 36.8032 34.4529C37.2109 34.0453 37.4399 33.4923 37.4399 32.9158V22.766C37.4399 22.1897 37.2111 21.6371 36.8038 21.2295C36.3965 20.8219 35.844 20.5926 35.2677 20.5921Z" fill="#1DBFB3"/>
<path d="M66.6524 17.3054H63.3394V32.5097H66.6524V26.0777H69.8631V23.0526H66.6524V17.3054Z" fill="#1DBFB3"/>
<path d="M48.2397 37.1731H63.3395V42.9054H66.6525V34.2313H48.2397V37.1731Z" fill="#1DBFB3"/>
<path d="M61.3405 28.2089C57.9464 28.5929 55.2115 28.6483 51.5272 28.6483V22.0841H59.6829V19.1422H48.2397V31.5902C55.0003 31.5902 58.4456 31.5347 61.6285 31.0953L61.3405 28.2089Z" fill="#1DBFB3"/>
<path d="M88.4874 26.2441H85.0356V29.2137H88.4874V42.9054H91.8282V17.3054H88.4874V26.2441Z" fill="#1DBFB3"/>
<path d="M77.6497 33.4974H75.8342V29.1518H83.1196V26.2099H75.8342V22.0841H83.9622V19.1422H72.519V36.4393H76.8582C80.0582 36.4393 83.6209 36.3561 86.0657 35.9443L85.7244 33.0302C83.2518 33.3801 80.1478 33.4974 77.6497 33.4974Z" fill="#1DBFB3"/>
<path d="M107.248 26.5534H109.129V35.0867H112.44V17.3075H109.129V23.4942H107.248C106.885 20.7401 104.901 18.5705 101.43 18.5705C97.5623 18.5705 95.5591 21.2414 95.5591 24.4414V25.5827C95.5591 28.7827 97.5623 31.4537 101.43 31.4537C104.882 31.4409 106.857 29.2969 107.248 26.5534ZM98.8146 25.4121V24.6057C98.8146 22.7411 99.7319 21.5166 101.43 21.5166C103.128 21.5166 104.045 22.7411 104.045 24.6057V25.4121C104.045 27.2489 103.128 28.5011 101.43 28.5011C99.7319 28.5011 98.8146 27.2659 98.8146 25.4014V25.4121Z" fill="#1DBFB3"/>
<path d="M117.242 17.3054H113.904V35.0867H117.242V17.3054Z" fill="#1DBFB3"/>
<path d="M104.129 34.2227H100.596V42.9054H117.245V39.8995H104.129V34.2227Z" fill="#1DBFB3"/>
<path d="M133.965 24.0873V19.1422H130.797V24.1641C130.797 25.9049 130.324 26.8393 129.637 28.0041C129.422 28.3793 129.184 28.7405 128.924 29.0857C128.664 28.7405 128.426 28.3793 128.212 28.0041C127.525 26.835 127.049 25.9006 127.049 24.1641V19.1422H123.881V24.0873C123.881 25.9561 123.487 27.1251 122.667 28.4777C121.874 29.7788 121.01 31.0357 120.08 32.243L122.426 34.0371C123.322 32.8147 123.905 32.0105 124.485 31.1273C125.125 30.1395 125.409 29.6723 125.513 29.2563H125.541C125.673 29.6723 126.017 30.1651 126.755 31.1529C127.309 31.8803 128.022 32.7635 128.92 33.7513C129.816 32.7635 130.531 31.8803 131.085 31.1529C131.824 30.1651 132.167 29.6723 132.299 29.2563H132.325C132.432 29.6723 132.722 30.1395 133.355 31.1273C133.936 32.0105 134.516 32.8147 135.414 34.0371L137.761 32.243C136.832 31.0347 135.971 29.7763 135.181 28.4734C134.362 27.1251 133.965 25.9561 133.965 24.0873Z" fill="#1DBFB3"/>
<path d="M138.685 17.3054V23.4686H135.764V26.5299H138.685V42.9054H142.025V17.3054H138.685Z" fill="#1DBFB3"/>
<path d="M54.1754 2.64001H53.562V10.537H54.1754V2.64001ZM51.8685 3.28802H51.2637V5.24065H48.8445V3.28802H48.2397V8.44609H51.8685V3.28802ZM48.8445 5.78497H51.2637V7.89313H48.8445V5.78497Z" fill="#1DBFB3"/>
<path d="M60.0709 2.80417H59.4661V10.1482H60.0709V6.0269H61.2201V10.537H61.8249V2.64001H61.2201V5.48257H60.0709V2.80417ZM55.4399 3.39169V8.38561H56.4681C57.3407 8.38561 58.0837 8.34241 58.9132 8.20417L58.8441 7.65985C58.0578 7.79809 57.358 7.83265 56.4162 7.83265H56.0533V3.94465H58.4207V3.39169H55.4399Z" fill="#1DBFB3"/>
<path d="M66.5108 3.1325H62.9943V6.85633H66.5108V3.1325ZM65.9319 6.32065H63.5732V3.66817H65.9319V6.32065ZM67.0292 3.90145V4.42849H68.4721V5.61217H67.0292V6.13921H68.4721V8.29058H69.0682V2.64001H68.4721V3.90145H67.0292ZM64.8433 7.85858H64.2298V10.4419H69.2669V9.90626H64.8433V7.85858Z" fill="#1DBFB3"/>
<path d="M72.4149 3.17569V6.88226H75.4562V5.20609H76.6745V8.0573H77.2706V2.74369H76.6745V4.66177H75.4562V3.17569H72.4149ZM74.8601 6.34657H73.0111V3.71137H74.8601V6.34657ZM74.3849 7.84993H73.7714V10.4419H78.9641V9.90626H74.3849V7.84993ZM78.7913 2.64001H78.1951V8.24738H78.7913V2.64001Z" fill="#1DBFB3"/>
<path d="M80.937 7.1069V7.63393H85.1447V8.58433H80.9802V10.5629H85.9482V10.0445H81.5764V9.0941H85.7409V7.1069H80.937ZM79.9434 6.30338C82.3885 6.30338 83.1921 6.2861 84.3412 6.14786L84.272 5.62946C83.0625 5.75905 82.4317 5.77634 80.5396 5.77634V4.86913H83.4945V4.34209H80.5396V3.43489H83.65V2.90785H79.9434V6.30338ZM85.7409 2.64001H85.1361V6.64034H85.7409V4.83457H86.9505V4.2989H85.7409V2.64001Z" fill="#1DBFB3"/>
<path d="M87.4892 8.8349C89.2949 7.65122 89.9343 7.02913 90.1503 6.09601H91.5413V10.1482H92.1461V2.80417H91.5413V5.55169H90.2194C90.2367 5.36161 90.2453 5.15426 90.2453 4.92098V3.40897H87.3077V3.95329H89.6578V4.88642C89.6578 5.07649 89.6578 5.2493 89.6492 5.41346L87.1176 5.46529L87.1349 5.9837L89.5887 5.90594C89.4245 6.70946 88.8889 7.23649 87.1609 8.35969L87.4892 8.8349ZM93.7359 2.64001H93.1311V10.537H93.7359V2.64001Z" fill="#1DBFB3"/>
<path d="M100.945 2.64001H100.34V5.47393H98.5687C98.56 4.04834 97.8343 3.20161 96.6247 3.20161C95.4064 3.20161 94.6807 4.04833 94.6807 5.48257V6.29473C94.6807 7.73762 95.4064 8.58433 96.6247 8.58433C97.8429 8.58433 98.5687 7.73762 98.5687 6.29473V6.0269H100.34V10.537H100.945V2.64001ZM97.9725 6.19106C97.9725 7.50433 97.4368 8.02273 96.6247 8.02273C95.8125 8.02273 95.2768 7.50433 95.2768 6.19106V5.59489C95.2768 4.28162 95.8125 3.77185 96.6247 3.77185C97.4368 3.77185 97.9725 4.28162 97.9725 5.59489V6.19106Z" fill="#1DBFB3"/>
<path d="M110.529 2.64001H109.925V5.14561H108.05V5.69858H109.925V10.537H110.529V2.64001ZM105.415 6.71809C105.009 7.17601 104.533 7.63394 103.963 8.13506L104.369 8.55842C104.879 8.10914 105.449 7.53026 105.752 7.20194C106.011 6.91682 106.339 6.51073 106.365 6.39841H106.374C106.417 6.51073 106.667 6.79586 106.927 7.07234C107.272 7.44386 107.756 7.91905 108.3 8.43746L108.698 8.02273C108.05 7.43521 107.54 6.91681 107.194 6.51937C106.728 5.98369 106.676 5.69858 106.676 5.03329V3.2189H106.045V5.07649C106.045 5.75905 105.959 6.09601 105.415 6.71809Z" fill="#1DBFB3"/>
<path d="M117.963 2.64001H117.349V10.537H117.963V2.64001ZM115.656 3.28802H115.051V5.24065H112.632V3.28802H112.027V8.44609H115.656V3.28802ZM112.632 5.78497H115.051V7.89313H112.632V5.78497Z" fill="#1DBFB3"/>
<path d="M122.485 5.49121C122.562 5.66401 122.873 5.94913 123.496 6.36385C124.014 6.70946 124.714 7.12418 125.327 7.46113L125.647 6.98593C124.904 6.59713 124.247 6.20834 123.841 5.93186C122.986 5.35298 122.796 5.08513 122.796 4.15201V3.20161H122.165V4.15201C122.165 5.08513 121.966 5.35298 121.111 5.93186C120.705 6.20834 120.04 6.60577 119.288 6.99458L119.616 7.47842C120.238 7.14146 120.947 6.71809 121.465 6.37249C122.087 5.95777 122.407 5.66401 122.476 5.49121H122.485ZM118.856 8.89538V9.42241H126.113V8.89538H118.856Z" fill="#1DBFB3"/>
</svg>
