<svg width="72" height="72" viewBox="0 0 72 72" fill="none" xmlns="http://www.w3.org/2000/svg">
<path opacity="0.5" d="M23.7612 69.84C23.7612 70.4128 23.9887 70.9622 24.3938 71.3673C24.7989 71.7724 25.3484 72 25.9213 72H46.0823C46.6552 72 47.2045 71.7724 47.6096 71.3673C48.0147 70.9622 48.2424 70.4128 48.2424 69.84V48.96H23.7612V69.84Z" fill="#1DBFB3"/>
<path opacity="0.5" d="M2.16011 23.7598C1.58721 23.7598 1.03777 23.9873 0.632668 24.3924C0.227569 24.7975 0 25.3469 0 25.9198V46.0798C0 46.6526 0.227569 47.202 0.632668 47.6071C1.03777 48.0122 1.58721 48.2398 2.16011 48.2398H23.0411V23.7598H2.16011Z" fill="#1DBFB3"/>
<path opacity="0.5" d="M48.2424 2.16C48.2424 1.58713 48.0147 1.03772 47.6096 0.632637C47.2045 0.227558 46.6552 0 46.0823 0H25.9213C25.3484 0 24.7989 0.227558 24.3938 0.632637C23.9887 1.03772 23.7612 1.58713 23.7612 2.16V23.04H48.2424V2.16Z" fill="#1DBFB3"/>
<path d="M67.5934 21.3047H24.2724C23.6934 21.3047 23.1201 21.4188 22.5852 21.6405C22.0504 21.8621 21.5644 22.187 21.1552 22.5966C20.7459 23.0061 20.4213 23.4923 20.2001 24.0273C19.9789 24.5623 19.8653 25.1357 19.8658 25.7147V46.2851C19.8658 47.4537 20.33 48.5745 21.1564 49.4009C21.9828 50.2273 23.1037 50.6915 24.2724 50.6915H31.1127L35.0729 56.0915C35.1792 56.2366 35.3183 56.3546 35.4787 56.4359C35.6392 56.5172 35.8165 56.5596 35.9963 56.5596C36.1762 56.5596 36.3536 56.5172 36.514 56.4359C36.6745 56.3546 36.8134 56.2366 36.9198 56.0915L40.88 50.6915H67.5898C68.7588 50.6915 69.88 50.2274 70.7069 49.4011C71.5339 48.5749 71.999 47.4541 72 46.2851V25.7255C72.0014 25.1458 71.8884 24.5714 71.6676 24.0354C71.4469 23.4993 71.1226 23.012 70.7133 22.6014C70.304 22.1908 69.8178 21.865 69.2824 21.6425C68.7471 21.4199 68.1731 21.3052 67.5934 21.3047Z" fill="#1DBFB3"/>
</svg>
