<?xml version="1.0" encoding="utf-8"?>
<!-- Generator: Adobe Illustrator 26.5.0, SVG Export Plug-In . SVG Version: 6.00 Build 0)  -->
<svg version="1.1" id="Layer_1" xmlns="http://www.w3.org/2000/svg" xmlns:xlink="http://www.w3.org/1999/xlink" x="0px" y="0px"
	 viewBox="0 0 144 48" style="enable-background:new 0 0 144 48;" xml:space="preserve">
<style type="text/css">
	.st0{opacity:0.5;fill:#1DBFB3;enable-background:new    ;}
	.st1{fill:#1DBFB3;}
</style>
<g>
	<path class="st0" d="M13.6,40.7c0,0.3,0.1,0.6,0.3,0.8c0.2,0.2,0.5,0.3,0.8,0.3h9.9c0.3,0,0.6-0.1,0.8-0.3c0.2-0.2,0.3-0.5,0.3-0.8
		V30.4H13.6V40.7z"/>
	<path class="st0" d="M3,18c-0.3,0-0.6,0.1-0.8,0.3C2,18.5,1.9,18.7,1.9,19V29c0,0.3,0.1,0.6,0.3,0.8C2.4,29.9,2.7,30,3,30h10.3V18
		H3z"/>
	<path class="st0" d="M25.7,7.3c0-0.3-0.1-0.6-0.3-0.8c-0.2-0.2-0.5-0.3-0.8-0.3h-9.9c-0.3,0-0.6,0.1-0.8,0.3
		c-0.2,0.2-0.3,0.5-0.3,0.8v10.3h12.1V7.3z"/>
	<path class="st1" d="M35.3,16.8H13.9c-0.6,0-1.1,0.2-1.5,0.6c-0.4,0.4-0.6,1-0.6,1.5v10.1c0,0.6,0.2,1.1,0.6,1.5
		c0.4,0.4,1,0.6,1.5,0.6h3.4l2,2.7c0.1,0.1,0.1,0.1,0.2,0.2c0.1,0,0.2,0.1,0.3,0.1c0.1,0,0.2,0,0.3-0.1c0.1,0,0.1-0.1,0.2-0.2l2-2.7
		h13.2c0.6,0,1.1-0.2,1.5-0.6c0.4-0.4,0.6-1,0.6-1.5V18.9c0-0.6-0.2-1.1-0.6-1.5C36.4,17,35.8,16.8,35.3,16.8z"/>
	<path class="st1" d="M66.7,13.5h-3.3v15.2h3.3v-6.4h3.2v-3h-3.2V13.5z"/>
	<path class="st1" d="M48.2,33.3h15.1v5.7h3.3v-8.7H48.2V33.3z"/>
	<path class="st1" d="M61.3,24.4c-3.4,0.4-6.1,0.4-9.8,0.4v-6.6h8.2v-2.9H48.2v12.4c6.8,0,10.2-0.1,13.4-0.5L61.3,24.4z"/>
	<path class="st1" d="M88.5,22.4H85v3h3.5v13.7h3.3V13.5h-3.3V22.4z"/>
	<path class="st1" d="M77.6,29.7h-1.8v-4.3h7.3v-2.9h-7.3v-4.1H84v-2.9H72.5v17.3h4.3c3.2,0,6.8-0.1,9.2-0.5l-0.3-2.9
		C83.3,29.5,80.1,29.7,77.6,29.7z"/>
	<path class="st1" d="M107.2,22.7h1.9v8.5h3.3V13.5h-3.3v6.2h-1.9c-0.4-2.8-2.3-4.9-5.8-4.9c-3.9,0-5.9,2.7-5.9,5.9v1.1
		c0,3.2,2,5.9,5.9,5.9C104.9,27.6,106.9,25.5,107.2,22.7z M98.8,21.6v-0.8c0-1.9,0.9-3.1,2.6-3.1c1.7,0,2.6,1.2,2.6,3.1v0.8
		c0,1.8-0.9,3.1-2.6,3.1C99.7,24.7,98.8,23.4,98.8,21.6L98.8,21.6z"/>
	<path class="st1" d="M117.2,13.5h-3.3v17.8h3.3V13.5z"/>
	<path class="st1" d="M104.1,30.4h-3.5v8.7h16.6v-3h-13.1V30.4z"/>
	<path class="st1" d="M134,20.2v-4.9h-3.2v5c0,1.7-0.5,2.7-1.2,3.8c-0.2,0.4-0.5,0.7-0.7,1.1c-0.3-0.3-0.5-0.7-0.7-1.1
		c-0.7-1.2-1.2-2.1-1.2-3.8v-5h-3.2v4.9c0,1.9-0.4,3-1.2,4.4c-0.8,1.3-1.7,2.6-2.6,3.8l2.3,1.8c0.9-1.2,1.5-2,2.1-2.9
		c0.6-1,0.9-1.5,1-1.9h0c0.1,0.4,0.5,0.9,1.2,1.9c0.6,0.7,1.3,1.6,2.2,2.6c0.9-1,1.6-1.9,2.2-2.6c0.7-1,1.1-1.5,1.2-1.9h0
		c0.1,0.4,0.4,0.9,1,1.9c0.6,0.9,1.2,1.7,2.1,2.9l2.3-1.8c-0.9-1.2-1.8-2.5-2.6-3.8C134.4,23.3,134,22.1,134,20.2z"/>
	<path class="st1" d="M138.7,13.5v6.2h-2.9v3.1h2.9v16.4h3.3V13.5H138.7z"/>
</g>
</svg>
