<?xml version="1.0" encoding="utf-8"?>
<!-- Generator: Adobe Illustrator 26.5.0, SVG Export Plug-In . SVG Version: 6.00 Build 0)  -->
<svg version="1.1" id="Layer_1" xmlns="http://www.w3.org/2000/svg" xmlns:xlink="http://www.w3.org/1999/xlink" x="0px" y="0px"
	 viewBox="0 0 300 100" style="enable-background:new 0 0 300 100;" xml:space="preserve">
<style type="text/css">
	.st0{opacity:0.5;fill:#F5FCFB;enable-background:new    ;}
	.st1{fill:#F5FCFB;}
</style>
<g>
	<path class="st0" d="M28.4,84.8c0,0.6,0.2,1.2,0.7,1.6c0.4,0.4,1,0.7,1.6,0.7h20.7c0.6,0,1.2-0.2,1.6-0.7c0.4-0.4,0.7-1,0.7-1.6
		V63.3H28.4V84.8z"/>
	<path class="st0" d="M6.2,37.4c-0.6,0-1.2,0.2-1.6,0.7c-0.4,0.4-0.7,1-0.7,1.6v20.7c0,0.6,0.2,1.2,0.7,1.6c0.4,0.4,1,0.7,1.6,0.7
		h21.5V37.4H6.2z"/>
	<path class="st0" d="M53.6,15.2c0-0.6-0.2-1.2-0.7-1.6c-0.4-0.4-1-0.7-1.6-0.7H30.6c-0.6,0-1.2,0.2-1.6,0.7c-0.4,0.4-0.7,1-0.7,1.6
		v21.5h25.2V15.2z"/>
	<path class="st1" d="M73.5,34.9H29c-1.2,0-2.4,0.5-3.2,1.3c-0.8,0.8-1.3,2-1.3,3.2v21.1c0,1.2,0.5,2.4,1.3,3.2
		c0.8,0.8,2,1.3,3.2,1.3h7l4.1,5.5c0.1,0.1,0.3,0.3,0.4,0.4c0.2,0.1,0.3,0.1,0.5,0.1s0.4,0,0.5-0.1c0.2-0.1,0.3-0.2,0.4-0.4l4.1-5.5
		h27.5c1.2,0,2.4-0.5,3.2-1.3c0.8-0.8,1.3-2,1.3-3.2V39.4c0-1.2-0.5-2.4-1.3-3.2C75.8,35.4,74.7,34.9,73.5,34.9z"/>
	<path class="st1" d="M138.9,28.1H132v31.7h6.9V46.3h6.7V40h-6.7V28.1z"/>
	<path class="st1" d="M100.5,69.4H132v11.9h6.9V63.3h-38.4V69.4z"/>
	<path class="st1" d="M127.8,50.8c-7.1,0.8-12.8,0.9-20.4,0.9V38h17v-6.1h-23.8v25.9c14.1,0,21.3-0.1,27.9-1L127.8,50.8z"/>
	<path class="st1" d="M184.3,46.7h-7.2v6.2h7.2v28.5h7V28.1h-7V46.7z"/>
	<path class="st1" d="M161.8,61.8H158v-9.1h15.2v-6.1H158V38h16.9v-6.1h-23.8v36h9c6.7,0,14.1-0.2,19.2-1l-0.7-6.1
		C173.4,61.5,167,61.8,161.8,61.8z"/>
	<path class="st1" d="M223.4,47.3h3.9v17.8h6.9v-37h-6.9v12.9h-3.9c-0.8-5.7-4.9-10.3-12.1-10.3c-8.1,0-12.2,5.6-12.2,12.2v2.4
		c0,6.7,4.2,12.2,12.2,12.2C218.5,57.5,222.6,53,223.4,47.3z M205.9,44.9v-1.7c0-3.9,1.9-6.4,5.4-6.4c3.5,0,5.4,2.6,5.4,6.4v1.7
		c0,3.8-1.9,6.4-5.4,6.4C207.8,51.4,205.9,48.8,205.9,44.9L205.9,44.9z"/>
	<path class="st1" d="M244.3,28.1h-7v37h7V28.1z"/>
	<path class="st1" d="M216.9,63.3h-7.4v18.1h34.7v-6.3h-27.3V63.3z"/>
	<path class="st1" d="M279.1,42.2V31.9h-6.6v10.5c0,3.6-1,5.6-2.4,8c-0.4,0.8-0.9,1.5-1.5,2.3c-0.5-0.7-1-1.5-1.5-2.3
		c-1.4-2.4-2.4-4.4-2.4-8V31.9h-6.6v10.3c0,3.9-0.8,6.3-2.5,9.1c-1.7,2.7-3.5,5.3-5.4,7.8l4.9,3.7c1.9-2.5,3.1-4.2,4.3-6.1
		c1.3-2.1,1.9-3,2.1-3.9h0.1c0.3,0.9,1,1.9,2.5,4c1.2,1.5,2.6,3.4,4.5,5.4c1.9-2.1,3.4-3.9,4.5-5.4c1.5-2.1,2.3-3.1,2.5-4h0.1
		c0.2,0.9,0.8,1.8,2.1,3.9c1.2,1.8,2.4,3.5,4.3,6.1l4.9-3.7c-1.9-2.5-3.7-5.1-5.4-7.9C279.9,48.5,279.1,46.1,279.1,42.2z"/>
	<path class="st1" d="M288.9,28.1v12.8h-6.1v6.4h6.1v34.1h7V28.1H288.9z"/>
</g>
</svg>
