<svg width="154" height="48" viewBox="0 0 154 48" fill="none" xmlns="http://www.w3.org/2000/svg">
<path opacity="0.5" d="M18.8604 43.7401C18.8604 44.0742 18.9931 44.3947 19.2294 44.631C19.4657 44.8673 19.7862 45.0001 20.1204 45.0001H31.8804C32.2145 45.0001 32.535 44.8673 32.7713 44.631C33.0076 44.3947 33.1404 44.0742 33.1404 43.7401V31.5601H18.8604V43.7401Z" fill="#1DBFB3"/>
<path opacity="0.5" d="M6.26 16.8599C5.92583 16.8599 5.60539 16.9926 5.36909 17.2289C5.13279 17.4652 5 17.7857 5 18.1199V29.8799C5 30.214 5.13279 30.5345 5.36909 30.7708C5.60539 31.0071 5.92583 31.1399 6.26 31.1399H18.44V16.8599H6.26Z" fill="#1DBFB3"/>
<path opacity="0.5" d="M33.1404 4.26C33.1404 3.92583 33.0076 3.60535 32.7713 3.36905C32.535 3.13276 32.2145 3 31.8804 3H20.1204C19.7862 3 19.4657 3.13276 19.2294 3.36905C18.9931 3.60535 18.8604 3.92583 18.8604 4.26V16.44H33.1404V4.26Z" fill="#1DBFB3"/>
<path d="M44.4295 15.4297H19.1602C18.4785 15.4297 17.8247 15.7005 17.3427 16.1825C16.8606 16.6646 16.5898 17.3184 16.5898 18.0001V30.0016C16.5898 30.6833 16.8606 31.3371 17.3427 31.8191C17.8247 32.3012 18.4785 32.572 19.1602 32.572H23.1502L25.4602 35.722C25.5223 35.8066 25.6033 35.8754 25.6969 35.9229C25.7905 35.9703 25.894 35.9951 25.9989 35.9951C26.1038 35.9951 26.2072 35.9703 26.3008 35.9229C26.3944 35.8754 26.4755 35.8066 26.5375 35.722L28.8475 32.572H44.4274C45.1091 32.572 45.7629 32.3012 46.245 31.8191C46.727 31.3371 46.9978 30.6833 46.9978 30.0016V18.0001C46.9978 17.3187 46.7273 16.6653 46.2457 16.1833C45.7641 15.7013 45.1109 15.4302 44.4295 15.4297Z" fill="#1DBFB3"/>
<path d="M75.7574 11.3999H72.4961V26.3666H75.7574V20.0351H78.9179V17.0573H75.7574V11.3999Z" fill="#1DBFB3"/>
<path d="M57.6328 30.9574H72.4966V36.6001H75.7579V28.0615H57.6328V30.9574Z" fill="#1DBFB3"/>
<path d="M70.5289 22.1309C67.1878 22.511 64.4956 22.5656 60.8689 22.5656V16.1039H68.8972V13.208H57.6328V25.4615C64.2877 25.4615 67.6792 25.4069 70.8124 24.9743L70.5289 22.1309Z" fill="#1DBFB3"/>
<path d="M97.2513 20.1989H93.8535V23.1221H97.2513V36.5999H100.54V11.3999H97.2513V20.1989Z" fill="#1DBFB3"/>
<path d="M86.5837 27.3389H84.7966V23.0612H91.9681V20.1632H84.7966V16.1039H92.7976V13.208H81.5332V30.2348H85.8046C88.9546 30.2348 92.4616 30.1529 94.8682 29.7476L94.5322 26.8769C92.0983 27.2297 89.0428 27.3389 86.5837 27.3389Z" fill="#1DBFB3"/>
<path d="M115.719 20.493H117.571V28.893H120.83V11.3916H117.571V17.4816H115.719C115.362 14.7705 113.409 12.6348 109.992 12.6348C106.185 12.6348 104.213 15.264 104.213 18.414V19.5354C104.213 22.6854 106.185 25.3167 109.992 25.3167C113.39 25.3146 115.334 23.1999 115.719 20.493ZM107.417 19.3695V18.5799C107.417 16.7445 108.32 15.5391 109.992 15.5391C111.664 15.5391 112.567 16.7445 112.567 18.5799V19.3737C112.567 21.1818 111.664 22.4145 109.992 22.4145C108.32 22.4145 107.417 21.2049 107.417 19.3695Z" fill="#1DBFB3"/>
<path d="M125.557 11.3999H122.271V28.9034H125.557V11.3999Z" fill="#1DBFB3"/>
<path d="M112.648 28.0532H109.171V36.6002H125.559V33.6413H112.648V28.0532Z" fill="#1DBFB3"/>
<path d="M142.019 18.0737V13.208H138.901V18.1598C138.901 19.8734 138.435 20.7932 137.759 21.9398C137.547 22.3092 137.313 22.6648 137.057 23.0045C136.801 22.6648 136.567 22.3092 136.356 21.9398C135.68 20.789 135.211 19.8692 135.211 18.1598V13.2164H132.093V18.0821C132.093 19.9238 131.704 21.0746 130.898 22.4039C130.117 23.6857 129.267 24.9238 128.351 26.1125L130.661 27.8765C131.543 26.6753 132.116 25.8815 132.687 25.0121C133.317 24.0419 133.596 23.5799 133.699 23.1725H133.727C133.857 23.5799 134.195 24.0671 134.921 25.0394C135.467 25.7555 136.169 26.6249 137.053 27.5951C137.935 26.6249 138.638 25.7555 139.184 25.0394C139.911 24.0671 140.249 23.5694 140.379 23.1725H140.405C140.51 23.5799 140.795 24.0419 141.419 25.0121C141.99 25.8815 142.561 26.6753 143.445 27.8765L145.755 26.1125C144.839 24.9243 143.989 23.6862 143.21 22.4039C142.41 21.0662 142.019 19.9154 142.019 18.0737Z" fill="#1DBFB3"/>
<path d="M146.664 11.3999V17.4668H143.789V20.4803H146.664V36.5999H149.953V11.3999H146.664Z" fill="#1DBFB3"/>
</svg>
