<svg width="200" height="60" viewBox="0 0 200 60" fill="none" xmlns="http://www.w3.org/2000/svg">
<path d="M192.269 0H7.73105C3.46131 0 0 3.41452 0 7.62655V52.3734C0 56.5855 3.46131 60 7.73105 60H192.269C196.539 60 200 56.5855 200 52.3734V7.62655C200 3.41452 196.539 0 192.269 0Z" fill="black"/>
<path d="M62.1961 16.395H56.6834L55.4756 19.0682H54.7295L59.1015 9.56982H59.7937L64.1624 19.0682H63.4163L62.1961 16.395ZM61.9383 15.8151L59.4373 10.3295L56.9503 15.8118L61.9383 15.8151Z" fill="white"/>
<path d="M71.0096 11.9854L67.8048 19.0681H67.1126L63.9219 11.9854H64.6414L67.4658 18.3217L70.3166 11.9854H71.0096Z" fill="white"/>
<path d="M76.6848 12.6025C77.1557 13.0498 77.3911 13.7079 77.3911 14.5766V19.0681H76.7396V17.8057C76.5133 18.2217 76.1665 18.5598 75.7448 18.7757C75.3126 19.0082 74.7931 19.1245 74.1863 19.1245C73.3988 19.1245 72.7765 18.9389 72.3194 18.5678C72.1087 18.3912 71.9384 18.1715 71.8198 17.9235C71.7013 17.6756 71.6373 17.4051 71.6322 17.1303C71.6271 16.8556 71.681 16.5829 71.7902 16.3307C71.8995 16.0785 72.0616 15.8527 72.2656 15.6684C72.6867 15.3017 73.3587 15.1183 74.2816 15.1183H76.7122V14.5484C76.7122 13.8857 76.5334 13.3837 76.1758 13.0424C75.8183 12.7011 75.2957 12.5296 74.6083 12.528C74.1469 12.5261 73.6892 12.6089 73.2578 12.7723C72.8553 12.918 72.4842 13.139 72.1644 13.4234L71.8254 12.9347C72.1977 12.6065 72.6312 12.355 73.1012 12.1949C73.6029 12.0184 74.1311 11.9291 74.663 11.9307C75.5406 11.9307 76.2145 12.1546 76.6848 12.6025ZM75.7821 18.1585C76.2073 17.8711 76.5324 17.4586 76.7122 16.9781V15.6452H74.2957C73.5983 15.6452 73.0934 15.7719 72.7812 16.0254C72.4689 16.2789 72.3128 16.6271 72.3128 17.07C72.3046 17.2801 72.3472 17.4891 72.4371 17.6792C72.527 17.8693 72.6616 18.0349 72.8293 18.1619C73.1725 18.4297 73.6566 18.5631 74.2816 18.562C74.8702 18.5642 75.3704 18.4297 75.7821 18.1585Z" fill="white"/>
<path d="M80.1337 10.1059C80.0801 10.0569 80.0376 9.99703 80.009 9.93032C79.9804 9.86361 79.9664 9.79157 79.9679 9.71902C79.9679 9.64595 79.9823 9.5736 80.0103 9.50611C80.0383 9.43862 80.0794 9.3773 80.1311 9.32568C80.1828 9.27405 80.2443 9.23312 80.3118 9.20524C80.3794 9.17735 80.4518 9.16305 80.525 9.16316C80.5976 9.16195 80.6698 9.17508 80.7374 9.2018C80.8049 9.22853 80.8666 9.26832 80.9187 9.3189C80.9721 9.36806 81.0144 9.42794 81.043 9.49461C81.0716 9.56129 81.0857 9.63324 81.0845 9.70576C81.0847 9.77882 81.0705 9.8512 81.0426 9.91873C81.0147 9.98627 80.9738 10.0476 80.9221 10.0993C80.8704 10.151 80.809 10.1919 80.7414 10.2197C80.6738 10.2476 80.6014 10.2618 80.5283 10.2616C80.4554 10.2633 80.383 10.2503 80.3152 10.2236C80.2475 10.1968 80.1857 10.1568 80.1337 10.1059ZM80.1876 11.9855H80.8665V19.0683H80.1876V11.9855Z" fill="white"/>
<path d="M83.7314 9H84.4104V19.0683H83.7314V9Z" fill="white"/>
<path d="M91.6851 12.6025C92.1554 13.0498 92.3905 13.7079 92.3905 14.5766V19.0681H91.739V17.8057C91.5127 18.2218 91.166 18.5599 90.7442 18.7757C90.3093 19.0071 89.7887 19.1225 89.1824 19.122C88.3949 19.122 87.7726 18.9364 87.3155 18.5653C87.1049 18.3887 86.9346 18.169 86.816 17.9211C86.6975 17.6732 86.6335 17.4028 86.6283 17.128C86.6231 16.8533 86.6769 16.5807 86.786 16.3285C86.8951 16.0763 87.057 15.8503 87.2608 15.6659C87.6819 15.2992 88.3542 15.1159 89.2777 15.1159H91.7083V14.5459C91.7083 13.8832 91.5295 13.3812 91.1719 13.0399C90.8144 12.6986 90.2946 12.528 89.6126 12.528C89.1511 12.5262 88.6931 12.609 88.2614 12.7723C87.8589 12.9182 87.4879 13.1392 87.168 13.4235L86.8289 12.9347C87.2016 12.6066 87.6355 12.3552 88.1055 12.1949C88.6069 12.0184 89.1349 11.929 89.6665 11.9307C90.543 11.9307 91.2159 12.1546 91.6851 12.6025ZM90.7823 18.1585C91.2071 17.8707 91.532 17.4582 91.7124 16.9781V15.6452H89.2951C88.5977 15.6452 88.0931 15.7719 87.7814 16.0254C87.4697 16.2789 87.3136 16.6271 87.313 17.07C87.3048 17.2801 87.3473 17.489 87.4371 17.679C87.5268 17.8691 87.6612 18.0347 87.8287 18.1619C88.173 18.4297 88.6574 18.5631 89.2819 18.562C89.8721 18.5642 90.3734 18.4297 90.7856 18.1585H90.7823Z" fill="white"/>
<path d="M100.541 12.3856C101.071 12.6836 101.507 13.1241 101.799 13.6572C102.108 14.2299 102.265 14.8727 102.254 15.5236C102.266 16.173 102.109 16.8144 101.799 17.385C101.505 17.9173 101.071 18.3585 100.543 18.6599C99.9971 18.9708 99.3783 19.1301 98.7503 19.1213C98.147 19.1294 97.5529 18.9722 97.0327 18.6665C96.5233 18.3662 96.111 17.926 95.8448 17.3983V19.0675H95.1924V9H95.8713V13.6001C96.141 13.0872 96.5506 12.6613 97.0526 12.3716C97.5689 12.0756 98.1552 11.9234 98.7503 11.9309C99.3768 11.9226 99.9944 12.0794 100.541 12.3856ZM100.175 18.1306C100.607 17.8794 100.962 17.5132 101.199 17.0727C101.445 16.594 101.573 16.0637 101.573 15.5257C101.573 14.9877 101.445 14.4574 101.199 13.9786C100.962 13.5383 100.607 13.1722 100.175 12.9208C99.7289 12.6643 99.2222 12.533 98.7081 12.5406C98.1959 12.5324 97.6912 12.6638 97.2482 12.9208C96.8184 13.1737 96.4663 13.5396 96.2303 13.9786C95.9845 14.4574 95.8564 14.9877 95.8564 15.5257C95.8564 16.0637 95.9845 16.594 96.2303 17.0727C96.4661 17.5119 96.8183 17.8779 97.2482 18.1306C97.6912 18.3875 98.1959 18.5189 98.7081 18.5108C99.2222 18.5184 99.7289 18.387 100.175 18.1306Z" fill="white"/>
<path d="M104.356 9H105.031V19.0683H104.353L104.356 9Z" fill="white"/>
<path d="M113.888 15.6892H107.791C107.8 16.2084 107.945 16.7161 108.212 17.1613C108.469 17.5845 108.838 17.9285 109.278 18.1554C109.746 18.3954 110.266 18.5166 110.792 18.5083C111.232 18.5133 111.669 18.4287 112.075 18.2597C112.46 18.099 112.798 17.8447 113.059 17.52L113.453 17.9681C113.141 18.3425 112.743 18.6359 112.293 18.8231C111.748 19.0439 111.162 19.1435 110.575 19.1149C109.988 19.0863 109.414 18.9301 108.894 18.6574C108.351 18.3612 107.901 17.9208 107.594 17.385C107.276 16.8177 107.114 16.1762 107.126 15.526C107.115 14.8814 107.267 14.2445 107.567 13.6738C107.846 13.1421 108.267 12.6982 108.783 12.3914C109.311 12.0901 109.908 11.9311 110.516 11.9299C111.125 11.9288 111.723 12.0855 112.252 12.3848C112.764 12.6898 113.182 13.1301 113.46 13.6572C113.76 14.2253 113.912 14.8602 113.902 15.5029L113.888 15.6892ZM109.176 12.8603C108.779 13.0807 108.448 13.4041 108.219 13.7964C107.975 14.2118 107.833 14.679 107.804 15.1599H113.238C113.219 14.6806 113.079 14.2139 112.831 13.803C112.593 13.4066 112.253 13.08 111.848 12.8562C111.443 12.6324 110.986 12.5192 110.523 12.5281C110.053 12.5207 109.589 12.6351 109.176 12.8603Z" fill="white"/>
<path d="M120.451 18.6605C119.917 18.3586 119.478 17.9147 119.181 17.3782C118.878 16.8079 118.72 16.172 118.72 15.5263C118.72 14.8806 118.878 14.2447 119.181 13.6744C119.478 13.1379 119.917 12.694 120.451 12.3921C121.007 12.0893 121.63 11.9307 122.263 11.9307C122.896 11.9307 123.52 12.0893 124.076 12.3921C124.609 12.6941 125.049 13.138 125.346 13.6744C125.649 14.2447 125.807 14.8806 125.807 15.5263C125.807 16.172 125.649 16.8079 125.346 17.3782C125.049 17.9146 124.609 18.3585 124.076 18.6605C123.52 18.9633 122.896 19.122 122.263 19.122C121.63 19.122 121.007 18.9633 120.451 18.6605ZM123.725 18.1304C124.155 17.8775 124.507 17.5116 124.743 17.0725C124.988 16.5936 125.116 16.0634 125.116 15.5255C125.116 14.9876 124.988 14.4573 124.743 13.9785C124.507 13.5397 124.155 13.1739 123.725 12.9206C123.279 12.6713 122.776 12.5404 122.265 12.5404C121.754 12.5404 121.251 12.6713 120.805 12.9206C120.375 13.1737 120.023 13.5399 119.787 13.9793C119.542 14.458 119.414 14.9883 119.414 15.5263C119.414 16.0643 119.542 16.5946 119.787 17.0733C120.023 17.5123 120.376 17.8779 120.805 18.1304C121.251 18.3797 121.754 18.5106 122.265 18.5106C122.776 18.5106 123.279 18.3797 123.725 18.1304Z" fill="white"/>
<path d="M133.48 12.7046C133.997 13.2198 134.255 13.9615 134.254 14.9296V19.0716H133.576V14.9827C133.576 14.1874 133.374 13.5816 132.971 13.1652C132.568 12.7488 132.005 12.5406 131.281 12.5406C130.448 12.5406 129.791 12.7891 129.312 13.2861C128.833 13.7831 128.593 14.4525 128.593 15.2941V19.0666H127.911V11.9839H128.563V13.5164C128.801 13.0262 129.181 12.6195 129.655 12.35C130.139 12.0689 130.712 11.9286 131.373 11.9292C132.262 11.9303 132.964 12.1888 133.48 12.7046Z" fill="white"/>
<path d="M144.058 18.62C143.873 18.7907 143.653 18.918 143.413 18.9928C143.152 19.0793 142.88 19.123 142.605 19.122C141.99 19.122 141.514 18.9525 141.18 18.6134C140.845 18.2743 140.677 17.8016 140.678 17.1952V12.5686H139.374V11.9887H140.678V10.438H141.357V11.9854H143.611V12.5653H141.357V17.1215C141.357 17.5832 141.467 17.9338 141.689 18.1735C141.91 18.4132 142.238 18.533 142.673 18.533C143.076 18.5477 143.47 18.4068 143.773 18.1396L144.058 18.62Z" fill="white"/>
<path d="M151.512 12.7046C152.029 13.2198 152.287 13.9615 152.286 14.9296V19.0716H151.607V14.9827C151.607 14.1874 151.406 13.5816 151.003 13.1652C150.6 12.7488 150.037 12.5406 149.313 12.5406C148.479 12.5406 147.823 12.7891 147.344 13.2861C146.865 13.7831 146.625 14.4525 146.624 15.2941V19.0666H145.945V9H146.624V13.4642C146.861 12.9836 147.24 12.5878 147.71 12.331C148.19 12.0642 148.756 11.9309 149.407 11.9309C150.294 11.9309 150.996 12.1888 151.512 12.7046Z" fill="white"/>
<path d="M161.084 15.6892H154.988C154.996 16.2084 155.141 16.7161 155.409 17.1613C155.666 17.5845 156.034 17.9285 156.475 18.1554C156.943 18.3954 157.463 18.5166 157.988 18.5083C158.429 18.5133 158.865 18.4287 159.272 18.2597C159.656 18.099 159.995 17.8447 160.256 17.52L160.649 17.9681C160.337 18.3425 159.939 18.6359 159.489 18.8231C158.944 19.0439 158.358 19.1435 157.771 19.1149C157.184 19.0863 156.611 18.9301 156.09 18.6574C155.548 18.3612 155.098 17.9208 154.79 17.385C154.472 16.8177 154.31 16.1762 154.322 15.526C154.312 14.8814 154.464 14.2445 154.764 13.6738C155.042 13.1421 155.463 12.6982 155.979 12.3914C156.507 12.0901 157.105 11.9311 157.713 11.9299C158.321 11.9288 158.919 12.0855 159.448 12.3848C159.96 12.6898 160.378 13.1301 160.656 13.6572C160.957 14.2253 161.109 14.8602 161.098 15.5029L161.084 15.6892ZM156.373 12.8603C155.975 13.0807 155.645 13.4041 155.415 13.7964C155.171 14.2118 155.029 14.679 155.001 15.1599H160.432C160.413 14.6806 160.273 14.2139 160.025 13.803C159.786 13.4066 159.447 13.08 159.042 12.8562C158.637 12.6324 158.18 12.5192 157.717 12.5281C157.247 12.5211 156.784 12.6356 156.373 12.8603Z" fill="white"/>
<path d="M65.5452 35.7092H68.3347V42.0315C67.4817 42.7002 66.5132 43.207 65.4772 43.5267C64.3925 43.8733 63.2604 44.0491 62.1215 44.0478C60.5033 44.0478 59.0443 43.6965 57.7445 42.9941C56.4765 42.3223 55.4175 41.3153 54.6831 40.0831C53.9431 38.8449 53.5728 37.4474 53.5723 35.8906C53.5717 34.3338 53.942 32.9365 54.6831 31.6989C55.4198 30.4642 56.4832 29.4566 57.7561 28.7871C59.0631 28.0846 60.5332 27.7334 62.1663 27.7334C63.4971 27.7334 64.7065 27.9524 65.7947 28.3903C66.8496 28.8052 67.7902 29.4655 68.5386 30.3163L66.6792 32.1305C65.4695 30.9216 64.0108 30.3172 62.3031 30.3172C61.1839 30.3172 60.1892 30.5513 59.3187 31.0196C58.4688 31.4726 57.7633 32.1552 57.2828 32.9896C56.792 33.8362 56.5464 34.8026 56.5458 35.8889C56.531 36.8898 56.7856 37.8763 57.2828 38.7452C57.7671 39.5845 58.4732 40.2743 59.3237 40.7392C60.1936 41.223 61.1801 41.4648 62.2832 41.4648C63.5228 41.4648 64.6112 41.1929 65.5485 40.6489L65.5452 35.7092Z" fill="white"/>
<path d="M74.0707 43.1868C73.1115 42.6804 72.3141 41.9148 71.7694 40.9774C71.2168 40.0331 70.9404 38.9642 70.9404 37.7707C70.9404 36.5773 71.2168 35.5122 71.7694 34.5756C72.317 33.6436 73.1139 32.8827 74.0707 32.3787C75.0538 31.8502 76.1575 31.5859 77.3816 31.5859C78.6206 31.5859 79.7317 31.8502 80.7149 32.3787C81.6721 32.8832 82.4693 33.6446 83.017 34.5773C83.5696 35.5161 83.846 36.5811 83.846 37.7724C83.846 38.9636 83.5696 40.0325 83.017 40.9791C82.4719 41.9165 81.6743 42.6821 80.7149 43.1884C79.7328 43.7136 78.6217 43.9762 77.3816 43.9762C76.1575 43.9762 75.0538 43.7131 74.0707 43.1868ZM79.9672 40.5127C80.6497 39.818 80.991 38.904 80.991 37.7707C80.991 36.6375 80.6497 35.7238 79.9672 35.0296C79.2869 34.3348 78.425 33.9875 77.3816 33.9875C76.3382 33.9875 75.4802 34.3348 74.8076 35.0296C74.135 35.7243 73.7987 36.6383 73.7987 37.7716C73.7987 38.9048 74.135 39.8188 74.8076 40.5135C75.4807 41.2083 76.3387 41.5557 77.3816 41.5557C78.4244 41.5557 79.2863 41.208 79.9672 40.5127Z" fill="white"/>
<path d="M88.7005 43.1868C87.7412 42.6806 86.9438 41.915 86.3993 40.9774C85.8466 40.0331 85.5703 38.9642 85.5703 37.7707C85.5703 36.5773 85.8466 35.5122 86.3993 34.5756C86.9465 33.6433 87.7436 32.8824 88.7005 32.3787C89.6826 31.8502 90.7862 31.5859 92.0115 31.5859C93.2505 31.5859 94.3616 31.8502 95.3448 32.3787C96.3018 32.8834 97.099 33.6448 97.6469 34.5773C98.1995 35.5161 98.4758 36.5811 98.4758 37.7724C98.4758 38.9636 98.1995 40.0325 97.6469 40.9791C97.1016 41.9164 96.304 42.6818 95.3448 43.1884C94.3594 43.7136 93.2472 43.9762 92.0082 43.9762C90.784 43.9762 89.6815 43.7131 88.7005 43.1868ZM94.5962 40.5127C95.2771 39.818 95.6173 38.904 95.6167 37.7707C95.6161 36.6375 95.2749 35.7238 94.5929 35.0296C93.9131 34.3348 93.0516 33.9875 92.0082 33.9875C90.9647 33.9875 90.1068 34.3348 89.4342 35.0296C88.761 35.7243 88.4248 36.6383 88.4253 37.7716C88.4259 38.9048 88.7622 39.8188 89.4342 40.5135C90.1068 41.2083 90.9647 41.5557 92.0082 41.5557C93.0516 41.5557 93.9131 41.208 94.5929 40.5127H94.5962Z" fill="white"/>
<path d="M113.21 31.7203V41.9882C113.21 46.2484 111.033 48.3785 106.679 48.3785C105.561 48.3845 104.446 48.2356 103.368 47.9361C102.326 47.6423 101.464 47.2157 100.784 46.6562L102.054 44.5264C102.583 44.9638 103.252 45.3151 104.061 45.5801C104.855 45.8415 105.685 45.9752 106.521 45.9761C107.851 45.9761 108.826 45.674 109.446 45.0698C110.066 44.4657 110.376 43.5442 110.376 42.3055V41.6709C109.887 42.2026 109.281 42.6138 108.607 42.8721C107.876 43.1503 107.099 43.2885 106.316 43.2797C105.167 43.2797 104.128 43.0342 103.199 42.5433C102.287 42.0702 101.526 41.3532 100.999 40.4723C100.462 39.5809 100.194 38.5612 100.194 37.413C100.195 36.2649 100.463 35.249 100.999 34.3654C101.527 33.4901 102.288 32.7797 103.199 32.3142C104.129 31.831 105.168 31.5894 106.316 31.5894C107.134 31.5788 107.946 31.7251 108.709 32.0202C109.412 32.2966 110.033 32.749 110.512 33.334V31.7203H113.21ZM109.389 39.9123C110.076 39.2705 110.42 38.4358 110.42 37.408C110.42 36.3968 110.076 35.5737 109.388 34.9386C108.7 34.3035 107.819 33.9862 106.746 33.9868C105.657 33.9868 104.769 34.304 104.081 34.9386C103.394 35.5731 103.05 36.3963 103.049 37.408C103.049 38.4363 103.393 39.2711 104.081 39.9123C104.769 40.5534 105.658 40.8743 106.746 40.8749C107.821 40.8749 108.702 40.554 109.389 39.9123Z" fill="white"/>
<path d="M116.929 27.0068H119.763V43.8232H116.929V27.0068Z" fill="white"/>
<path d="M134.821 38.6745H125.319C125.46 39.5242 125.928 40.285 126.623 40.7935C127.326 41.3143 128.199 41.5747 129.242 41.5747C130.573 41.5747 131.669 41.1368 132.531 40.2609L134.05 42.0055C133.497 42.6618 132.787 43.1683 131.986 43.4784C131.157 43.8097 130.22 43.9754 129.174 43.9754C127.844 43.9754 126.672 43.7111 125.659 43.1826C124.681 42.6863 123.866 41.9194 123.312 40.9733C122.76 40.0289 122.483 38.96 122.483 37.7666C122.483 36.5881 122.752 35.5266 123.288 34.5822C123.813 33.6536 124.587 32.8903 125.523 32.3787C126.476 31.8502 127.55 31.5859 128.744 31.5859C129.923 31.5859 130.977 31.8466 131.907 32.3679C132.827 32.8796 133.581 33.6418 134.084 34.5657C134.605 35.51 134.866 36.6016 134.866 37.8403C134.866 38.0353 134.851 38.3133 134.821 38.6745ZM126.442 34.6527C125.814 35.1883 125.432 35.9021 125.297 36.794H132.168C132.046 35.9176 131.676 35.2074 131.057 34.6634C130.437 34.1194 129.666 33.8475 128.744 33.8475C127.836 33.8491 127.068 34.1183 126.442 34.6551V34.6527Z" fill="white"/>
<path d="M154.243 28.6386C155.263 29.0915 156.046 29.7409 156.59 30.587C157.134 31.4331 157.407 32.4379 157.407 33.6015C157.407 34.7497 157.134 35.7504 156.59 36.6036C156.046 37.4569 155.263 38.1102 154.243 38.5636C153.223 39.0164 152.024 39.2431 150.649 39.2437H147.066V43.8214H144.118V27.9585H150.649C152.024 27.9585 153.223 28.1852 154.243 28.6386ZM153.438 35.9351C154.101 35.3917 154.432 34.6138 154.432 33.6015C154.432 32.5892 154.101 31.8111 153.438 31.2671C152.774 30.7231 151.799 30.4511 150.513 30.4511H147.066V36.7469H150.513C151.798 36.7497 152.773 36.4791 153.438 35.9351Z" fill="white"/>
<path d="M160.309 27.0068H163.143V43.8232H160.309V27.0068Z" fill="white"/>
<path d="M175.577 32.8651C176.522 33.7184 176.995 35.0063 176.995 36.7288V43.8215H174.319V42.3486C173.956 42.8907 173.44 43.313 172.837 43.5622C172.194 43.8416 171.421 43.9813 170.516 43.9813C169.61 43.9813 168.817 43.8264 168.135 43.5166C167.498 43.2433 166.952 42.7955 166.56 42.2252C166.189 41.6727 165.995 41.0206 166.004 40.3555C166.004 39.2681 166.408 38.3958 167.217 37.7386C168.026 37.0814 169.299 36.7528 171.038 36.7528H174.167V36.5714C174.167 35.7259 173.914 35.0764 173.408 34.623C172.902 34.1696 172.149 33.9429 171.151 33.9429C170.47 33.9433 169.793 34.0503 169.144 34.2602C168.537 34.4447 167.971 34.7448 167.478 35.144L166.366 33.0814C167.054 32.5724 167.831 32.1959 168.657 31.9713C169.579 31.7104 170.534 31.5807 171.492 31.5861C173.272 31.585 174.634 32.0113 175.577 32.8651ZM172.993 41.4307C173.534 41.118 173.947 40.6242 174.16 40.0365V38.6283H171.235C169.602 38.6283 168.785 39.1648 168.785 40.2378C168.778 40.4765 168.831 40.7131 168.938 40.9266C169.045 41.1401 169.203 41.3238 169.398 41.4614C169.806 41.764 170.373 41.9151 171.099 41.9145C171.764 41.9282 172.419 41.7609 172.996 41.4307H172.993Z" fill="white"/>
<path d="M191.737 31.7202L186.069 44.7956C185.539 46.1094 184.897 47.0347 184.141 47.5715C183.386 48.1083 182.471 48.3764 181.397 48.3759C180.788 48.3751 180.183 48.2755 179.606 48.081C179.07 47.9152 178.575 47.6373 178.154 47.2658L179.288 45.1808C179.568 45.4429 179.895 45.6502 180.252 45.7921C180.607 45.9406 180.989 46.0177 181.374 46.0191C181.871 46.0191 182.283 45.8907 182.61 45.6339C182.937 45.3771 183.235 44.9466 183.506 44.3424L183.71 43.8661L178.426 31.7202H181.374L185.187 40.671L189.02 31.7244L191.737 31.7202Z" fill="white"/>
<path d="M48.1242 28.608L40.5034 24.2175L34.2363 30.2681L39.9637 35.801L48.1234 31.094C48.3412 30.9678 48.5221 30.7865 48.6478 30.5684C48.7735 30.3504 48.8397 30.1031 48.8397 29.8514C48.8397 29.5998 48.7735 29.3525 48.6478 29.1344C48.5221 28.9163 48.3412 28.7351 48.1234 28.6088L48.1242 28.608Z" fill="white"/>
<path d="M39.2119 23.4678L30.826 18.6308L12.4492 9.22021L33.2052 29.2698L39.2119 23.4678Z" fill="white"/>
<path d="M12.7539 51.0202L30.8571 41.0555L38.6719 36.5474L33.2048 31.2664L12.7539 51.0202Z" fill="white"/>
<path d="M11.223 10.0312L11.2031 50.5231L32.1721 30.2672L11.223 10.0312Z" fill="white"/>
</svg>
