<svg width="40" height="40" viewBox="0 0 40 40" fill="none" xmlns="http://www.w3.org/2000/svg">
<path d="M8.33325 32.7852C6.18325 31.5259 5.83325 29.2148 5.83325 24.5778V15.4222C5.83325 10.7852 6.18325 8.47407 8.33325 7.21481V6.66667H3.33325V33.3333H8.33325V32.7852Z" fill="#40B2FF"/>
<path d="M31.6665 7.21482C33.8165 8.47408 34.1665 10.7852 34.1665 15.4222V24.5778C34.1665 29.2148 33.8165 31.5259 31.6665 32.7852V33.3333H36.6665V6.66668H31.6665V7.21482Z" fill="#40B2FF"/>
<path d="M10.6667 25.4421V29.3305H14.5551L26.0231 17.8624L22.1348 13.9741L10.6667 25.4421ZM29.0301 14.8555C29.4345 14.4511 29.4345 13.7978 29.0301 13.3934L26.6038 10.9671C26.1994 10.5627 25.5462 10.5627 25.1418 10.9671L23.2443 12.8646L27.1326 16.753L29.0301 14.8555Z" fill="#40B2FF"/>
</svg>
