<svg width="60" height="60" viewBox="0 0 60 60" fill="none" xmlns="http://www.w3.org/2000/svg">
<path d="M11.4575 43.3025C8.8825 40.5675 7.5 37.5 7.5 32.5275C7.5 23.7775 13.6425 15.935 22.575 12.0575L24.8075 15.5025C16.47 20.0125 14.84 25.865 14.19 29.555C15.5325 28.86 17.29 28.6175 19.0125 28.7775C23.5225 29.195 27.0775 32.8975 27.0775 37.5C27.0775 39.8206 26.1556 42.0462 24.5147 43.6872C22.8737 45.3281 20.6481 46.25 18.3275 46.25C15.645 46.25 13.08 45.025 11.4575 43.3025ZM36.4575 43.3025C33.8825 40.5675 32.5 37.5 32.5 32.5275C32.5 23.7775 38.6425 15.935 47.575 12.0575L49.8075 15.5025C41.47 20.0125 39.84 25.865 39.19 29.555C40.5325 28.86 42.29 28.6175 44.0125 28.7775C48.5225 29.195 52.0775 32.8975 52.0775 37.5C52.0775 39.8206 51.1556 42.0462 49.5147 43.6872C47.8737 45.3281 45.6481 46.25 43.3275 46.25C40.645 46.25 38.08 45.025 36.4575 43.3025Z" fill="white"/>
</svg>
