<svg width="40" height="40" viewBox="0 0 40 40" fill="none" xmlns="http://www.w3.org/2000/svg">
<path d="M7.76562 13.794C8.6231 12.0118 9.86365 10.4411 11.3986 9.19401C13.6215 7.36222 16.3561 6.26204 19.2282 6.04401C22.1003 5.82598 24.9697 6.50076 27.4436 7.97601C28.1201 8.3846 28.7646 8.84392 29.3716 9.35001C29.5226 9.47301 29.5056 9.55001 29.3776 9.66901C28.1316 10.9097 26.8889 12.154 25.6496 13.402C25.5046 13.547 25.4266 13.536 25.2696 13.418C24.4023 12.7571 23.4124 12.2752 22.3572 12.0005C21.302 11.7257 20.2027 11.6635 19.1232 11.8175C18.0438 11.9715 17.0057 12.3387 16.0695 12.8976C15.1332 13.4564 14.3174 14.1959 13.6696 15.073C13.1916 15.7159 12.8111 16.4259 12.5406 17.18C12.5119 17.2489 12.4785 17.3157 12.4406 17.38C11.7196 16.833 10.9926 16.28 10.2776 15.732C9.43759 15.0847 8.60029 14.4387 7.76562 13.794Z" fill="#336177"/>
<path d="M12.4395 22.6162C12.6551 23.158 12.9033 23.6863 13.1825 24.1982C13.7595 25.202 14.5465 26.0692 15.4897 26.7406C16.433 27.412 17.5101 27.8717 18.6475 28.0882C20.7426 28.5397 22.9306 28.2055 24.7955 27.1492C24.8625 27.1152 24.9305 27.0822 24.9955 27.0492C25.0295 27.0832 25.0575 27.1212 25.0955 27.1492C26.5375 28.2672 27.9812 29.3852 29.4265 30.5032C28.7321 31.1758 27.9524 31.7544 27.1075 32.2242C24.7333 33.5864 21.9997 34.1911 19.2725 33.9572C15.9063 33.7331 12.7408 32.2766 10.3805 29.8662C9.29834 28.8017 8.41454 27.5528 7.77051 26.1782C8.37051 25.7192 8.97048 25.2672 9.56348 24.8092C10.5165 24.0752 11.4775 23.3492 12.4395 22.6162Z" fill="#336177"/>
<path d="M29.4232 30.5022C27.9812 29.3842 26.5376 28.2662 25.0922 27.1482C25.056 27.1179 25.0225 27.0845 24.9923 27.0482C25.5082 26.6842 25.9824 26.2643 26.4063 25.7962C27.0789 24.9957 27.5485 24.0449 27.7752 23.0242C27.8032 22.8952 27.7812 22.8502 27.6522 22.8562C27.5852 22.8622 27.5232 22.8562 27.4522 22.8562C25.1712 22.8562 22.8862 22.8502 20.6052 22.8622C20.3542 22.8622 20.2983 22.7952 20.3053 22.5542C20.3166 20.9342 20.3166 19.3135 20.3053 17.6922C20.3053 17.4852 20.3613 17.4292 20.5683 17.4292C24.7482 17.4352 28.9306 17.4352 33.1152 17.4292C33.2942 17.4292 33.3662 17.4742 33.4152 17.6642C33.726 19.1898 33.764 20.7584 33.5272 22.2972C33.3656 23.531 33.0523 24.7402 32.5943 25.8972C31.917 27.596 30.8843 29.1304 29.5653 30.3972C29.5183 30.4412 29.4672 30.4692 29.4232 30.5022Z" fill="#336177"/>
<path d="M12.4389 22.6173C11.4779 23.3503 10.5158 24.0763 9.55484 24.8083C8.95484 25.261 8.35721 25.7173 7.76187 26.1773C7.3173 25.3177 6.97751 24.4079 6.74985 23.4673C6.29293 21.6673 6.1961 19.7948 6.46488 17.9573C6.65743 16.5072 7.09712 15.1008 7.76487 13.7993C8.60287 14.4423 9.43484 15.0903 10.2738 15.7333C10.9948 16.2873 11.7159 16.8333 12.4369 17.3823C12.2856 17.9752 12.1681 18.5761 12.0849 19.1823C11.9818 20.2866 12.0918 21.4005 12.4088 22.4633C12.4276 22.5126 12.4377 22.5646 12.4389 22.6173V22.6173Z" fill="#336177"/>
</svg>
