<svg width="24" height="24" viewBox="0 0 24 24" fill="none" xmlns="http://www.w3.org/2000/svg">
<rect width="24" height="24" rx="12" fill="#1DBFB3"/>
<path d="M17.9836 7.19995H6.01704C5.69421 7.19995 5.3846 7.34217 5.15632 7.59532C4.92804 7.84846 4.7998 8.1918 4.7998 8.54981V14.8525C4.7998 15.2105 4.92804 15.5538 5.15632 15.8069C5.3846 16.0601 5.69421 16.2023 6.01704 16.2023H7.90655L9.00047 17.8566C9.02984 17.901 9.06823 17.9371 9.11255 17.9621C9.15686 17.987 9.20586 18 9.25555 18C9.30524 18 9.35421 17.987 9.39853 17.9621C9.44285 17.9371 9.48126 17.901 9.51063 17.8566L10.6046 16.2023H17.9826C18.3054 16.2023 18.615 16.0601 18.8433 15.8069C19.0716 15.5538 19.1998 15.2105 19.1998 14.8525V8.54981C19.1998 8.19199 19.0717 7.84882 18.8437 7.59571C18.6156 7.34259 18.3062 7.20024 17.9836 7.19995Z" fill="white"/>
</svg>
