<svg width="40" height="40" viewBox="0 0 40 40" fill="none" xmlns="http://www.w3.org/2000/svg">
<path d="M19.8804 6.20703C11.3516 6.20703 4.44043 11.6726 4.44043 18.415C4.44043 22.8038 7.37003 26.6494 11.766 28.8014C11.446 30.0078 10.5964 33.171 10.4268 33.847C10.218 34.687 10.7348 34.6758 11.0732 34.4494C11.3388 34.2726 15.3052 31.5766 17.0164 30.4126C17.9654 30.5533 18.9235 30.6238 19.8828 30.6238C28.4116 30.6238 35.3228 25.1566 35.3228 18.415C35.3228 11.6734 28.4092 6.20703 19.8828 6.20703" fill="#336177"/>
<path d="M13.6668 14.8198H9.15081C8.94713 14.8198 8.75178 14.9007 8.60775 15.0448C8.46373 15.1888 8.38281 15.3841 8.38281 15.5878C8.38281 15.7915 8.46373 15.9869 8.60775 16.1309C8.75178 16.2749 8.94713 16.3558 9.15081 16.3558H10.6188V21.7654C10.6197 21.9639 10.6989 22.1541 10.8393 22.2945C10.9797 22.4349 11.1699 22.5142 11.3684 22.515H11.5324C11.7308 22.5142 11.9208 22.4349 12.061 22.2944C12.2011 22.154 12.28 21.9638 12.2804 21.7654V16.3558H13.6668C13.8705 16.3558 14.0659 16.2749 14.2099 16.1309C14.3539 15.9869 14.4348 15.7915 14.4348 15.5878C14.4348 15.3841 14.3539 15.1888 14.2099 15.0448C14.0659 14.9007 13.8705 14.8198 13.6668 14.8198V14.8198Z" fill="white"/>
<path d="M24.5187 21.0702H22.4187V15.5455C22.4222 15.4339 22.4032 15.3227 22.3629 15.2186C22.3226 15.1145 22.2618 15.0195 22.1841 14.9394C22.1063 14.8592 22.0133 14.7955 21.9105 14.752C21.8077 14.7085 21.6972 14.686 21.5856 14.686C21.4739 14.686 21.3634 14.7085 21.2606 14.752C21.1578 14.7955 21.0648 14.8592 20.9871 14.9394C20.9093 15.0195 20.8485 15.1145 20.8082 15.2186C20.7679 15.3227 20.7489 15.4339 20.7524 15.5455V21.5006C20.7532 21.5455 20.7577 21.5902 20.766 21.6342C20.757 21.6779 20.7524 21.7224 20.7524 21.767C20.7522 21.8587 20.7702 21.9494 20.8052 22.0341C20.8403 22.1188 20.8916 22.1958 20.9564 22.2606C21.0212 22.3254 21.0982 22.3767 21.1829 22.4118C21.2676 22.4468 21.3583 22.4647 21.45 22.4646H24.5187C24.6996 22.4585 24.8709 22.3824 24.9967 22.2523C25.1224 22.1222 25.1927 21.9484 25.1927 21.7674C25.1927 21.5865 25.1224 21.4127 24.9967 21.2826C24.8709 21.1525 24.6996 21.0764 24.5187 21.0702V21.0702Z" fill="white"/>
<path d="M31.2307 21.3238L28.8907 18.2503L31.0051 16.1351C31.0734 16.0668 31.1275 15.9857 31.1645 15.8965C31.2014 15.8073 31.2205 15.7116 31.2205 15.6151C31.2205 15.5185 31.2014 15.4229 31.1645 15.3336C31.1275 15.2444 31.0734 15.1633 31.0051 15.0951C30.9368 15.0268 30.8557 14.9726 30.7665 14.9356C30.6773 14.8987 30.5816 14.8797 30.4851 14.8797C30.3885 14.8797 30.2929 14.8987 30.2037 14.9356C30.1144 14.9726 30.0334 15.0268 29.9651 15.0951L27.3475 17.7127V15.5455C27.3509 15.4339 27.3319 15.3227 27.2916 15.2186C27.2513 15.1145 27.1905 15.0195 27.1128 14.9394C27.0351 14.8592 26.942 14.7955 26.8392 14.752C26.7364 14.7085 26.6259 14.686 26.5143 14.686C26.4026 14.686 26.2921 14.7085 26.1893 14.752C26.0865 14.7955 25.9935 14.8592 25.9158 14.9394C25.838 15.0195 25.7772 15.1145 25.7369 15.2186C25.6966 15.3227 25.6776 15.4339 25.6811 15.5455V21.6838C25.6878 21.9004 25.7785 22.1058 25.934 22.2565C26.0895 22.4073 26.2977 22.4916 26.5143 22.4916C26.7309 22.4916 26.939 22.4073 27.0945 22.2565C27.25 22.1058 27.3408 21.9004 27.3475 21.6838V19.7894L27.8235 19.3142L30.0371 22.219C30.1558 22.3773 30.3325 22.482 30.5284 22.5099C30.7242 22.5379 30.9232 22.487 31.0815 22.3682C31.2398 22.2495 31.3444 22.0728 31.3724 21.8769C31.4004 21.6811 31.3494 21.4821 31.2307 21.3238Z" fill="white"/>
<path d="M20.1297 21.5232L17.8784 15.3632L17.8712 15.3568C17.7272 14.9816 17.3112 14.708 16.8168 14.708C16.2672 14.708 15.8128 15.044 15.7224 15.4832C15.7064 15.5162 15.6922 15.5502 15.68 15.5848L13.4704 21.5232C13.4294 21.6173 13.4082 21.7189 13.4082 21.8215C13.4082 21.9242 13.4294 22.0257 13.4704 22.1198C13.5114 22.2139 13.5714 22.2986 13.6466 22.3684C13.7218 22.4383 13.8107 22.4919 13.9075 22.5259C14.0044 22.5599 14.1072 22.5735 14.2096 22.5659C14.312 22.5584 14.4117 22.5298 14.5025 22.4819C14.5934 22.4341 14.6733 22.368 14.7375 22.2878C14.8016 22.2076 14.8485 22.1151 14.8752 22.016L15.2576 20.9232H18.3384L18.7208 22.016C18.7865 22.2028 18.9237 22.3559 19.1022 22.4416C19.2808 22.5272 19.486 22.5385 19.6728 22.4728C19.8597 22.4071 20.0127 22.2699 20.0984 22.0914C20.1841 21.9129 20.1953 21.7076 20.1297 21.5208V21.5232ZM15.7464 19.5304L16.7816 16.576C16.7936 16.576 16.8032 16.576 16.8152 16.576L17.8488 19.5264L15.7464 19.5304Z" fill="white"/>
</svg>
