<svg width="60" height="60" viewBox="0 0 60 60" fill="none" xmlns="http://www.w3.org/2000/svg">
<path fill-rule="evenodd" clip-rule="evenodd" d="M51.0745 14.0513C53.6424 18.0753 55.0045 22.7503 55 27.5238C54.9933 33.4561 52.8775 39.1927 49.0304 43.7085C45.1833 48.2242 39.8559 51.2247 34 52.1739L29.9999 57.5238L25.975 52.1739C21.2637 51.4053 16.871 49.304 13.316 46.1184C9.76098 42.9327 7.19233 38.7959 5.91364 34.1968C4.63496 29.5977 4.69959 24.7287 6.10011 20.1652C7.50062 15.6018 10.1785 11.5347 13.8169 8.44464C17.4554 5.35462 21.9023 3.37087 26.6323 2.72786C31.3624 2.08485 36.1777 2.80951 40.509 4.8161C44.8403 6.8227 48.5066 10.0274 51.0745 14.0513ZM40.8362 14.5235C43.765 17.2919 45.5232 21.0763 45.75 25.1V25.025C47.1564 25.5145 48.3441 26.4863 49.1022 27.7681C49.8602 29.0499 50.1396 30.5589 49.8909 32.0271C49.6422 33.4954 48.8814 34.8281 47.7435 35.7888C46.6056 36.7495 45.1643 37.276 43.6751 37.275V40.025C43.6791 40.7851 43.5289 41.5381 43.2338 42.2386C42.9386 42.9391 42.5046 43.5725 41.9578 44.1006C41.4111 44.6286 40.7629 45.0404 40.0526 45.311C39.3423 45.5816 38.5845 45.7054 37.825 45.675H33.2251C32.9746 46.3804 32.4828 46.9747 31.8367 47.3528C31.1906 47.7309 30.4318 47.8685 29.694 47.7414C28.9563 47.6143 28.2872 47.2306 27.8049 46.6581C27.3225 46.0856 27.0581 45.3611 27.0581 44.6125C27.0581 43.8639 27.3225 43.1394 27.8049 42.5669C28.2872 41.9944 28.9563 41.6107 29.694 41.4836C30.4318 41.3565 31.1906 41.4942 31.8367 41.8723C32.4828 42.2504 32.9746 42.8446 33.2251 43.55H37.825C38.3065 43.5808 38.7892 43.5125 39.2432 43.3492C39.6971 43.1858 40.1128 42.9311 40.4643 42.6006C40.8159 42.2702 41.0959 41.871 41.2869 41.428C41.478 40.985 41.576 40.5075 41.575 40.025V25.7C41.575 25.4215 41.6857 25.1544 41.8826 24.9575C42.0795 24.7606 42.3465 24.65 42.625 24.65H43.625C43.3324 21.2379 41.7703 18.0598 39.2474 15.744C36.7246 13.4282 33.4246 12.1433 30 12.1433C26.5754 12.1433 23.2754 13.4282 20.7525 15.744C18.2297 18.0598 16.6675 21.2379 16.375 24.65H17.375C17.6535 24.65 17.9206 24.7606 18.1175 24.9575C18.3144 25.1544 18.425 25.4215 18.425 25.7V36.3C18.425 36.5785 18.3144 36.8456 18.1175 37.0425C17.9206 37.2394 17.6535 37.35 17.375 37.35H16.3251C14.8359 37.351 13.3943 36.8245 12.2565 35.8638C11.1186 34.9031 10.3578 33.5704 10.1091 32.1021C9.86038 30.6339 10.1399 29.125 10.898 27.8432C11.656 26.5613 12.8436 25.5895 14.25 25.1C14.4768 21.0763 16.235 17.2919 19.1638 14.5235C22.0926 11.7552 25.9699 10.2128 30 10.2128C34.0301 10.2128 37.9074 11.7552 40.8362 14.5235Z" fill="#FB8BC4"/>
</svg>
