<svg width="64" height="64" viewBox="0 0 64 64" fill="none" xmlns="http://www.w3.org/2000/svg">
<rect x="1.5" y="1.5" width="61" height="61" rx="30.5" fill="#FB8BC4" stroke="#FAD0E4" stroke-width="3"/>
<path d="M14.8672 27.619L16.9015 35.2112L28.879 32.0018L26.8446 24.4097L14.8672 27.619ZM17.85 29.0145L24.9592 27.1096L25.8961 30.6063L18.7869 32.5112L17.85 29.0145ZM15.1264 37.5503L15.6803 39.6174L22.6929 37.7384L24.1992 43.3601L26.6527 42.7027L25.1463 37.081L32.1396 35.2071L31.5858 33.14L15.1264 37.5503ZM47.4825 29.7087L46.9338 27.661L36.9847 30.3268L36.4982 28.5109L46.0029 25.9641L44.4189 20.0526L32.4221 23.2672L32.9708 25.3149L42.5335 22.7526L43.02 24.5686L33.5153 27.1153L35.0993 33.0268L37.4562 32.3953L38.1602 35.0226L33.6203 36.2391L34.1638 38.2675L50.6232 33.8572L50.0797 31.8288L45.733 32.9935L45.029 30.3661L47.4825 29.7087ZM39.8517 31.7534L42.6335 31.008L43.3375 33.6353L40.5557 34.3807L39.8517 31.7534Z" fill="white"/>
</svg>
