<svg width="40" height="40" viewBox="0 0 40 40" fill="none" xmlns="http://www.w3.org/2000/svg">
<path d="M18.875 27.1316V25.929C17.2063 25.6472 15.7043 24.7493 14.6669 23.4133C13.6295 22.0772 13.1323 20.4006 13.2738 18.7156C13.4154 17.0306 14.1853 15.4602 15.4311 14.3156C16.6768 13.171 18.3076 12.5358 20 12.5358C21.6924 12.5358 23.3231 13.171 24.5689 14.3156C25.8146 15.4602 26.5846 17.0306 26.7261 18.7156C26.8676 20.4006 26.3704 22.0772 25.333 23.4133C24.2956 24.7493 22.7937 25.6472 21.125 25.929V27.1091C21.1268 28.3008 21.5242 29.4582 22.2551 30.3999C22.9859 31.3417 24.0089 32.0145 25.1636 32.3131C33.0383 25.1647 37.9995 20.0395 37.9995 13.8914C38.013 12.5887 37.7661 11.2965 37.2734 10.0904C36.7807 8.88426 36.052 7.78849 35.1301 6.86733C34.2081 5.94617 33.1114 5.21815 31.9042 4.72588C30.697 4.23361 29.4035 3.987 28.0997 4.00053C26.5596 4.01238 25.04 4.35355 23.6429 5.00107C22.2458 5.64859 21.0037 6.58745 20 7.75455C18.9982 6.58518 17.7564 5.64475 16.3589 4.99703C14.9614 4.34931 13.4408 4.00945 11.9002 4.00053C10.5964 3.987 9.30298 4.23361 8.09577 4.72588C6.88857 5.21815 5.79185 5.94617 4.86987 6.86733C3.94788 7.78849 3.21921 8.88426 2.7265 10.0904C2.23379 11.2965 1.98699 12.5887 2.00053 13.8914C2.00053 20.6352 8.12034 26.255 17.3901 34.6172L20 37L22.6099 34.6397L23.2849 34.0215C21.9721 33.4083 20.8607 32.4352 20.08 31.2154C19.2993 29.9957 18.8814 28.5795 18.875 27.1316Z" fill="#FFBB0C"/>
</svg>
