<svg width="480" height="480" viewBox="0 0 480 480" fill="none" xmlns="http://www.w3.org/2000/svg">
<path d="M101.5 212.5C109.9 202.5 123 204 128.5 206C122 226 103.5 242 95.5 245.5C94.5 243 91 225 101.5 212.5Z" fill="#F5FCFB"/>
<path d="M119.5 245.5C130.3 243.9 145 241.167 151 240C161 248.5 169 267 163.5 285C158 303 142.5 314 119.5 309C96.5 304 88 292.5 84.5 274.5C81.7 260.1 92.3333 249.167 98 245.5C100.667 246.167 108.7 247.1 119.5 245.5Z" fill="#F5FCFB"/>
<path d="M328 281.5C328.5 252 356 242.5 364.5 240C372.167 237.5 391.1 235.3 405.5 246.5C423.5 260.5 426 279 419 297.5C412 316 389 321.5 380.5 321.5C372 321.5 327.5 311 328 281.5Z" fill="#F5FCFB"/>
<path d="M364.056 443.48C361.664 443.48 359.832 442.256 361.904 441.536C365.351 440.337 364.05 435.921 360.455 436.557C352.846 437.901 345.219 439.234 337.024 439.888C336.8 439.904 336.584 439.912 336.376 439.912C333.8 439.912 332.592 438.592 334.96 437.968C336.008 437.696 337.032 437.408 338.04 437.112C329.68 438.488 321.088 439.6 311.976 439.928C311.872 439.928 311.776 439.936 311.68 439.936C308.984 439.936 308.776 438.496 310.608 437.96C311.808 437.608 312.992 437.248 314.168 436.872C301.656 439.456 289.064 442.016 275.048 442.888C274.912 442.896 274.768 442.904 274.632 442.904C272.464 442.904 270.456 441.88 272.512 441.184C278.168 439.264 284.376 437.64 290.816 436.16C281.52 437.56 272.44 439.224 262.912 440.336C262.648 440.368 262.4 440.384 262.152 440.384C259.944 440.384 258.552 439.232 260.272 438.56C263.52 437.296 266.424 435.904 269.232 434.488C269.517 434.345 269.368 433.903 269.056 433.971C259.031 436.139 249.73 438.822 239.32 440.728C238.88 440.808 238.424 440.848 237.976 440.848C235.872 440.848 234 440.04 235.328 439.168C239.672 436.328 246.936 433.472 255.8 433.472C256.576 433.472 257.368 433.496 258.168 433.544C258.866 433.581 259.694 433.867 260.378 433.721C266.495 432.422 272.72 431.208 279.328 430.312C279.544 430.28 279.76 430.272 279.96 430.272C281.608 430.272 282.6 431.176 281.336 431.672C277.96 432.976 275.488 434.544 272.648 436.024C272.237 436.236 272.435 436.871 272.894 436.81C284.539 435.261 296.172 433.681 308.12 432.536C308.288 432.52 308.448 432.512 308.608 432.512C310.424 432.512 311.392 433.52 309.608 433.92C307.172 434.471 307.559 436.427 310.014 435.965C318.112 434.44 326.079 432.784 334.136 431.264C334.464 431.2 334.792 431.176 335.104 431.176C337 431.176 338.248 432.224 336.224 432.664C333.947 433.156 334.5 435.652 336.798 435.277C342.955 434.272 348.973 433.104 354.984 432.016C355.392 431.944 355.784 431.912 356.152 431.912C358.32 431.912 359.6 433.048 357.4 433.64C356.431 433.901 356.711 435.083 357.7 434.914C367.076 433.314 376.364 431.622 386.528 431.056C386.664 431.048 386.792 431.048 386.92 431.048C388.984 431.048 390.592 431.944 388.856 432.632C386.105 433.722 387.403 437.785 390.328 437.33C397.658 436.189 405.076 435.173 412.92 434.736C413.08 434.728 413.248 434.72 413.416 434.72C415.328 434.72 417.344 435.304 416.584 436.168C416.196 436.599 416.574 437.336 417.144 437.229C426.302 435.514 435.343 433.703 444.272 431.808C444.808 431.696 445.328 431.648 445.808 431.648C448.456 431.648 450.048 433.144 447.328 433.856C446.992 433.944 446.648 434.04 446.312 434.128C447.48 433.936 448.632 433.736 449.768 433.52C450.272 433.424 450.776 433.376 451.256 433.376C453.744 433.376 455.576 434.552 453.52 435.416C451.256 436.368 450.968 437.368 449.944 438.52C449.456 439.064 447.952 439.4 446.56 439.4C445.32 439.4 444.16 439.136 443.904 438.52C443.832 438.344 443.784 438.192 443.784 438.024C443.784 437.764 443.96 437.547 444.242 437.368C444.267 437.352 444.288 437.331 444.303 437.306C444.381 437.174 444.269 437.009 444.118 437.03C438.536 437.832 432.863 438.534 427.496 439.528C426.96 439.624 426.44 439.672 425.96 439.672C423.97 439.672 421.719 439.017 419.763 439.385C416.442 440.009 413.106 440.623 409.752 441.224C409.32 441.304 408.856 441.336 408.4 441.336C406.168 441.336 404 440.496 405.552 439.584C406.549 438.999 406.056 437.667 404.908 437.793C391.246 439.302 378.521 442.083 364.728 443.456C364.512 443.472 364.28 443.48 364.056 443.48Z" fill="#1DBFB3"/>
<path d="M402.864 378.224C402.6 378.216 402.192 377.664 401.944 377.144C401.92 376.888 401.896 376.64 401.872 376.384C402.024 376.624 402.176 376.856 402.32 377.096C402.568 377.488 402.936 377.76 403.376 377.808C403.328 377.88 403.288 377.944 403.232 378.008C403.032 378.232 403.048 378.232 402.864 378.224ZM386.688 380.976H386.608C386.488 380.472 386.344 379.976 386.192 379.488C386.384 379.28 386.52 379.032 386.56 378.752C387.184 379.4 387.88 379.984 388.592 380.504C388.104 380.808 387.48 380.984 386.688 380.976ZM375.192 352.92C375.664 353.824 376.328 354.584 377.104 355.248C376.696 355.528 376.408 356.024 376.512 356.576C376.696 357.576 376.984 358.728 377.408 359.856C377.056 359.544 376.728 359.232 376.44 358.928C375.184 357.632 373.104 354.368 375.192 352.92ZM375.504 331.248C375.632 331.096 375.576 330.904 375.448 330.784C375.536 330.672 375.624 330.568 375.72 330.472C375.896 330.496 376.064 330.56 376.216 330.648H376.208C376.048 330.928 375.792 331.168 375.48 331.368L375.368 331.4L375.504 331.248ZM381.752 337.52C382.04 338.344 382.344 339.168 382.728 339.96C382.992 340.504 383.296 341.064 383.664 341.592C383.352 342.112 383.112 342.664 382.944 343.224C382.408 343.432 381.888 343.696 381.4 344C381.312 344.016 381.232 344.04 381.144 344.056C381.128 343.16 381.024 342.28 380.76 341.432C380.6 340.944 380.392 340.48 380.136 340.032C380.168 339.968 380.208 339.904 380.24 339.832C380.664 339.048 381.168 338.256 381.752 337.52ZM386.472 345.408C386.616 345.424 386.752 345.448 386.896 345.472C386.584 345.808 386.224 346.104 385.816 346.344C385.632 346.056 385.488 345.752 385.384 345.424C385.744 345.384 386.104 345.376 386.472 345.408ZM387.784 337.192C387.968 337.16 388.152 337.12 388.336 337.064C388.384 337.312 388.424 337.552 388.456 337.768C387.576 338.032 386.728 338.456 385.92 339.064C385.72 339.216 385.52 339.376 385.336 339.544C384.952 338.928 384.64 338.248 384.36 337.56C385.568 337.6 386.864 337.352 387.784 337.192ZM385.216 334.528C385.288 334.496 385.352 334.464 385.416 334.432C385.656 334.568 385.896 334.696 386.136 334.816C385.632 334.856 385.128 334.856 384.664 334.832C384.848 334.728 385.032 334.624 385.216 334.528ZM382.128 350.984C382.04 351.32 381.96 351.664 381.88 352.016C381.32 351.496 380.72 351.024 380.088 350.648C380.016 350.144 380.128 349.608 380.36 349.088C380.864 349.256 381.368 349.368 381.88 349.44C381.904 349.944 381.992 350.456 382.128 350.984ZM384.68 350.992C384.6 350.736 384.528 350.472 384.472 350.2L384.488 350.128C384.544 350.144 384.608 350.152 384.672 350.16C385.096 350.896 385.432 351.696 385.72 352.496C385.712 352.744 385.696 352.992 385.672 353.248H385.552C385.232 352.504 384.928 351.76 384.68 350.992ZM382.608 358.712C382.504 358.472 382.392 358.232 382.296 357.984C382.384 358.016 382.472 358.04 382.552 358.072C382.568 358.296 382.592 358.512 382.608 358.712ZM381.696 362.104C381.632 362.008 381.56 361.912 381.496 361.808L381.536 361.84C381.984 362.16 382.48 362.096 382.856 361.848C382.888 362.096 382.928 362.352 382.968 362.592C382.496 362.576 382.072 362.392 381.696 362.104ZM389.064 353.864C389.368 353.368 389.752 352.936 390.208 352.576C389.968 353.192 389.76 353.824 389.568 354.464C389.4 354.768 389.248 355.08 389.096 355.4L388.96 355.368C389.176 355.08 389.28 354.712 389.176 354.288C389.136 354.152 389.096 354.008 389.064 353.864ZM387.304 341.288C387.432 341.168 387.552 341.064 387.672 340.96C387.968 340.704 388.288 340.504 388.624 340.352C388.624 340.424 388.616 340.496 388.616 340.568C388.2 340.824 387.776 341.064 387.352 341.288H387.304ZM389.104 346.664C389.744 347.272 390.264 348.032 390.688 348.832C390.544 348.888 390.4 348.96 390.256 349.024C389.352 348.832 388.432 348.496 387.632 348.024C388.176 347.64 388.672 347.184 389.104 346.664ZM393.312 354.752C393.128 355.368 393.04 355.992 393.112 356.632C393.216 357.464 393.592 357.864 394.096 358.016C393.928 359.168 393.872 360.328 393.96 361.488C393.736 361.824 393.496 362.152 393.248 362.48C392.56 362.104 391.96 361.424 391.464 360.616C391.64 359.368 391.928 358.136 392.216 357C392.304 356.672 392.392 356.328 392.488 355.984C392.728 355.544 392.992 355.128 393.312 354.752ZM391.456 342.08C392.016 341.544 392.52 340.96 392.952 340.408V340.4C394.312 340.92 395.656 341.816 396.624 342.912C396.456 343.48 396.328 344.048 396.248 344.616L396.232 344.624C395.36 345.024 394.384 345.4 393.424 345.48C392.248 345.576 391.624 345.184 391.4 344.272C391.224 343.576 391.288 342.824 391.456 342.08ZM391.088 335.64L391.128 335.632C391.432 335.816 391.68 336.024 391.84 336.256C391.536 336.64 391.264 337.048 391.008 337.456H390.984C390.888 336.856 390.76 336.256 390.592 335.696C390.752 335.688 390.92 335.672 391.088 335.64ZM394.584 336.432C394.752 336.272 394.936 336.128 395.12 335.984C395.336 335.952 395.544 335.912 395.752 335.832C396.28 337.04 397.24 338.04 398.4 338.784C398.12 339.304 397.848 339.848 397.592 340.408C396.664 339.6 395.592 338.928 394.624 338.44C394.488 338.376 394.36 338.312 394.224 338.256C394.448 337.656 394.584 337.048 394.584 336.432ZM397.808 335.048C398.392 335.568 399.112 335.88 399.848 335.896C400.008 336.032 400.168 336.176 400.312 336.336C400.264 336.64 400.216 336.944 400.16 337.256C400 337.256 399.84 337.272 399.688 337.32C398.76 336.792 398.016 336.04 397.64 335.048H397.808ZM399.312 331.688C399.408 331.688 399.512 331.696 399.616 331.704C399.76 331.848 399.92 331.984 400.088 332.112C400.184 332.184 400.288 332.256 400.392 332.32C400.288 332.776 400.096 333.224 399.896 333.28C399.904 333.28 399.824 333.264 399.592 333.104C399.36 332.944 399.216 332.584 399.096 332.336L399.048 332.224C399.144 332.048 399.224 331.872 399.312 331.688ZM401.088 325.152C401.128 325.248 401.176 325.336 401.216 325.432C401.168 325.704 401.12 325.968 401.072 326.24C400.96 326.232 400.832 326.224 400.72 326.232C400.808 325.872 400.936 325.504 401.088 325.152ZM407.272 350.992L407.408 351.056C407.512 351.376 407.616 351.696 407.704 352.016C407.704 352.088 407.696 352.152 407.696 352.224C407.432 351.992 407.16 351.76 406.888 351.544L407.008 351.392C407.112 351.256 407.192 351.128 407.272 350.992ZM405.2 329.328C405.312 329.392 405.432 329.448 405.552 329.504C405.856 329.632 406.144 329.704 406.4 329.728C406.488 329.864 406.576 330 406.672 330.136L406.768 330.288C406.336 330.664 405.928 331.064 405.552 331.48C405.456 330.744 405.336 330.032 405.2 329.328ZM406.712 357.952C406.04 357.672 405.272 357.768 404.864 358.592C404.832 358.656 404.8 358.72 404.768 358.792C404.456 358.464 404.176 358.112 403.92 357.736C404.032 357.312 404.128 356.896 404.192 356.488C404.288 355.936 404.424 355.032 404.512 353.976C405.296 354.584 406.024 355.264 406.632 356.048C406.64 356.688 406.664 357.328 406.712 357.952ZM402.808 369.4C402.536 369.608 402.352 369.928 402.336 370.376C402.328 370.464 402.336 370.552 402.336 370.64C402.232 370.296 402.296 370.664 402.344 370.992C402.352 371.176 402.376 371.36 402.392 371.552C402.408 371.76 402.416 371.96 402.424 372.168C402.248 371.84 402.08 371.512 401.928 371.168C401.864 371.016 401.8 370.864 401.752 370.712C401.832 370.672 401.912 370.624 401.992 370.568C402.448 370.232 402.52 369.648 402.496 369.112C402.6 369.176 402.696 369.248 402.8 369.312L402.808 369.4ZM399.616 345.616C399.624 345.52 399.632 345.424 399.64 345.32C399.944 344.896 400.08 344.4 399.928 343.784C399.968 343.648 400 343.52 400.048 343.392C400.28 344.032 400.64 344.632 401.064 345.192C400.912 345.208 400.744 345.232 400.576 345.272C400.248 345.344 399.928 345.464 399.616 345.616ZM402.28 363.832C402.496 364.056 402.696 364.288 402.896 364.528C402.872 364.656 402.856 364.792 402.832 364.92C402.608 364.576 402.424 364.208 402.28 363.832ZM409.432 323.36C409.128 322.44 408.92 321.208 408.408 320.376C407.824 319.44 406.68 319.56 406.184 320.272C405.592 319.6 404.936 319.032 403.976 319.424C403.2 318.816 401.784 319.256 401.824 320.368C401.832 320.672 401.848 321 401.864 321.336C401.28 320.896 400.472 321 399.968 321.664C398.856 323.12 397.936 324.912 397.896 326.736C397.328 326.728 396.752 327.048 396.6 327.64C396.328 328.688 396.144 329.8 396.168 330.888C395.776 331.408 395.496 332.096 395.368 332.992C395.072 333.216 394.76 333.336 394.416 333.328C394.2 333.32 393.992 333.208 393.8 333.04C393.816 332.944 393.84 332.848 393.848 332.76C394.152 330.584 392.176 328.36 390.848 326.92C390.024 326.032 388.368 326.728 388.536 327.928C388.256 327.816 387.904 327.776 387.456 327.816C386.528 327.896 385.584 328.56 384.8 329.2C384.104 328.864 383.4 328.544 382.704 328.224C381.624 327.736 380.552 329.168 381.112 330.112C381.432 330.656 381.816 331.192 382.24 331.696C382.136 331.832 382.032 331.968 381.944 332.104C381.68 332.176 381.424 332.272 381.192 332.408C380.64 332.72 380.232 333.368 380.4 334.024C380.48 334.336 380.6 334.536 380.8 334.784C380.656 334.616 380.888 334.936 380.872 334.896L380.896 334.968C380.592 335.288 380.296 335.624 380.008 335.976C379.928 335.792 379.848 335.616 379.76 335.456C379.744 335.384 379.712 335.304 379.672 335.232C379.6 335.096 379.488 334.976 379.352 334.848C379.856 334.128 380.256 333.352 380.456 332.552C380.528 332.408 380.608 332.264 380.68 332.112C380.904 331.648 380.896 331.136 380.536 330.776C380.408 330.048 380.08 329.328 379.472 328.64C378.432 327.472 376.824 327.392 375.456 327.936C375.352 327.976 375.256 328.024 375.152 328.072C374 328.096 372.856 328.592 371.824 329.328L371.72 329.224C371.848 328.416 372.024 327.608 372.232 326.784C372.392 326.144 372 325.376 371.264 325.376C370.408 325.384 369.232 325.48 369.144 326.576C369.136 326.68 369.136 326.776 369.144 326.872C368.88 326.632 368.608 326.4 368.336 326.16C367.952 325.32 367.304 324.688 366.104 324.552C365.672 324.496 365.376 324.672 365.208 324.944C365.064 324.736 364.912 324.528 364.752 324.328C363.992 323.352 362.28 324.552 362.976 325.584C363.416 326.24 363.832 326.864 364.264 327.472C364.92 328.512 365.552 329.568 366.36 330.504C366.76 331.224 367.288 331.64 367.976 331.248H368.08C368.312 331.704 368.536 332.168 368.76 332.632C368.632 332.84 368.512 333.04 368.416 333.232C368.04 333.96 368.408 334.856 369.28 334.92C369.384 334.928 369.48 334.936 369.576 334.944C369.632 335.096 369.696 335.256 369.768 335.408C369.856 335.776 370.024 336.12 370.296 336.44C370.208 337.088 370.208 337.76 370.248 338.424C370.28 338.968 370.816 339.24 371.264 338.896C371.44 338.76 371.616 338.632 371.792 338.496C371.984 338.76 372.2 339 372.44 339.224C371.72 338.744 370.56 339.184 370.512 340.176C370.352 343.376 371.592 347.744 374.448 349.616C374.44 349.744 374.432 349.88 374.432 350.008C374.368 350.032 374.304 350.056 374.24 350.08C369.912 351.832 371.392 357.24 373.488 360.048C374.744 361.736 376.592 363.328 378.672 364.4C378.816 366.84 379.2 369.256 379.8 371.624C378.552 376.72 380.216 383.24 386.344 383.768C388.248 383.928 390.088 383.104 391.312 381.688C391.816 381.576 392.256 381.232 392.4 380.688C392.576 380.056 392.704 379.432 392.808 378.816C393.024 379 393.248 379.16 393.488 379.312C393.6 379.544 393.696 379.776 393.824 380.008C394.384 381.104 395.96 381.056 396.552 380.08C397.552 380.016 398.376 379.648 399.056 379.08C399.224 379.216 399.392 379.352 399.568 379.48C399.768 379.624 400.008 379.704 400.248 379.728C400.84 380.4 401.64 380.864 402.728 380.992C404.384 381.184 405.544 379.768 406.152 378.44C406.184 378.376 406.208 378.304 406.232 378.24C406.616 378.808 407.016 379.384 407.416 379.968C408.264 381.2 410.184 380.664 409.992 379.104C410.152 379.504 410.312 379.896 410.472 380.288C411.072 381.768 413.336 380.824 413.032 379.352C413.016 379.272 413.008 379.2 412.992 379.12C413.68 379.68 414.784 379.76 415.104 378.768C415.712 378.568 416.192 377.984 416.032 377.2C415.656 375.376 415.136 372.928 415.488 371.072C415.8 369.432 413.44 368.568 412.936 370.04C412.856 370.04 412.784 370.048 412.704 370.056C412.776 369.44 412.832 368.832 412.856 368.232C413.416 368.4 414.048 368.264 414.44 367.872L414.472 367.88C415.416 368.64 417.176 368.008 416.696 366.624C416.536 366.152 416.256 365.768 415.96 365.392C415.864 364.984 415.744 364.576 415.576 364.208C415.112 362.72 414.584 361.248 414.256 359.712C414.184 359.384 414.016 359.128 413.8 358.952C413.76 358.344 413.68 357.736 413.544 357.136C413.376 356.408 413.104 355.712 412.768 355.04C412.872 354.864 412.936 354.656 412.944 354.4C413.04 350.84 412.896 347.368 412.024 343.984C412.28 343.744 412.456 343.408 412.432 343.08C412.216 338.944 411.784 334.96 410.368 331.2C410.448 331.088 410.512 330.968 410.552 330.84C410.664 330.68 410.712 330.464 410.624 330.208C410.512 329.856 410.408 329.496 410.304 329.144C410.072 328.216 409.832 327.288 409.6 326.36C409.776 326.192 409.912 326.008 409.984 325.776C410.248 324.952 409.784 324.416 409.432 323.36Z" fill="#4DB0E7"/>
<path d="M408.648 318.256C412.872 337.936 412.288 358.28 416.288 377.984C404.696 380.016 392.944 381.2 381.576 384.352C377.872 373.96 375.392 363.144 372.424 352.528C370.888 347.04 369.272 341.568 367.312 336.208C365.816 332.12 364.248 326.832 360.696 324.08C360.48 323.912 360.224 324.16 360.264 324.384C360.6 326.552 361.512 328.432 362.288 330.48C363.184 332.824 364.096 335.152 364.888 337.536C366.688 342.984 368.208 348.52 369.648 354.08C372.496 365.04 374.96 376.176 378.76 386.872C379.064 387.736 379.856 388.504 380.864 388.216C393.312 384.72 406.224 383.608 418.92 381.32C419.928 381.136 420.56 380.056 420.352 379.088C415.984 358.792 416.592 337.776 412.128 317.496C411.64 315.248 408.168 316.008 408.648 318.256Z" fill="#575A5B"/>
<path d="M301.656 325.336C302.64 327.56 303.592 329.568 305.36 331.288C307.12 333.008 309.24 334.368 311.432 335.464C316.36 337.936 321.952 338.952 327.408 339.312C333.088 339.696 338.88 339.088 344.408 337.744C346.992 337.112 349.504 336.264 351.912 335.144C353.832 334.256 356.52 332.96 357.216 330.784C357.256 330.656 357.296 330.528 357.336 330.4C357.488 329.896 357.04 329.328 356.512 329.36C354.408 329.48 352.584 330.672 350.72 331.544C348.568 332.552 346.272 333.304 343.976 333.928C338.896 335.312 333.632 335.808 328.384 335.728C323.336 335.648 318.208 334.84 313.512 332.92C311.36 332.04 309.32 330.88 307.536 329.384C305.872 327.984 304.088 326.376 303.128 324.416C302.64 323.408 301.216 324.336 301.656 325.336Z" fill="#575A5B"/>
<path d="M364.328 352.272C369.728 351.368 375.08 349.96 380.272 348.232C385.112 346.616 389.896 344.632 394.176 341.824C397.056 339.928 400.496 337.136 400.488 333.352C400.488 332.744 399.992 331.704 399.216 331.912C398.144 332.2 397.856 333.808 397.2 334.744C396.208 336.168 394.888 337.296 393.488 338.296C389.528 341.104 384.792 342.896 380.232 344.464C375.12 346.216 369.864 347.52 364.552 348.464C362.248 348.872 359.936 349.208 357.608 349.408C355.816 349.56 353.824 349.632 352.272 350.568L352.152 350.632C351.672 350.912 351.728 351.648 352.12 351.968C353.56 353.184 355.688 353.248 357.488 353.128C359.784 352.976 362.064 352.656 364.328 352.272Z" fill="#575A5B"/>
<path d="M386.976 390.04C387.176 388.624 385.04 388.368 384.584 389.616C383.448 392.752 383.36 396.264 383.176 399.56C382.96 403.632 382.92 407.696 382.536 411.752C382.04 417.096 381.056 426.432 374.04 426.872C371.84 427.008 371.664 430.464 373.888 430.32C382.424 429.784 384.856 421.296 385.752 414.112C386.744 406.128 385.872 398.008 386.976 390.04Z" fill="#575A5B"/>
<path d="M426.216 422.208C427.568 420.984 428.2 419.248 428.48 417.496C429.44 411.568 426.736 405 424.584 399.616C423.384 396.624 422.064 393.68 420.776 390.728C419.856 388.608 418.392 386.152 418.136 383.832C418.016 382.808 419.392 382.376 419.976 383.16C421.08 384.64 421.8 386.632 422.64 388.28C423.768 390.504 424.912 392.712 425.96 394.968C428.24 399.888 430.304 404.92 431.416 410.24C432.328 414.608 432.424 419.464 429.744 423.248C429.08 424.184 428.128 425.32 426.888 425.208C425.248 425.072 425.2 423.128 426.216 422.208Z" fill="#575A5B"/>
<path d="M151.632 446.72C149.392 446.72 147.688 445.168 149.624 444.248C153.667 442.339 151.594 437.126 147.247 438.169C140.479 439.792 133.673 441.365 126.384 442.16C126.176 442.184 125.976 442.192 125.784 442.192C123.376 442.192 122.24 440.512 124.456 439.728C124.74 439.629 124.622 439.232 124.327 439.294C117.466 440.734 110.414 441.846 102.984 442.216C102.888 442.224 102.8 442.224 102.712 442.224C100.192 442.224 100 440.4 101.712 439.72C102.832 439.272 103.944 438.808 105.04 438.344C93.352 441.624 81.584 444.872 68.496 445.984C68.368 445.992 68.24 446 68.112 446C66.088 446 64.208 444.704 66.128 443.816C71.408 441.376 77.208 439.312 83.224 437.432C74.544 439.216 66.056 441.32 57.152 442.736C56.904 442.776 56.672 442.792 56.44 442.792C54.376 442.792 53.08 441.328 54.688 440.48C57.728 438.872 60.432 437.112 63.064 435.312C63.3745 435.101 63.1415 434.587 62.7813 434.693C53.4638 437.437 44.8039 440.83 35.12 443.24C34.712 443.344 34.28 443.392 33.864 443.392C31.896 443.392 30.152 442.36 31.392 441.256C35.448 437.656 42.232 434.016 50.512 434.016C51.24 434.016 51.976 434.048 52.728 434.104C53.3943 434.152 54.2027 434.497 54.8446 434.311C60.5437 432.667 66.344 431.133 72.496 430C72.704 429.96 72.896 429.944 73.088 429.944C74.632 429.944 75.552 431.096 74.376 431.72C71.224 433.376 68.912 435.376 66.256 437.248C65.7918 437.578 66.0964 438.314 66.6569 438.213C77.4814 436.254 88.2881 434.268 99.4 432.816C99.56 432.792 99.712 432.784 99.856 432.784C101.552 432.784 102.456 434.064 100.792 434.576C97.8497 435.482 98.4903 437.865 101.472 437.1C108.936 435.183 116.283 433.11 123.712 431.208C124.024 431.128 124.328 431.096 124.616 431.096C126.392 431.096 127.56 432.424 125.664 432.984C122.927 433.79 123.839 436.836 126.624 436.213C132.231 434.959 137.719 433.516 143.2 432.168C143.576 432.072 143.944 432.032 144.288 432.032C146.312 432.032 147.512 433.472 145.456 434.224C144.296 434.651 144.753 436.074 145.956 435.794C154.64 433.776 163.248 431.655 172.664 430.944C172.784 430.936 172.912 430.928 173.032 430.928C174.96 430.928 176.464 432.064 174.848 432.936C171.663 434.65 173.714 439.426 177.255 438.688C183.765 437.33 190.365 436.144 197.328 435.616C197.48 435.608 197.632 435.6 197.792 435.6C199.576 435.6 201.464 436.344 200.752 437.44C200.359 438.046 200.909 438.886 201.609 438.707C210.05 436.552 218.384 434.282 226.616 431.904C227.112 431.76 227.6 431.696 228.048 431.696C230.52 431.696 232.008 433.592 229.464 434.504C229.38 434.534 229.415 434.653 229.502 434.632C230.255 434.458 231.004 434.275 231.744 434.08C232.216 433.952 232.688 433.904 233.136 433.904C235.464 433.904 237.168 435.4 235.248 436.504C233.136 437.72 232.864 438.984 231.904 440.448C231.448 441.144 230.04 441.56 228.744 441.56C227.584 441.56 226.504 441.224 226.264 440.448C226.192 440.224 226.152 440.032 226.152 439.816C226.152 439.49 226.31 439.215 226.571 438.99C226.6 438.964 226.625 438.932 226.641 438.897C226.72 438.718 226.563 438.53 226.371 438.567C221.186 439.578 215.921 440.46 210.928 441.72C210.432 441.848 209.944 441.904 209.488 441.904C207.616 441.904 205.421 441.101 203.607 441.566C200.535 442.353 197.449 443.123 194.344 443.88C193.944 443.976 193.512 444.024 193.088 444.024C191 444.024 188.976 442.952 190.424 441.792C191.517 440.917 190.773 439.369 189.389 439.582C176.79 441.512 165.021 444.986 152.288 446.712C152.056 446.712 151.84 446.72 151.632 446.72Z" fill="#1DBFB3"/>
<path d="M281.192 390.784C279.304 386.096 277.096 381.6 274.672 377.224C272.752 372.272 270.376 367.448 267.6 362.768C263.944 356.608 259.904 350.696 255.848 344.784C251.8 338.88 247.056 332.952 244.232 326.328C242.24 321.656 241.016 316.152 244.864 312.256C248.64 308.432 253.488 306.056 258.16 303.544C270.472 296.904 281.136 287.584 294.232 282.424C295.312 287.248 296.048 292.176 297.848 296.848C298.808 299.328 299.904 301.744 301.048 304.152C302.352 307.056 303.704 309.936 305.168 312.752C306.32 316.864 307.744 320.912 309.664 324.824C310.608 326.744 312.64 327.312 314.36 326.896L314.488 327.056L314.536 327.104C314.32 327.912 314.416 328.808 315 329.704C321.992 340.44 326.648 352.592 333.144 363.552C323.248 364.168 313.784 368.8 305.512 373.84C297.064 379 289.176 384.952 281.192 390.784ZM310.624 387.656C310.664 387.512 310.696 387.368 310.72 387.224L310.88 387.176C311.68 386.872 312.488 386.6 313.288 386.312C312.392 386.744 311.512 387.2 310.624 387.656ZM317.416 376.24C318.776 375.56 320.16 374.928 321.568 374.344C320.2 375.016 318.816 375.648 317.416 376.24ZM300.696 280.176C300.48 279.408 300.256 278.648 300.008 277.904C300.408 278.6 300.8 279.304 301.192 280.008C301.024 280.048 300.864 280.112 300.696 280.176ZM280.664 411.568C281.232 411.616 281.84 411.528 282.48 411.216C296.68 404.264 309.568 394.904 323.984 388.336C330.704 385.272 337.592 382.688 344.384 379.808C345.024 379.536 345.68 379.256 346.336 378.976C347.984 379.152 349.704 378.472 350.376 377.096C353.104 375.704 355.712 374.056 357.776 371.896C358.28 371.528 358.712 371.024 359.008 370.44C359.312 370.04 359.608 369.624 359.872 369.192C360.712 367.824 359.808 366.52 358.608 366.256C346.272 349.112 335.024 331.176 324.648 312.768C319.816 304.2 315.912 295.248 311.48 286.472C307.752 279.088 303.512 271.312 297.296 265.752C296.264 264.832 294.8 265.52 294.264 266.6C293.856 266.048 293.168 265.768 292.368 266.192C289.288 267.832 286.296 269.664 283.312 271.52C281.264 272.216 279.288 273.104 277.472 274C271.272 277.064 265.448 280.888 259.824 284.912C258.08 285.88 256.336 286.848 254.6 287.84C248.424 291.36 242.28 295.032 236.632 299.368C233.832 301.512 231.088 303.76 228.608 306.288C226.592 308.336 224.144 310.216 224.056 313.32C223.472 313.76 223.12 314.488 223.336 315.44C224.616 321.136 226.784 326.704 229.2 332.104C229.288 335.792 230.872 338.824 233.488 341.2C237.128 348.68 241 356.04 245.096 363.28C253.576 378.248 262.584 392.912 271.296 407.752C271.264 408.456 271.456 409.2 271.936 409.856C272.824 411.08 273.696 412.096 274.848 413.072C276.848 414.76 279.568 413.56 280.664 411.568Z" fill="#558ED1"/>
<path d="M282.176 392.44C282.016 392.28 281.848 392.12 281.648 391.96C281.512 391.848 281.344 391.776 281.176 391.704C280.664 390.856 280.168 390.008 279.664 389.152C279.808 389.208 279.952 389.256 280.096 389.28C280.256 389.72 280.424 390.16 280.608 390.584C280.952 391.384 281.608 391.984 282.368 392.344C282.312 392.384 282.24 392.416 282.176 392.44ZM268.544 357.904C268.36 357.64 268.168 357.384 267.984 357.12C268.16 356.648 268.248 356.136 268.224 355.624C268.592 356.264 269.024 356.824 269.512 357.312C269.184 357.496 268.856 357.696 268.544 357.904ZM251.176 333.608C251.264 333.432 251.344 333.256 251.424 333.072C251.592 333.304 251.744 333.552 251.912 333.784C251.656 333.688 251.416 333.632 251.176 333.608ZM246.824 329.312C246.208 328.368 245.592 327.416 244.96 326.472C245.624 327.16 246.32 327.808 247.056 328.408C246.984 328.712 246.912 329.008 246.824 329.312ZM309.816 353.728C310.856 353.112 311.84 352.424 312.728 351.656L312.832 351.704C312.152 352.576 311.368 353.352 310.616 353.92C310.352 353.848 310.088 353.792 309.816 353.728ZM280.608 404.168C286.64 400.12 293.36 397.096 299.84 393.832C306.128 390.664 312.408 387.456 318.768 384.432C324.864 381.528 330.864 378.352 337.008 375.552C339.896 374.24 345.6 373.152 346.552 369.584C346.728 368.944 346.608 368.216 346.312 367.576C347.12 364.384 344.104 359.936 342.888 357.264C340.64 352.344 338.16 347.624 335.08 343.16C330.576 336.64 326.568 330.528 323.568 323.168C321.544 318.2 318.952 311.216 314.856 307.136C311.704 300.856 308.712 294.544 305.824 288.136C304.288 284.736 302.768 281.328 301.168 277.96C300.288 276.104 299.584 274.576 298.224 273.496C297.768 272.224 296.384 271.232 294.752 271.832C290.216 273.496 286.144 275.864 282.128 278.376C275.944 281.112 270.232 284.904 264.696 288.768C253.536 296.576 243.384 305.952 232.016 313.44C230.144 314.672 229.432 316.904 230.992 318.88C231.352 319.336 231.696 319.816 232.048 320.272C232.664 326.408 236.744 332.016 239.696 337.272C243.664 344.32 246.416 351.88 250.2 359.008C254.336 366.8 259.64 373.864 263.12 382.024C265.768 388.24 269.104 395.744 274.096 400.472C273.752 403.264 277.528 406.232 280.608 404.168Z" fill="#F5FCFB"/>
<path d="M252.856 306.12C254.608 301.656 260.136 298.768 263.944 296.288C268.464 293.344 273.304 290.888 278.48 289.32C280.96 288.568 282.24 292.728 279.936 293.736C275.392 295.736 271.048 298.08 266.968 300.92C263.416 303.392 260.312 307.664 256.432 309.4C254.504 310.272 251.992 308.296 252.856 306.12Z" fill="#558ED1"/>
<path d="M273.656 312.56C280.192 306.072 290.448 302.624 298.744 299.056C299.92 298.552 300.808 300.376 299.64 300.912C295.592 302.768 291.696 304.888 287.816 307.072C283.528 309.48 279.568 312.744 275.128 314.816C273.744 315.448 272.616 313.584 273.656 312.56Z" fill="#558ED1"/>
<path d="M244.536 330.408C249.088 327.712 253.768 325.104 258.168 322.168C261.864 319.704 265.072 316.768 269.24 315.088C270.4 314.616 271.088 316.2 270.088 316.848C266.112 319.464 262.84 323.192 258.784 325.64C254.504 328.216 250.264 330.864 245.984 333.44C244.208 334.52 242.752 331.472 244.536 330.408Z" fill="#558ED1"/>
<path d="M248.688 335.928C257.24 330.672 265.968 325.744 274.936 321.232C283.616 316.872 291.56 311.032 300.392 307.04C301.648 306.472 302.536 308.368 301.344 309.024C296.824 311.512 292.744 314.672 288.504 317.592C284.672 320.224 280.56 322.24 276.424 324.328C267.464 328.84 258.76 333.832 250.176 339.024C248.344 340.128 246.888 337.032 248.688 335.928Z" fill="#558ED1"/>
<path d="M250.368 344.72C252.664 341.56 256.456 339.736 259.832 337.968C264.936 335.304 270.104 332.792 275.184 330.088C285.52 324.584 295.44 318.304 305.776 312.832C306.728 312.328 307.728 313.824 306.856 314.488C298.312 320.96 288.68 326.168 279.336 331.352C274.696 333.928 269.96 336.336 265.216 338.72C260.536 341.072 256.376 343.864 251.944 346.584C250.904 347.24 249.672 345.68 250.368 344.72Z" fill="#558ED1"/>
<path d="M289.712 331.76C295.192 325.416 304.608 324.336 310.952 318.984C312.168 317.96 314.28 319.696 313.168 320.984C310.624 323.928 307.208 325.792 303.752 327.456C299.576 329.472 295.536 331.624 291.432 333.776C290.32 334.36 288.824 332.792 289.712 331.76Z" fill="#558ED1"/>
<path d="M253.416 350.752C258.872 347.592 264.632 344.936 270.248 342.072C275.8 339.24 281.248 335.736 287.064 333.504C287.952 333.168 288.856 334.352 288.048 335.016C283.552 338.712 277.992 341.2 272.872 343.904C266.832 347.096 260.832 350.416 254.696 353.416C253.032 354.232 251.848 351.664 253.416 350.752Z" fill="#558ED1"/>
<path d="M308.832 330.952C310.728 328.896 313.536 327.864 315.728 326.16C317.024 325.16 318.728 327.12 317.448 328.168C315.248 329.968 312.664 331.712 310.024 332.784C308.872 333.24 308.024 331.824 308.832 330.952Z" fill="#558ED1"/>
<path d="M257.36 360.416C259.504 357.392 263.752 356.184 266.856 354.336C271.112 351.808 275.408 349.336 279.84 347.12C284.152 344.96 288.544 343.096 292.752 340.728C296.904 338.392 301.096 335.608 305.776 334.464C306.872 334.2 307.2 335.76 306.376 336.272C298.72 340.976 290.544 345.152 282.408 348.96C274.24 352.792 267 358.272 258.952 362.28C257.872 362.824 256.648 361.424 257.36 360.416Z" fill="#558ED1"/>
<path d="M262.64 367.84C270.2 361.152 280.368 356.8 289.36 352.424C299.824 347.336 310.288 342.432 320.488 336.816C321.384 336.328 322.352 337.784 321.512 338.384C312.808 344.576 302.976 349.168 293.376 353.776C283.752 358.4 272.64 362.96 264.576 370.104C263.184 371.344 261.248 369.072 262.64 367.84Z" fill="#558ED1"/>
<path d="M267.784 374.408C271.824 371.672 276.48 369.848 280.832 367.656C286.04 365.032 291.16 362.232 296.328 359.52C305.28 354.824 314.256 348.792 324.088 346.176C325.152 345.896 325.752 347.712 324.72 348.08C315.08 351.512 306.584 357.376 297.56 362.072C288.192 366.944 278.312 371.184 269.408 376.88C268.04 377.76 266.448 375.312 267.784 374.408Z" fill="#558ED1"/>
<path d="M271.584 380.968C275.968 378.976 280.64 377.824 284.992 375.72C289.792 373.408 294.32 370.576 299.008 368.04C303.472 365.624 308.216 363.824 312.8 361.672C318.088 359.2 323.08 356.232 328.216 353.464C329.208 352.928 330.304 354.568 329.352 355.2C320.536 361.064 310.704 364.744 301.352 369.56C296.616 372 292.096 374.856 287.4 377.376C282.712 379.896 277.592 381.232 272.816 383.536C271.216 384.304 269.968 381.704 271.584 380.968Z" fill="#558ED1"/>
<path d="M277.336 390.912C285.424 385.176 295.088 381.816 304.128 377.92C314.248 373.56 324.232 368.96 333.472 362.912C334.44 362.272 335.552 363.992 334.624 364.68C326.472 370.68 317.376 375.2 308.144 379.272C303.104 381.488 298.016 383.6 292.96 385.792C288.048 387.92 283.52 390.76 278.656 392.944C277.488 393.456 276.216 391.704 277.336 390.912Z" fill="#558ED1"/>
<path d="M179.152 160.08C179.44 158.328 178.992 156.504 177.936 155.08C177.536 154.672 177.144 154.256 176.744 153.848C175.84 153.136 174.816 152.68 173.672 152.488C172.04 152.056 169.984 152.736 168.672 153.704C167.288 154.72 166.352 156.272 166.072 157.968C165.784 159.72 166.232 161.544 167.288 162.968C167.688 163.376 168.08 163.792 168.48 164.2C169.384 164.912 170.408 165.368 171.552 165.56C173.184 165.992 175.24 165.312 176.552 164.344C177.936 163.32 178.872 161.768 179.152 160.08Z" fill="#F5762C"/>
<path d="M129.928 164.864C125.568 163.704 124.512 170.608 128.808 171.752C133.168 172.912 134.232 166.016 129.928 164.864Z" fill="#F5762C"/>
<path d="M154.856 186.216C150.184 184.968 149.04 192.376 153.656 193.608C158.336 194.856 159.472 187.448 154.856 186.216Z" fill="#F5762C"/>
<path d="M177.544 87.5999C168.344 85.1519 166.096 99.7359 175.184 102.152C184.392 104.6 186.632 90.0159 177.544 87.5999Z" fill="#F5762C"/>
<path d="M227.776 152.536C228.264 149.552 227.504 146.44 225.712 144.008C223.832 141.464 221.392 140.36 218.44 139.576C215.648 138.832 212.144 140 209.912 141.648C207.56 143.384 205.952 146.032 205.48 148.92C204.992 151.904 205.752 155.016 207.552 157.448C209.432 159.992 211.872 161.088 214.824 161.88C217.616 162.624 221.12 161.464 223.352 159.808C225.704 158.064 227.304 155.424 227.776 152.536Z" fill="#F5762C"/>
<path d="M164.76 32.544C164.216 30.92 163.152 29.0319 161.688 28.0719C160.68 27.2719 159.544 26.768 158.272 26.56C156.96 26.352 155.688 26.488 154.448 26.96C151.528 28.088 149.256 31.352 149.768 34.56C149.896 35.36 150 36.184 150.368 36.904C150.504 37.168 150.592 37.4479 150.672 37.728C150.688 37.808 150.712 37.8879 150.728 37.9679C151.224 39.2319 151.992 40.288 153.048 41.144C154.568 42.36 156.544 42.9439 158.488 42.7519C160.488 42.5519 162.368 41.536 163.624 39.96C165.336 37.8 165.616 35.096 164.76 32.544Z" fill="#F25467"/>
<path d="M140.992 64.2001C141.472 61.2641 140.72 58.2 138.96 55.816C138.296 55.128 137.624 54.432 136.96 53.744C135.44 52.544 133.72 51.784 131.808 51.456C129.064 50.728 125.616 51.872 123.416 53.488C121.104 55.2 119.52 57.8001 119.056 60.6401C118.576 63.5761 119.328 66.64 121.088 69.032C121.752 69.72 122.424 70.416 123.088 71.104C124.608 72.304 126.328 73.064 128.24 73.392C130.984 74.12 134.432 72.9761 136.632 71.3601C138.952 69.6401 140.528 67.0401 140.992 64.2001Z" fill="#F25467"/>
<path d="M125.448 117.632C121.752 115.992 117.296 117.712 115.656 121.408C114.256 124.576 115.296 128.728 118.312 130.528C119.848 131.44 121.336 131.984 123.176 131.8C125.152 131.6 127.008 130.6 128.24 129.048C131.224 125.304 129.832 119.576 125.448 117.632Z" fill="#F25467"/>
<path d="M176.856 199.608C177.016 198.616 176.768 197.576 176.168 196.768C175.344 195.656 174.112 195.232 172.776 195.264C172.56 195.272 172.344 195.28 172.12 195.296C170.552 195.448 169.216 196.68 168.96 198.24C168.768 199.44 169.248 200.88 170.256 201.592C170.696 201.904 171.16 202.16 171.616 202.44C172.416 202.92 173.664 202.832 174.488 202.512C175.736 202.032 176.648 200.912 176.856 199.608Z" fill="#F25467"/>
<path d="M143.448 188.248C143.568 187.344 143.64 186.504 143.304 185.608C142.568 183.608 139.784 182.656 138.072 184.088C137.528 184.544 137.096 184.992 136.816 185.656C136.744 185.84 136.664 186.024 136.592 186.208C135.848 188.024 136.592 190.152 138.424 190.96C140.512 191.888 143.136 190.56 143.448 188.248Z" fill="#EAA8BB"/>
<path d="M146.728 139.6C147.048 137.656 146.552 135.616 145.376 134.032C144.936 133.576 144.488 133.112 144.048 132.656C143.04 131.856 141.896 131.352 140.632 131.144C138.808 130.656 136.52 131.416 135.064 132.496C133.528 133.632 132.48 135.36 132.176 137.24C131.856 139.184 132.352 141.216 133.528 142.808C133.968 143.264 134.416 143.728 134.856 144.184C135.864 144.984 137.008 145.488 138.272 145.696C140.096 146.184 142.384 145.424 143.84 144.344C145.368 143.216 146.416 141.488 146.728 139.6Z" fill="#EAA8BB"/>
<path d="M149.432 209.592C149.576 208.704 149.352 207.776 148.816 207.056C148.256 206.296 147.528 205.968 146.656 205.736C145.824 205.512 144.784 205.864 144.12 206.352C143.416 206.872 142.944 207.656 142.8 208.512C142.656 209.4 142.88 210.328 143.416 211.048C143.976 211.808 144.704 212.128 145.576 212.368C146.408 212.592 147.448 212.24 148.112 211.752C148.816 211.24 149.296 210.456 149.432 209.592Z" fill="#EAA8BB"/>
<path d="M237 112.968C237.472 110.056 236.736 107.016 234.976 104.64C234.312 103.952 233.648 103.272 232.992 102.584C231.48 101.392 229.776 100.632 227.88 100.312C225.152 99.5839 221.728 100.72 219.552 102.336C217.256 104.032 215.688 106.616 215.224 109.44C214.744 112.352 215.488 115.392 217.248 117.768C217.912 118.456 218.576 119.136 219.232 119.824C220.744 121.016 222.448 121.776 224.344 122.096C227.072 122.824 230.496 121.688 232.68 120.072C234.968 118.368 236.536 115.784 237 112.968Z" fill="#EAA8BB"/>
<path d="M199.04 135.824C195.616 134.304 191.488 135.896 189.976 139.32C188.992 141.544 189.32 144.064 190.608 145.968C190.648 147.704 191.824 149.368 193.384 150.064C194.504 150.56 195.792 150.592 196.944 150.152C197.808 149.816 198.768 149.112 199.272 148.24C200.688 147.56 201.864 146.416 202.544 144.888C204.056 141.464 202.464 137.344 199.04 135.824Z" fill="#EAA8BB"/>
<path d="M138.432 88.6235L138.601 88.7119C138.593 88.6958 138.545 88.6718 138.432 88.6235Z" fill="#EAA8BB"/>
<path d="M143.136 91.6801C142.48 91.1201 141.768 90.64 141.032 90.192C140.232 89.64 139.352 89.0641 138.6 88.7041C138.736 88.8481 132.304 86.504 136.96 88.192C135.144 87.536 133.52 87.056 131.552 87.256C129.936 87.424 128.464 87.9761 127.12 88.8641C124.752 89.6721 122.744 92.184 122.352 94.576C122.112 96.056 122.376 97.5281 122.96 98.8801C123.048 99.3761 123.176 99.88 123.408 100.496C123.824 101.56 124.408 102.504 125.136 103.344C125.256 103.768 125.376 104.192 125.48 104.616C126.16 107.352 129 109.808 131.464 110.896C135.16 112.536 139.544 112.048 142.8 109.648C148.84 105.192 148.68 96.4081 143.136 91.6801Z" fill="#EAA8BB"/>
<path d="M200.744 119.632C201.056 117.728 200.568 115.736 199.424 114.176C198.224 112.552 196.664 111.848 194.776 111.344C192.992 110.872 190.752 111.616 189.32 112.664C187.816 113.776 186.792 115.464 186.488 117.312C186.176 119.216 186.664 121.208 187.808 122.768C189.008 124.392 190.568 125.096 192.456 125.6C194.24 126.072 196.48 125.328 197.912 124.28C199.416 123.168 200.44 121.48 200.744 119.632Z" fill="#EAA8BB"/>
<path d="M246.544 61.1201C247.304 58.5361 246.112 55.104 244.584 53.048C242.936 50.816 240.432 49.304 237.696 48.856C234.872 48.392 231.92 49.112 229.624 50.816C227.264 52.56 226.088 54.9121 225.432 57.7041C225.216 58.5921 225.008 59.488 224.8 60.376C224.168 63.048 225.152 66.24 226.744 68.392C228.376 70.608 230.864 72.112 233.576 72.552C236.384 73.008 239.312 72.296 241.592 70.608L243.576 68.696C244.728 67.24 245.456 65.6 245.76 63.768C246.024 62.888 246.288 62.0001 246.544 61.1201Z" fill="#558ED1"/>
<path d="M119.856 28.3678C110.528 25.8798 108.248 40.6639 117.464 43.1199C126.792 45.5999 129.064 30.8158 119.856 28.3678Z" fill="#558ED1"/>
<path d="M173.304 134.568C173.624 132.592 173.12 130.536 171.936 128.928C171.488 128.464 171.04 128 170.592 127.536C169.568 126.728 168.416 126.216 167.128 126C165.28 125.512 162.96 126.28 161.488 127.368C159.928 128.52 158.872 130.272 158.56 132.176C158.24 134.152 158.736 136.208 159.928 137.816C160.376 138.28 160.824 138.744 161.272 139.208C162.296 140.016 163.448 140.528 164.736 140.744C166.584 141.24 168.904 140.464 170.376 139.376C171.936 138.232 172.992 136.48 173.304 134.568Z" fill="#558ED1"/>
<path d="M158.04 174.32C158.416 172.04 156.456 169.96 154.152 170.184C152.216 170.376 150.752 172.16 150.944 174.096C151.032 174.952 151.504 176.064 152.272 176.536C152.912 176.928 153.392 177.328 154.168 177.312C155.072 177.296 155.88 177.176 156.632 176.616C157.384 176.072 157.888 175.232 158.04 174.32Z" fill="#558ED1"/>
<path d="M201.424 48.4158C188.504 44.9758 185.344 65.4478 198.104 68.8478C211.032 72.2878 214.184 51.8158 201.424 48.4158Z" fill="#558ED1"/>
<path d="M217.176 79.8558C214.192 77.5598 209.68 76.1038 205.96 77.4958C205.296 77.6558 204.64 77.8559 203.992 78.0239C202.592 78.3999 201.456 79.1919 200.536 80.1999C199.36 80.8479 198.312 81.5439 197.392 82.7039C195.896 84.5839 194.744 87.4318 195.176 89.8318C195.536 91.8158 196.256 93.1438 197.76 94.4958C197.824 94.5678 197.904 94.6319 197.992 94.6799C198.552 95.0159 199.112 95.3598 199.672 95.6958C202.024 96.3998 202.184 96.4478 200.144 95.8318C200.856 96.0478 201.488 96.2158 202.112 96.3518C202.448 96.7038 202.768 97.0718 203.168 97.3918C206.256 99.8558 210.512 100.512 214.208 99.0879C222.04 96.0719 223.968 85.0718 217.176 79.8558Z" fill="#558ED1"/>
<path d="M176.48 61.88C176.968 58.888 176.208 55.76 174.4 53.32C173.72 52.616 173.04 51.9119 172.36 51.2079C170.808 49.9839 169.056 49.208 167.104 48.88C164.304 48.136 160.784 49.304 158.544 50.96C156.184 52.704 154.576 55.3599 154.096 58.2559C153.608 61.2479 154.368 64.3759 156.176 66.8159C156.856 67.5199 157.536 68.2239 158.216 68.9279C159.768 70.1519 161.52 70.9279 163.472 71.2559C166.272 71.9999 169.792 70.8319 172.032 69.1759C174.392 67.4319 176.008 64.784 176.48 61.88Z" fill="#71D0DE"/>
<path d="M269.984 89.5759C270.472 86.5919 269.712 83.48 267.92 81.048C267.24 80.344 266.56 79.6399 265.888 78.9359C264.344 77.7119 262.592 76.9439 260.648 76.6159C257.856 75.8719 254.352 77.032 252.12 78.688C249.76 80.424 248.16 83.072 247.688 85.96C247.2 88.944 247.96 92.056 249.752 94.488C250.432 95.192 251.112 95.896 251.784 96.592C253.328 97.816 255.08 98.584 257.024 98.912C259.816 99.656 263.32 98.496 265.552 96.84C267.912 95.104 269.512 92.4639 269.984 89.5759Z" fill="#71D0DE"/>
<path d="M208.152 175.048C208.448 173.232 207.984 171.336 206.896 169.864C206.48 169.44 206.072 169.008 205.656 168.584C204.712 167.84 203.656 167.368 202.472 167.168C200.776 166.72 198.64 167.424 197.288 168.424C195.856 169.48 194.88 171.088 194.592 172.848C194.296 174.664 194.76 176.56 195.848 178.04C196.264 178.464 196.672 178.896 197.088 179.32C198.032 180.064 199.088 180.536 200.272 180.736C201.968 181.184 204.104 180.48 205.456 179.48C206.896 178.416 207.864 176.808 208.152 175.048Z" fill="#71D0DE"/>
<path d="M192.36 425.376C190.608 417.328 188.4 409.336 185.36 401.68C184.56 399.656 183.744 397.68 182.856 395.688C182.584 395.088 182.312 394.44 182.024 393.8C182.936 393.12 183.8 392.408 184.624 391.656C187.936 388.64 185.288 383.984 181.088 383.544C158.368 381.152 129.144 392.944 116.912 369.752C109.872 356.4 107.2 340.88 102.736 326.712C98.384 312.904 92.696 297.592 80.872 287.624C67.88 276.664 51.176 278.168 37.152 285.888C31.568 288.96 34.984 298.104 41.584 296.184C56.664 291.8 67.272 293.56 75.288 306.888C83.312 320.224 86.32 336.336 90.408 350.936C93.12 360.624 95.896 370.936 101.016 379.968C99.432 381.376 98.144 383.968 97.584 385.12C95.576 389.248 94.392 393.816 93.256 398.24C92.008 403.104 91.08 408.056 90.208 413C89.528 416.84 88.64 420.76 88.28 424.64C87.952 428.28 93.192 429.16 93.904 425.528C94.072 424.656 94.864 423.776 95.256 422.976C95.632 422.2 95.28 421.472 94.68 421.088C94.984 418.888 95.224 416.672 95.568 414.496C96.32 409.776 97.176 405.08 98.208 400.416C99.168 396.056 100.304 391.776 101.896 387.6C102.144 386.952 102.944 385.6 103.64 384.168C104.936 386.048 106.368 387.856 107.952 389.568C123.68 406.544 157.872 408.056 177.976 396.448C178.04 396.616 178.104 396.784 178.168 396.96C178.944 399.056 179.176 400.216 180.088 402.568C183.12 410.376 184.872 418.536 186.928 426.632C187.712 429.728 193.032 428.48 192.36 425.376Z" fill="#71D0DE"/>
<path d="M128.632 373.944C128.432 373.944 128.232 373.936 128.032 373.912C121.888 373.256 120.352 366.672 121.712 361.576C121.16 359.184 120.824 356.752 120.728 354.288C118.664 353.168 116.84 351.528 115.608 349.808C113.56 346.944 112.192 341.472 116.568 339.808C116.632 339.784 116.696 339.76 116.76 339.744C116.76 339.608 116.768 339.48 116.784 339.344C113.96 337.408 112.8 332.984 113.032 329.776C113.08 329.064 113.696 328.648 114.296 328.648C114.536 328.648 114.784 328.712 114.984 328.856C114.752 328.624 114.536 328.376 114.352 328.112C114.168 328.24 113.992 328.368 113.808 328.504C113.672 328.6 113.536 328.648 113.4 328.648C113.088 328.648 112.816 328.392 112.8 328.008C112.768 327.344 112.784 326.664 112.888 326.016C112.616 325.688 112.456 325.336 112.376 324.968C112.312 324.808 112.248 324.656 112.192 324.496C112.096 324.488 111.992 324.48 111.896 324.472C111.016 324.384 110.664 323.48 111.056 322.752C111.16 322.56 111.28 322.36 111.416 322.16C111.208 321.688 110.984 321.216 110.76 320.752H110.656C110.48 320.848 110.312 320.896 110.152 320.896C109.696 320.896 109.336 320.52 109.048 319.976C108.256 319.024 107.648 317.952 107.008 316.888C106.592 316.272 106.184 315.632 105.752 314.968C105.256 314.2 106.064 313.368 106.816 313.368C107.096 313.368 107.368 313.48 107.56 313.744C107.712 313.952 107.856 314.16 108 314.376C108.144 314.144 108.392 313.984 108.736 313.984C108.792 313.984 108.848 313.992 108.912 314C110.112 314.168 110.752 314.816 111.12 315.672C111.384 315.912 111.648 316.16 111.912 316.4C111.904 316.304 111.904 316.208 111.912 316.104C112.024 315.072 113.064 314.944 113.904 314.944C113.96 314.944 114.016 314.944 114.072 314.944C114.816 314.96 115.184 315.736 115.016 316.376C114.792 317.2 114.6 318.008 114.448 318.816L114.552 318.92C115.592 318.208 116.752 317.736 117.896 317.736C117.904 317.736 117.912 317.736 117.92 317.736C118.024 317.688 118.12 317.64 118.224 317.6C118.728 317.408 119.264 317.304 119.784 317.304C120.704 317.304 121.592 317.624 122.24 318.392C122.84 319.096 123.16 319.824 123.264 320.56C123.616 320.928 123.616 321.448 123.376 321.912C123.304 322.056 123.224 322.2 123.144 322.344C122.928 323.136 122.512 323.904 121.992 324.624C122.128 324.752 122.24 324.88 122.304 325.016C122.344 325.088 122.368 325.168 122.384 325.24C122.464 325.4 122.544 325.576 122.624 325.768C122.92 325.424 123.224 325.088 123.536 324.776L123.512 324.712V324.72C123.504 324.72 123.48 324.68 123.448 324.632C123.416 324.592 123.392 324.544 123.4 324.544C123.4 324.544 123.416 324.56 123.448 324.592C123.248 324.344 123.136 324.136 123.064 323.816C122.912 323.16 123.336 322.512 123.896 322.208C124.128 322.072 124.392 321.984 124.656 321.92C124.752 321.784 124.856 321.648 124.968 321.52C124.552 321 124.184 320.456 123.872 319.896C123.408 319.072 124.152 317.92 125.04 317.92C125.192 317.92 125.352 317.952 125.512 318.032C126.208 318.368 126.904 318.704 127.6 319.056C128.4 318.44 129.368 317.792 130.304 317.728C130.392 317.72 130.472 317.72 130.552 317.72C130.888 317.72 131.16 317.768 131.384 317.864C131.288 317.048 132.024 316.472 132.768 316.472C133.12 316.472 133.472 316.6 133.736 316.896C135.04 318.368 136.976 320.648 136.632 322.824C136.616 322.92 136.6 323.016 136.576 323.112C136.768 323.28 136.976 323.408 137.192 323.416C137.216 323.416 137.24 323.416 137.264 323.416C137.576 323.416 137.88 323.296 138.152 323.096C138.296 322.2 138.592 321.52 139 321C139 319.904 139.2 318.792 139.504 317.744C139.664 317.176 140.224 316.864 140.776 316.864C140.792 316.864 140.816 316.864 140.832 316.864C140.912 315.024 141.88 313.248 143.024 311.808C143.328 311.424 143.736 311.24 144.136 311.24C144.416 311.24 144.704 311.336 144.944 311.52C144.928 311.184 144.928 310.856 144.92 310.544C144.912 309.784 145.576 309.344 146.24 309.344C146.552 309.344 146.864 309.44 147.104 309.64C147.312 309.56 147.504 309.528 147.68 309.528C148.344 309.528 148.848 310 149.296 310.544C149.544 310.2 149.952 310 150.368 310C150.8 310 151.24 310.216 151.528 310.696C152.032 311.536 152.216 312.784 152.496 313.712C152.824 314.784 153.28 315.328 152.984 316.168C152.904 316.392 152.768 316.584 152.584 316.744C152.8 317.68 153.016 318.616 153.232 319.552C153.328 319.912 153.432 320.272 153.536 320.624C153.616 320.888 153.568 321.096 153.448 321.256C153.408 321.384 153.344 321.512 153.256 321.616C154.608 325.424 154.944 329.44 155.08 333.6C155.088 333.928 154.912 334.256 154.648 334.496C155.448 337.912 155.52 341.4 155.352 344.976C155.336 345.224 155.264 345.44 155.16 345.616C155.48 346.296 155.736 347 155.896 347.736C156.024 348.344 156.088 348.952 156.112 349.56C156.328 349.744 156.488 350 156.552 350.336C156.848 351.88 157.352 353.376 157.784 354.88C157.944 355.248 158.056 355.664 158.144 356.072C158.432 356.456 158.712 356.856 158.864 357.328C159.176 358.304 158.408 358.888 157.6 358.888C157.248 358.888 156.888 358.776 156.6 358.544L156.568 358.536C156.288 358.8 155.888 358.944 155.488 358.944C155.312 358.944 155.136 358.92 154.968 358.864C154.928 359.472 154.864 360.08 154.776 360.696C154.832 360.688 154.888 360.688 154.936 360.688C154.96 360.688 154.984 360.688 155.008 360.688C155.2 360.176 155.608 359.952 156.048 359.952C156.864 359.952 157.776 360.712 157.544 361.776C157.144 363.632 157.624 366.096 157.96 367.944C158.104 368.736 157.608 369.312 156.992 369.496C156.808 370.024 156.408 370.24 155.976 370.24C155.592 370.24 155.184 370.072 154.872 369.808C154.888 369.888 154.896 369.968 154.912 370.048C155.088 370.992 154.216 371.704 153.408 371.704C152.952 371.704 152.52 371.472 152.312 370.936C152.16 370.536 152.008 370.136 151.856 369.736C151.952 370.696 151.264 371.256 150.528 371.256C150.064 371.256 149.576 371.032 149.256 370.544C148.864 369.952 148.472 369.368 148.104 368.784C148.072 368.848 148.048 368.92 148.016 368.984C147.424 370.208 146.352 371.504 144.888 371.504C144.768 371.504 144.648 371.496 144.528 371.48C143.44 371.328 142.64 370.848 142.064 370.16C141.824 370.136 141.584 370.056 141.384 369.904C141.208 369.768 141.048 369.632 140.88 369.488C140.184 370.04 139.352 370.392 138.344 370.44C138.048 370.912 137.52 371.16 136.992 371.16C136.44 371.16 135.88 370.888 135.608 370.312C135.496 370.072 135.392 369.84 135.288 369.6C135.048 369.448 134.824 369.272 134.616 369.088C134.496 369.704 134.352 370.328 134.168 370.96C134.008 371.504 133.56 371.84 133.048 371.944C131.936 373.176 130.32 373.944 128.632 373.944ZM128.344 368.864C128.296 369.152 128.16 369.4 127.96 369.6C128.104 370.096 128.232 370.6 128.344 371.104L128.416 371.112C128.472 371.112 128.528 371.112 128.584 371.112C129.304 371.112 129.88 370.944 130.336 370.664C129.648 370.128 128.96 369.528 128.344 368.864ZM143.784 366.824C143.808 367.08 143.824 367.328 143.84 367.592C144.072 368.12 144.472 368.68 144.736 368.696C144.768 368.696 144.8 368.696 144.816 368.696C144.92 368.696 144.944 368.672 145.112 368.488C145.168 368.432 145.216 368.36 145.264 368.296C144.824 368.232 144.456 367.96 144.216 367.552C144.08 367.304 143.928 367.064 143.784 366.824ZM144.424 360.464C144.344 360.664 144.216 360.84 144.024 360.976C143.944 361.032 143.864 361.08 143.784 361.12C143.832 361.28 143.888 361.432 143.952 361.584C144.096 361.928 144.256 362.264 144.432 362.592C144.424 362.384 144.424 362.176 144.416 361.968C144.4 361.776 144.384 361.592 144.376 361.408C144.344 361.168 144.312 360.912 144.328 360.912C144.336 360.912 144.352 360.952 144.376 361.048C144.376 360.96 144.376 360.872 144.376 360.784C144.376 360.672 144.4 360.56 144.424 360.464ZM144.56 359.52C144.568 359.784 144.552 360.056 144.48 360.304C144.568 360.096 144.704 359.928 144.872 359.808L144.856 359.72C144.752 359.664 144.656 359.592 144.56 359.52ZM144.456 354.208C144.592 354.6 144.768 354.96 144.992 355.312C145.016 355.176 145.04 355.048 145.064 354.92C144.864 354.68 144.664 354.44 144.456 354.208ZM135.64 344.904C135.312 345.272 135.032 345.688 134.8 346.128C134.696 346.472 134.6 346.816 134.504 347.144C134.184 348.28 133.88 349.512 133.672 350.76C134.152 351.576 134.736 352.28 135.424 352.664C135.68 352.344 135.92 352.024 136.152 351.688C136.088 350.52 136.168 349.352 136.36 348.2C135.856 348.04 135.488 347.632 135.4 346.792C135.336 346.136 135.448 345.512 135.64 344.904ZM123.616 351.744C123.68 351.84 123.744 351.944 123.808 352.04C124.184 352.336 124.6 352.528 125.072 352.56C125.032 352.304 125 352.056 124.976 351.808C124.784 351.936 124.56 352.008 124.328 352.008C124.104 352.008 123.872 351.936 123.648 351.776L123.616 351.744ZM117.472 342.68C115.344 344.088 117.36 347.408 118.6 348.752C118.888 349.064 119.208 349.384 119.552 349.704C119.144 348.56 118.88 347.4 118.72 346.384C118.632 345.832 118.928 345.336 119.344 345.064C118.576 344.376 117.928 343.592 117.472 342.68ZM146.912 344.352C146.792 345.408 146.64 346.312 146.528 346.864C146.448 347.28 146.344 347.696 146.224 348.12C146.472 348.496 146.752 348.864 147.056 349.2C147.088 349.136 147.12 349.064 147.152 349C147.432 348.456 147.864 348.24 148.32 348.24C148.552 348.24 148.792 348.296 149.016 348.4C148.984 347.768 148.968 347.128 148.984 346.48C148.4 345.68 147.696 344.984 146.912 344.352ZM124.496 347.912C124.592 348.16 124.688 348.408 124.792 348.656C124.784 348.456 124.768 348.24 124.752 348.008C124.672 347.976 124.584 347.944 124.496 347.912ZM132.56 342.648C132.088 343 131.704 343.432 131.384 343.92C131.416 344.064 131.456 344.208 131.488 344.352C131.584 344.776 131.48 345.136 131.248 345.424L131.384 345.464C131.536 345.144 131.704 344.832 131.88 344.536C132.088 343.896 132.312 343.272 132.56 342.648ZM126.864 340.064L126.848 340.136C126.904 340.408 126.968 340.672 127.04 340.936C127.264 341.712 127.56 342.472 127.864 343.224H127.984C128.016 342.976 128.032 342.72 128.048 342.472C127.784 341.656 127.456 340.848 127.04 340.096C126.992 340.096 126.928 340.08 126.864 340.064ZM149.744 341.416C149.656 341.544 149.568 341.68 149.472 341.808L149.344 341.96C149.616 342.184 149.88 342.416 150.144 342.656C150.144 342.584 150.152 342.52 150.152 342.448C150.064 342.12 149.968 341.8 149.872 341.472L149.744 341.416ZM122.736 338.928C122.496 339.448 122.376 339.984 122.432 340.496C123.064 340.888 123.656 341.376 124.208 341.912C124.296 341.568 124.384 341.224 124.48 340.888C124.352 340.352 124.28 339.832 124.256 339.32C123.744 339.232 123.24 339.104 122.736 338.928ZM131.576 336.688C131.128 337.2 130.624 337.64 130.072 338.016C130.864 338.504 131.784 338.864 132.688 339.072C132.832 339.008 132.976 338.944 133.12 338.888C132.72 338.088 132.208 337.312 131.576 336.688ZM128.376 335.336C128.208 335.336 128.04 335.344 127.872 335.36C127.968 335.688 128.112 336 128.288 336.288C128.704 336.064 129.072 335.776 129.392 335.44C129.256 335.408 129.112 335.384 128.968 335.368C128.768 335.344 128.568 335.336 128.376 335.336ZM142.648 333.632C142.6 333.76 142.56 333.888 142.52 334.024C142.656 334.64 142.512 335.144 142.192 335.552C142.184 335.648 142.168 335.752 142.16 335.848C142.472 335.704 142.8 335.592 143.136 335.52C143.312 335.488 143.472 335.464 143.632 335.456C143.216 334.888 142.872 334.28 142.648 333.632ZM135.584 330.472V330.48C135.136 331.024 134.624 331.6 134.048 332.128C133.864 332.872 133.784 333.632 133.944 334.336C134.136 335.192 134.68 335.6 135.704 335.6C135.784 335.6 135.872 335.6 135.96 335.592C136.928 335.536 137.92 335.176 138.8 334.792L138.816 334.784C138.912 334.208 139.056 333.64 139.232 333.08C138.264 331.952 136.944 331.024 135.584 330.472ZM124.384 327.336C123.784 328.064 123.264 328.848 122.816 329.624C122.776 329.688 122.744 329.752 122.704 329.824C122.952 330.28 123.16 330.752 123.304 331.248C123.552 332.104 123.64 332.992 123.64 333.896C123.728 333.88 123.816 333.864 123.904 333.848C124.4 333.552 124.928 333.296 125.472 333.096C125.648 332.536 125.904 331.984 126.224 331.472C125.864 330.936 125.568 330.368 125.32 329.816C124.944 329 124.656 328.176 124.384 327.336ZM131.224 330.328C130.88 330.48 130.552 330.672 130.256 330.92C130.136 331.016 130.008 331.128 129.88 331.24L129.928 331.248C130.36 331.024 130.792 330.792 131.208 330.544C131.216 330.472 131.224 330.4 131.224 330.328ZM138.48 325.944C138.272 326.016 138.064 326.056 137.848 326.08C137.664 326.216 137.48 326.36 137.304 326.52C137.288 327.136 137.144 327.744 136.896 328.344C137.032 328.408 137.16 328.464 137.288 328.536C138.256 329.048 139.312 329.736 140.232 330.576C140.504 330.016 140.792 329.48 141.08 328.968C139.936 328.2 138.984 327.176 138.48 325.944ZM127.008 327.44C127.264 328.144 127.568 328.824 127.944 329.456C128.136 329.288 128.336 329.128 128.544 328.984C129.368 328.392 130.232 327.976 131.12 327.736C131.088 327.52 131.056 327.28 131.016 327.024C130.832 327.072 130.64 327.104 130.456 327.136C129.632 327.264 128.528 327.456 127.448 327.456C127.304 327.448 127.152 327.448 127.008 327.44ZM140.408 325.192C140.76 326.2 141.496 326.976 142.416 327.52C142.552 327.488 142.68 327.472 142.824 327.472C142.848 327.472 142.872 327.472 142.896 327.472C142.952 327.16 143.016 326.856 143.064 326.552C142.92 326.392 142.768 326.24 142.608 326.104C141.864 326.064 141.152 325.736 140.576 325.208L140.408 325.192ZM133.848 325.64L133.808 325.648C133.64 325.672 133.472 325.688 133.304 325.704C133.464 326.272 133.584 326.872 133.664 327.48H133.688C133.952 327.072 134.24 326.672 134.552 326.288C134.392 326.048 134.144 325.832 133.848 325.64ZM128.136 324.312C128.072 324.344 128 324.368 127.928 324.4C127.736 324.488 127.544 324.592 127.36 324.704C127.632 324.72 127.92 324.736 128.216 324.736C128.424 324.736 128.632 324.728 128.84 324.72C128.608 324.592 128.376 324.456 128.136 324.312ZM142.152 321.856C142.064 322.032 141.976 322.216 141.88 322.4L141.928 322.512C142.04 322.76 142.168 323.128 142.408 323.296C142.632 323.456 142.72 323.472 142.704 323.48C142.912 323.432 143.112 322.984 143.224 322.528C143.12 322.456 143.024 322.392 142.928 322.312C142.76 322.176 142.608 322.04 142.464 321.888C142.352 321.864 142.248 321.856 142.152 321.856ZM148.12 319.6C148.248 320.312 148.352 321.032 148.44 321.768C148.824 321.36 149.24 320.968 149.68 320.6L149.584 320.44C149.488 320.312 149.4 320.168 149.312 320.024C149.048 320 148.768 319.92 148.464 319.784C148.344 319.728 148.232 319.664 148.12 319.6ZM118.472 320.136C118.376 320.232 118.288 320.336 118.192 320.448C118.312 320.568 118.368 320.752 118.24 320.912L118.096 321.064L118.208 321.032C118.528 320.84 118.784 320.608 118.952 320.328H118.96C118.816 320.232 118.648 320.16 118.472 320.136ZM144.072 315.32C143.92 315.672 143.776 316.032 143.672 316.392C143.792 316.392 143.912 316.4 144.032 316.408C144.088 316.136 144.136 315.872 144.192 315.6C144.16 315.504 144.112 315.416 144.072 315.32Z" fill="#F79051"/>
<path d="M154.896 310.8C158.72 330.664 157.704 351.096 161.312 370.976C149.624 372.768 137.792 373.72 126.304 376.648C122.8 366.128 120.536 355.2 117.776 344.472C116.352 338.92 114.84 333.392 112.984 327.968C111.568 323.832 110.112 318.48 106.592 315.64C106.384 315.472 106.12 315.712 106.152 315.936C106.448 318.128 107.32 320.032 108.064 322.112C108.912 324.488 109.784 326.84 110.528 329.256C112.224 334.768 113.632 340.368 114.968 345.976C117.6 357.056 119.848 368.296 123.432 379.112C123.72 379.984 124.496 380.776 125.52 380.512C138.104 377.256 151.104 376.424 163.904 374.384C164.92 374.224 165.576 373.152 165.384 372.168C161.432 351.68 162.48 330.576 158.424 310.104C157.968 307.84 154.464 308.528 154.896 310.8Z" fill="#575A5B"/>
<path d="M83.9359 365.28C82.3999 363.368 81.0479 361.6 80.3199 359.224C79.5999 356.856 79.3599 354.336 79.3839 351.872C79.4479 346.328 81.1199 340.864 83.3039 335.824C85.5839 330.576 88.7919 325.68 92.5359 321.36C94.2799 319.344 96.2079 317.496 98.3119 315.856C99.9919 314.544 102.384 312.744 104.648 313.128C104.784 313.152 104.912 313.176 105.04 313.2C105.56 313.296 105.856 313.96 105.592 314.408C104.512 316.232 102.608 317.312 100.968 318.576C99.0719 320.04 97.3439 321.736 95.7279 323.496C92.1519 327.392 89.2879 331.864 86.9359 336.592C84.6799 341.144 83.0399 346.096 82.5999 351.168C82.3999 353.496 82.4879 355.856 83.0079 358.136C83.4879 360.272 84.1039 362.6 85.4159 364.368C86.1119 365.288 84.6239 366.128 83.9359 365.28Z" fill="#575A5B"/>
<path d="M166.432 314.128C170.56 317.768 175.048 321.056 179.688 324.008C184.016 326.76 188.592 329.232 193.496 330.792C196.8 331.84 201.16 332.744 204.104 330.352C204.576 329.968 205.072 328.92 204.424 328.448C203.52 327.792 202.08 328.592 200.936 328.672C199.192 328.792 197.48 328.488 195.816 328.024C191.112 326.712 186.712 324.16 182.608 321.592C178.008 318.712 173.656 315.44 169.552 311.896C167.776 310.36 166.048 308.768 164.416 307.072C163.16 305.768 161.84 304.264 160.128 303.648L160 303.6C159.472 303.4 158.944 303.92 158.928 304.424C158.896 306.312 160.192 308.024 161.424 309.344C163 311.024 164.696 312.6 166.432 314.128Z" fill="#575A5B"/>
<path d="M95.672 242.184L95.664 242.168C94.936 239.904 94.456 237.48 94.112 235.096C94.016 234.424 92.976 234.424 92.896 235.16C92.568 238.256 93.08 241.296 93.952 244.184C94.536 243.528 95.112 242.856 95.672 242.184Z" fill="#575A5B"/>
<path d="M102.432 215.256C106.216 210.456 110.864 207.416 116.656 206.296C119.664 205.72 122.72 205.648 125.736 205.872C126.648 204.744 127.52 203.608 128.36 202.456C126.208 202.216 124.04 202.104 121.856 202.16C113.6 202.392 104.744 205.608 99.9999 213.416C98.9119 215.216 101.08 216.968 102.432 215.256Z" fill="#575A5B"/>
<path d="M169.4 371.848C168.184 371.08 169.376 369.28 170.624 369.736C173.768 370.904 176.52 373.12 179.16 375.128C182.416 377.6 185.568 380.224 188.92 382.568C193.344 385.664 201.136 390.976 206.032 385.88C207.568 384.288 210.328 386.392 208.776 388.008C202.816 394.2 194.728 390.552 188.64 386.56C181.88 382.128 176.224 376.184 169.4 371.848Z" fill="#575A5B"/>
<path d="M155.992 242.808C155.68 241.864 154.912 241.144 154.232 240.432C153.576 239.736 152.92 239.08 152.184 238.48C151.792 238.16 151.296 238.136 150.904 238.32C150.824 238.336 150.752 238.352 150.672 238.384C146.616 239.992 142.336 240.472 138.056 241.16C133.592 241.888 129.12 242.584 124.632 243.184C120.072 243.8 115.488 244.264 110.896 244.56C107.488 244.776 103.944 244.512 100.472 244.56C106.968 241.248 112.2 235.352 116.52 229.704C122.056 222.464 126.968 214.368 130.92 206.176C131.72 204.528 129.136 203.2 128.4 204.872C121.536 220.328 111.888 236.536 96.088 244.088C95.672 244.288 95.536 244.656 95.576 245.032C95.104 245.368 95.128 246.128 95.808 246.344C100.112 247.696 105.28 247.184 109.728 247C114.744 246.792 119.744 246.232 124.72 245.592C129.568 244.968 134.4 244.248 139.232 243.512C143.184 242.912 147.104 242.464 150.88 241.112C151.088 241.512 151.328 241.904 151.6 242.272C152.216 243.12 152.88 244.144 153.848 244.608C154.992 245.152 156.416 244.096 155.992 242.808Z" fill="#575A5B"/>
<path d="M415.808 290.704C414.424 295.712 409.128 298.776 404.008 297.56C398.872 296.336 395.84 291.296 397.224 286.28C398.608 281.272 403.904 278.208 409.024 279.424C414.16 280.648 417.192 285.696 415.808 290.704Z" fill="#EBA9BE"/>
<path d="M355.176 286.992C353.792 292 348.504 295.072 343.376 293.856C338.232 292.64 335.2 287.584 336.584 282.592C337.96 277.576 343.256 274.504 348.392 275.728C353.528 276.936 356.568 281.984 355.176 286.992Z" fill="#EBA9BE"/>
<path d="M423.168 270.304C419.752 256.472 408.984 243.976 395.16 239.12C388.488 236.784 381.12 236.472 374.04 237.104C366.528 237.768 358.512 239.216 351.552 242.192C350.256 242.736 350.232 245.04 351.912 244.784C356.072 244.168 360.152 243.096 364.272 242.216C364.224 243.016 364.176 243.808 364.12 244.608C363.976 246.568 363.832 248.672 364.288 250.584C364.408 251.096 365.32 251.12 365.4 250.56C365.728 248.328 366.112 246.128 366.288 243.872C366.312 243.56 366.456 242.664 366.464 241.768C366.848 241.696 367.216 241.616 367.584 241.552C372.8 240.624 378.112 240.216 383.376 240.52C384.352 240.576 385.32 240.672 386.272 240.8C386.008 240.92 385.776 241.128 385.664 241.416C385.168 242.784 385.616 244.096 385.672 245.472C385.704 245.992 386.44 246.208 386.72 245.72C387.44 244.464 387.608 243.024 387.792 241.632C387.824 241.368 387.768 241.168 387.648 241.008C395.992 242.432 403.272 246.552 409.112 252.576C417.36 261.088 421.744 272.608 420.808 284.448C419.984 294.912 414.528 305.208 405.864 311.744C395.712 319.384 382.776 320.744 370.728 318.152C356.224 315.032 341.672 307.536 334 294.88C330.784 289.576 329.192 283.52 329.584 277.304C330.016 270.44 333.048 263.984 337.256 258.432C340.088 254.704 343.576 251.28 347.2 248.272C347.824 247.752 347 246.728 346.344 247.208C334.656 255.84 325.224 268.552 326.856 283.248C328.36 296.68 338.368 307.256 349.864 313.84C362.064 320.824 377.776 324.984 392.088 321.848C403.28 319.392 412.912 312.104 418.608 302.456C424.36 292.712 425.808 280.984 423.168 270.304Z" fill="#575A5B"/>
<path d="M360.712 274C360.832 273.568 360.688 273.184 360.392 272.888C360.2 272.528 359.848 272.24 359.416 272.144C358.608 271.952 357.744 272.448 357.528 273.24C357.312 274.04 357.8 274.856 358.616 275.048C359.032 275.144 359.504 275.064 359.856 274.824C360.264 274.704 360.592 274.424 360.712 274Z" fill="#575A5B"/>
<path d="M391.032 275.616C391.184 275.048 390.832 274.456 390.248 274.32C389.688 274.184 389.072 274.28 388.568 274.568C388.464 274.6 388.344 274.632 388.232 274.704C388.136 274.76 388.04 274.824 387.952 274.896L387.904 274.912C387.448 275.12 387.184 275.68 387.184 276.136C387.2 276.752 387.632 277.296 388.248 277.44C388.736 277.552 389.264 277.408 389.624 277.056C389.808 276.872 389.936 276.656 390 276.416L390.008 276.408C390.464 276.376 390.888 276.104 391.032 275.616Z" fill="#575A5B"/>
<path d="M410.256 294.424C410.096 291.824 408.896 289.512 407.696 287.248C407.288 286.472 405.376 282.936 404.208 284.656C403.4 285.84 404.464 287.384 405.16 288.592C395.96 293.936 385.456 296.832 374.848 297.28C369.152 297.52 363.2 296.896 358.12 294.392C353.4 292.072 349.936 287.824 348.552 282.864C349.464 282.816 350.368 282.792 351.288 282.752C352.456 282.68 352.688 281.072 351.552 280.784C347.264 279.712 342.064 281.264 338.712 284.048C338.264 284.416 338.72 285.16 339.264 284.968C341.096 284.328 342.936 283.704 344.84 283.288C345.848 283.072 346.856 282.96 347.872 282.904C348.088 285.624 348.64 288.04 350.136 290.384C351.552 292.592 353.512 294.368 355.784 295.752C360.784 298.824 367.024 299.768 372.912 299.872C379.392 299.984 386.16 298.864 392.336 296.816C396.976 295.288 402.184 293.264 405.928 289.944C406.848 291.616 407.768 293.272 408.904 294.824C409.28 295.328 410.296 295.176 410.256 294.424Z" fill="#575A5B"/>
<path d="M376.728 240.424C376.424 239.648 375.272 240.024 375.192 240.744C375.04 241.992 375.216 243.296 375.24 244.544C375.272 245.832 375.344 247.128 375.68 248.384C375.824 248.904 376.512 248.928 376.728 248.432C377.784 246.136 377.608 242.72 376.728 240.424Z" fill="#575A5B"/>
<path d="M160.368 279.096C159.536 283.92 155.216 287.168 150.72 286.368C146.216 285.568 143.248 281.016 144.08 276.192C144.912 271.376 149.232 268.12 153.72 268.92C158.224 269.712 161.2 274.272 160.368 279.096Z" fill="#EBA9BE"/>
<path d="M108.032 279.696C107.2 284.512 102.888 287.776 98.3919 286.968C93.8879 286.168 90.9199 281.608 91.7519 276.792C92.5759 271.968 96.9039 268.712 101.4 269.512C105.888 270.32 108.864 274.88 108.032 279.696Z" fill="#EBA9BE"/>
<path d="M165.224 259.352C163.672 254.288 161.152 249.504 157.92 245.344C156.784 245.704 155.64 246.056 154.496 246.392C160.6 253.592 164.168 262.968 164.216 272.864C164.264 282.792 160.32 292.88 153.344 299.632C145.176 307.536 134.16 309.696 123.632 308.056C110.952 306.096 97.912 300.008 90.408 288.584C87.272 283.8 85.464 278.192 85.352 272.296C85.232 265.792 87.376 259.496 90.584 253.976C91.424 252.528 92.36 251.12 93.36 249.752H92.256C91.952 249.752 91.672 249.712 91.408 249.648C85.32 257.704 81.56 267.56 83.432 278.08C85.68 290.656 95.04 299.96 105.392 305.384C116.368 311.144 130.16 314.008 142.232 310.08C151.672 307.008 159.416 299.48 163.616 289.984C167.856 280.408 168.256 269.248 165.224 259.352Z" fill="#575A5B"/>
<path d="M111.848 267.064C111.92 266.648 111.768 266.296 111.496 266.04C111.304 265.712 110.976 265.464 110.608 265.4C109.896 265.272 109.2 265.808 109.064 266.568C108.936 267.336 109.416 268.072 110.128 268.2C110.496 268.264 110.888 268.16 111.184 267.912C111.512 267.76 111.768 267.48 111.848 267.064Z" fill="#575A5B"/>
<path d="M138.008 266.536C138.096 265.984 137.752 265.456 137.24 265.36C136.752 265.272 136.224 265.408 135.816 265.704C135.728 265.736 135.632 265.784 135.536 265.856C135.456 265.92 135.384 265.984 135.304 266.056L135.264 266.08C134.888 266.304 134.696 266.856 134.728 267.288C134.784 267.864 135.192 268.352 135.736 268.448C136.16 268.528 136.608 268.352 136.888 267.992C137.032 267.808 137.128 267.6 137.16 267.368L137.168 267.36C137.576 267.288 137.92 267.008 138.008 266.536Z" fill="#575A5B"/>
<path d="M155.864 282.976C155.536 280.528 154.344 278.432 153.152 276.376C152.744 275.672 150.848 272.464 149.976 274.168C149.368 275.344 150.392 276.728 151.072 277.816C143.552 283.488 134.744 286.928 125.664 288.064C120.792 288.672 115.632 288.488 111.088 286.472C106.872 284.608 103.584 280.824 102.048 276.24C102.824 276.136 103.6 276.048 104.392 275.944C105.384 275.8 105.472 274.264 104.48 274.072C100.72 273.352 96.368 275.168 93.68 278.024C93.328 278.4 93.768 279.072 94.224 278.856C95.752 278.128 97.28 277.416 98.896 276.896C99.744 276.624 100.608 276.456 101.464 276.328C101.848 278.88 102.488 281.12 103.944 283.232C105.32 285.216 107.128 286.768 109.176 287.92C113.688 290.48 119.12 290.944 124.184 290.64C129.76 290.304 135.488 288.792 140.648 286.44C144.52 284.688 148.848 282.424 151.824 279.04C152.736 280.552 153.648 282.056 154.728 283.44C155.096 283.904 155.96 283.688 155.864 282.976Z" fill="#575A5B"/>
<path d="M105.776 210.952C105.464 210.24 104.496 210.68 104.48 211.36C104.44 212.544 104.68 213.768 104.792 214.944C104.912 216.16 105.064 217.384 105.448 218.536C105.616 219.024 106.2 218.992 106.352 218.512C107.096 216.264 106.696 213.064 105.776 210.952Z" fill="#575A5B"/>
<path d="M109 207.544C108.72 206.952 108 207.248 108.032 207.8C108.072 208.76 108.328 209.76 108.48 210.712C108.64 211.704 108.832 212.696 109.192 213.656C109.344 214.056 109.8 214.072 109.888 213.688C110.328 211.912 109.832 209.296 109 207.544Z" fill="#575A5B"/>
</svg>
