<svg width="480" height="480" viewBox="0 0 480 480" fill="none" xmlns="http://www.w3.org/2000/svg">
<path d="M243 110C285 110 306 128 319 144C344 128 369 130 391 150C411 150 445 180.4 445 202C445 223.6 439 246.667 436 257C444 274.667 457 320.8 445 364C430 418 368 422 339 427C315.8 431 265.333 420 243 414C233.333 417 199.8 422.8 143 422C72 421 45.1613 386.585 36 329C29 285 42 243 63 222C56 199 62.9057 157.748 82 144C107 126 141 142 165 144C176 126 208.368 110 243 110Z" fill="white"/>
<path d="M151.348 242.283C168.574 232.668 177.788 236.674 190.608 242.283C195.015 244.182 205.03 251.497 209.837 259.108C214.645 266.72 216.648 274.332 216.247 286.75C215.846 299.169 206.232 307.983 197.018 313.992C187.804 320.001 167.373 321.203 160.562 319.6C153.752 317.998 136.526 314.392 129.715 293.961C122.905 273.53 134.122 251.897 151.348 242.283Z" fill="#F5FCFB"/>
<path d="M291.161 265.118C299.574 250.696 314.396 246.289 322.809 243.885C329.272 241.882 340.836 242.283 346.846 243.885C352.855 245.488 368.078 252.699 374.488 267.521C380.897 282.344 375.689 297.166 368.078 308.383C360.466 319.6 345.644 322.405 337.632 322.405C329.619 322.405 315.197 322.805 299.173 309.986C283.149 297.166 282.748 279.539 291.161 265.118Z" fill="#F5FCFB"/>
<path d="M170.177 193.409C173.702 193.409 176.987 195.278 178.189 196.213C179.151 198.456 178.59 201.421 178.189 202.622C178.857 204.091 180.112 207.51 179.792 209.433C179.471 211.356 174.049 212.104 171.379 212.237C173.649 215.709 172.581 222.653 171.379 224.255C170.177 225.858 161.898 219.715 160.562 216.644C157.491 219.314 150.307 223.695 146.14 219.849C141.974 216.003 146.007 210.234 148.544 207.83C145.873 206.896 140.772 203.744 141.734 198.616C142.935 192.207 152.149 194.21 156.556 196.213C154.954 191.005 155.755 184.595 160.562 183.794C165.37 182.993 166.571 186.999 170.177 193.409Z" fill="#F5FCFB"/>
<path d="M135.725 89.6506C140.532 82.4397 152.55 80.8372 160.562 84.8433C167.773 86.8684 171.379 98.0634 172.981 108.479C175.786 104.874 188.204 100.066 197.018 112.085C205.831 124.103 199.421 137.323 195.816 144.133C207.434 153.748 203.828 163.363 200.623 168.571C198.059 172.737 191.276 172.977 188.204 172.577C188.071 174.847 186.842 179.467 182.996 179.788C178.189 180.188 176.186 175.381 171.379 166.167C166.571 173.779 160.562 168.571 155.354 163.363C152.951 172.577 146.14 174.179 140.131 175.381C134.122 176.583 126.911 167.769 124.508 161.76C123.306 164.965 116.495 167.769 107.281 166.167C98.0673 164.565 94.8624 155.351 96.0642 146.938C77.6362 144.534 73.6301 132.916 72.4283 128.51C71.2264 124.103 73.2295 119.296 80.4404 116.892C76.0337 111.284 76.8349 104.473 78.0368 100.066C79.2386 95.6598 90.055 92.0543 98.0672 93.2561C97.266 85.6445 102.875 82.4398 112.089 79.2349C121.303 76.03 129.315 82.0392 135.725 89.6506Z" fill="#F5FCFB"/>
<path d="M112.396 435C114.818 435 116.667 436.204 114.57 436.913C111.157 438.067 112.411 442.434 115.961 441.823C123.68 440.496 131.415 439.179 139.728 438.531C139.954 438.514 140.171 438.506 140.38 438.506C142.984 438.506 144.21 439.804 141.814 440.414C140.754 440.684 139.72 440.967 138.698 441.255C147.149 439.901 155.838 438.812 165.056 438.485C165.158 438.481 165.257 438.479 165.353 438.479C168.082 438.479 168.29 439.895 166.433 440.422C165.218 440.766 164.021 441.126 162.832 441.489C175.485 438.945 188.219 436.433 202.388 435.575C202.528 435.567 202.668 435.563 202.808 435.563C205 435.563 207.032 436.568 204.954 437.253C199.234 439.14 192.96 440.741 186.445 442.196C195.842 440.816 205.025 439.186 214.664 438.09C214.928 438.06 215.186 438.046 215.433 438.046C217.669 438.046 219.07 439.181 217.334 439.838C214.048 441.082 211.116 442.448 208.271 443.839C207.997 443.973 208.14 444.41 208.439 444.348C218.575 442.216 227.984 439.577 238.515 437.703C238.96 437.624 239.422 437.588 239.874 437.588C242.002 437.588 243.893 438.385 242.55 439.24C238.16 442.029 230.814 444.845 221.852 444.845C221.065 444.845 220.265 444.823 219.454 444.778C218.749 444.739 217.913 444.462 217.221 444.605C211.034 445.883 204.738 447.075 198.052 447.957C197.831 447.986 197.616 448 197.411 448C195.745 448 194.743 447.108 196.017 446.627C199.428 445.341 201.934 443.799 204.803 442.349C205.209 442.144 205.019 441.517 204.568 441.576C192.785 443.1 181.022 444.65 168.934 445.779C168.764 445.795 168.598 445.803 168.439 445.803C166.603 445.803 165.622 444.812 167.424 444.416C169.837 443.886 169.465 441.954 167.035 442.399C158.838 443.899 150.775 445.529 142.622 447.024C142.286 447.086 141.957 447.113 141.645 447.113C139.725 447.113 138.462 446.082 140.512 445.652C142.766 445.178 142.235 442.715 139.96 443.076C133.723 444.064 127.627 445.213 121.536 446.283C121.126 446.355 120.728 446.388 120.355 446.388C118.165 446.388 116.872 445.272 119.09 444.689C120.05 444.436 119.781 443.267 118.801 443.43C109.316 445.003 99.9216 446.669 89.6375 447.228C89.5026 447.236 89.3691 447.239 89.2369 447.239C87.1545 447.239 85.5249 446.359 87.2761 445.684C89.9981 444.636 88.7456 440.612 85.8617 441.049C78.4271 442.174 70.9031 443.177 62.9441 443.609C62.7795 443.618 62.6122 443.623 62.4437 443.623C60.512 443.623 58.4739 443.046 59.2447 442.2C59.6307 441.779 59.2661 441.05 58.7039 441.153C49.4362 442.844 40.2826 444.626 31.2504 446.491C30.7103 446.603 30.1853 446.652 29.6962 446.652C27.0201 446.652 25.4105 445.184 28.1625 444.48C28.5069 444.391 28.8467 444.299 29.1911 444.21C28.0104 444.397 26.8417 444.595 25.6934 444.811C25.1817 444.907 24.6714 444.95 24.1861 444.95C21.6675 444.95 19.8184 443.794 21.9008 442.941C24.1908 442.002 24.479 441.019 25.5202 439.887C26.0153 439.349 27.5352 439.023 28.9419 439.023C30.1993 439.023 31.366 439.284 31.6311 439.887C31.7058 440.059 31.7554 440.207 31.7554 440.376C31.7567 440.634 31.5813 440.847 31.2917 441.019C31.2657 441.035 31.2433 441.056 31.2275 441.082C31.1485 441.211 31.2578 441.376 31.408 441.355C37.0509 440.568 42.7899 439.879 48.2233 438.897C48.7634 438.799 49.2877 438.756 49.7795 438.756C51.7935 438.756 54.0611 439.4 56.0421 439.037C59.403 438.422 62.7796 437.817 66.1714 437.228C66.6091 437.152 67.0745 437.117 67.5372 437.117C69.7987 437.117 71.9888 437.947 70.4162 438.843C69.4261 439.408 69.902 440.73 71.0356 440.608C84.8603 439.124 97.7422 436.388 111.697 435.034C111.933 435.011 112.167 435 112.396 435Z" fill="#1DBFB3"/>
<path d="M-nan -nanL368.054 379.065C368.072 379.039 368.089 379.013 368.105 378.985C368.141 378.924 368.095 378.849 368.025 378.84C367.641 378.792 367.298 378.576 367.043 378.25C367.02 378.221 366.996 378.191 366.973 378.162C366.862 378.021 366.632 378.13 366.666 378.305C366.669 378.326 366.677 378.345 366.688 378.362C366.988 378.841 367.445 379.334 367.707 379.315C367.889 379.297 367.877 379.306 368.054 379.065L-nan -nanZM352.65 383.613C353.164 383.452 353.132 382.806 352.683 382.507C352.427 382.337 352.174 382.159 351.927 381.973C351.715 381.813 351.364 381.958 351.229 382.187C351.171 382.286 351.153 382.408 351.198 382.515C351.366 382.908 351.525 383.306 351.672 383.712C351.688 383.756 351.731 383.785 351.778 383.782C352.099 383.752 352.389 383.695 352.65 383.613ZM-nan -nanL339.148 362.872C339.215 362.929 339.284 362.985 339.355 363.042C339.573 363.217 339.873 362.969 339.762 362.712C339.434 361.951 339.17 361.197 338.968 360.511C338.748 359.765 338.779 358.695 338.221 358.154C338.197 358.131 338.174 358.108 338.15 358.085C337.619 357.557 336.685 357.457 336.561 358.195C336.284 359.853 338.039 361.947 339.148 362.872L-nan -nanZM335.194 335.42C335.174 335.448 335.203 335.484 335.235 335.471C335.238 335.469 335.241 335.468 335.243 335.465C335.531 335.232 335.761 334.97 335.891 334.675C335.891 334.675 335.892 334.674 335.892 334.674C335.895 334.671 335.894 334.667 335.891 334.666C335.771 334.611 335.645 334.572 335.515 334.554C335.432 334.542 335.353 334.581 335.305 334.649C335.301 334.655 335.297 334.66 335.293 334.666C335.206 334.789 335.256 334.954 335.292 335.1C335.311 335.176 335.301 335.26 335.248 335.34C335.23 335.367 335.212 335.394 335.194 335.42ZM340.91 343.402C340.859 343.53 340.877 343.677 340.955 343.791C341.204 344.157 341.426 344.538 341.605 344.943C341.933 345.686 342.124 346.477 342.241 347.289C342.258 347.409 342.379 347.488 342.494 347.449C342.515 347.442 342.533 347.432 342.55 347.419C342.796 347.23 343.05 347.052 343.312 346.886C343.728 346.624 344.029 346.217 344.171 345.746C344.349 345.154 344.266 344.496 343.907 343.993C343.734 343.75 343.572 343.505 343.421 343.263C342.823 342.288 341.417 342.22 340.966 343.271C340.947 343.315 340.929 343.358 340.91 343.402ZM347.237 348.342C346.942 348.376 346.782 348.691 346.941 348.942C347.076 349.155 347.367 349.193 347.556 349.025C347.685 348.909 347.807 348.788 347.922 348.661C348.048 348.52 347.954 348.307 347.765 348.306C347.587 348.31 347.411 348.322 347.237 348.342ZM346.047 340.521C345.467 340.638 345.115 341.285 345.433 341.783C345.471 341.841 345.508 341.899 345.547 341.957C345.769 342.29 346.24 342.305 346.534 342.033C347.187 341.42 347.896 340.945 348.64 340.598C348.807 340.52 348.904 340.349 348.854 340.171C348.797 339.965 348.569 339.845 348.365 339.91C348.311 339.928 348.256 339.944 348.201 339.96C347.6 340.135 346.842 340.362 346.047 340.521ZM345.34 337.578C345.179 337.681 345.265 337.914 345.455 337.894C345.498 337.889 345.541 337.884 345.584 337.879C345.784 337.855 345.813 337.583 345.629 337.502C345.57 337.477 345.501 337.48 345.446 337.513C345.411 337.533 345.376 337.555 345.34 337.578ZM-nan -nanL343.576 352.806C343.305 352.798 343.032 352.778 342.758 352.744C342.337 352.691 341.907 352.928 341.865 353.35C341.852 353.473 341.848 353.595 341.851 353.716C341.861 354.029 342.085 354.28 342.362 354.427C342.612 354.559 342.858 354.704 343.101 354.858C343.449 355.08 343.924 354.873 343.981 354.464C343.993 354.375 343.983 354.285 343.952 354.2C343.784 353.734 343.662 353.27 343.576 352.806L-nan -nanZM-nan -nanL347.673 356.224L347.736 356.218C347.768 356.215 347.793 356.188 347.793 356.155C347.789 355.966 347.781 355.777 347.769 355.589C347.763 355.504 347.741 355.42 347.704 355.344C347.356 354.632 346.957 353.93 346.498 353.287C346.474 353.255 346.436 353.237 346.396 353.236C346.375 353.236 346.354 353.235 346.334 353.233C346.302 353.23 346.273 353.253 346.27 353.285C346.269 353.293 346.27 353.3 346.273 353.308C346.359 353.566 346.456 353.821 346.563 354.067C346.888 354.808 347.275 355.518 347.673 356.224L-nan -nanZM345.198 361.428C345.191 361.39 345.161 361.356 345.124 361.348C345.043 361.33 344.979 361.415 345.019 361.486C345.02 361.489 345.021 361.492 345.023 361.494C345.077 361.592 345.219 361.538 345.198 361.428ZM-nan -nanL346.084 365.833C346.057 365.74 346.031 365.646 346.005 365.551C345.949 365.342 345.688 365.259 345.484 365.328C345.203 365.422 344.885 365.41 344.569 365.232C344.561 365.227 344.553 365.237 344.559 365.243C344.623 365.318 344.69 365.396 344.755 365.471C344.759 365.476 344.764 365.48 344.769 365.483C345.173 365.728 345.611 365.86 346.084 365.833L-nan -nanZM-nan -nanL351.418 356.885C351.556 357.256 351.515 357.604 351.365 357.9C351.345 357.94 351.368 357.988 351.411 357.994C351.441 357.998 351.469 357.981 351.479 357.953C351.58 357.653 351.688 357.358 351.809 357.074C351.825 357.037 351.837 356.998 351.844 356.958C351.868 356.831 351.893 356.705 351.918 356.58C352.005 356.151 351.552 355.92 351.346 356.306C351.338 356.322 351.33 356.337 351.322 356.352C351.284 356.427 351.279 356.515 351.309 356.594C351.346 356.693 351.383 356.79 351.418 356.885L-nan -nanZM348.194 344.102C348.198 344.102 348.202 344.101 348.205 344.098C348.59 343.834 348.975 343.562 349.347 343.277C349.373 343.257 349.388 343.225 349.386 343.192C349.381 343.117 349.298 343.074 349.234 343.114C348.964 343.288 348.712 343.494 348.485 343.736C348.386 343.84 348.283 343.953 348.18 344.07C348.169 344.082 348.178 344.102 348.194 344.102ZM350.038 349.939C349.676 350.368 349.788 351.044 350.328 351.199C350.824 351.34 351.336 351.439 351.841 351.496C351.911 351.504 351.981 351.488 352.042 351.452C352.208 351.353 352.262 351.134 352.148 350.978C351.848 350.565 351.517 350.171 351.156 349.819C350.837 349.508 350.326 349.598 350.038 349.939ZM-nan -nanL354.94 358.218C354.88 358.574 354.827 358.924 354.778 359.261C354.641 360.188 354.518 361.169 354.45 362.166C354.416 362.673 354.571 363.18 354.921 363.547C355.152 363.788 355.393 364.005 355.643 364.189C356.048 364.485 356.592 364.305 356.834 363.866C356.944 363.666 356.977 363.433 356.941 363.208C356.87 362.771 356.821 362.333 356.79 361.892C356.717 360.85 355.865 359.814 355.627 358.797C355.573 358.571 355.543 358.345 355.531 358.118C355.516 357.834 355.149 357.711 355.038 357.973C355.004 358.054 354.971 358.136 354.94 358.218L-nan -nanZM-nan -nanL352.575 346.649C352.901 347.54 353.568 347.86 354.736 347.641C355.693 347.459 356.636 346.98 357.463 346.486C357.474 346.48 357.481 346.469 357.481 346.456C357.493 346.168 357.517 345.88 357.55 345.592C357.613 345.055 357.441 344.504 357.006 344.184C356.031 343.467 354.878 342.919 353.735 342.619C353.73 342.618 353.726 342.62 353.724 342.624C353.432 343.086 353.1 343.575 352.729 344.047C352.52 344.314 352.373 344.63 352.358 344.969C352.332 345.553 352.384 346.127 352.575 346.649L-nan -nanZM351.346 338.064C351.092 338.136 350.948 338.409 351.041 338.656C351.189 339.051 351.318 339.463 351.43 339.881C351.432 339.89 351.44 339.895 351.448 339.894C351.454 339.893 351.459 339.89 351.462 339.884C351.58 339.636 351.707 339.391 351.841 339.149C352.024 338.82 351.998 338.399 351.674 338.206C351.593 338.158 351.508 338.112 351.417 338.069C351.395 338.059 351.369 338.057 351.346 338.064ZM354.863 339.916C354.815 340.159 354.947 340.402 355.179 340.487C355.91 340.758 356.7 341.116 357.462 341.557C357.927 341.825 358.544 341.613 358.736 341.113C358.887 340.72 358.713 340.287 358.353 340.068C357.542 339.573 356.833 338.947 356.308 338.197C356.144 337.962 355.836 337.867 355.56 337.946C355.47 337.972 355.385 338.016 355.318 338.081C355.29 338.108 355.262 338.136 355.234 338.164C355.038 338.363 354.957 338.643 354.959 338.923C354.961 339.252 354.927 339.583 354.863 339.916ZM-nan -nanL357.853 336.778C358.307 337.684 359.082 338.334 359.999 338.762C360.093 338.806 360.2 338.804 360.299 338.776C360.479 338.725 360.627 338.58 360.638 338.393C360.643 338.304 360.648 338.215 360.653 338.126C360.664 337.909 360.573 337.697 360.399 337.566C360.391 337.56 360.383 337.554 360.375 337.548C360.237 337.446 360.065 337.405 359.893 337.403C359.253 337.393 358.613 337.171 358.061 336.787C358.037 336.77 358.007 336.762 357.978 336.765C357.937 336.769 357.894 336.775 357.853 336.778L-nan -nanZM-nan -nanL358.965 333.814L359.022 333.921C359.164 334.154 359.343 334.495 359.597 334.631C359.624 334.646 360.119 334.534 360.132 334.505C360.21 334.323 360.269 334.073 360.304 333.818C360.309 333.786 360.292 333.754 360.262 333.74C360.167 333.692 360.075 333.643 359.984 333.59C359.834 333.499 359.69 333.4 359.554 333.297C359.499 333.256 359.432 333.232 359.363 333.234C359.242 333.237 359.141 333.32 359.101 333.434C359.057 333.561 359.012 333.688 358.965 333.814L-nan -nanZM-nan -nanL359.99 327.647C360.052 327.639 360.114 327.633 360.177 327.628C360.273 327.621 360.352 327.546 360.359 327.45C360.373 327.245 360.388 327.039 360.403 326.833C360.405 326.809 360.4 326.786 360.388 326.766C360.336 326.675 360.2 326.693 360.173 326.794C360.098 327.078 360.035 327.365 359.99 327.647L-nan -nanZM368.997 352.086C368.941 352.179 368.965 352.3 369.057 352.358C369.245 352.48 369.433 352.605 369.616 352.734C369.678 352.777 369.764 352.728 369.758 352.652C369.757 352.643 369.755 352.634 369.752 352.625C369.63 352.332 369.505 352.044 369.374 351.757C369.361 351.729 369.338 351.708 369.309 351.698C369.255 351.679 369.197 351.704 369.172 351.755C369.118 351.866 369.061 351.975 368.997 352.086ZM-nan -nanL365.411 332.365C365.707 331.96 366.027 331.565 366.374 331.185C366.446 331.107 366.45 330.988 366.383 330.906C366.173 330.677 365.88 330.542 365.574 330.489C365.45 330.468 365.322 330.437 365.19 330.396C365.039 330.351 364.888 330.489 364.934 330.64C365.105 331.205 365.264 331.779 365.411 332.365L-nan -nanZM-nan -nanL369.115 356.772C368.869 356.518 368.61 356.279 368.341 356.053C367.701 355.516 366.782 356.028 366.747 356.862C366.737 357.093 366.726 357.298 366.715 357.469C366.695 357.783 366.661 358.102 366.618 358.425C366.591 358.63 366.648 358.838 366.788 358.991C366.972 359.191 367.167 359.384 367.37 359.566C367.45 359.637 367.574 359.603 367.609 359.503C367.747 359.126 367.971 358.88 368.237 358.739C368.719 358.485 369.28 358.035 369.205 357.496C369.172 357.256 369.142 357.015 369.115 356.772L-nan -nanZM366.69 370.46C366.684 370.438 366.668 370.419 366.646 370.408C366.637 370.404 366.627 370.399 366.617 370.394C366.508 370.34 366.383 370.428 366.392 370.55C366.424 370.996 366.357 371.45 366.009 371.763C365.889 371.87 365.835 372.041 365.91 372.183C365.943 372.246 365.978 372.308 366.014 372.37C366.098 372.513 366.184 372.655 366.274 372.795C366.354 372.921 366.544 372.846 366.518 372.699C366.478 372.514 366.441 372.332 366.41 372.149C366.377 372.019 366.34 371.883 366.318 371.789C366.306 371.743 366.335 371.578 366.333 371.531C366.302 371.106 366.439 370.775 366.668 370.541C366.689 370.52 366.698 370.489 366.69 370.46ZM-nan -nanL361.892 346.667C361.949 346.648 362.006 346.63 362.062 346.614C362.197 346.575 362.25 346.405 362.157 346.3C361.847 345.951 361.568 345.581 361.338 345.185C361.277 345.079 361.109 345.102 361.088 345.223C361.084 345.245 361.087 345.268 361.094 345.288C361.289 345.853 361.216 346.347 360.974 346.782C360.962 346.804 360.955 346.831 360.955 346.857C360.956 346.97 361.082 347.036 361.18 346.981C361.409 346.854 361.646 346.748 361.892 346.667L-nan -nanZM366.042 365.763C366.112 365.859 366.258 365.811 366.265 365.693C366.267 365.655 366.253 365.618 366.226 365.592C366.211 365.578 366.196 365.563 366.181 365.549C366.055 365.429 365.898 365.558 365.998 365.7C366.013 365.721 366.027 365.742 366.042 365.763ZM369.225 326.222C369.137 326.649 368.998 327.1 369.15 327.509C369.403 328.189 369.656 328.869 369.906 329.548C370.054 329.891 370.194 330.236 370.345 330.573C370.437 330.78 370.439 330.967 370.379 331.123C370.356 331.185 370.333 331.246 370.316 331.309C370.265 331.496 370.248 331.699 370.333 331.873C372.065 335.4 372.895 339.235 373.535 343.233C373.638 343.857 373.362 344.543 373.56 345.143C374.55 348.134 374.994 351.258 375.252 354.473C375.285 354.889 375.283 355.338 375.487 355.703C375.744 356.161 375.965 356.636 376.14 357.133C376.243 357.429 376.33 357.727 376.405 358.026C376.546 358.589 376.952 359.074 377.132 359.626C377.626 361.123 378.31 362.536 378.939 363.972C379.361 364.678 379.824 365.364 380.226 366.082C380.26 366.141 380.291 366.202 380.32 366.265C380.944 367.596 379.262 368.41 378.231 367.761C378.226 367.759 378.221 367.757 378.215 367.756C378.202 367.754 378.188 367.759 378.179 367.77C378.015 367.962 377.797 368.108 377.554 368.199C377.115 368.363 376.672 368.732 376.683 369.201C376.689 369.454 376.691 369.709 376.69 369.966C376.689 370.042 376.76 370.099 376.835 370.088C376.886 370.08 376.928 370.042 376.942 369.993C377.356 368.578 379.721 369.195 379.586 370.833C379.426 372.721 380.213 375.105 380.785 376.889C380.978 377.497 380.754 378.02 380.358 378.342C380.164 378.5 380.007 378.706 379.88 378.922C379.54 379.503 378.768 379.539 378.15 379.241C378.077 379.206 377.984 379.277 378.007 379.354C378.467 380.793 376.3 381.975 375.539 380.56C375.446 380.388 374.809 380.49 374.682 380.639C374.17 381.245 373.108 381.331 372.444 380.564C372.026 380.082 371.614 379.607 371.212 379.133C371.152 379.063 371.041 379.088 371.013 379.176C370.547 380.57 369.532 382.105 367.854 382.089C367.055 382.079 366.384 381.879 365.822 381.536C365.419 381.29 364.939 381.156 364.528 380.923C364.201 380.732 363.79 380.779 363.49 381.01C363.22 381.218 362.925 381.394 362.602 381.535C361.985 381.804 361.436 382.295 360.826 382.58C360.163 382.89 359.295 382.761 358.835 382.062C358.713 381.877 358.602 381.692 358.491 381.507C358.45 381.437 358.388 381.382 358.316 381.345C358.029 381.199 357.664 381.382 357.633 381.703C357.595 382.094 357.544 382.49 357.478 382.889C357.317 383.893 356.217 384.5 355.446 385.163C354.426 386.04 353.128 386.578 351.737 386.608C346.408 386.714 343.912 382.05 343.765 377.424C343.719 375.951 343.592 374.469 343.157 373.062C342.223 370.036 340.027 367.54 337.593 365.515C337.128 365.128 336.698 364.723 336.309 364.306C333.904 361.724 331.848 356.484 335.997 354.277C336.104 354.217 336.171 354.101 336.162 353.978C336.162 353.974 336.162 353.97 336.162 353.966C336.154 353.856 336.091 353.758 335.994 353.705C333.035 352.078 331.373 347.941 331.196 344.784C331.16 344.136 331.615 343.673 332.149 343.537C332.241 343.513 332.419 343.096 332.354 343.027C332.325 342.996 332.276 342.994 332.244 343.023C332.1 343.157 331.956 343.29 331.814 343.425C331.401 343.814 330.84 343.595 330.745 343.057C330.685 342.714 330.636 342.367 330.606 342.02C330.554 341.419 330.278 340.857 330.027 340.308C330.006 340.261 329.986 340.213 329.967 340.165C329.95 340.12 329.93 340.076 329.905 340.035C329.883 339.997 329.861 339.958 329.839 339.92C329.749 339.761 329.582 339.659 329.4 339.666C328.513 339.688 328.047 338.839 328.348 338.069C328.504 337.664 328.492 337.208 328.26 336.842C328.121 336.622 327.981 336.404 327.841 336.187C327.816 336.149 327.772 336.128 327.726 336.132C327.705 336.134 327.684 336.142 327.666 336.154C327.188 336.48 326.753 336.363 326.369 336.006C326.087 335.743 325.849 335.436 325.58 335.161C324.851 334.415 324.218 333.583 323.569 332.765C323.074 332.206 322.587 331.626 322.077 331.021C321.269 330.062 322.858 328.683 323.724 329.577C323.979 329.84 324.474 329.764 324.831 329.684C324.914 329.666 325.005 329.657 325.104 329.659C326.283 329.672 326.994 330.199 327.466 330.955C327.496 331.004 327.536 331.047 327.583 331.079C327.774 331.213 327.965 331.347 328.155 331.482C328.242 331.545 328.364 331.468 328.363 331.361C328.339 330.255 329.502 330.032 330.361 329.936C331.099 329.855 331.574 330.584 331.483 331.237C331.367 332.064 331.28 332.867 331.233 333.669C331.231 333.705 331.248 333.741 331.277 333.763C331.319 333.794 331.377 333.792 331.416 333.758C332.264 333.028 333.218 332.472 334.218 332.268C334.435 332.223 334.641 332.142 334.838 332.041C336.151 331.348 337.772 331.256 338.94 332.316C339.197 332.549 339.415 332.792 339.599 333.041C340.156 333.8 340.839 334.767 340.52 335.652C340.498 335.714 340.475 335.775 340.451 335.836C340.38 336.02 340.331 336.212 340.293 336.406C340.182 336.967 339.981 337.527 339.717 338.071C339.592 338.328 339.685 338.626 339.845 338.863C339.887 338.921 339.917 338.981 339.942 339.041C339.952 339.065 339.963 339.086 339.978 339.108C340.116 339.311 340.421 339.326 340.563 339.125C340.704 338.923 340.849 338.725 340.997 338.533C341.024 338.496 341.03 338.448 341.011 338.406C341.031 338.449 340.769 338.15 340.929 338.305C340.698 338.082 340.559 337.889 340.443 337.588C340.207 336.953 340.55 336.262 341.069 335.889C341.243 335.76 341.438 335.655 341.644 335.566C341.738 335.525 341.816 335.456 341.867 335.366C341.966 335.19 341.941 334.966 341.799 334.822C341.416 334.433 341.063 334.024 340.748 333.602C340.081 332.717 341.009 331.173 342.141 331.549C343.492 331.993 344.898 331.499 346.177 330.876C346.402 330.766 346.631 330.683 346.862 330.638C347.348 330.541 347.887 329.979 348.205 329.599C348.658 329.057 349.561 328.853 350.172 329.384C351.658 330.682 353.876 332.691 353.807 334.891C353.8 335.07 353.874 335.251 354.037 335.323C354.17 335.382 354.305 335.412 354.439 335.401C355.1 335.355 355.336 334.585 355.481 333.938C355.496 333.873 355.512 333.809 355.529 333.747C355.706 333.092 355.871 332.416 355.856 331.738C355.84 330.985 355.904 330.226 356.016 329.494C356.158 328.555 357.147 327.679 357.318 326.745C357.548 325.485 358.1 324.254 358.758 323.17C358.992 322.789 359.328 322.558 359.686 322.481C360.066 322.401 360.535 322.061 360.48 321.677C360.366 320.874 361.06 320.341 361.77 320.311C362.266 320.29 362.844 320.283 363.34 320.307C364.241 320.351 365.489 320.234 366.355 320.484C366.616 320.56 366.867 320.722 367.077 320.988C367.683 321.759 368.021 322.967 368.427 323.854C368.888 324.867 369.41 325.354 369.225 326.222Z" fill="#1DBFB3"/>
<path d="M367.095 318.848C373.431 338.041 375.021 358.408 381.143 377.644C369.738 380.905 358.084 383.342 347.025 387.695C342.199 377.719 338.557 367.184 334.446 356.907C332.322 351.591 330.116 346.304 327.576 341.167C325.636 337.247 323.505 332.132 319.645 329.764C319.413 329.622 319.183 329.892 319.244 330.112C319.814 332.245 320.924 334.019 321.928 335.984C323.075 338.231 324.24 340.451 325.285 342.749C327.675 347.994 329.789 353.36 331.83 358.752C335.86 369.39 339.523 380.241 344.472 390.506C344.872 391.333 345.743 392.017 346.726 391.625C358.834 386.807 371.665 384.329 384.142 380.693C385.135 380.404 385.649 379.259 385.338 378.313C378.791 358.523 377.149 337.484 370.507 317.713C369.771 315.52 366.368 316.655 367.095 318.848Z" fill="#575A5B"/>
<path d="M263.577 322.225C264.534 324.47 265.456 326.506 267.212 328.264C268.958 330.016 271.07 331.421 273.262 332.559C278.189 335.119 283.813 336.236 289.307 336.692C295.031 337.169 300.882 336.66 306.475 335.401C309.088 334.816 311.635 333.999 314.086 332.919C316.04 332.061 318.766 330.807 319.507 328.632C319.552 328.505 319.593 328.38 319.632 328.252C319.796 327.748 319.35 327.174 318.823 327.195C316.702 327.282 314.84 328.447 312.942 329.289C310.753 330.263 308.428 330.986 306.106 331.573C300.966 332.879 295.648 333.289 290.356 333.12C285.265 332.957 280.111 332.061 275.413 330.05C273.262 329.128 271.218 327.932 269.447 326.399C267.793 324.966 266.023 323.321 265.087 321.335C264.599 320.304 263.147 321.214 263.577 322.225Z" fill="#575A5B"/>
<path d="M388.071 314.259C393.392 312.781 398.604 310.806 403.625 308.528C408.308 306.402 412.89 303.91 416.88 300.653C419.569 298.458 422.711 295.297 422.302 291.525C422.237 290.921 421.628 289.933 420.873 290.223C419.832 290.624 419.713 292.259 419.159 293.267C418.312 294.793 417.117 296.06 415.814 297.205C412.143 300.43 407.589 302.724 403.18 304.771C398.244 307.061 393.115 308.925 387.887 310.431C385.624 311.083 383.342 311.664 381.026 312.109C379.242 312.452 377.258 312.734 375.799 313.833L375.69 313.911C375.237 314.247 375.377 314.971 375.798 315.252C377.369 316.31 379.516 316.152 381.305 315.84C383.588 315.439 385.841 314.879 388.071 314.259Z" fill="#575A5B"/>
<path d="M353.038 392.797C353.082 391.36 350.915 391.331 350.596 392.626C349.794 395.876 350.078 399.394 350.25 402.702C350.465 406.787 350.858 410.851 350.911 414.943C350.983 420.33 350.996 429.75 344.007 430.935C341.814 431.307 342.009 434.77 344.223 434.395C352.725 432.953 354.258 424.224 354.385 416.955C354.526 408.88 352.787 400.868 353.038 392.797Z" fill="#575A5B"/>
<path d="M395.819 420.728C397.041 419.363 397.49 417.564 397.585 415.783C397.912 409.767 394.497 403.498 391.766 398.357C390.245 395.494 388.605 392.697 387 389.887C385.851 387.867 384.123 385.57 383.614 383.283C383.387 382.27 384.72 381.692 385.387 382.414C386.655 383.777 387.585 385.687 388.604 387.245C389.973 389.342 391.355 391.425 392.649 393.57C395.461 398.235 398.07 403.038 399.754 408.231C401.134 412.492 401.749 417.332 399.468 421.39C398.903 422.397 398.069 423.627 396.815 423.654C395.154 423.689 394.901 421.754 395.819 420.728Z" fill="#575A5B"/>
<path d="M106.194 420.12C104.845 418.815 104.255 417.007 104.025 415.194C103.247 409.067 106.282 402.407 108.695 396.95C110.038 393.914 111.512 390.933 112.945 387.942C113.972 385.796 115.57 383.321 115.923 380.942C116.08 379.893 114.677 379.398 114.046 380.184C112.851 381.671 112.038 383.691 111.113 385.359C109.866 387.603 108.605 389.833 107.439 392.12C104.909 397.096 102.592 402.197 101.252 407.631C100.154 412.087 99.8807 417.081 102.51 421.066C103.164 422.054 104.106 423.251 105.39 423.185C107.093 423.099 107.209 421.104 106.194 420.12Z" fill="#575A5B"/>
<path d="M335.219 431C337.478 431 339.203 432.575 337.248 433.502C333.162 435.439 335.265 440.711 339.661 439.653C346.489 438.011 353.355 436.42 360.706 435.617C360.915 435.594 361.117 435.583 361.31 435.583C363.741 435.583 364.886 437.282 362.651 438.081C362.371 438.181 362.49 438.579 362.781 438.518C369.706 437.061 376.826 435.931 384.323 435.558C384.419 435.553 384.511 435.551 384.601 435.551C387.143 435.551 387.338 437.401 385.608 438.089C384.474 438.54 383.357 439.009 382.249 439.485C394.047 436.16 405.92 432.874 419.132 431.752C419.261 431.741 419.391 431.736 419.52 431.736C421.565 431.736 423.464 433.05 421.525 433.946C416.192 436.414 410.341 438.507 404.267 440.411C413.028 438.605 421.592 436.474 430.579 435.042C430.826 435.002 431.067 434.985 431.298 434.985C433.382 434.985 434.686 436.469 433.069 437.326C430.004 438.953 427.271 440.739 424.618 442.559C424.3 442.777 424.535 443.295 424.904 443.185C434.307 440.405 443.044 436.974 452.818 434.535C453.233 434.432 453.665 434.385 454.087 434.385C456.071 434.385 457.833 435.427 456.58 436.545C452.487 440.192 445.638 443.874 437.28 443.874C436.547 443.874 435.8 443.846 435.046 443.787C434.372 443.734 433.552 443.391 432.903 443.578C427.153 445.243 421.302 446.794 415.09 447.944C414.883 447.983 414.684 448 414.493 448C412.938 448 412.003 446.834 413.192 446.204C416.373 444.523 418.709 442.505 421.385 440.61C421.852 440.279 421.541 439.531 420.978 439.633C410.054 441.616 399.146 443.627 387.939 445.096C387.779 445.117 387.625 445.127 387.476 445.127C385.764 445.127 384.852 443.832 386.531 443.314C389.507 442.396 388.857 439.982 385.84 440.759C378.31 442.699 370.898 444.797 363.404 446.724C363.091 446.804 362.784 446.84 362.493 446.84C360.703 446.84 359.526 445.492 361.437 444.93C364.208 444.113 363.281 441.03 360.462 441.663C354.807 442.932 349.273 444.392 343.744 445.755C343.361 445.85 342.991 445.892 342.644 445.892C340.6 445.892 339.393 444.433 341.462 443.671C342.636 443.238 342.172 441.795 340.953 442.079C332.191 444.121 323.502 446.268 314 446.992C313.875 447.001 313.751 447.006 313.629 447.006C311.687 447.006 310.165 445.854 311.799 444.973C315.03 443.228 312.947 438.395 309.353 439.147C302.787 440.52 296.131 441.723 289.112 442.259C288.959 442.271 288.803 442.276 288.646 442.276C286.844 442.276 284.942 441.522 285.66 440.417C286.06 439.804 285.504 438.957 284.795 439.138C276.278 441.321 267.863 443.62 259.558 446.029C259.055 446.174 258.567 446.238 258.111 446.238C255.614 446.238 254.112 444.318 256.678 443.397C257 443.282 257.317 443.161 257.638 443.044C256.538 443.289 255.448 443.547 254.377 443.831C253.9 443.957 253.424 444.013 252.972 444.013C250.622 444.013 248.898 442.499 250.84 441.383C252.975 440.156 253.244 438.87 254.216 437.391C254.677 436.689 256.094 436.262 257.407 436.262C258.578 436.262 259.666 436.602 259.913 437.391C259.983 437.615 260.028 437.811 260.029 438.03C260.031 438.363 259.871 438.64 259.606 438.864C259.576 438.889 259.551 438.92 259.535 438.957C259.458 439.135 259.614 439.328 259.805 439.291C265.035 438.27 270.351 437.371 275.385 436.096C275.888 435.968 276.377 435.911 276.835 435.911C278.727 435.911 280.945 436.723 282.777 436.253C285.877 435.457 288.991 434.676 292.12 433.912C292.528 433.813 292.961 433.768 293.392 433.768C295.501 433.768 297.545 434.853 296.079 436.025C294.976 436.907 295.732 438.476 297.128 438.261C309.839 436.306 321.716 432.794 334.569 431.044C334.789 431.014 335.006 431 335.219 431Z" fill="#1DBFB3"/>
<path d="M148.582 384.41C149.169 384.41 149.769 384.105 149.97 383.463C149.996 383.386 150.023 383.311 150.049 383.234C150.277 383.805 150.798 384.271 151.349 384.271C151.599 384.271 151.854 384.176 152.092 383.952C152.186 383.97 152.282 383.979 152.378 383.979C152.93 383.979 153.477 383.679 153.682 383.023C154.242 381.226 154.971 378.808 156.192 377.343C157.054 376.311 156.165 374.888 155.178 374.888C154.928 374.888 154.669 374.981 154.433 375.196C154.367 375.155 154.295 375.122 154.221 375.094C154.587 374.586 154.93 374.073 155.248 373.554C155.562 373.877 156.006 374.06 156.439 374.06C156.57 374.06 156.701 374.043 156.826 374.008L156.849 374.028C157.096 374.623 157.729 374.987 158.312 374.987C158.836 374.987 159.319 374.691 159.44 374.001C159.525 373.508 159.466 373.027 159.386 372.549C159.5 372.146 159.597 371.722 159.625 371.32C159.939 369.777 160.19 368.22 160.648 366.703C160.748 366.378 160.721 366.074 160.614 365.808C160.876 365.253 161.103 364.68 161.274 364.08C161.479 363.356 161.578 362.612 161.608 361.857C161.788 361.752 161.951 361.599 162.08 361.379C163.905 358.278 165.475 355.142 166.356 351.732C166.704 351.64 167.015 351.433 167.162 351.136C168.986 347.377 170.558 343.647 171.135 339.633C171.26 339.572 171.374 339.494 171.473 339.396C171.654 339.309 171.795 339.14 171.847 338.875C171.921 338.51 172.001 338.144 172.082 337.777C172.326 336.845 172.572 335.908 172.814 334.975C173.053 334.916 173.267 334.811 173.442 334.646C174.094 334.039 173.946 333.338 174.152 332.236C174.331 331.276 174.749 330.086 174.695 329.103C174.649 328.254 174.012 327.791 173.363 327.791C173.164 327.791 172.962 327.835 172.777 327.926C172.583 327.045 172.268 326.227 171.236 326.103C171.016 325.587 170.448 325.266 169.904 325.266C169.486 325.266 169.082 325.456 168.861 325.891C168.721 326.17 168.573 326.464 168.425 326.771C168.204 326.289 167.744 325.997 167.217 325.997C167.011 325.997 166.796 326.041 166.58 326.136C164.882 326.886 163.191 328.019 162.259 329.613C162.038 329.488 161.785 329.418 161.533 329.418C161.215 329.418 160.901 329.53 160.663 329.78C159.908 330.57 159.206 331.466 158.694 332.442C158.088 332.712 157.503 333.182 156.956 333.907C156.858 333.922 156.763 333.929 156.669 333.929C156.411 333.929 156.168 333.873 155.951 333.743C155.759 333.633 155.63 333.427 155.539 333.186C155.6 333.114 155.665 333.038 155.724 332.959C157.053 331.186 156.389 328.262 155.911 326.341C155.75 325.693 155.138 325.343 154.543 325.343C154.048 325.343 153.565 325.586 153.366 326.104C153.173 325.872 152.88 325.664 152.46 325.479C152.05 325.298 151.57 325.233 151.071 325.233C150.523 325.233 149.952 325.312 149.427 325.404C148.973 324.769 148.509 324.145 148.043 323.523C147.812 323.214 147.484 323.083 147.145 323.083C146.434 323.083 145.681 323.666 145.706 324.42C145.727 325.06 145.805 325.714 145.929 326.371C145.771 326.439 145.618 326.507 145.466 326.582C145.218 326.524 144.97 326.485 144.724 326.485C144.7 326.485 144.675 326.485 144.651 326.486C144.007 326.498 143.324 326.872 143.154 327.529C143.072 327.844 143.078 328.082 143.14 328.398C143.13 328.349 143.125 328.33 143.123 328.33C143.118 328.33 143.122 328.381 143.127 328.432C143.133 328.482 143.141 328.533 143.145 328.533C143.146 328.533 143.147 328.532 143.147 328.529L143.135 328.598C142.709 328.736 142.282 328.886 141.855 329.057C141.877 328.856 141.889 328.661 141.889 328.478C141.909 328.401 141.923 328.323 141.924 328.238C141.926 328.086 141.888 327.918 141.825 327.745C142.629 327.353 143.358 326.86 143.923 326.255C144.062 326.162 144.198 326.073 144.333 325.979C144.761 325.678 145.005 325.217 144.863 324.727C145.109 324.025 145.166 323.225 144.961 322.322C144.61 320.782 143.221 319.929 141.739 319.749C141.626 319.735 141.516 319.729 141.402 319.727C140.64 319.324 139.75 319.156 138.823 319.156C138.498 319.156 138.169 319.177 137.839 319.215L137.793 319.073C138.302 318.419 138.852 317.793 139.438 317.165C139.89 316.676 139.921 315.808 139.267 315.451C138.825 315.211 138.275 314.948 137.769 314.948C137.402 314.948 137.057 315.087 136.796 315.477C136.739 315.563 136.694 315.652 136.654 315.738C136.533 315.399 136.411 315.058 136.285 314.719C136.358 313.793 136.089 312.92 135.095 312.207C134.898 312.067 134.705 312.006 134.524 312.006C134.374 312.006 134.233 312.048 134.106 312.119C134.077 311.86 134.047 311.607 134.005 311.352C133.914 310.795 133.432 310.536 132.943 310.536C132.352 310.536 131.75 310.913 131.811 311.597C131.882 312.387 131.95 313.145 132.034 313.892C132.107 315.13 132.151 316.372 132.413 317.586C132.414 318.412 132.674 319.031 133.467 319.031C133.473 319.031 133.478 319.031 133.485 319.031L133.579 319.082C133.561 319.599 133.537 320.12 133.505 320.637C133.294 320.753 133.091 320.876 132.908 320.997C132.215 321.46 132.106 322.427 132.852 322.918C132.933 322.973 133.02 323.027 133.105 323.079C133.078 323.244 133.06 323.412 133.045 323.582C132.945 323.948 132.923 324.336 133.009 324.753C132.611 325.282 132.282 325.877 131.999 326.481C131.786 326.942 132.056 327.405 132.543 327.405C132.582 327.405 132.623 327.402 132.666 327.395C132.889 327.363 133.111 327.331 133.332 327.303C133.375 327.623 133.449 327.944 133.55 328.258C133.332 327.84 132.868 327.596 132.404 327.596C132.011 327.596 131.618 327.771 131.374 328.163C129.667 330.913 128.635 335.381 130.252 338.421C130.181 338.533 130.111 338.648 130.046 338.767C129.979 338.755 129.913 338.74 129.841 338.733C129.619 338.708 129.404 338.695 129.197 338.695C125.026 338.695 123.836 343.843 124.304 347.179C124.6 349.282 125.459 351.588 126.781 353.546C125.718 355.777 124.877 358.1 124.252 360.482C120.656 364.377 118.945 370.945 124.129 374.392C125.108 375.044 126.244 375.36 127.384 375.36C128.118 375.36 128.854 375.229 129.55 374.971C129.699 375.014 129.852 375.037 130.005 375.037C130.368 375.037 130.728 374.908 131.008 374.62C131.469 374.144 131.894 373.659 132.287 373.165C132.391 373.43 132.51 373.689 132.65 373.934C132.633 374.193 132.613 374.449 132.604 374.713C132.574 375.658 133.39 376.305 134.223 376.305C134.486 376.305 134.75 376.241 134.991 376.101C135.613 376.39 136.231 376.518 136.838 376.518C137.127 376.518 137.414 376.489 137.697 376.435C137.779 376.634 137.861 376.835 137.953 377.036C138.06 377.266 138.232 377.445 138.437 377.581C138.634 378.461 139.123 379.261 140.023 379.901C140.498 380.239 141.015 380.378 141.538 380.378C142.524 380.378 143.53 379.886 144.307 379.31C144.365 379.268 144.42 379.217 144.477 379.173C144.537 379.863 144.611 380.56 144.686 381.273C144.773 382.141 145.466 382.659 146.148 382.659C146.648 382.659 147.143 382.382 147.391 381.761C147.34 382.188 147.289 382.615 147.239 383.043C147.131 383.933 147.847 384.41 148.582 384.41ZM141.519 375.423C141.537 375.708 141.555 375.991 141.571 376.271C141.596 376.743 141.794 377.16 142.158 377.419C142.085 377.456 142.011 377.499 141.935 377.522C141.789 377.573 141.721 377.598 141.668 377.598C141.617 377.598 141.581 377.575 141.501 377.529C141.271 377.394 141.179 376.706 141.214 376.13C141.319 375.894 141.422 375.66 141.519 375.423ZM126.773 370.054C127.013 370.929 127.342 371.782 127.72 372.588C127.656 372.592 127.591 372.594 127.526 372.594C126.994 372.594 126.418 372.443 125.791 372.09L125.728 372.047C125.866 371.544 125.983 371.037 126.086 370.529C126.361 370.441 126.6 370.287 126.773 370.054ZM144.762 370.421C144.745 370.421 144.658 370.663 144.575 370.882C144.496 371.051 144.421 371.222 144.348 371.4C144.258 371.585 144.166 371.773 144.074 371.96C144.077 371.586 144.089 371.212 144.12 370.84C144.134 370.672 144.158 370.51 144.187 370.347C144.205 370.347 144.224 370.348 144.242 370.348C144.314 370.348 144.388 370.344 144.467 370.334C144.701 370.307 144.898 370.209 145.064 370.07C144.994 370.144 144.928 370.231 144.869 370.331C144.821 370.407 144.782 370.489 144.741 370.565C144.763 370.463 144.768 370.421 144.762 370.421ZM145.626 369.295C145.682 369.403 145.734 369.513 145.796 369.614L145.765 369.699C145.561 369.73 145.361 369.812 145.184 369.958C145.365 369.769 145.507 369.533 145.626 369.295ZM148.018 364.521C148.097 364.821 148.166 365.127 148.226 365.431C148.142 365.535 148.059 365.641 147.979 365.749C147.945 365.339 147.961 364.932 148.018 364.521ZM154.826 356.9C155.225 357.823 155.533 358.772 155.692 359.76C155.38 360.332 155.09 360.906 154.826 361.484C154.535 361.119 154.135 360.869 153.688 360.869C153.428 360.869 153.152 360.953 152.873 361.149C152.813 361.191 152.754 361.234 152.694 361.277C152.576 360.836 152.499 360.383 152.454 359.932C152.761 359.61 153.048 359.289 153.311 358.958C153.665 358.518 154.225 357.787 154.826 356.9ZM144.498 352.141C144.038 352.593 143.649 353.1 143.405 353.704C143.09 354.49 143.231 355.031 143.604 355.405C142.893 356.345 142.277 357.343 141.788 358.413C141.423 358.602 141.052 358.776 140.678 358.942C140.245 358.276 140.051 357.381 140.004 356.43C140.77 355.413 141.621 354.463 142.437 353.599C142.675 353.349 142.921 353.093 143.176 352.834C143.589 352.551 144.029 352.312 144.498 352.141ZM158.727 355.609L158.815 355.726C158.752 356.059 158.684 356.392 158.609 356.722C158.575 356.779 158.54 356.839 158.504 356.9C158.387 356.564 158.259 356.234 158.119 355.906C158.181 355.88 158.242 355.857 158.304 355.831C158.452 355.76 158.59 355.686 158.727 355.609ZM131.74 353.319C131.646 353.556 131.559 353.795 131.474 354.037C131.068 353.786 130.783 353.425 130.589 352.987C130.578 352.867 130.567 352.748 130.554 352.629L130.573 352.673C130.794 353.126 131.2 353.325 131.617 353.325C131.658 353.325 131.699 353.323 131.74 353.319ZM142.799 348.706C142.286 349.139 141.789 349.593 141.311 350.064C141.013 350.246 140.72 350.448 140.433 350.662L140.33 350.566C140.665 350.414 140.934 350.138 141.043 349.718C141.081 349.576 141.116 349.432 141.154 349.287C141.667 349.002 142.216 348.802 142.799 348.706ZM133.133 349.632C133.195 349.7 133.256 349.77 133.32 349.836C133.224 350.047 133.137 350.247 133.053 350.43C133.076 350.163 133.102 349.899 133.133 349.632ZM129.301 341.704C129.285 342.732 129.497 343.731 129.862 344.692C129.361 344.738 128.867 345.043 128.687 345.576C128.357 346.55 128.053 347.711 127.882 348.913C127.722 348.47 127.582 348.033 127.471 347.625C126.992 345.859 126.739 341.965 129.301 341.704ZM156.026 345.382C155.921 346.062 155.948 346.764 156.056 347.466C155.907 347.403 155.75 347.345 155.581 347.294C155.249 347.197 154.907 347.147 154.557 347.128C154.61 347.047 154.665 346.963 154.722 346.88C155.198 346.661 155.562 346.28 155.73 345.671C155.827 345.57 155.925 345.475 156.026 345.382ZM138.919 343.756C138.967 343.8 139.015 343.839 139.066 343.868C139.081 344.726 138.994 345.6 138.854 346.447C138.723 346.665 138.588 346.876 138.445 347.088L138.339 347.028C138.419 346.219 138.511 345.411 138.672 344.612C138.726 344.345 138.795 344.077 138.874 343.811L138.919 343.756ZM144.709 342.946C144.982 343.791 145.073 344.719 145.062 345.63C144.903 345.613 144.745 345.599 144.588 345.589C143.874 344.98 143.225 344.234 142.745 343.428C143.411 343.348 144.073 343.192 144.709 342.946ZM151.193 339.279C152.152 340.406 152.898 341.849 153.227 343.29C152.803 343.707 152.409 344.147 152.055 344.612L152.035 344.607C151.07 344.54 150.014 344.398 149.121 343.999C148.032 343.512 147.668 342.865 147.913 341.944C148.099 341.247 148.528 340.607 149.04 340.034C149.801 339.835 150.53 339.56 151.187 339.285L151.193 339.279ZM135.762 340.819C136.131 341.21 136.523 341.56 136.94 341.864C136.722 342.336 136.543 342.832 136.406 343.364C136.164 343.623 135.922 343.885 135.685 344.152C135.441 343.42 135.14 342.711 134.76 342.069C134.947 341.592 135.306 341.172 135.762 340.819ZM155.269 336.432C155.475 336.513 155.684 336.573 155.899 336.607C155.774 337.932 156.142 339.285 156.809 340.503C156.309 340.825 155.8 341.171 155.298 341.54C154.867 340.368 154.246 339.259 153.619 338.357C153.534 338.235 153.447 338.12 153.358 338.004C153.861 337.586 154.275 337.109 154.577 336.567C154.807 336.512 155.038 336.465 155.269 336.432ZM142.016 340.037C142.353 340.178 142.679 340.349 142.991 340.556C143.111 340.637 143.223 340.727 143.334 340.817C142.893 340.963 142.431 341.048 141.951 341.058C141.925 340.719 141.946 340.375 142.016 340.037ZM157.968 336.833C158.02 336.86 158.07 336.888 158.119 336.917C158.381 337.655 158.867 338.284 159.511 338.662C159.587 338.858 159.655 339.062 159.709 339.273C159.519 339.519 159.324 339.764 159.126 340.015C158.983 339.934 158.833 339.872 158.673 339.835C158.11 338.922 157.81 337.892 157.968 336.833ZM167.474 335.447C167.544 335.56 167.619 335.668 167.703 335.774C167.907 336.039 168.125 336.238 168.347 336.386C168.356 336.551 168.37 336.717 168.393 336.877C168.401 336.943 168.403 337.006 168.403 337.066C167.835 337.185 167.284 337.338 166.747 337.524C167.011 336.831 167.256 336.139 167.474 335.447ZM147.072 337.114C147.171 337.114 147.27 337.118 147.368 337.125C147.331 337.188 147.295 337.25 147.255 337.314C146.848 337.334 146.439 337.342 146.034 337.342C145.949 337.342 145.865 337.341 145.781 337.341L145.741 337.31C145.908 337.272 146.071 337.234 146.226 337.202C146.508 337.142 146.791 337.114 147.072 337.114ZM142.653 331.282C142.507 332.151 142.378 333.023 142.326 333.911C142.291 334.518 142.292 335.165 142.36 335.808C141.833 336.12 141.347 336.486 140.924 336.902C140.525 336.85 140.121 336.825 139.717 336.825C139.536 336.825 139.355 336.83 139.175 336.84C139.089 336.815 139.003 336.789 138.918 336.764C139.343 335.962 139.682 335.131 139.858 334.255C139.959 333.748 139.995 333.229 139.987 332.713C140.053 332.669 140.116 332.628 140.178 332.587C140.941 332.107 141.778 331.653 142.653 331.282ZM161.091 334.676C161.178 334.722 161.264 334.776 161.349 334.836C161.41 335.033 161.481 335.231 161.569 335.427C161.619 335.54 161.678 335.649 161.735 335.757C161.442 336.083 161.09 336.368 160.876 336.368C160.858 336.368 160.841 336.365 160.824 336.362C160.825 336.362 160.825 336.362 160.825 336.362C160.835 336.362 160.766 336.305 160.644 336.062C160.514 335.807 160.566 335.421 160.584 335.147L160.595 335.028C160.764 334.912 160.93 334.792 161.091 334.676ZM151.385 333.981C151.542 334.045 151.7 334.11 151.863 334.166L151.898 334.178C152.08 334.488 152.198 334.792 152.222 335.077C151.77 335.271 151.326 335.494 150.897 335.737L150.875 335.725C151.091 335.147 151.265 334.562 151.385 333.981ZM146.83 334.591C146.428 334.591 146.018 334.62 145.601 334.68C145.347 334.713 145.094 334.764 144.842 334.823C144.803 334.09 144.855 333.34 144.952 332.595C146.004 333.215 147.272 333.622 148.174 333.925C148.351 333.986 148.536 334.04 148.724 334.086C148.643 334.33 148.562 334.559 148.486 334.765C147.953 334.65 147.4 334.591 146.83 334.591ZM146.933 330.321C147.021 330.321 147.108 330.323 147.196 330.326C147.275 330.329 147.348 330.337 147.422 330.342C147.563 330.577 147.711 330.808 147.869 331.03C147.403 330.822 146.954 330.577 146.551 330.33C146.678 330.324 146.806 330.321 146.933 330.321ZM165.863 329.761C165.855 329.862 165.851 329.968 165.841 330.07C165.667 330.284 165.492 330.498 165.318 330.712C165.218 330.649 165.113 330.588 165.007 330.531C165.267 330.26 165.561 330.001 165.863 329.761ZM140.742 322.121C140.887 322.23 141.002 322.365 141.094 322.521L141.087 322.522C140.805 322.691 140.464 322.775 140.089 322.802L139.972 322.776C140.038 322.753 140.104 322.728 140.17 322.703C140.359 322.626 140.4 322.435 140.348 322.269C140.482 322.213 140.613 322.162 140.742 322.121Z" fill="#F79051"/>
<path d="M176.768 328.949C170.896 348.397 160.435 366.09 154.358 385.452C143.075 381.604 132.065 376.939 120.434 374.194C122.225 363.204 125.311 352.439 127.864 341.616C129.186 336.019 130.426 330.398 131.299 324.709C131.966 320.369 133.168 314.933 131.354 310.771C131.246 310.521 130.901 310.612 130.822 310.827C130.06 312.912 129.948 315.009 129.641 317.204C129.287 319.712 128.965 322.21 128.498 324.701C127.438 330.394 126.077 336.026 124.642 341.635C121.814 352.714 118.563 363.752 116.706 375.046C116.558 375.957 116.879 377.017 117.916 377.26C130.681 380.223 142.684 385.53 155.07 389.681C156.055 390.009 157.141 389.36 157.428 388.403C163.477 368.342 174.281 350.067 180.236 329.969C180.895 327.743 177.439 326.728 176.768 328.949Z" fill="#575A5B"/>
<path d="M87.8986 344.359C87.422 341.95 87.035 339.744 87.5002 337.293C87.9644 334.854 88.9248 332.5 90.1018 330.323C92.7523 325.428 96.7975 321.341 101.112 317.879C105.603 314.269 110.758 311.409 116.127 309.314C118.63 308.337 121.214 307.587 123.864 307.109C125.975 306.725 128.954 306.24 130.801 307.632C130.908 307.714 131.016 307.795 131.122 307.879C131.543 308.206 131.497 308.934 131.046 309.214C129.232 310.329 127.025 310.408 124.967 310.771C122.593 311.188 120.251 311.895 117.988 312.707C112.969 314.507 108.316 317.149 104.008 320.26C99.8621 323.256 96.0841 326.895 93.3121 331.204C92.0462 333.177 91.0228 335.322 90.4191 337.588C89.8514 339.713 89.3119 342.073 89.659 344.249C89.8385 345.382 88.1124 345.438 87.8986 344.359Z" fill="#575A5B"/>
<path d="M185.514 337.276C187.5 342.437 189.973 347.444 192.737 352.231C195.316 356.696 198.248 361.024 201.9 364.693C204.359 367.168 207.831 370 211.585 369.237C212.186 369.114 213.123 368.416 212.759 367.691C212.26 366.691 210.603 366.727 209.537 366.27C207.926 365.57 206.538 364.498 205.265 363.307C201.678 359.955 198.942 355.632 196.473 351.434C193.706 346.734 191.351 341.8 189.345 336.733C188.478 334.538 187.68 332.319 187.015 330.056C186.502 328.311 186.03 326.361 184.79 325.015L184.7 324.909C184.322 324.49 183.606 324.7 183.361 325.146C182.448 326.808 182.808 328.934 183.289 330.683C183.904 332.92 184.68 335.114 185.514 337.276Z" fill="#575A5B"/>
<path d="M151.908 395.11C151.183 393.859 153.089 392.811 153.988 393.805C156.247 396.308 157.673 399.562 159.095 402.576C160.848 406.294 162.435 410.085 164.337 413.735C166.838 418.543 171.315 426.897 178.072 424.65C180.192 423.947 181.668 427.107 179.527 427.82C171.305 430.554 165.79 423.538 162.215 417.156C158.247 410.067 155.973 402.147 151.908 395.11Z" fill="#575A5B"/>
<path d="M150.179 206.552C151.744 206.722 152.021 208.817 150.644 209.476C147.196 211.125 144.574 214.659 147.236 218.223C150.7 222.86 157.097 218.336 159.858 215.442C160.573 214.693 161.853 214.613 162.329 215.707C163.147 217.592 164.084 221.02 166.299 221.743C167.886 222.26 169.54 222.382 171.164 222.791C172.323 219.434 172.436 216.761 170.658 213.727C168.83 213.722 168.484 211.044 170.387 210.631C172.836 210.102 175.506 210.002 177.807 208.956C179.827 208.039 176.046 203.885 175.883 202.86C175.578 200.943 177.737 199.149 176.963 197.105C176.189 195.061 170.78 194.907 169.097 194.662C168.322 194.549 167.806 194.038 167.635 193.288C166.817 189.703 164.304 185.228 159.952 185.886C155.077 186.623 157.251 193.809 158.393 196.48C159.035 197.98 157.266 199.385 155.934 198.452C152.365 195.952 145.785 193.409 143.088 198.541C140.526 203.415 146.259 206.13 150.179 206.552ZM140.136 197.438C142.705 191.556 149.016 191.715 154.131 193.815C153.163 189.246 153.717 184.006 158.994 182.751C164.922 181.343 169.02 186.494 170.562 191.566C173.649 192.002 177.056 192.515 179.299 194.749C181.279 196.72 180.228 200.059 179.328 202.425C180.905 204.872 182.661 207.957 180.832 210.622C179.43 212.667 175.909 213.218 173.101 213.505C175.489 216.778 174.792 220.882 173.296 224.967C173.037 225.674 172.222 226.022 171.523 225.768C169.309 224.962 166.811 225.037 164.676 224.122C162.636 223.249 161.431 220.866 160.504 218.724C156.245 222.435 149.752 225.464 145.273 220.483C141.719 216.531 143 211.869 146.306 208.793C141.488 207.091 137.696 203.022 140.136 197.438Z" fill="#71D0DE"/>
<path d="M75.4335 132.371C79.0399 140.89 87.806 145.899 96.9783 144.751C98.4237 144.57 99.2575 146.088 98.5244 147.263C90.0126 160.895 116.66 172.043 124.115 159.987C125.007 158.545 126.867 159.684 126.89 161.039C127.008 167.969 132.562 172.654 139.193 173.368C146.742 174.179 152.863 169.105 154.284 161.862C154.55 160.505 156.466 159.976 157.082 161.421C158.701 165.223 161.954 168.194 166.235 168.418C169.214 168.573 170.549 166.765 170.945 164.512C170.939 164.367 170.925 164.222 170.922 164.078C170.916 163.791 170.971 163.55 171.068 163.349C171.118 162.182 170.968 160.969 170.7 159.892C170.476 158.992 171.873 158.629 172.231 159.445C172.712 160.542 173.026 161.667 173.171 162.77C173.788 163.028 174.298 163.59 174.317 164.416C174.417 168.897 176.844 173.473 180.297 176.302C181.295 177.12 182.895 178.163 184.261 177.722C186.318 177.058 186.514 173.614 186.665 171.918C186.739 171.081 187.638 170.178 188.543 170.388C195.291 171.948 200.705 168.819 201.852 161.876C202.861 155.765 200.167 148.71 194.49 145.766C193.257 145.127 192.897 143.668 193.999 142.682C201.731 135.764 200.809 123.637 196.511 115.135C194.538 111.234 191.38 107.647 187.173 106.143C182.114 104.334 177.25 107.347 173.735 110.754C172.578 111.877 170.709 110.606 170.84 109.186C171.675 100.154 167.586 91.366 159.857 86.4717C151.775 81.3546 142.592 84.2506 136.959 91.3861C136.193 92.3573 134.25 92.4452 133.819 91.0496C129.531 77.1683 99.5163 76.5248 100.204 93.3895C100.26 94.7588 99.1331 95.9438 97.6951 95.4269C91.8411 93.3217 85.1488 94.7884 80.8447 99.3371C75.8661 104.598 77.518 111.238 82.5011 115.798C83.7371 116.929 83.156 119.056 81.3027 118.932C73.1825 118.387 73.0581 126.761 75.4335 132.371ZM71.6538 120.692C72.886 117.997 75.1387 116.519 77.7425 115.872C73.5408 110.705 72.7048 104.047 77.0651 98.1202C81.4839 92.1148 89.482 89.7239 96.6008 91.2629C98.6425 73.804 128.37 72.3793 136.062 86.9573C142.703 80.3185 152.17 78.0688 160.902 82.9832C169.095 87.5941 173.988 96.3179 174.473 105.48C178.149 102.845 182.519 101.324 187.142 102.422C192.39 103.668 196.435 107.766 199.063 112.287C204.595 121.804 205.549 135.252 197.953 143.786C203.786 148.041 206.488 155.518 205.269 162.697C203.927 170.616 197.467 175.088 189.858 174.086C189.48 176.461 188.673 178.849 186.662 180.291C184.606 181.766 181.914 181.271 179.855 180.099C175.733 177.753 172.853 173.392 171.608 168.765C170.696 169.786 169.391 170.559 167.632 170.945C163.068 171.944 158.824 169.263 156.181 165.677C153.503 172.509 147.226 176.786 139.376 176.404C132.06 176.048 126.111 171.225 124.355 164.542C113.591 174.607 89.0325 162.997 94.599 148.106C84.6733 148.234 75.8189 142.204 72.055 132.837C70.5427 129.075 69.9198 124.487 71.6538 120.692Z" fill="#71D0DE"/>
<path d="M371.11 290.193C370.133 295.144 365.215 298.507 360.136 297.71C355.044 296.908 351.72 292.252 352.694 287.293C353.672 282.339 358.588 278.977 363.665 279.775C368.757 280.571 372.083 285.237 371.11 290.193Z" fill="#EBA9BE"/>
<path d="M311.845 291.085C310.871 296.037 305.954 299.404 300.875 298.603C295.781 297.81 292.457 293.138 293.43 288.194C294.397 283.237 299.321 279.868 304.404 280.67C309.49 281.469 312.821 286.136 311.845 291.085Z" fill="#EBA9BE"/>
<path d="M376.752 269.889C372.396 256.745 360.995 245.446 347.18 241.763C340.517 239.994 333.321 240.242 326.48 241.372C319.219 242.575 311.532 244.567 304.981 247.97C303.759 248.594 303.91 250.829 305.526 250.456C309.53 249.549 313.417 248.213 317.36 247.053C317.369 247.829 317.384 248.603 317.387 249.384C317.396 251.291 317.41 253.341 317.995 255.159C318.153 255.646 319.039 255.602 319.074 255.055C319.229 252.865 319.435 250.711 319.439 248.51C319.439 248.209 319.513 247.329 319.454 246.46C319.818 246.362 320.174 246.259 320.528 246.17C325.534 244.888 330.674 244.096 335.818 244.002C336.77 243.983 337.721 244.004 338.653 244.058C338.402 244.193 338.196 244.416 338.11 244.704C337.731 246.063 338.266 247.299 338.42 248.632C338.486 249.135 339.223 249.287 339.458 248.792C340.061 247.521 340.119 246.115 340.196 244.752C340.208 244.495 340.137 244.306 340.013 244.163C348.235 244.923 355.63 248.372 361.756 253.772C370.418 261.408 375.534 272.234 375.508 283.775C375.486 293.967 370.945 304.348 362.998 311.322C353.693 319.476 341.205 321.749 329.293 320.13C314.952 318.181 300.234 312.003 291.827 300.309C288.305 295.413 286.301 289.663 286.22 283.617C286.131 276.934 288.601 270.457 292.275 264.771C294.749 260.948 297.892 257.379 301.196 254.193C301.764 253.645 300.884 252.709 300.287 253.221C289.555 262.452 281.325 275.457 284.006 289.571C286.465 302.471 296.994 311.974 308.669 317.49C321.061 323.35 336.651 326.218 350.344 322.119C361.049 318.911 369.878 311.137 374.707 301.37C379.578 291.5 380.115 280.04 376.752 269.889Z" fill="#575A5B"/>
<path d="M316.266 278.099C316.349 277.668 316.181 277.307 315.868 277.049C315.654 276.711 315.288 276.459 314.867 276.398C314.065 276.27 313.264 276.82 313.114 277.6C312.963 278.388 313.5 279.145 314.302 279.269C314.712 279.334 315.167 279.219 315.496 278.961C315.879 278.812 316.175 278.519 316.266 278.099Z" fill="#575A5B"/>
<path d="M345.883 277.415C345.989 276.851 345.603 276.31 345.027 276.217C344.475 276.122 343.877 276.265 343.407 276.578C343.305 276.615 343.196 276.66 343.088 276.736C342.995 276.8 342.912 276.867 342.828 276.942L342.783 276.964C342.359 277.202 342.14 277.765 342.17 278.207C342.231 278.802 342.689 279.296 343.304 279.392C343.787 279.467 344.292 279.288 344.614 278.918C344.778 278.729 344.889 278.51 344.93 278.273L344.938 278.261C345.389 278.189 345.78 277.9 345.883 277.415Z" fill="#575A5B"/>
<path d="M365.983 294.201C365.632 291.691 364.294 289.548 362.96 287.439C362.506 286.714 360.382 283.439 359.374 285.189C358.678 286.396 359.824 287.811 360.591 288.931C352.035 294.791 342.037 298.371 331.744 299.589C326.222 300.243 320.384 300.078 315.252 298.032C310.491 296.136 306.797 292.274 305.084 287.572C305.969 287.456 306.848 287.369 307.74 287.258C308.867 287.105 308.974 285.527 307.853 285.332C303.604 284.609 298.657 286.5 295.6 289.449C295.194 289.838 295.695 290.521 296.208 290.299C297.944 289.544 299.684 288.803 301.513 288.261C302.475 287.974 303.452 287.795 304.431 287.66C304.847 290.28 305.558 292.579 307.191 294.738C308.731 296.769 310.776 298.347 313.081 299.519C318.174 302.126 324.32 302.576 330.053 302.238C336.367 301.867 342.864 300.281 348.721 297.839C353.12 296.016 358.04 293.667 361.431 290.174C362.452 291.721 363.472 293.259 364.691 294.676C365.104 295.153 366.082 294.933 365.983 294.201Z" fill="#575A5B"/>
<path d="M329.347 244.395C328.995 243.668 327.902 244.118 327.875 244.821C327.821 246.042 328.09 247.289 328.207 248.499C328.337 249.746 328.499 250.998 328.923 252.183C329.106 252.68 329.771 252.647 329.947 252.154C330.8 249.841 330.368 246.553 329.347 244.395Z" fill="#575A5B"/>
<path d="M133.374 279.47C133.118 284.754 136.935 289.201 141.886 289.411C146.849 289.623 151.073 285.515 151.329 280.226C151.587 274.944 147.77 270.495 142.821 270.285C137.857 270.071 133.633 274.186 133.374 279.47Z" fill="#EBA9BE"/>
<path d="M188.737 292.402C188.479 297.684 192.29 302.137 197.246 302.344C202.21 302.563 206.431 298.443 206.69 293.166C206.955 287.881 203.135 283.426 198.179 283.218C193.219 283.008 188.991 287.121 188.737 292.402Z" fill="#EBA9BE"/>
<path d="M132.887 257.485C140.082 244.869 153.444 235.583 167.272 234.603C173.937 234.136 180.626 235.848 186.772 238.398C193.298 241.104 200.034 244.707 205.373 249.528C206.369 250.418 205.702 252.679 204.274 251.971C200.732 250.228 197.407 248.068 193.984 246.077C193.787 246.87 193.593 247.665 193.403 248.465C192.943 250.421 192.446 252.524 191.467 254.272C191.203 254.739 190.385 254.515 190.482 253.945C190.854 251.668 191.172 249.412 191.687 247.152C191.758 246.841 191.901 245.923 192.159 245.043C191.84 244.868 191.532 244.692 191.219 244.53C186.829 242.198 182.197 240.343 177.394 239.205C176.506 238.99 175.61 238.821 174.723 238.686C174.924 238.878 175.067 239.147 175.078 239.459C175.111 240.931 174.319 242.093 173.861 243.43C173.68 243.932 172.953 243.941 172.848 243.385C172.584 241.956 172.862 240.499 173.11 239.087C173.166 238.821 173.274 238.64 173.423 238.516C165.534 237.634 157.784 239.676 150.761 243.975C140.833 250.058 133.471 260.14 130.767 271.992C128.376 282.46 130.179 294.036 135.982 302.805C142.779 313.067 153.949 317.932 165.503 318.682C179.412 319.591 194.674 316.23 205.329 305.929C209.787 301.618 213.025 296.118 214.535 289.924C216.199 283.087 215.413 275.934 213.311 269.354C211.898 264.925 209.794 260.625 207.451 256.683C207.049 256.006 208.094 255.223 208.529 255.872C216.411 267.525 221.053 282.543 215.199 296.49C209.843 309.235 197.723 316.856 185.467 320.155C172.463 323.659 157.164 323.442 145.294 316.459C136.012 310.994 129.574 301.227 127.359 290.217C125.124 279.099 127.331 267.221 132.887 257.485Z" fill="#575A5B"/>
<path d="M187.665 278.171C187.69 277.714 187.93 277.376 188.285 277.172C188.567 276.871 188.97 276.685 189.379 276.709C190.161 276.742 190.78 277.467 190.738 278.3C190.695 279.138 190.01 279.807 189.231 279.769C188.828 279.752 188.431 279.545 188.179 279.215C187.861 278.984 187.651 278.623 187.665 278.171Z" fill="#575A5B"/>
<path d="M160.053 271.467C160.089 270.866 160.58 270.387 161.143 270.408C161.682 270.426 162.205 270.694 162.576 271.11C162.663 271.167 162.753 271.236 162.835 271.339C162.907 271.42 162.97 271.506 163.03 271.599L163.066 271.633C163.411 271.96 163.482 272.584 163.349 273.033C163.151 273.63 162.603 274.046 162.004 274.02C161.532 274 161.102 273.711 160.891 273.265C160.781 273.039 160.726 272.792 160.746 272.539L160.741 272.528C160.33 272.364 160.038 271.986 160.053 271.467Z" fill="#575A5B"/>
<path d="M137.234 284.627C138.158 282.123 139.92 280.191 141.669 278.297C142.268 277.646 145.031 274.71 145.561 276.712C145.931 278.095 144.521 279.314 143.536 280.308C150.17 288.059 158.701 293.761 168.065 297.1C173.088 298.888 178.601 299.901 183.9 298.845C188.81 297.864 193.189 294.646 195.906 290.164C195.106 289.868 194.3 289.598 193.491 289.303C192.473 288.92 192.746 287.276 193.84 287.304C197.996 287.423 202.187 290.366 204.358 294.013C204.645 294.498 204.015 295.095 203.588 294.764C202.137 293.637 200.683 292.522 199.093 291.594C198.258 291.109 197.384 290.726 196.501 290.387C195.489 292.995 194.28 295.208 192.238 297.093C190.312 298.868 188.024 300.076 185.582 300.814C180.191 302.453 174.32 301.67 169.025 300.16C163.192 298.499 157.474 295.554 152.558 291.856C148.865 289.098 144.808 285.688 142.454 281.417C141.131 282.796 139.811 284.169 138.333 285.376C137.832 285.783 136.966 285.356 137.234 284.627Z" fill="#575A5B"/>
<path d="M183.371 240.919C183.871 240.243 184.79 240.928 184.647 241.655C184.41 242.918 183.865 244.146 183.466 245.361C183.052 246.617 182.603 247.869 181.925 249C181.636 249.473 181.019 249.305 180.973 248.764C180.717 246.213 181.902 242.926 183.371 240.919Z" fill="#575A5B"/>
<path opacity="0.5" d="M134.764 151.505C134.764 151.887 134.916 152.254 135.187 152.524C135.457 152.795 135.824 152.947 136.206 152.947H149.667C150.05 152.947 150.417 152.795 150.687 152.524C150.958 152.254 151.11 151.887 151.11 151.505V137.563H134.764V151.505Z" fill="#1DBFB3"/>
<path opacity="0.5" d="M120.341 120.738C119.959 120.738 119.592 120.89 119.322 121.16C119.051 121.431 118.899 121.797 118.899 122.18V135.64C118.899 136.023 119.051 136.39 119.322 136.66C119.592 136.931 119.959 137.083 120.341 137.083H134.283V120.738H120.341Z" fill="#1DBFB3"/>
<path opacity="0.5" d="M151.11 106.316C151.11 105.933 150.958 105.567 150.687 105.296C150.417 105.026 150.05 104.874 149.667 104.874H136.206C135.824 104.874 135.457 105.026 135.187 105.296C134.916 105.567 134.764 105.933 134.764 106.316V120.257H151.11V106.316Z" fill="#1DBFB3"/>
<path d="M164.032 119.101H135.108C134.328 119.101 133.579 119.411 133.027 119.963C132.476 120.515 132.166 121.263 132.166 122.043V135.78C132.166 136.56 132.476 137.309 133.027 137.86C133.579 138.412 134.328 138.722 135.108 138.722H139.675L142.319 142.328C142.39 142.424 142.483 142.503 142.59 142.558C142.697 142.612 142.816 142.64 142.936 142.64C143.056 142.64 143.174 142.612 143.281 142.558C143.388 142.503 143.481 142.424 143.552 142.328L146.196 138.722H164.03C164.81 138.722 165.559 138.412 166.111 137.86C166.662 137.309 166.972 136.56 166.972 135.78V122.043C166.972 121.263 166.663 120.515 166.111 119.964C165.56 119.412 164.812 119.102 164.032 119.101Z" fill="#1DBFB3"/>
</svg>
