<svg width="480" height="480" viewBox="0 0 480 480" fill="none" xmlns="http://www.w3.org/2000/svg">
<path d="M364.056 440.479C361.664 440.479 359.832 439.256 361.904 438.536V438.536C365.351 437.336 364.05 432.921 360.455 433.556C352.846 434.901 345.219 436.233 337.024 436.888C336.8 436.904 336.584 436.911 336.376 436.911C333.8 436.911 332.592 435.592 334.96 434.968C336.008 434.696 337.032 434.407 338.04 434.111C329.68 435.487 321.088 436.6 311.976 436.928C311.872 436.928 311.776 436.936 311.68 436.936C308.984 436.936 308.776 435.495 310.608 434.959C311.808 434.607 312.992 434.247 314.168 433.871C301.656 436.455 289.064 439.016 275.048 439.888C274.912 439.896 274.768 439.904 274.632 439.904C272.464 439.904 270.456 438.88 272.512 438.184C278.168 436.264 284.376 434.639 290.816 433.159C281.52 434.559 272.44 436.224 262.912 437.336C262.648 437.368 262.4 437.384 262.152 437.384C259.944 437.384 258.552 436.231 260.272 435.559C263.52 434.295 266.424 432.904 269.232 431.488V431.488C269.517 431.345 269.368 430.903 269.056 430.97C259.031 433.139 249.73 435.821 239.32 437.728C238.88 437.808 238.424 437.848 237.976 437.848C235.872 437.848 234 437.04 235.328 436.168C239.672 433.328 246.936 430.471 255.8 430.471C256.576 430.471 257.368 430.496 258.168 430.544V430.544C258.866 430.581 259.694 430.866 260.378 430.721C266.495 429.421 272.72 428.207 279.328 427.311C279.544 427.279 279.76 427.271 279.96 427.271C281.608 427.271 282.6 428.175 281.336 428.671C277.96 429.975 275.488 431.544 272.648 433.024V433.024C272.237 433.236 272.435 433.87 272.894 433.809C284.539 432.261 296.172 430.681 308.12 429.536C308.288 429.52 308.448 429.511 308.608 429.511C310.424 429.511 311.392 430.519 309.608 430.919V430.919C307.172 431.471 307.559 433.427 310.014 432.965C318.112 431.44 326.079 429.784 334.136 428.264C334.464 428.2 334.792 428.176 335.104 428.176C337 428.176 338.248 429.224 336.224 429.664V429.664C333.947 430.155 334.5 432.651 336.798 432.276C342.955 431.271 348.973 430.104 354.984 429.016C355.392 428.944 355.784 428.911 356.152 428.911C358.32 428.911 359.6 430.047 357.4 430.639V430.639C356.431 430.901 356.711 432.083 357.7 431.914C367.076 430.313 376.364 428.622 386.528 428.056C386.664 428.048 386.792 428.048 386.92 428.048C388.984 428.048 390.592 428.943 388.856 429.631V429.631C386.105 430.722 387.403 434.784 390.328 434.329C397.658 433.188 405.076 432.173 412.92 431.736C413.08 431.728 413.248 431.719 413.416 431.719C415.328 431.719 417.344 432.304 416.584 433.168V433.168C416.196 433.599 416.574 434.335 417.144 434.228C426.302 432.514 435.343 430.702 444.272 428.808C444.808 428.696 445.328 428.648 445.808 428.648C448.456 428.648 450.048 430.144 447.328 430.856C446.992 430.944 446.648 431.04 446.312 431.128C447.48 430.936 448.632 430.735 449.768 430.519C450.272 430.423 450.776 430.376 451.256 430.376C453.744 430.376 455.576 431.552 453.52 432.416C451.256 433.368 450.968 434.367 449.944 435.519C449.456 436.063 447.952 436.399 446.56 436.399C445.32 436.399 444.16 436.135 443.904 435.519C443.832 435.343 443.784 435.192 443.784 435.024C443.784 434.763 443.96 434.547 444.242 434.367C444.267 434.351 444.288 434.331 444.303 434.305V434.305C444.381 434.174 444.269 434.008 444.118 434.03C438.536 434.831 432.863 435.534 427.496 436.528C426.96 436.624 426.44 436.671 425.96 436.671V436.671C423.97 436.671 421.719 436.016 419.763 436.384C416.442 437.009 413.106 437.623 409.752 438.224C409.32 438.304 408.856 438.336 408.4 438.336C406.168 438.336 404 437.496 405.552 436.584V436.584C406.549 435.999 406.056 434.666 404.908 434.793C391.246 436.301 378.521 439.082 364.728 440.456C364.512 440.472 364.28 440.479 364.056 440.479Z" fill="#1DBFB3"/>
<path d="M151.632 443.72C149.392 443.72 147.688 442.168 149.624 441.248V441.248C153.667 439.339 151.594 434.126 147.247 435.169C140.479 436.792 133.673 438.365 126.384 439.16C126.176 439.184 125.976 439.192 125.784 439.192C123.376 439.192 122.24 437.512 124.456 436.728V436.728C124.74 436.628 124.622 436.232 124.327 436.294C117.466 437.734 110.414 438.846 102.984 439.216C102.888 439.224 102.8 439.224 102.712 439.224C100.192 439.224 100 437.4 101.712 436.72C102.832 436.272 103.944 435.808 105.04 435.344C93.352 438.624 81.584 441.872 68.496 442.984C68.368 442.992 68.24 443 68.112 443C66.088 443 64.208 441.704 66.128 440.816C71.408 438.376 77.208 436.312 83.224 434.432C74.544 436.216 66.056 438.32 57.152 439.736C56.904 439.776 56.672 439.792 56.44 439.792C54.376 439.792 53.08 438.328 54.688 437.48C57.728 435.872 60.432 434.112 63.064 432.312V432.312C63.3745 432.101 63.1415 431.586 62.7813 431.693C53.4638 434.437 44.8039 437.83 35.12 440.24C34.712 440.344 34.28 440.392 33.864 440.392C31.896 440.392 30.152 439.36 31.392 438.256C35.448 434.656 42.232 431.016 50.512 431.016C51.24 431.016 51.976 431.048 52.728 431.104V431.104C53.3943 431.151 54.2027 431.496 54.8446 431.311C60.5437 429.667 66.344 428.133 72.496 427C72.704 426.96 72.896 426.944 73.088 426.944C74.632 426.944 75.552 428.096 74.376 428.72C71.224 430.376 68.912 432.376 66.256 434.248V434.248C65.7918 434.578 66.0964 435.314 66.6569 435.213C77.4814 433.254 88.2881 431.268 99.4 429.816C99.56 429.792 99.712 429.784 99.856 429.784C101.552 429.784 102.456 431.064 100.792 431.576V431.576C97.8497 432.481 98.4903 434.865 101.472 434.1C108.936 432.183 116.283 430.11 123.712 428.208C124.024 428.128 124.328 428.096 124.616 428.096C126.392 428.096 127.56 429.424 125.664 429.984V429.984C122.927 430.789 123.839 433.836 126.624 433.213C132.231 431.959 137.719 430.516 143.2 429.168C143.576 429.072 143.944 429.032 144.288 429.032C146.312 429.032 147.512 430.472 145.456 431.224V431.224C144.296 431.65 144.753 433.073 145.956 432.794C154.64 430.776 163.248 428.655 172.664 427.944C172.784 427.936 172.912 427.928 173.032 427.928C174.96 427.928 176.464 429.064 174.848 429.936V429.936C171.663 431.649 173.714 436.425 177.255 435.687C183.765 434.33 190.365 433.143 197.328 432.616C197.48 432.608 197.632 432.6 197.792 432.6C199.576 432.6 201.464 433.344 200.752 434.44V434.44C200.359 435.046 200.909 435.886 201.609 435.707C210.05 433.552 218.384 431.282 226.616 428.904C227.112 428.76 227.6 428.696 228.048 428.696C230.52 428.696 232.008 430.592 229.464 431.504V431.504C229.38 431.533 229.415 431.652 229.502 431.632C230.255 431.458 231.004 431.275 231.744 431.08C232.216 430.952 232.688 430.904 233.136 430.904C235.464 430.904 237.168 432.4 235.248 433.504C233.136 434.72 232.864 435.984 231.904 437.448C231.448 438.144 230.04 438.56 228.744 438.56C227.584 438.56 226.504 438.224 226.264 437.448C226.192 437.224 226.152 437.032 226.152 436.816C226.152 436.49 226.31 436.215 226.571 435.99C226.6 435.964 226.625 435.932 226.641 435.897V435.897C226.72 435.718 226.563 435.529 226.371 435.567C221.186 436.578 215.921 437.46 210.928 438.72C210.432 438.848 209.944 438.904 209.488 438.904V438.904C207.616 438.904 205.421 438.101 203.607 438.566C200.535 439.353 197.449 440.123 194.344 440.88C193.944 440.976 193.512 441.024 193.088 441.024C191 441.024 188.976 439.952 190.424 438.792V438.792C191.517 437.917 190.773 436.369 189.389 436.581C176.79 438.512 165.022 441.986 152.288 443.712C152.056 443.712 151.84 443.72 151.632 443.72Z" fill="#1DBFB3"/>
<path d="M402.864 375.224C402.605 375.216 402.207 374.684 401.957 374.172C401.948 374.153 401.943 374.133 401.941 374.113V374.113C401.924 373.929 402.167 373.845 402.263 374.003C402.282 374.034 402.301 374.065 402.32 374.096C402.521 374.414 402.801 374.653 403.135 374.757C403.242 374.791 403.306 374.923 403.232 375.008V375.008C403.032 375.232 403.048 375.232 402.864 375.224ZM386.688 377.976V377.976C386.641 377.976 386.6 377.944 386.589 377.898C386.488 377.481 386.37 377.07 386.246 376.663C386.213 376.555 386.243 376.437 386.31 376.345V376.345C386.467 376.131 386.831 376.028 387.024 376.21C387.244 376.418 387.471 376.618 387.703 376.811C388.117 377.156 388.074 377.802 387.545 377.904C387.284 377.954 386.999 377.979 386.688 377.976ZM374.381 351.038C374.578 350.316 375.497 350.513 375.968 351.094C375.986 351.115 376.003 351.137 376.02 351.158C376.516 351.755 376.368 352.813 376.512 353.576V353.576C376.627 354.2 376.782 354.883 376.986 355.583C377.083 355.916 376.679 356.18 376.44 355.928V355.928C375.448 354.904 373.942 352.653 374.381 351.038ZM375.504 328.248C375.565 328.175 375.584 328.094 375.574 328.016C375.554 327.865 375.518 327.691 375.62 327.578C375.639 327.557 375.657 327.536 375.676 327.516C375.704 327.488 375.743 327.475 375.781 327.482C375.933 327.511 376.077 327.568 376.21 327.644C376.212 327.645 376.211 327.648 376.209 327.648V327.648C376.208 327.648 376.208 327.648 376.207 327.649C376.048 327.927 375.794 328.166 375.484 328.365C375.481 328.367 375.478 328.368 375.475 328.369V328.369C375.444 328.378 375.421 328.341 375.442 328.317L375.504 328.248ZM380.305 336.712C380.856 335.713 382.23 335.933 382.728 336.96V336.96C382.851 337.214 382.983 337.471 383.126 337.727C383.428 338.268 383.44 338.936 383.201 339.508V339.508C383.013 339.955 382.676 340.319 382.24 340.533C381.963 340.669 381.692 340.819 381.431 340.981C381.41 340.993 381.387 341.002 381.364 341.007V341.007C381.248 341.031 381.142 340.949 381.138 340.83C381.109 340.012 381.002 339.209 380.76 338.432C380.623 338.015 380.452 337.616 380.245 337.229C380.179 337.105 380.183 336.961 380.24 336.832V336.832C380.262 336.792 380.283 336.752 380.305 336.712ZM386.472 342.408V342.408C386.655 342.428 386.727 342.65 386.591 342.773C386.465 342.888 386.332 342.996 386.192 343.097C385.989 343.245 385.706 343.178 385.596 342.952V342.952C385.466 342.688 385.657 342.392 385.952 342.389C386.124 342.386 386.297 342.393 386.472 342.408ZM387.784 334.192C387.838 334.182 387.892 334.172 387.947 334.161C388.157 334.119 388.374 334.26 388.409 334.472V334.472C388.439 334.649 388.328 334.805 388.158 334.864C387.384 335.13 386.636 335.525 385.92 336.064V336.064C385.607 336.302 385.144 336.236 384.963 335.886C384.93 335.823 384.898 335.76 384.866 335.696C384.606 335.172 385.02 334.57 385.602 334.516C386.404 334.442 387.176 334.298 387.784 334.192ZM385.216 331.528C385.253 331.511 385.288 331.495 385.322 331.479C385.381 331.45 385.451 331.452 385.509 331.484V331.484C385.684 331.582 385.626 331.845 385.426 331.847C385.382 331.848 385.338 331.848 385.294 331.848C385.11 331.848 385.053 331.613 385.216 331.528V331.528ZM382.094 347.85C382.116 347.938 382.116 348.028 382.094 348.116V348.116C381.993 348.513 381.502 348.668 381.182 348.412C380.96 348.234 380.732 348.066 380.5 347.909C380.244 347.737 380.05 347.469 380.073 347.161C380.08 347.062 380.093 346.963 380.112 346.864C380.197 346.408 380.699 346.206 381.151 346.308V346.308C381.573 346.403 381.89 346.754 381.958 347.181C381.994 347.402 382.04 347.624 382.094 347.85ZM384.68 347.992C384.601 347.74 384.53 347.48 384.474 347.212C384.473 347.204 384.473 347.196 384.475 347.188V347.188C384.482 347.155 384.515 347.136 384.548 347.142C384.569 347.146 384.591 347.149 384.613 347.152C384.65 347.157 384.683 347.179 384.702 347.212C385.09 347.895 385.404 348.633 385.675 349.373C385.705 349.454 385.719 349.54 385.715 349.627C385.707 349.809 385.695 349.992 385.678 350.179C385.675 350.218 385.642 350.248 385.602 350.248V350.248C385.572 350.248 385.544 350.23 385.532 350.202C385.219 349.473 384.923 348.744 384.68 347.992ZM382.557 355.135C382.565 355.243 382.418 355.281 382.376 355.181V355.181C382.344 355.105 382.42 355.024 382.498 355.052V355.052C382.532 355.064 382.554 355.098 382.557 355.135V355.135ZM381.704 359.11C381.699 359.106 381.694 359.101 381.69 359.096C381.637 359.016 381.578 358.936 381.523 358.851C381.518 358.843 381.528 358.834 381.536 358.84V358.84C381.842 359.059 382.171 359.098 382.468 359.022C382.659 358.973 382.887 359.079 382.917 359.273V359.273C382.942 359.44 382.81 359.587 382.645 359.554C382.304 359.485 381.99 359.328 381.704 359.11ZM389.104 351.031C389.077 350.924 389.096 350.81 389.157 350.718V350.718C389.395 350.358 389.825 350.637 389.695 351.049C389.658 351.169 389.621 351.289 389.584 351.41C389.573 351.446 389.559 351.48 389.541 351.513C389.391 351.788 389.254 352.069 389.117 352.356C389.105 352.382 389.076 352.395 389.049 352.389V352.389C389.007 352.379 388.989 352.329 389.012 352.293C389.192 352.017 389.271 351.676 389.176 351.288C389.151 351.205 389.127 351.118 389.104 351.031ZM387.348 338.288C387.332 338.288 387.324 338.269 387.336 338.258C387.452 338.15 387.562 338.055 387.672 337.96C387.926 337.741 388.197 337.562 388.48 337.42C388.547 337.387 388.621 337.436 388.617 337.511V337.511C388.616 337.546 388.597 337.579 388.567 337.598C388.168 337.842 387.762 338.071 387.356 338.286C387.353 338.287 387.35 338.288 387.348 338.288V338.288ZM388.543 344.269C388.863 343.96 389.38 343.922 389.662 344.266C389.978 344.651 390.26 345.072 390.511 345.51C390.608 345.68 390.53 345.898 390.353 345.98V345.98C390.29 346.009 390.22 346.016 390.152 346.001C389.664 345.892 389.171 345.74 388.698 345.548C388.181 345.338 388.143 344.657 388.543 344.269V344.269ZM392.505 352.953C392.664 352.664 393.087 352.849 393.087 353.179C393.087 353.329 393.095 353.48 393.112 353.632V353.632C393.241 354.663 393.968 355.777 393.929 356.816C393.913 357.257 393.915 357.698 393.938 358.14C393.949 358.366 393.894 358.589 393.764 358.774V358.774C393.477 359.185 392.914 359.306 392.544 358.968C392.315 358.758 392.099 358.516 391.896 358.25C391.596 357.855 391.499 357.346 391.584 356.858C391.757 355.871 391.986 354.905 392.216 354C392.301 353.683 392.386 353.35 392.479 353.017C392.485 352.995 392.494 352.973 392.505 352.953V352.953ZM391.303 340.114C391.342 339.433 391.727 338.835 392.183 338.327C392.459 338.02 392.716 337.71 392.951 337.409C392.952 337.408 392.952 337.407 392.952 337.406V337.406C392.952 337.403 392.955 337.401 392.958 337.402C394.041 337.817 395.114 338.471 395.995 339.274C396.407 339.65 396.52 340.235 396.4 340.779C396.339 341.052 396.289 341.325 396.25 341.598C396.249 341.609 396.242 341.619 396.232 341.624V341.624C395.36 342.024 394.384 342.4 393.424 342.48C392.248 342.576 391.624 342.184 391.4 341.272C391.306 340.899 391.28 340.51 391.303 340.114ZM391.088 332.64V332.64C391.114 332.635 391.14 332.639 391.163 332.653C391.247 332.705 391.326 332.759 391.401 332.815C391.697 333.038 391.68 333.453 391.468 333.758C391.309 333.985 391.158 334.216 391.013 334.448C391.01 334.453 391.004 334.456 390.998 334.456V334.456C390.99 334.456 390.983 334.45 390.982 334.441C390.913 334.015 390.828 333.589 390.724 333.178C390.662 332.931 390.838 332.687 391.088 332.64V332.64ZM394.562 333.863C394.59 333.589 394.696 333.322 394.911 333.149C394.943 333.123 394.976 333.097 395.009 333.071C395.082 333.014 395.168 332.977 395.259 332.962V332.962C395.541 332.913 395.84 333.039 395.978 333.289C396.417 334.086 397.047 334.78 397.793 335.357C398.125 335.613 398.25 336.06 398.061 336.433V336.433C397.819 336.911 397.186 337.056 396.754 336.74C396.05 336.225 395.311 335.786 394.624 335.44V335.44C394.402 335.335 394.294 335.074 394.365 334.839C394.461 334.516 394.53 334.191 394.562 333.863ZM397.773 332.048C397.795 332.048 397.817 332.056 397.834 332.071C398.341 332.513 398.947 332.801 399.575 332.876C399.751 332.898 399.923 332.957 400.053 333.076C400.06 333.083 400.067 333.089 400.074 333.096C400.231 333.241 400.293 333.459 400.259 333.67C400.244 333.762 400.229 333.854 400.214 333.946C400.183 334.126 400.026 334.249 399.847 334.281V334.281C399.744 334.3 399.636 334.291 399.547 334.237C398.723 333.737 398.058 333.053 397.689 332.172C397.664 332.112 397.709 332.048 397.773 332.048V332.048ZM399.23 328.861C399.28 328.755 399.384 328.688 399.501 328.695V328.695C399.573 328.7 399.644 328.732 399.697 328.782C399.819 328.898 399.951 329.007 400.088 329.112C400.158 329.164 400.232 329.217 400.308 329.266C400.358 329.299 400.383 329.359 400.368 329.417C400.309 329.648 400.228 329.871 400.137 330.033C400.109 330.082 399.638 330.136 399.592 330.104V330.104C399.36 329.944 399.216 329.584 399.096 329.336V329.336C399.066 329.265 399.07 329.185 399.105 329.116C399.148 329.032 399.189 328.947 399.23 328.861ZM400.984 322.405C401.021 322.31 401.161 322.306 401.202 322.4V322.4C401.211 322.421 401.214 322.443 401.21 322.465C401.172 322.68 401.134 322.889 401.096 323.102C401.082 323.18 401.012 323.235 400.933 323.231V323.231C400.828 323.227 400.746 323.127 400.774 323.026C400.833 322.819 400.904 322.61 400.984 322.405ZM407.22 348.079C407.25 348.03 407.312 348.011 407.364 348.035V348.035C407.392 348.048 407.413 348.073 407.423 348.102C407.521 348.403 407.618 348.704 407.701 349.004C407.703 349.012 407.704 349.02 407.704 349.028V349.028C407.703 349.105 407.606 349.145 407.548 349.095C407.38 348.949 407.21 348.805 407.039 348.665C406.956 348.598 406.942 348.476 407.008 348.392V348.392C407.089 348.285 407.156 348.184 407.22 348.079ZM405.273 326.715C405.245 326.563 405.412 326.439 405.552 326.504V326.504C405.677 326.557 405.8 326.6 405.919 326.634C406.217 326.72 406.493 326.883 406.672 327.136V327.136V327.136C406.727 327.223 406.71 327.338 406.633 327.407C406.524 327.504 406.417 327.602 406.312 327.702C406.001 327.997 405.462 327.826 405.393 327.404C405.355 327.173 405.315 326.943 405.273 326.715ZM406.637 353.375C406.653 354.098 405.768 354.635 405.223 355.111C405.086 355.231 404.964 355.389 404.864 355.592V355.592C404.817 355.686 404.688 355.708 404.617 355.629C404.435 355.426 404.264 355.215 404.103 354.995C403.984 354.832 403.95 354.624 403.998 354.429C404.077 354.111 404.143 353.797 404.192 353.488V353.488C404.377 352.421 405.639 351.87 406.343 352.693C406.372 352.727 406.4 352.761 406.428 352.795C406.563 352.957 406.633 353.164 406.637 353.375V353.375ZM402.804 366.354C402.806 366.382 402.794 366.41 402.772 366.429C402.52 366.637 402.351 366.948 402.336 367.376V367.376C402.332 367.421 402.283 367.571 402.289 367.616C402.301 367.712 402.324 367.855 402.344 367.992C402.352 368.176 402.376 368.36 402.392 368.552V368.552C402.404 368.703 402.207 368.756 402.14 368.62C402.067 368.472 401.996 368.321 401.928 368.168C401.901 368.104 401.874 368.039 401.848 367.975C401.788 367.825 401.86 367.66 401.992 367.568V367.568C402.367 367.291 402.482 366.847 402.498 366.399C402.502 366.277 402.633 366.204 402.736 366.271C402.745 366.277 402.755 366.283 402.764 366.289C402.787 366.304 402.801 366.327 402.804 366.354V366.354ZM399.849 342.509C399.745 342.554 399.628 342.475 399.637 342.362V342.362C399.639 342.336 399.648 342.308 399.663 342.287C399.945 341.878 400.071 341.403 399.937 340.82C399.931 340.796 399.932 340.77 399.939 340.747V340.747C399.974 340.624 400.135 340.621 400.187 340.738C400.348 341.102 400.549 341.453 400.776 341.79C400.897 341.97 400.787 342.221 400.576 342.272V342.272C400.329 342.326 400.087 342.407 399.849 342.509ZM402.62 361.567C402.534 361.41 402.704 361.299 402.82 361.437C402.832 361.451 402.844 361.465 402.856 361.479C402.881 361.51 402.892 361.55 402.885 361.589V361.589C402.865 361.709 402.718 361.74 402.658 361.634C402.645 361.612 402.633 361.59 402.62 361.567ZM409.432 320.36C409.128 319.44 408.92 318.208 408.408 317.376C408.228 317.088 407.995 316.9 407.744 316.798C406.915 316.462 405.68 316.451 404.795 316.312V316.312C404.306 316.234 403.729 316.183 403.235 316.152C402.532 316.109 401.795 316.562 401.824 317.368V317.368C401.834 317.753 401.337 318.037 400.954 318.077C400.592 318.115 400.237 318.31 399.968 318.664C399.201 319.669 398.525 320.833 398.166 322.058C397.901 322.964 396.835 323.726 396.6 324.64V324.64C396.414 325.356 396.269 326.101 396.204 326.848C396.145 327.52 395.913 328.169 395.669 328.797C395.645 328.86 395.622 328.924 395.6 328.99C395.39 329.615 395.075 330.343 394.416 330.328V330.328C394.283 330.323 394.154 330.279 394.029 330.207C393.876 330.118 393.832 329.936 393.848 329.76V329.76C394.152 327.584 392.176 325.36 390.848 323.92C390.3 323.33 389.385 323.439 388.882 323.931C388.533 324.273 387.942 324.772 387.456 324.816V324.816C387.221 324.836 386.985 324.894 386.751 324.979C385.426 325.461 383.985 325.813 382.704 325.224V325.224C381.624 324.736 380.552 326.168 381.112 327.112C381.377 327.562 381.685 328.006 382.024 328.432C382.148 328.588 382.149 328.81 382.034 328.972V328.972C381.973 329.058 381.888 329.118 381.788 329.15C381.579 329.216 381.378 329.299 381.192 329.408C380.64 329.72 380.232 330.368 380.4 331.024C380.48 331.336 380.6 331.536 380.8 331.784C380.656 331.616 380.888 331.936 380.872 331.896V331.896C380.887 331.94 380.876 331.989 380.844 332.023C380.677 332.201 380.512 332.383 380.349 332.57C380.191 332.753 379.895 332.708 379.781 332.495V332.495C379.767 332.468 379.757 332.441 379.748 332.411C379.731 332.352 379.704 332.289 379.672 332.232V332.232C379.537 331.977 379.477 331.674 379.629 331.429C379.948 330.916 380.208 330.38 380.378 329.83C380.435 329.646 380.5 329.466 380.588 329.296C380.619 329.235 380.65 329.174 380.68 329.112V329.112C381.087 328.269 380.512 327.243 380.045 326.431C379.891 326.164 379.701 325.9 379.472 325.64C378.432 324.472 376.824 324.392 375.456 324.936V324.936C375.251 325.015 375.038 325.07 374.819 325.092C373.808 325.191 372.811 325.638 371.899 326.275C371.856 326.305 371.796 326.3 371.759 326.263V326.263C371.734 326.238 371.723 326.204 371.729 326.169C371.856 325.38 372.029 324.589 372.232 323.784C372.392 323.144 372 322.376 371.264 322.376C370.408 322.384 369.232 322.48 369.144 323.576V323.576C369.136 323.681 369.003 323.744 368.923 323.674C368.75 323.521 368.574 323.369 368.398 323.215C368.357 323.179 368.324 323.134 368.301 323.085C367.912 322.282 367.268 321.684 366.104 321.552C366.006 321.539 365.916 321.538 365.832 321.548C365.473 321.588 364.978 321.61 364.752 321.328V321.328C363.992 320.352 362.28 321.552 362.976 322.584C363.416 323.24 363.832 323.864 364.264 324.472C364.819 325.352 365.357 326.244 366 327.065C366.232 327.362 366.433 327.687 366.679 327.973C367.023 328.372 367.442 328.537 367.948 328.263C367.966 328.254 367.987 328.248 368.007 328.248V328.248C368.052 328.248 368.093 328.273 368.113 328.313C368.23 328.543 368.344 328.776 368.458 329.009C368.647 329.397 368.609 329.846 368.416 330.232V330.232C368.04 330.96 368.408 331.856 369.28 331.92V331.92C369.461 331.934 369.614 332.053 369.684 332.22C369.702 332.262 369.72 332.303 369.738 332.344C369.758 332.387 369.773 332.431 369.785 332.476C369.798 332.525 369.813 332.573 369.829 332.621C370.021 333.193 370.238 333.782 370.225 334.385C370.217 334.731 370.227 335.078 370.248 335.424C370.28 335.968 370.816 336.24 371.264 335.896C371.42 335.775 371.576 335.661 371.732 335.542C371.765 335.517 371.812 335.524 371.837 335.557V335.557C371.891 335.629 371.668 336.03 371.578 336.044C371.038 336.125 370.543 336.535 370.512 337.176C370.355 340.32 371.549 344.592 374.3 346.516C374.39 346.579 374.443 346.684 374.438 346.795C374.438 346.797 374.437 346.8 374.437 346.803C374.432 346.926 374.355 347.037 374.24 347.08V347.08C369.912 348.832 371.392 354.24 373.488 357.048C373.822 357.496 374.197 357.938 374.607 358.365C376.796 360.641 378.709 363.35 379.313 366.45V366.45C379.593 367.886 379.562 369.363 379.452 370.821C379.104 375.424 381.071 380.314 386.344 380.768C387.717 380.883 389.058 380.487 390.157 379.725C390.988 379.15 392.141 378.665 392.4 377.688V377.688C392.508 377.298 392.599 376.912 392.676 376.529C392.74 376.216 393.121 376.073 393.388 376.248V376.248C393.453 376.29 393.506 376.348 393.538 376.418C393.63 376.615 393.715 376.811 393.824 377.008C394.202 377.749 395.045 377.967 395.735 377.729C396.365 377.511 396.96 377.088 397.597 376.888C397.931 376.782 398.241 376.637 398.53 376.46C398.851 376.262 399.263 376.258 399.568 376.48V376.48V376.48C399.95 376.755 400.408 376.941 400.78 377.229C401.298 377.628 401.937 377.899 402.728 377.992C404.384 378.184 405.544 376.768 406.152 375.44V375.44C406.192 375.359 406.302 375.344 406.353 375.418C406.7 375.928 407.058 376.445 407.416 376.968C407.988 377.799 409.047 377.825 409.617 377.277C409.757 377.142 410.399 377.108 410.472 377.288V377.288C411.072 378.768 413.336 377.824 413.032 376.352V376.352C413.016 376.274 413.116 376.215 413.183 376.257C413.764 376.62 414.531 376.666 414.928 376.121C415.075 375.92 415.252 375.733 415.459 375.597C415.883 375.318 416.159 374.822 416.032 374.2C415.656 372.376 415.136 369.928 415.488 368.072C415.794 366.463 413.528 365.601 412.966 366.959C412.947 367.006 412.901 367.039 412.851 367.043V367.043C412.775 367.047 412.712 366.985 412.721 366.909C412.749 366.659 412.774 366.41 412.796 366.162C412.837 365.691 413.32 365.368 413.776 365.246C414.02 365.181 414.245 365.06 414.423 364.889C414.434 364.878 414.449 364.874 414.463 364.878V364.878C414.469 364.879 414.474 364.882 414.479 364.886C415.425 365.637 417.175 365.004 416.696 363.624C416.675 363.561 416.651 363.5 416.626 363.441C416.307 362.684 415.917 361.955 415.576 361.208V361.208C415.112 359.72 414.584 358.248 414.256 356.712V356.712C414.132 356.149 413.788 355.624 413.71 355.053C413.667 354.746 413.613 354.44 413.544 354.136C413.426 353.625 413.257 353.13 413.051 352.648C412.886 352.264 412.931 351.818 412.944 351.4V351.4C413.031 348.188 412.922 345.049 412.26 341.981C412.126 341.363 412.478 340.71 412.432 340.08V340.08C412.222 336.052 411.806 332.168 410.477 328.495C410.41 328.31 410.448 328.107 410.521 327.925V327.925C410.544 327.869 410.571 327.816 410.599 327.762C410.676 327.612 410.698 327.424 410.624 327.208C410.512 326.856 410.408 326.496 410.304 326.144C410.129 325.444 409.95 324.745 409.773 324.045C409.665 323.622 409.854 323.193 409.984 322.776V322.776C410.248 321.952 409.784 321.416 409.432 320.36Z" fill="#1DBFB3"/>
<path d="M101.5 209.5C109.9 199.5 123 201 128.5 203C122 223 103.5 239 95.5 242.5C94.5 240 91 222 101.5 209.5Z" fill="#F5FCFB"/>
<path d="M119.5 242.5C130.3 240.9 145 238.167 151 237C161 245.5 169 264 163.5 282C158 300 142.5 311 119.5 306C96.5 301 88 289.5 84.5 271.5C81.7 257.1 92.3333 246.167 98 242.5C100.667 243.167 108.7 244.1 119.5 242.5Z" fill="#F5FCFB"/>
<path d="M328 278.5C328.5 249 356 239.5 364.5 237C372.167 234.5 391.1 232.3 405.5 243.5C423.5 257.5 426 276 419 294.5C412 313 389 318.5 380.5 318.5C372 318.5 327.5 308 328 278.5Z" fill="#F5FCFB"/>
<path d="M408.648 315.256C412.872 334.936 412.288 355.28 416.288 374.984C404.696 377.016 392.944 378.2 381.576 381.352C377.872 370.96 375.392 360.144 372.424 349.528C370.888 344.04 369.272 338.568 367.312 333.208C365.816 329.12 364.248 323.832 360.696 321.08C360.48 320.912 360.224 321.16 360.264 321.384C360.6 323.552 361.512 325.432 362.288 327.48C363.184 329.824 364.096 332.152 364.888 334.536C366.688 339.984 368.208 345.52 369.648 351.08C372.496 362.04 374.96 373.176 378.76 383.872C379.064 384.736 379.856 385.504 380.864 385.216C393.312 381.72 406.224 380.608 418.92 378.32C419.928 378.136 420.56 377.056 420.352 376.088C415.984 355.792 416.592 334.776 412.128 314.496C411.64 312.248 408.168 313.008 408.648 315.256Z" fill="#336177"/>
<path d="M301.656 322.336C302.64 324.56 303.592 326.568 305.36 328.288C307.12 330.008 309.24 331.368 311.432 332.464C316.36 334.936 321.952 335.952 327.408 336.312C333.088 336.696 338.88 336.088 344.408 334.744C346.992 334.112 349.504 333.264 351.912 332.144C353.832 331.256 356.52 329.96 357.216 327.784C357.256 327.656 357.296 327.528 357.336 327.4C357.488 326.896 357.04 326.328 356.512 326.36C354.408 326.48 352.584 327.672 350.72 328.544C348.568 329.552 346.272 330.304 343.976 330.928C338.896 332.312 333.632 332.808 328.384 332.728C323.336 332.648 318.208 331.84 313.512 329.92C311.36 329.04 309.32 327.88 307.536 326.384C305.872 324.984 304.088 323.376 303.128 321.416C302.64 320.408 301.216 321.336 301.656 322.336Z" fill="#336177"/>
<path d="M364.328 349.272C369.728 348.368 375.08 346.96 380.272 345.232C385.112 343.616 389.896 341.632 394.176 338.824C397.056 336.928 400.496 334.136 400.488 330.352C400.488 329.744 399.992 328.704 399.216 328.912C398.144 329.2 397.856 330.808 397.2 331.744C396.208 333.168 394.888 334.296 393.488 335.296C389.528 338.104 384.792 339.896 380.232 341.464C375.12 343.216 369.864 344.52 364.552 345.464C362.248 345.872 359.936 346.208 357.608 346.408C355.816 346.56 353.824 346.632 352.272 347.568L352.152 347.632C351.672 347.912 351.728 348.648 352.12 348.968C353.56 350.184 355.688 350.248 357.488 350.128C359.784 349.976 362.064 349.656 364.328 349.272Z" fill="#336177"/>
<path d="M386.976 387.04C387.176 385.624 385.04 385.368 384.584 386.616C383.448 389.752 383.36 393.264 383.176 396.56C382.96 400.632 382.92 404.696 382.536 408.752C382.04 414.096 381.056 423.432 374.04 423.872C371.84 424.008 371.664 427.464 373.888 427.32C382.424 426.784 384.856 418.296 385.752 411.112C386.744 403.128 385.872 395.008 386.976 387.04Z" fill="#336177"/>
<path d="M426.216 419.208C427.568 417.984 428.2 416.248 428.48 414.496C429.44 408.568 426.736 402 424.584 396.616C423.384 393.624 422.064 390.68 420.776 387.728C419.856 385.608 418.392 383.152 418.136 380.832C418.016 379.808 419.392 379.376 419.976 380.16C421.08 381.64 421.8 383.632 422.64 385.28C423.768 387.504 424.912 389.712 425.96 391.968C428.24 396.888 430.304 401.92 431.416 407.24C432.328 411.608 432.424 416.464 429.744 420.248C429.08 421.184 428.128 422.32 426.888 422.208C425.248 422.072 425.2 420.128 426.216 419.208Z" fill="#336177"/>
<path d="M281.192 387.784C279.304 383.096 277.096 378.6 274.672 374.224C272.752 369.272 270.376 364.448 267.6 359.768C263.944 353.608 259.904 347.696 255.848 341.784C251.8 335.88 247.056 329.952 244.232 323.328C242.24 318.656 241.016 313.152 244.864 309.256C248.64 305.432 253.488 303.056 258.16 300.544C270.472 293.904 281.136 284.584 294.232 279.424C295.312 284.248 296.048 289.176 297.848 293.848C298.808 296.328 299.904 298.744 301.048 301.152C302.352 304.056 303.704 306.936 305.168 309.752C306.32 313.864 307.744 317.912 309.664 321.824C310.608 323.744 312.64 324.312 314.36 323.896L314.488 324.056L314.536 324.104C314.32 324.912 314.416 325.808 315 326.704C321.992 337.44 326.648 349.592 333.144 360.552C323.248 361.168 313.784 365.8 305.512 370.84C297.064 376 289.176 381.952 281.192 387.784ZM310.624 384.656C310.664 384.512 310.696 384.368 310.72 384.224L310.88 384.176C311.68 383.872 312.488 383.6 313.288 383.312C312.392 383.744 311.512 384.2 310.624 384.656ZM317.416 373.24C318.776 372.56 320.16 371.928 321.568 371.344C320.2 372.016 318.816 372.648 317.416 373.24ZM300.696 277.176C300.48 276.408 300.256 275.648 300.008 274.904C300.408 275.6 300.8 276.304 301.192 277.008C301.024 277.048 300.864 277.112 300.696 277.176ZM280.664 408.568C281.232 408.616 281.84 408.528 282.48 408.216C296.68 401.264 309.568 391.904 323.984 385.336C330.704 382.272 337.592 379.688 344.384 376.808C345.024 376.536 345.68 376.256 346.336 375.976C347.984 376.152 349.704 375.472 350.376 374.096C353.104 372.704 355.712 371.056 357.776 368.896C358.28 368.528 358.712 368.024 359.008 367.44C359.312 367.04 359.608 366.624 359.872 366.192C360.712 364.824 359.808 363.52 358.608 363.256C346.272 346.112 335.024 328.176 324.648 309.768C319.816 301.2 315.912 292.248 311.48 283.472C307.752 276.088 303.512 268.312 297.296 262.752C296.264 261.832 294.8 262.52 294.264 263.6C293.856 263.048 293.168 262.768 292.368 263.192C289.288 264.832 286.296 266.664 283.312 268.52C281.264 269.216 279.288 270.104 277.472 271C271.272 274.064 265.448 277.888 259.824 281.912C258.08 282.88 256.336 283.848 254.6 284.84C248.424 288.36 242.28 292.032 236.632 296.368C233.832 298.512 231.088 300.76 228.608 303.288C226.592 305.336 224.144 307.216 224.056 310.32C223.472 310.76 223.12 311.488 223.336 312.44C224.616 318.136 226.784 323.704 229.2 329.104C229.288 332.792 230.872 335.824 233.488 338.2C237.128 345.68 241 353.04 245.096 360.28C253.576 375.248 262.584 389.912 271.296 404.752C271.264 405.456 271.456 406.2 271.936 406.856C272.824 408.08 273.696 409.096 274.848 410.072C276.848 411.76 279.568 410.56 280.664 408.568Z" fill="#558ED1"/>
<path d="M282.176 389.44C282.016 389.28 281.848 389.12 281.648 388.96C281.512 388.848 281.344 388.776 281.176 388.704C280.664 387.856 280.168 387.008 279.664 386.152C279.808 386.208 279.952 386.256 280.096 386.28C280.256 386.72 280.424 387.16 280.608 387.584C280.952 388.384 281.608 388.984 282.368 389.344C282.312 389.384 282.24 389.416 282.176 389.44ZM268.544 354.904C268.36 354.64 268.168 354.384 267.984 354.12C268.16 353.648 268.248 353.136 268.224 352.624C268.592 353.264 269.024 353.824 269.512 354.312C269.184 354.496 268.856 354.696 268.544 354.904ZM251.176 330.608C251.264 330.432 251.344 330.256 251.424 330.072C251.592 330.304 251.744 330.552 251.912 330.784C251.656 330.688 251.416 330.632 251.176 330.608ZM246.824 326.312C246.208 325.368 245.592 324.416 244.96 323.472C245.624 324.16 246.32 324.808 247.056 325.408C246.984 325.712 246.912 326.008 246.824 326.312ZM309.816 350.728C310.856 350.112 311.84 349.424 312.728 348.656L312.832 348.704C312.152 349.576 311.368 350.352 310.616 350.92C310.352 350.848 310.088 350.792 309.816 350.728ZM280.608 401.168C286.64 397.12 293.36 394.096 299.84 390.832C306.128 387.664 312.408 384.456 318.768 381.432C324.864 378.528 330.864 375.352 337.008 372.552C339.896 371.24 345.6 370.152 346.552 366.584C346.728 365.944 346.608 365.216 346.312 364.576C347.12 361.384 344.104 356.936 342.888 354.264C340.64 349.344 338.16 344.624 335.08 340.16C330.576 333.64 326.568 327.528 323.568 320.168C321.544 315.2 318.952 308.216 314.856 304.136C311.704 297.856 308.712 291.544 305.824 285.136C304.288 281.736 302.768 278.328 301.168 274.96C300.288 273.104 299.584 271.576 298.224 270.496C297.768 269.224 296.384 268.232 294.752 268.832C290.216 270.496 286.144 272.864 282.128 275.376C275.944 278.112 270.232 281.904 264.696 285.768C253.536 293.576 243.384 302.952 232.016 310.44C230.144 311.672 229.432 313.904 230.992 315.88C231.352 316.336 231.696 316.816 232.048 317.272C232.664 323.408 236.744 329.016 239.696 334.272C243.664 341.32 246.416 348.88 250.2 356.008C254.336 363.8 259.64 370.864 263.12 379.024C265.768 385.24 269.104 392.744 274.096 397.472C273.752 400.264 277.528 403.232 280.608 401.168Z" fill="#F5FCFB"/>
<path d="M252.856 303.12C254.608 298.656 260.136 295.768 263.944 293.288C268.464 290.344 273.304 287.888 278.48 286.32C280.96 285.568 282.24 289.728 279.936 290.736C275.392 292.736 271.048 295.08 266.968 297.92C263.416 300.392 260.312 304.664 256.432 306.4C254.504 307.272 251.992 305.296 252.856 303.12Z" fill="#558ED1"/>
<path d="M273.656 309.56C280.192 303.072 290.448 299.624 298.744 296.056C299.92 295.552 300.808 297.376 299.64 297.912C295.592 299.768 291.696 301.888 287.816 304.072C283.528 306.48 279.568 309.744 275.128 311.816C273.744 312.448 272.616 310.584 273.656 309.56Z" fill="#558ED1"/>
<path d="M244.536 327.408C249.088 324.712 253.768 322.104 258.168 319.168C261.864 316.704 265.072 313.768 269.24 312.088C270.4 311.616 271.088 313.2 270.088 313.848C266.112 316.464 262.84 320.192 258.784 322.64C254.504 325.216 250.264 327.864 245.984 330.44C244.208 331.52 242.752 328.472 244.536 327.408Z" fill="#558ED1"/>
<path d="M248.688 332.928C257.24 327.672 265.968 322.744 274.936 318.232C283.616 313.872 291.56 308.032 300.392 304.04C301.648 303.472 302.536 305.368 301.344 306.024C296.824 308.512 292.744 311.672 288.504 314.592C284.672 317.224 280.56 319.24 276.424 321.328C267.464 325.84 258.76 330.832 250.176 336.024C248.344 337.128 246.888 334.032 248.688 332.928Z" fill="#558ED1"/>
<path d="M250.368 341.72C252.664 338.56 256.456 336.736 259.832 334.968C264.936 332.304 270.104 329.792 275.184 327.088C285.52 321.584 295.44 315.304 305.776 309.832C306.728 309.328 307.728 310.824 306.856 311.488C298.312 317.96 288.68 323.168 279.336 328.352C274.696 330.928 269.96 333.336 265.216 335.72C260.536 338.072 256.376 340.864 251.944 343.584C250.904 344.24 249.672 342.68 250.368 341.72Z" fill="#558ED1"/>
<path d="M289.712 328.76C295.192 322.416 304.608 321.336 310.952 315.984C312.168 314.96 314.28 316.696 313.168 317.984C310.624 320.928 307.208 322.792 303.752 324.456C299.576 326.472 295.536 328.624 291.432 330.776C290.32 331.36 288.824 329.792 289.712 328.76Z" fill="#558ED1"/>
<path d="M253.416 347.752C258.872 344.592 264.632 341.936 270.248 339.072C275.8 336.24 281.248 332.736 287.064 330.504C287.952 330.168 288.856 331.352 288.048 332.016C283.552 335.712 277.992 338.2 272.872 340.904C266.832 344.096 260.832 347.416 254.696 350.416C253.032 351.232 251.848 348.664 253.416 347.752Z" fill="#558ED1"/>
<path d="M308.832 327.952C310.728 325.896 313.536 324.864 315.728 323.16C317.024 322.16 318.728 324.12 317.448 325.168C315.248 326.968 312.664 328.712 310.024 329.784C308.872 330.24 308.024 328.824 308.832 327.952Z" fill="#558ED1"/>
<path d="M257.36 357.416C259.504 354.392 263.752 353.184 266.856 351.336C271.112 348.808 275.408 346.336 279.84 344.12C284.152 341.96 288.544 340.096 292.752 337.728C296.904 335.392 301.096 332.608 305.776 331.464C306.872 331.2 307.2 332.76 306.376 333.272C298.72 337.976 290.544 342.152 282.408 345.96C274.24 349.792 267 355.272 258.952 359.28C257.872 359.824 256.648 358.424 257.36 357.416Z" fill="#558ED1"/>
<path d="M262.64 364.84C270.2 358.152 280.368 353.8 289.36 349.424C299.824 344.336 310.288 339.432 320.488 333.816C321.384 333.328 322.352 334.784 321.512 335.384C312.808 341.576 302.976 346.168 293.376 350.776C283.752 355.4 272.64 359.96 264.576 367.104C263.184 368.344 261.248 366.072 262.64 364.84Z" fill="#558ED1"/>
<path d="M267.784 371.408C271.824 368.672 276.48 366.848 280.832 364.656C286.04 362.032 291.16 359.232 296.328 356.52C305.28 351.824 314.256 345.792 324.088 343.176C325.152 342.896 325.752 344.712 324.72 345.08C315.08 348.512 306.584 354.376 297.56 359.072C288.192 363.944 278.312 368.184 269.408 373.88C268.04 374.76 266.448 372.312 267.784 371.408Z" fill="#558ED1"/>
<path d="M271.584 377.968C275.968 375.976 280.64 374.824 284.992 372.72C289.792 370.408 294.32 367.576 299.008 365.04C303.472 362.624 308.216 360.824 312.8 358.672C318.088 356.2 323.08 353.232 328.216 350.464C329.208 349.928 330.304 351.568 329.352 352.2C320.536 358.064 310.704 361.744 301.352 366.56C296.616 369 292.096 371.856 287.4 374.376C282.712 376.896 277.592 378.232 272.816 380.536C271.216 381.304 269.968 378.704 271.584 377.968Z" fill="#558ED1"/>
<path d="M277.336 387.911C285.424 382.175 295.088 378.815 304.128 374.919C314.248 370.559 324.232 365.959 333.472 359.911C334.44 359.271 335.552 360.991 334.624 361.679C326.472 367.679 317.376 372.199 308.144 376.271C303.104 378.487 298.016 380.599 292.96 382.791C288.048 384.919 283.52 387.759 278.656 389.943C277.488 390.455 276.216 388.703 277.336 387.911Z" fill="#558ED1"/>
<path d="M179.152 157.08C179.44 155.328 178.992 153.504 177.936 152.08C177.536 151.672 177.144 151.256 176.744 150.848C175.84 150.136 174.816 149.68 173.672 149.488C172.04 149.056 169.984 149.736 168.672 150.704C167.288 151.72 166.352 153.272 166.072 154.968C165.784 156.72 166.232 158.544 167.288 159.968C167.688 160.376 168.08 160.792 168.48 161.2C169.384 161.912 170.408 162.368 171.552 162.56C173.184 162.992 175.24 162.312 176.552 161.344C177.936 160.32 178.872 158.768 179.152 157.08Z" fill="#F5762C"/>
<path d="M129.928 161.864C125.568 160.704 124.512 167.608 128.808 168.752C133.168 169.912 134.232 163.016 129.928 161.864Z" fill="#F5762C"/>
<path d="M154.856 183.216C150.184 181.968 149.04 189.376 153.656 190.608C158.336 191.856 159.472 184.448 154.856 183.216Z" fill="#F5762C"/>
<path d="M177.544 84.5999C168.344 82.1519 166.096 96.7359 175.184 99.1519C184.392 101.6 186.632 87.0159 177.544 84.5999Z" fill="#F5762C"/>
<path d="M227.776 149.536C228.264 146.552 227.504 143.44 225.712 141.008C223.832 138.464 221.392 137.359 218.44 136.575C215.648 135.831 212.144 137 209.912 138.648C207.56 140.384 205.952 143.031 205.48 145.919C204.992 148.903 205.752 152.016 207.552 154.448C209.432 156.992 211.872 158.087 214.824 158.879C217.616 159.623 221.12 158.464 223.352 156.808C225.704 155.064 227.304 152.424 227.776 149.536Z" fill="#F5762C"/>
<path d="M164.76 29.5437C164.216 27.9197 163.152 26.0317 161.688 25.0717C160.68 24.2717 159.544 23.7677 158.272 23.5597C156.96 23.3517 155.688 23.4877 154.448 23.9597C151.528 25.0877 149.256 28.3517 149.768 31.5597C149.896 32.3597 150 33.1837 150.368 33.9037C150.504 34.1677 150.592 34.4477 150.672 34.7277C150.688 34.8077 150.712 34.8877 150.728 34.9677C151.224 36.2317 151.992 37.2877 153.048 38.1437C154.568 39.3597 156.544 39.9437 158.488 39.7517C160.488 39.5517 162.368 38.5357 163.624 36.9597C165.336 34.7997 165.616 32.0957 164.76 29.5437Z" fill="#F25467"/>
<path d="M140.992 61.1998C141.472 58.2638 140.72 55.1998 138.96 52.8158C138.296 52.1278 137.624 51.4318 136.96 50.7438C135.44 49.5438 133.72 48.7838 131.808 48.4558C129.064 47.7278 125.616 48.8718 123.416 50.4878C121.104 52.1998 119.52 54.7998 119.056 57.6398C118.576 60.5758 119.328 63.6398 121.088 66.0318C121.752 66.7198 122.424 67.4158 123.088 68.1038C124.608 69.3038 126.328 70.0638 128.24 70.3918C130.984 71.1198 134.432 69.9758 136.632 68.3598C138.952 66.6398 140.528 64.0398 140.992 61.1998Z" fill="#F25467"/>
<path d="M125.448 114.632C121.752 112.992 117.296 114.712 115.656 118.408C114.256 121.576 115.296 125.728 118.312 127.528C119.848 128.44 121.336 128.984 123.176 128.8C125.152 128.6 127.008 127.6 128.24 126.048C131.224 122.304 129.832 116.576 125.448 114.632Z" fill="#F25467"/>
<path d="M176.856 196.608C177.016 195.616 176.768 194.576 176.168 193.768C175.344 192.656 174.112 192.232 172.776 192.264C172.56 192.272 172.344 192.28 172.12 192.296C170.552 192.448 169.216 193.68 168.96 195.24C168.768 196.44 169.248 197.88 170.256 198.592C170.696 198.904 171.16 199.16 171.616 199.44C172.416 199.92 173.664 199.832 174.488 199.512C175.736 199.032 176.648 197.912 176.856 196.608Z" fill="#F25467"/>
<path d="M143.448 185.248C143.568 184.344 143.64 183.504 143.304 182.608C142.568 180.608 139.784 179.656 138.072 181.088C137.528 181.544 137.096 181.992 136.816 182.656C136.744 182.84 136.664 183.024 136.592 183.208C135.848 185.024 136.592 187.152 138.424 187.96C140.512 188.888 143.136 187.56 143.448 185.248Z" fill="#EAA8BB"/>
<path d="M146.728 136.6C147.048 134.656 146.552 132.616 145.376 131.032C144.936 130.576 144.488 130.112 144.048 129.656C143.04 128.856 141.896 128.352 140.632 128.144C138.808 127.656 136.52 128.416 135.064 129.496C133.528 130.632 132.48 132.36 132.176 134.24C131.856 136.184 132.352 138.216 133.528 139.808C133.968 140.264 134.416 140.728 134.856 141.184C135.864 141.984 137.008 142.488 138.272 142.696C140.096 143.184 142.384 142.424 143.84 141.344C145.368 140.216 146.416 138.488 146.728 136.6Z" fill="#EAA8BB"/>
<path d="M149.432 206.592C149.576 205.704 149.352 204.776 148.816 204.056C148.256 203.296 147.528 202.968 146.656 202.736C145.824 202.512 144.784 202.864 144.12 203.352C143.416 203.872 142.944 204.656 142.8 205.512C142.656 206.4 142.88 207.328 143.416 208.048C143.976 208.808 144.704 209.128 145.576 209.368C146.408 209.592 147.448 209.24 148.112 208.752C148.816 208.24 149.296 207.456 149.432 206.592Z" fill="#EAA8BB"/>
<path d="M237 109.967C237.472 107.055 236.736 104.016 234.976 101.64C234.312 100.952 233.648 100.271 232.992 99.5835C231.48 98.3915 229.776 97.6315 227.88 97.3115C225.152 96.5835 221.728 97.7194 219.552 99.3354C217.256 101.031 215.688 103.616 215.224 106.44C214.744 109.352 215.488 112.391 217.248 114.767C217.912 115.455 218.576 116.135 219.232 116.823C220.744 118.015 222.448 118.775 224.344 119.095C227.072 119.823 230.496 118.687 232.68 117.071C234.968 115.367 236.536 112.783 237 109.967Z" fill="#EAA8BB"/>
<path d="M199.04 132.824C195.616 131.304 191.488 132.896 189.976 136.32C188.992 138.544 189.32 141.064 190.608 142.968C190.648 144.704 191.824 146.368 193.384 147.064C194.504 147.56 195.792 147.592 196.944 147.152C197.808 146.816 198.768 146.112 199.272 145.24C200.688 144.56 201.864 143.416 202.544 141.888C204.056 138.464 202.464 134.344 199.04 132.824Z" fill="#EAA8BB"/>
<path d="M138.432 85.6235L138.601 85.7119C138.593 85.6958 138.544 85.6718 138.432 85.6235Z" fill="#EAA8BB"/>
<path d="M143.136 88.6798C142.48 88.1198 141.768 87.6398 141.032 87.1918C140.232 86.6398 139.352 86.0638 138.6 85.7038C138.736 85.8478 132.304 83.5038 136.96 85.1918C135.144 84.5358 133.52 84.0558 131.552 84.2558C129.936 84.4238 128.464 84.9758 127.12 85.8638C124.752 86.6718 122.744 89.1838 122.352 91.5758C122.112 93.0558 122.376 94.5278 122.96 95.8798C123.048 96.3758 123.176 96.8798 123.408 97.4958C123.824 98.5598 124.408 99.5038 125.136 100.344C125.256 100.768 125.376 101.192 125.48 101.616C126.16 104.352 129 106.808 131.464 107.896C135.16 109.536 139.544 109.048 142.8 106.648C148.84 102.192 148.68 93.4078 143.136 88.6798Z" fill="#EAA8BB"/>
<path d="M200.744 116.632C201.056 114.728 200.568 112.736 199.424 111.176C198.224 109.552 196.664 108.848 194.776 108.344C192.992 107.872 190.752 108.616 189.32 109.664C187.816 110.776 186.792 112.464 186.488 114.312C186.176 116.216 186.664 118.208 187.808 119.768C189.008 121.392 190.568 122.096 192.456 122.6C194.24 123.072 196.48 122.328 197.912 121.28C199.416 120.168 200.44 118.48 200.744 116.632Z" fill="#EAA8BB"/>
<path d="M246.544 58.1196C247.304 55.5356 246.112 52.1036 244.584 50.0476C242.936 47.8156 240.432 46.3035 237.696 45.8555C234.872 45.3915 231.92 46.1115 229.624 47.8155C227.264 49.5595 226.088 51.9116 225.432 54.7036C225.216 55.5916 225.008 56.4875 224.8 57.3755C224.168 60.0475 225.152 63.2395 226.744 65.3915C228.376 67.6075 230.864 69.1115 233.576 69.5515C236.384 70.0075 239.312 69.2956 241.592 67.6076L243.576 65.6955C244.728 64.2395 245.456 62.5996 245.76 60.7676C246.024 59.8876 246.288 58.9996 246.544 58.1196Z" fill="#558ED1"/>
<path d="M119.856 25.3676C110.528 22.8796 108.248 37.6636 117.464 40.1196C126.792 42.5996 129.064 27.8156 119.856 25.3676Z" fill="#558ED1"/>
<path d="M173.304 131.568C173.624 129.592 173.12 127.536 171.936 125.928C171.488 125.464 171.04 125 170.592 124.536C169.568 123.728 168.416 123.216 167.128 123C165.28 122.512 162.96 123.28 161.488 124.368C159.928 125.52 158.872 127.272 158.56 129.176C158.24 131.152 158.736 133.208 159.928 134.816C160.376 135.28 160.824 135.744 161.272 136.208C162.296 137.016 163.448 137.528 164.736 137.744C166.584 138.24 168.904 137.464 170.376 136.376C171.936 135.232 172.992 133.48 173.304 131.568Z" fill="#558ED1"/>
<path d="M158.04 171.32C158.416 169.04 156.456 166.96 154.152 167.184C152.216 167.376 150.752 169.16 150.944 171.096C151.032 171.952 151.504 173.064 152.272 173.536C152.912 173.928 153.392 174.328 154.168 174.312C155.072 174.296 155.88 174.176 156.632 173.616C157.384 173.072 157.888 172.232 158.04 171.32Z" fill="#558ED1"/>
<path d="M201.424 45.4158C188.504 41.9758 185.344 62.4478 198.104 65.8478C211.032 69.2878 214.184 48.8158 201.424 45.4158Z" fill="#558ED1"/>
<path d="M217.176 76.8556C214.192 74.5596 209.68 73.1036 205.96 74.4956C205.296 74.6556 204.64 74.8556 203.992 75.0236C202.592 75.3996 201.456 76.1917 200.536 77.1997C199.36 77.8477 198.312 78.5436 197.392 79.7036C195.896 81.5836 194.744 84.4316 195.176 86.8316C195.536 88.8156 196.256 90.1436 197.76 91.4956C197.824 91.5676 197.904 91.6317 197.992 91.6797C198.552 92.0157 199.112 92.3596 199.672 92.6956C202.024 93.3996 202.184 93.4476 200.144 92.8316C200.856 93.0476 201.488 93.2156 202.112 93.3516C202.448 93.7036 202.768 94.0716 203.168 94.3916C206.256 96.8556 210.512 97.5116 214.208 96.0876C222.04 93.0716 223.968 82.0716 217.176 76.8556Z" fill="#558ED1"/>
<path d="M176.48 58.8795C176.968 55.8875 176.208 52.7595 174.4 50.3195C173.72 49.6155 173.04 48.9115 172.36 48.2075C170.808 46.9835 169.056 46.2075 167.104 45.8795C164.304 45.1355 160.784 46.3035 158.544 47.9595C156.184 49.7035 154.576 52.3594 154.096 55.2554C153.608 58.2474 154.368 61.3754 156.176 63.8154C156.856 64.5194 157.536 65.2234 158.216 65.9274C159.768 67.1514 161.52 67.9274 163.472 68.2554C166.272 68.9994 169.792 67.8314 172.032 66.1754C174.392 64.4314 176.008 61.7835 176.48 58.8795Z" fill="#71D0DE"/>
<path d="M269.984 86.5757C270.472 83.5917 269.712 80.4797 267.92 78.0477C267.24 77.3437 266.56 76.6397 265.888 75.9357C264.344 74.7117 262.592 73.9437 260.648 73.6157C257.856 72.8717 254.352 74.0317 252.12 75.6877C249.76 77.4237 248.16 80.0718 247.688 82.9598C247.2 85.9438 247.96 89.0557 249.752 91.4877C250.432 92.1917 251.112 92.8957 251.784 93.5917C253.328 94.8157 255.08 95.5837 257.024 95.9117C259.816 96.6557 263.32 95.4958 265.552 93.8398C267.912 92.1038 269.512 89.4637 269.984 86.5757Z" fill="#71D0DE"/>
<path d="M208.152 172.048C208.448 170.232 207.984 168.336 206.896 166.864C206.48 166.44 206.072 166.008 205.656 165.584C204.712 164.84 203.656 164.368 202.472 164.168C200.776 163.72 198.64 164.424 197.288 165.424C195.856 166.48 194.88 168.088 194.592 169.848C194.296 171.664 194.76 173.56 195.848 175.04C196.264 175.464 196.672 175.896 197.088 176.32C198.032 177.064 199.088 177.536 200.272 177.736C201.968 178.184 204.104 177.48 205.456 176.48C206.896 175.416 207.864 173.808 208.152 172.048Z" fill="#71D0DE"/>
<path d="M192.36 422.376C190.608 414.328 188.4 406.336 185.36 398.68C184.56 396.656 183.744 394.68 182.856 392.688C182.584 392.088 182.312 391.44 182.024 390.8C182.936 390.12 183.8 389.408 184.624 388.656C187.936 385.64 185.288 380.984 181.088 380.544C158.368 378.152 129.144 389.943 116.912 366.752C109.872 353.4 107.2 337.879 102.736 323.711C98.384 309.903 92.696 294.592 80.872 284.624C67.88 273.664 51.176 275.168 37.152 282.888C31.568 285.96 34.984 295.104 41.584 293.184C56.664 288.8 67.272 290.56 75.288 303.888C83.312 317.224 86.32 333.336 90.408 347.936C93.12 357.624 95.896 367.936 101.016 376.968C99.432 378.376 98.144 380.968 97.584 382.12C95.576 386.248 94.392 390.816 93.256 395.24C92.008 400.104 91.08 405.056 90.208 410C89.528 413.84 88.64 417.76 88.28 421.64C87.952 425.28 93.192 426.16 93.904 422.528C94.072 421.656 94.864 420.776 95.256 419.976C95.632 419.2 95.28 418.472 94.68 418.088C94.984 415.888 95.224 413.672 95.568 411.496C96.32 406.776 97.176 402.08 98.208 397.416C99.168 393.056 100.304 388.776 101.896 384.6C102.144 383.952 102.944 382.6 103.64 381.168C104.936 383.048 106.368 384.856 107.952 386.568C123.68 403.544 157.872 405.056 177.976 393.448C178.04 393.616 178.104 393.784 178.168 393.96C178.944 396.056 179.176 397.216 180.088 399.568C183.12 407.376 184.872 415.535 186.928 423.631C187.712 426.727 193.032 425.48 192.36 422.376Z" fill="#71D0DE"/>
<path d="M128.632 370.944C128.432 370.944 128.232 370.936 128.032 370.912C121.888 370.256 120.352 363.672 121.712 358.576C121.16 356.184 120.824 353.752 120.728 351.288C118.664 350.168 116.84 348.528 115.608 346.808C113.56 343.944 112.192 338.472 116.568 336.808C116.632 336.784 116.696 336.76 116.76 336.744C116.76 336.608 116.768 336.48 116.784 336.344C113.96 334.408 112.8 329.984 113.032 326.776C113.08 326.064 113.696 325.648 114.296 325.648C114.536 325.648 114.784 325.712 114.984 325.856C114.752 325.624 114.536 325.376 114.352 325.112C114.168 325.24 113.992 325.368 113.808 325.504C113.672 325.6 113.536 325.648 113.4 325.648C113.088 325.648 112.816 325.392 112.8 325.008C112.768 324.344 112.784 323.664 112.888 323.016C112.616 322.688 112.456 322.336 112.376 321.968C112.312 321.808 112.248 321.656 112.192 321.496C112.096 321.488 111.992 321.48 111.896 321.472C111.016 321.384 110.664 320.48 111.056 319.752C111.16 319.56 111.28 319.36 111.416 319.16C111.208 318.688 110.984 318.216 110.76 317.752H110.656C110.48 317.848 110.312 317.896 110.152 317.896C109.696 317.896 109.336 317.52 109.048 316.976C108.256 316.024 107.648 314.952 107.008 313.888C106.592 313.272 106.184 312.632 105.752 311.968C105.256 311.2 106.064 310.368 106.816 310.368C107.096 310.368 107.368 310.48 107.56 310.744C107.712 310.952 107.856 311.16 108 311.376C108.144 311.144 108.392 310.984 108.736 310.984C108.792 310.984 108.848 310.992 108.912 311C110.112 311.168 110.752 311.816 111.12 312.672C111.384 312.912 111.648 313.16 111.912 313.4C111.904 313.304 111.904 313.208 111.912 313.104C112.024 312.072 113.064 311.944 113.904 311.944C113.96 311.944 114.016 311.944 114.072 311.944C114.816 311.96 115.184 312.736 115.016 313.376C114.792 314.2 114.6 315.008 114.448 315.816L114.552 315.92C115.592 315.208 116.752 314.736 117.896 314.736C117.904 314.736 117.912 314.736 117.92 314.736C118.024 314.688 118.12 314.64 118.224 314.6C118.728 314.408 119.264 314.304 119.784 314.304C120.704 314.304 121.592 314.624 122.24 315.392C122.84 316.096 123.16 316.824 123.264 317.56C123.616 317.928 123.616 318.448 123.376 318.912C123.304 319.056 123.224 319.2 123.144 319.344C122.928 320.136 122.512 320.904 121.992 321.624C122.128 321.752 122.24 321.88 122.304 322.016C122.344 322.088 122.368 322.168 122.384 322.24C122.464 322.4 122.544 322.576 122.624 322.768C122.92 322.424 123.224 322.088 123.536 321.776L123.512 321.712V321.72C123.504 321.72 123.48 321.68 123.448 321.632C123.416 321.592 123.392 321.544 123.4 321.544C123.4 321.544 123.416 321.56 123.448 321.592C123.248 321.344 123.136 321.136 123.064 320.816C122.912 320.16 123.336 319.512 123.896 319.208C124.128 319.072 124.392 318.984 124.656 318.92C124.752 318.784 124.856 318.648 124.968 318.52C124.552 318 124.184 317.456 123.872 316.896C123.408 316.072 124.152 314.92 125.04 314.92C125.192 314.92 125.352 314.952 125.512 315.032C126.208 315.368 126.904 315.704 127.6 316.056C128.4 315.44 129.368 314.792 130.304 314.728C130.392 314.72 130.472 314.72 130.552 314.72C130.888 314.72 131.16 314.768 131.384 314.864C131.288 314.048 132.024 313.472 132.768 313.472C133.12 313.472 133.472 313.6 133.736 313.896C135.04 315.368 136.976 317.648 136.632 319.824C136.616 319.92 136.6 320.016 136.576 320.112C136.768 320.28 136.976 320.408 137.192 320.416C137.216 320.416 137.24 320.416 137.264 320.416C137.576 320.416 137.88 320.296 138.152 320.096C138.296 319.2 138.592 318.52 139 318C139 316.904 139.2 315.792 139.504 314.744C139.664 314.176 140.224 313.864 140.776 313.864C140.792 313.864 140.816 313.864 140.832 313.864C140.912 312.024 141.88 310.248 143.024 308.808C143.328 308.424 143.736 308.24 144.136 308.24C144.416 308.24 144.704 308.336 144.944 308.52C144.928 308.184 144.928 307.856 144.92 307.544C144.912 306.784 145.576 306.344 146.24 306.344C146.552 306.344 146.864 306.44 147.104 306.64C147.312 306.56 147.504 306.528 147.68 306.528C148.344 306.528 148.848 307 149.296 307.544C149.544 307.2 149.952 307 150.368 307C150.8 307 151.24 307.216 151.528 307.696C152.032 308.536 152.216 309.784 152.496 310.712C152.824 311.784 153.28 312.328 152.984 313.168C152.904 313.392 152.768 313.584 152.584 313.744C152.8 314.68 153.016 315.616 153.232 316.552C153.328 316.912 153.432 317.272 153.536 317.624C153.616 317.888 153.568 318.096 153.448 318.256C153.408 318.384 153.344 318.512 153.256 318.616C154.608 322.424 154.944 326.44 155.08 330.6C155.088 330.928 154.912 331.256 154.648 331.496C155.448 334.912 155.52 338.4 155.352 341.976C155.336 342.224 155.264 342.44 155.16 342.616C155.48 343.296 155.736 344 155.896 344.736C156.024 345.344 156.088 345.952 156.112 346.56C156.328 346.744 156.488 347 156.552 347.336C156.848 348.88 157.352 350.376 157.784 351.88C157.944 352.248 158.056 352.664 158.144 353.072C158.432 353.456 158.712 353.856 158.864 354.328C159.176 355.304 158.408 355.888 157.6 355.888C157.248 355.888 156.888 355.776 156.6 355.544L156.568 355.536C156.288 355.8 155.888 355.944 155.488 355.944C155.312 355.944 155.136 355.92 154.968 355.864C154.928 356.472 154.864 357.08 154.776 357.696C154.832 357.688 154.888 357.688 154.936 357.688C154.96 357.688 154.984 357.688 155.008 357.688C155.2 357.176 155.608 356.952 156.048 356.952C156.864 356.952 157.776 357.712 157.544 358.776C157.144 360.632 157.624 363.096 157.96 364.944C158.104 365.736 157.608 366.312 156.992 366.496C156.808 367.024 156.408 367.24 155.976 367.24C155.592 367.24 155.184 367.072 154.872 366.808C154.888 366.888 154.896 366.968 154.912 367.048C155.088 367.992 154.216 368.704 153.408 368.704C152.952 368.704 152.52 368.472 152.312 367.936C152.16 367.536 152.008 367.136 151.856 366.736C151.952 367.696 151.264 368.256 150.528 368.256C150.064 368.256 149.576 368.032 149.256 367.544C148.864 366.952 148.472 366.368 148.104 365.784C148.072 365.848 148.048 365.92 148.016 365.984C147.424 367.208 146.352 368.504 144.888 368.504C144.768 368.504 144.648 368.496 144.528 368.48C143.44 368.328 142.64 367.848 142.064 367.16C141.824 367.136 141.584 367.056 141.384 366.904C141.208 366.768 141.048 366.632 140.88 366.488C140.184 367.04 139.352 367.392 138.344 367.44C138.048 367.912 137.52 368.16 136.992 368.16C136.44 368.16 135.88 367.888 135.608 367.312C135.496 367.072 135.392 366.84 135.288 366.6C135.048 366.448 134.824 366.272 134.616 366.088C134.496 366.704 134.352 367.328 134.168 367.96C134.008 368.504 133.56 368.84 133.048 368.944C131.936 370.176 130.32 370.944 128.632 370.944ZM128.344 365.864C128.296 366.152 128.16 366.4 127.96 366.6C128.104 367.096 128.232 367.6 128.344 368.104L128.416 368.112C128.472 368.112 128.528 368.112 128.584 368.112C129.304 368.112 129.88 367.944 130.336 367.664C129.648 367.128 128.96 366.528 128.344 365.864ZM143.784 363.824C143.808 364.08 143.824 364.328 143.84 364.592C144.072 365.12 144.472 365.68 144.736 365.696C144.768 365.696 144.8 365.696 144.816 365.696C144.92 365.696 144.944 365.672 145.112 365.488C145.168 365.432 145.216 365.36 145.264 365.296C144.824 365.232 144.456 364.96 144.216 364.552C144.08 364.304 143.928 364.064 143.784 363.824ZM144.424 357.464C144.344 357.664 144.216 357.84 144.024 357.976C143.944 358.032 143.864 358.08 143.784 358.12C143.832 358.28 143.888 358.432 143.952 358.584C144.096 358.928 144.256 359.264 144.432 359.592C144.424 359.384 144.424 359.176 144.416 358.968C144.4 358.776 144.384 358.592 144.376 358.408C144.344 358.168 144.312 357.912 144.328 357.912C144.336 357.912 144.352 357.952 144.376 358.048C144.376 357.96 144.376 357.872 144.376 357.784C144.376 357.672 144.4 357.56 144.424 357.464ZM144.56 356.52C144.568 356.784 144.552 357.056 144.48 357.304C144.568 357.096 144.704 356.928 144.872 356.808L144.856 356.72C144.752 356.664 144.656 356.592 144.56 356.52ZM144.456 351.208C144.592 351.6 144.768 351.96 144.992 352.312C145.016 352.176 145.04 352.048 145.064 351.92C144.864 351.68 144.664 351.44 144.456 351.208ZM135.64 341.904C135.312 342.272 135.032 342.688 134.8 343.128C134.696 343.472 134.6 343.816 134.504 344.144C134.184 345.28 133.88 346.512 133.672 347.76C134.152 348.576 134.736 349.28 135.424 349.664C135.68 349.344 135.92 349.024 136.152 348.688C136.088 347.52 136.168 346.352 136.36 345.2C135.856 345.04 135.488 344.632 135.4 343.792C135.336 343.136 135.448 342.512 135.64 341.904ZM123.616 348.744C123.68 348.84 123.744 348.944 123.808 349.04C124.184 349.336 124.6 349.528 125.072 349.56C125.032 349.304 125 349.056 124.976 348.808C124.784 348.936 124.56 349.008 124.328 349.008C124.104 349.008 123.872 348.936 123.648 348.776L123.616 348.744ZM117.472 339.68C115.344 341.088 117.36 344.408 118.6 345.752C118.888 346.064 119.208 346.384 119.552 346.704C119.144 345.56 118.88 344.4 118.72 343.384C118.632 342.832 118.928 342.336 119.344 342.064C118.576 341.376 117.928 340.592 117.472 339.68ZM146.912 341.352C146.792 342.408 146.64 343.312 146.528 343.864C146.448 344.28 146.344 344.696 146.224 345.12C146.472 345.496 146.752 345.864 147.056 346.2C147.088 346.136 147.12 346.064 147.152 346C147.432 345.456 147.864 345.24 148.32 345.24C148.552 345.24 148.792 345.296 149.016 345.4C148.984 344.768 148.968 344.128 148.984 343.48C148.4 342.68 147.696 341.984 146.912 341.352ZM124.496 344.912C124.592 345.16 124.688 345.408 124.792 345.656C124.784 345.456 124.768 345.24 124.752 345.008C124.672 344.976 124.584 344.944 124.496 344.912ZM132.56 339.648C132.088 340 131.704 340.432 131.384 340.92C131.416 341.064 131.456 341.208 131.488 341.352C131.584 341.776 131.48 342.136 131.248 342.424L131.384 342.464C131.536 342.144 131.704 341.832 131.88 341.536C132.088 340.896 132.312 340.272 132.56 339.648ZM126.864 337.064L126.848 337.136C126.904 337.408 126.968 337.672 127.04 337.936C127.264 338.712 127.56 339.472 127.864 340.224H127.984C128.016 339.976 128.032 339.72 128.048 339.472C127.784 338.656 127.456 337.848 127.04 337.096C126.992 337.096 126.928 337.08 126.864 337.064ZM149.744 338.416C149.656 338.544 149.568 338.68 149.472 338.808L149.344 338.96C149.616 339.184 149.88 339.416 150.144 339.656C150.144 339.584 150.152 339.52 150.152 339.448C150.064 339.12 149.968 338.8 149.872 338.472L149.744 338.416ZM122.736 335.928C122.496 336.448 122.376 336.984 122.432 337.496C123.064 337.888 123.656 338.376 124.208 338.912C124.296 338.568 124.384 338.224 124.48 337.888C124.352 337.352 124.28 336.832 124.256 336.32C123.744 336.232 123.24 336.104 122.736 335.928ZM131.576 333.688C131.128 334.2 130.624 334.64 130.072 335.016C130.864 335.504 131.784 335.864 132.688 336.072C132.832 336.008 132.976 335.944 133.12 335.888C132.72 335.088 132.208 334.312 131.576 333.688ZM128.376 332.336C128.208 332.336 128.04 332.344 127.872 332.36C127.968 332.688 128.112 333 128.288 333.288C128.704 333.064 129.072 332.776 129.392 332.44C129.256 332.408 129.112 332.384 128.968 332.368C128.768 332.344 128.568 332.336 128.376 332.336ZM142.648 330.632C142.6 330.76 142.56 330.888 142.52 331.024C142.656 331.64 142.512 332.144 142.192 332.552C142.184 332.648 142.168 332.752 142.16 332.848C142.472 332.704 142.8 332.592 143.136 332.52C143.312 332.488 143.472 332.464 143.632 332.456C143.216 331.888 142.872 331.28 142.648 330.632ZM135.584 327.472V327.48C135.136 328.024 134.624 328.6 134.048 329.128C133.864 329.872 133.784 330.632 133.944 331.336C134.136 332.192 134.68 332.6 135.704 332.6C135.784 332.6 135.872 332.6 135.96 332.592C136.928 332.536 137.92 332.176 138.8 331.792L138.816 331.784C138.912 331.208 139.056 330.64 139.232 330.08C138.264 328.952 136.944 328.024 135.584 327.472ZM124.384 324.336C123.784 325.064 123.264 325.848 122.816 326.624C122.776 326.688 122.744 326.752 122.704 326.824C122.952 327.28 123.16 327.752 123.304 328.248C123.552 329.104 123.64 329.992 123.64 330.896C123.728 330.88 123.816 330.864 123.904 330.848C124.4 330.552 124.928 330.296 125.472 330.096C125.648 329.536 125.904 328.984 126.224 328.472C125.864 327.936 125.568 327.368 125.32 326.816C124.944 326 124.656 325.176 124.384 324.336ZM131.224 327.328C130.88 327.48 130.552 327.672 130.256 327.92C130.136 328.016 130.008 328.128 129.88 328.24L129.928 328.248C130.36 328.024 130.792 327.792 131.208 327.544C131.216 327.472 131.224 327.4 131.224 327.328ZM138.48 322.944C138.272 323.016 138.064 323.056 137.848 323.08C137.664 323.216 137.48 323.36 137.304 323.52C137.288 324.136 137.144 324.744 136.896 325.344C137.032 325.408 137.16 325.464 137.288 325.536C138.256 326.048 139.312 326.736 140.232 327.576C140.504 327.016 140.792 326.48 141.08 325.968C139.936 325.2 138.984 324.176 138.48 322.944ZM127.008 324.44C127.264 325.144 127.568 325.824 127.944 326.456C128.136 326.288 128.336 326.128 128.544 325.984C129.368 325.392 130.232 324.976 131.12 324.736C131.088 324.52 131.056 324.28 131.016 324.024C130.832 324.072 130.64 324.104 130.456 324.136C129.632 324.264 128.528 324.456 127.448 324.456C127.304 324.448 127.152 324.448 127.008 324.44ZM140.408 322.192C140.76 323.2 141.496 323.976 142.416 324.52C142.552 324.488 142.68 324.472 142.824 324.472C142.848 324.472 142.872 324.472 142.896 324.472C142.952 324.16 143.016 323.856 143.064 323.552C142.92 323.392 142.768 323.24 142.608 323.104C141.864 323.064 141.152 322.736 140.576 322.208L140.408 322.192ZM133.848 322.64L133.808 322.648C133.64 322.672 133.472 322.688 133.304 322.704C133.464 323.272 133.584 323.872 133.664 324.48H133.688C133.952 324.072 134.24 323.672 134.552 323.288C134.392 323.048 134.144 322.832 133.848 322.64ZM128.136 321.312C128.072 321.344 128 321.368 127.928 321.4C127.736 321.488 127.544 321.592 127.36 321.704C127.632 321.72 127.92 321.736 128.216 321.736C128.424 321.736 128.632 321.728 128.84 321.72C128.608 321.592 128.376 321.456 128.136 321.312ZM142.152 318.856C142.064 319.032 141.976 319.216 141.88 319.4L141.928 319.512C142.04 319.76 142.168 320.128 142.408 320.296C142.632 320.456 142.72 320.472 142.704 320.48C142.912 320.432 143.112 319.984 143.224 319.528C143.12 319.456 143.024 319.392 142.928 319.312C142.76 319.176 142.608 319.04 142.464 318.888C142.352 318.864 142.248 318.856 142.152 318.856ZM148.12 316.6C148.248 317.312 148.352 318.032 148.44 318.768C148.824 318.36 149.24 317.968 149.68 317.6L149.584 317.44C149.488 317.312 149.4 317.168 149.312 317.024C149.048 317 148.768 316.92 148.464 316.784C148.344 316.728 148.232 316.664 148.12 316.6ZM118.472 317.136C118.376 317.232 118.288 317.336 118.192 317.448C118.312 317.568 118.368 317.752 118.24 317.912L118.096 318.064L118.208 318.032C118.528 317.84 118.784 317.608 118.952 317.328H118.96C118.816 317.232 118.648 317.16 118.472 317.136ZM144.072 312.32C143.92 312.672 143.776 313.032 143.672 313.392C143.792 313.392 143.912 313.4 144.032 313.408C144.088 313.136 144.136 312.872 144.192 312.6C144.16 312.504 144.112 312.416 144.072 312.32Z" fill="#F79051"/>
<path d="M154.896 307.8C158.72 327.664 157.704 348.096 161.312 367.976C149.624 369.768 137.792 370.72 126.304 373.648C122.8 363.128 120.536 352.2 117.776 341.472C116.352 335.92 114.84 330.392 112.984 324.968C111.568 320.832 110.112 315.48 106.592 312.64C106.384 312.472 106.12 312.712 106.152 312.936C106.448 315.128 107.32 317.032 108.064 319.112C108.912 321.488 109.784 323.84 110.528 326.256C112.224 331.768 113.632 337.368 114.968 342.976C117.6 354.056 119.848 365.296 123.432 376.112C123.72 376.984 124.496 377.776 125.52 377.512C138.104 374.256 151.104 373.424 163.904 371.384C164.92 371.224 165.576 370.152 165.384 369.168C161.432 348.68 162.48 327.576 158.424 307.104C157.968 304.84 154.464 305.528 154.896 307.8Z" fill="#336177"/>
<path d="M83.9359 362.28C82.3999 360.368 81.0479 358.6 80.3199 356.224C79.5999 353.856 79.3599 351.336 79.3839 348.872C79.4479 343.328 81.1199 337.864 83.3039 332.824C85.5839 327.576 88.7919 322.68 92.5359 318.36C94.2799 316.344 96.2079 314.496 98.3119 312.856C99.9919 311.544 102.384 309.744 104.648 310.128C104.784 310.152 104.912 310.176 105.04 310.2C105.56 310.296 105.856 310.96 105.592 311.408C104.512 313.232 102.608 314.312 100.968 315.576C99.0719 317.04 97.3439 318.736 95.7279 320.496C92.1519 324.392 89.2879 328.864 86.9359 333.592C84.6799 338.144 83.0399 343.096 82.5999 348.168C82.3999 350.496 82.4879 352.856 83.0079 355.136C83.4879 357.272 84.1039 359.6 85.4159 361.368C86.1119 362.288 84.6239 363.128 83.9359 362.28Z" fill="#336177"/>
<path d="M166.432 311.127C170.56 314.767 175.048 318.055 179.688 321.007C184.016 323.759 188.592 326.231 193.496 327.791C196.8 328.839 201.16 329.743 204.104 327.351C204.576 326.967 205.072 325.919 204.424 325.447C203.52 324.791 202.08 325.591 200.936 325.671C199.192 325.791 197.48 325.487 195.816 325.023C191.112 323.711 186.712 321.159 182.608 318.591C178.008 315.711 173.656 312.439 169.552 308.895C167.776 307.359 166.048 305.767 164.416 304.071C163.16 302.767 161.84 301.263 160.128 300.647L160 300.599C159.472 300.399 158.944 300.919 158.928 301.423C158.896 303.311 160.192 305.023 161.424 306.343C163 308.023 164.696 309.599 166.432 311.127Z" fill="#336177"/>
<path d="M95.6719 239.184L95.6639 239.168C94.9359 236.904 94.4559 234.48 94.1119 232.096C94.0159 231.424 92.9759 231.424 92.8959 232.16C92.5679 235.256 93.0799 238.296 93.9519 241.184C94.5359 240.528 95.1119 239.856 95.6719 239.184Z" fill="#336177"/>
<path d="M102.432 212.256C106.216 207.456 110.864 204.416 116.656 203.296C119.664 202.72 122.72 202.648 125.736 202.872C126.648 201.744 127.52 200.608 128.36 199.456C126.208 199.216 124.04 199.104 121.856 199.16C113.6 199.392 104.744 202.608 100 210.416C98.9121 212.216 101.08 213.968 102.432 212.256Z" fill="#336177"/>
<path d="M169.4 368.848C168.184 368.08 169.376 366.28 170.624 366.736C173.768 367.904 176.52 370.12 179.16 372.128C182.416 374.6 185.568 377.224 188.92 379.568C193.344 382.664 201.136 387.976 206.032 382.88C207.568 381.288 210.328 383.392 208.776 385.008C202.816 391.2 194.728 387.552 188.64 383.56C181.88 379.128 176.224 373.184 169.4 368.848Z" fill="#336177"/>
<path d="M155.992 239.808C155.68 238.864 154.912 238.144 154.232 237.432C153.576 236.736 152.92 236.08 152.184 235.48C151.792 235.16 151.296 235.136 150.904 235.32C150.824 235.336 150.752 235.352 150.672 235.384C146.616 236.992 142.336 237.472 138.056 238.16C133.592 238.888 129.12 239.584 124.632 240.184C120.072 240.8 115.488 241.264 110.896 241.56C107.488 241.776 103.944 241.512 100.472 241.56C106.968 238.248 112.2 232.352 116.52 226.704C122.056 219.464 126.968 211.368 130.92 203.176C131.72 201.528 129.136 200.2 128.4 201.872C121.536 217.328 111.888 233.536 96.088 241.088C95.672 241.288 95.536 241.656 95.576 242.032C95.104 242.368 95.128 243.128 95.808 243.344C100.112 244.696 105.28 244.184 109.728 244C114.744 243.792 119.744 243.232 124.72 242.592C129.568 241.968 134.4 241.248 139.232 240.512C143.184 239.912 147.104 239.464 150.88 238.112C151.088 238.512 151.328 238.904 151.6 239.272C152.216 240.12 152.88 241.144 153.848 241.608C154.992 242.152 156.416 241.096 155.992 239.808Z" fill="#336177"/>
<path d="M415.808 287.704C414.424 292.712 409.128 295.776 404.008 294.56C398.872 293.336 395.84 288.296 397.224 283.28C398.608 278.272 403.904 275.208 409.024 276.424C414.16 277.648 417.192 282.696 415.808 287.704Z" fill="#EBA9BE"/>
<path d="M355.176 283.992C353.792 289 348.504 292.072 343.376 290.856C338.232 289.64 335.2 284.584 336.584 279.592C337.96 274.576 343.256 271.504 348.392 272.728C353.528 273.936 356.568 278.984 355.176 283.992Z" fill="#EBA9BE"/>
<path d="M423.168 267.304C419.752 253.472 408.984 240.976 395.16 236.12C388.488 233.784 381.12 233.472 374.04 234.104C366.528 234.768 358.512 236.216 351.552 239.192C350.256 239.736 350.232 242.04 351.912 241.784C356.072 241.168 360.152 240.096 364.272 239.216C364.224 240.016 364.176 240.808 364.12 241.608C363.976 243.568 363.832 245.672 364.288 247.584C364.408 248.096 365.32 248.12 365.4 247.56C365.728 245.328 366.112 243.128 366.288 240.872C366.312 240.56 366.456 239.664 366.464 238.768C366.848 238.696 367.216 238.616 367.584 238.552C372.8 237.624 378.112 237.216 383.376 237.52C384.352 237.576 385.32 237.672 386.272 237.8C386.008 237.92 385.776 238.128 385.664 238.416C385.168 239.784 385.616 241.096 385.672 242.472C385.704 242.992 386.44 243.208 386.72 242.72C387.44 241.464 387.608 240.024 387.792 238.632C387.824 238.368 387.768 238.168 387.648 238.008C395.992 239.432 403.272 243.552 409.112 249.576C417.36 258.088 421.744 269.608 420.808 281.448C419.984 291.912 414.528 302.208 405.864 308.744C395.712 316.384 382.776 317.744 370.728 315.152C356.224 312.032 341.672 304.536 334 291.88C330.784 286.576 329.192 280.52 329.584 274.304C330.016 267.44 333.048 260.984 337.256 255.432C340.088 251.704 343.576 248.28 347.2 245.272C347.824 244.752 347 243.728 346.344 244.208C334.656 252.84 325.224 265.552 326.856 280.248C328.36 293.68 338.368 304.256 349.864 310.84C362.064 317.824 377.776 321.984 392.088 318.848C403.28 316.392 412.912 309.104 418.608 299.456C424.36 289.712 425.808 277.984 423.168 267.304Z" fill="#336177"/>
<path d="M360.712 271C360.832 270.568 360.688 270.184 360.392 269.888C360.2 269.528 359.848 269.24 359.416 269.144C358.608 268.952 357.744 269.448 357.528 270.24C357.312 271.04 357.8 271.856 358.616 272.048C359.032 272.144 359.504 272.064 359.856 271.824C360.264 271.704 360.592 271.424 360.712 271Z" fill="#336177"/>
<path d="M391.032 272.616C391.184 272.048 390.832 271.456 390.248 271.32C389.688 271.184 389.072 271.28 388.568 271.568C388.464 271.6 388.344 271.632 388.232 271.704C388.136 271.76 388.04 271.824 387.952 271.896L387.904 271.912C387.448 272.12 387.184 272.68 387.184 273.136C387.2 273.752 387.632 274.296 388.248 274.44C388.736 274.552 389.264 274.408 389.624 274.056C389.808 273.872 389.936 273.656 390 273.416L390.008 273.408C390.464 273.376 390.888 273.104 391.032 272.616Z" fill="#336177"/>
<path d="M410.256 291.424C410.096 288.824 408.896 286.512 407.696 284.248C407.288 283.472 405.376 279.936 404.208 281.656C403.4 282.84 404.464 284.384 405.16 285.592C395.96 290.936 385.456 293.832 374.848 294.28C369.152 294.52 363.2 293.896 358.12 291.392C353.4 289.072 349.936 284.824 348.552 279.864C349.464 279.816 350.368 279.792 351.288 279.752C352.456 279.68 352.688 278.072 351.552 277.784C347.264 276.712 342.064 278.264 338.712 281.048C338.264 281.416 338.72 282.16 339.264 281.968C341.096 281.328 342.936 280.704 344.84 280.288C345.848 280.072 346.856 279.96 347.872 279.904C348.088 282.624 348.64 285.04 350.136 287.384C351.552 289.592 353.512 291.368 355.784 292.752C360.784 295.824 367.024 296.768 372.912 296.872C379.392 296.984 386.16 295.864 392.336 293.816C396.976 292.288 402.184 290.264 405.928 286.944C406.848 288.616 407.768 290.272 408.904 291.824C409.28 292.328 410.296 292.176 410.256 291.424Z" fill="#336177"/>
<path d="M376.728 237.424C376.424 236.648 375.272 237.024 375.192 237.744C375.04 238.992 375.216 240.296 375.24 241.544C375.272 242.832 375.344 244.128 375.68 245.384C375.824 245.904 376.512 245.928 376.728 245.432C377.784 243.136 377.608 239.72 376.728 237.424Z" fill="#336177"/>
<path d="M160.368 276.096C159.536 280.92 155.216 284.168 150.72 283.368C146.216 282.568 143.248 278.016 144.08 273.192C144.912 268.376 149.232 265.12 153.72 265.92C158.224 266.712 161.2 271.272 160.368 276.096Z" fill="#EBA9BE"/>
<path d="M108.032 276.696C107.2 281.512 102.888 284.776 98.3921 283.968C93.8881 283.168 90.9201 278.607 91.7521 273.791C92.5761 268.967 96.9041 265.711 101.4 266.511C105.888 267.319 108.864 271.88 108.032 276.696Z" fill="#EBA9BE"/>
<path d="M165.224 256.351C163.672 251.287 161.152 246.504 157.92 242.344C156.784 242.704 155.64 243.055 154.496 243.391C160.6 250.591 164.168 259.968 164.216 269.864C164.264 279.792 160.32 289.879 153.344 296.631C145.176 304.535 134.16 306.696 123.632 305.056C110.952 303.096 97.912 297.008 90.408 285.584C87.272 280.8 85.464 275.192 85.352 269.296C85.232 262.792 87.376 256.496 90.584 250.976C91.424 249.528 92.36 248.119 93.36 246.751H92.256C91.952 246.751 91.672 246.712 91.408 246.648C85.32 254.704 81.56 264.56 83.432 275.08C85.68 287.655 95.04 296.96 105.392 302.384C116.368 308.144 130.16 311.008 142.232 307.08C151.672 304.008 159.416 296.48 163.616 286.984C167.856 277.408 168.256 266.247 165.224 256.351Z" fill="#336177"/>
<path d="M111.848 264.064C111.92 263.648 111.768 263.296 111.496 263.04C111.304 262.712 110.976 262.464 110.608 262.4C109.896 262.272 109.2 262.808 109.064 263.568C108.936 264.336 109.416 265.072 110.128 265.2C110.496 265.264 110.888 265.16 111.184 264.912C111.512 264.76 111.768 264.48 111.848 264.064Z" fill="#336177"/>
<path d="M138.008 263.536C138.096 262.984 137.752 262.456 137.24 262.36C136.752 262.272 136.224 262.408 135.816 262.704C135.728 262.736 135.632 262.784 135.536 262.856C135.456 262.92 135.384 262.984 135.304 263.056L135.264 263.08C134.888 263.304 134.696 263.856 134.728 264.288C134.784 264.864 135.192 265.352 135.736 265.448C136.16 265.528 136.608 265.352 136.888 264.992C137.032 264.808 137.128 264.6 137.16 264.368L137.168 264.36C137.576 264.288 137.92 264.008 138.008 263.536Z" fill="#336177"/>
<path d="M155.864 279.976C155.536 277.528 154.344 275.432 153.152 273.376C152.744 272.672 150.848 269.464 149.976 271.168C149.368 272.344 150.392 273.728 151.072 274.816C143.552 280.488 134.744 283.928 125.664 285.064C120.792 285.672 115.632 285.488 111.088 283.472C106.872 281.608 103.584 277.824 102.048 273.24C102.824 273.136 103.6 273.048 104.392 272.944C105.384 272.8 105.472 271.264 104.48 271.072C100.72 270.352 96.3679 272.168 93.6799 275.024C93.3279 275.4 93.7679 276.072 94.2239 275.856C95.7519 275.128 97.2799 274.416 98.8959 273.896C99.7439 273.624 100.608 273.456 101.464 273.328C101.848 275.88 102.488 278.12 103.944 280.232C105.32 282.216 107.128 283.768 109.176 284.92C113.688 287.48 119.12 287.944 124.184 287.64C129.76 287.304 135.488 285.792 140.648 283.44C144.52 281.688 148.848 279.424 151.824 276.04C152.736 277.552 153.648 279.056 154.728 280.44C155.096 280.904 155.96 280.688 155.864 279.976Z" fill="#336177"/>
<path d="M105.776 207.952C105.464 207.24 104.496 207.68 104.48 208.36C104.44 209.544 104.68 210.768 104.792 211.944C104.912 213.16 105.064 214.384 105.448 215.536C105.616 216.024 106.2 215.992 106.352 215.512C107.096 213.264 106.696 210.064 105.776 207.952Z" fill="#336177"/>
<path d="M109 204.544C108.72 203.952 108 204.248 108.032 204.8C108.072 205.76 108.328 206.76 108.48 207.712C108.64 208.704 108.832 209.696 109.192 210.656C109.344 211.056 109.8 211.072 109.888 210.688C110.328 208.912 109.832 206.296 109 204.544Z" fill="#336177"/>
</svg>
