<svg width="60" height="60" viewBox="0 0 60 60" fill="none" xmlns="http://www.w3.org/2000/svg">
<rect width="60" height="60" rx="30" fill="#FF8CA9"/>
<path d="M20.3938 25.416V13.88H19.0658L15.3538 16.056L16.1058 17.336L18.8098 15.736V25.416H20.3938ZM32.3034 21.704C32.3034 19.752 31.0554 18.136 28.8634 18.136C27.9034 18.136 27.0714 18.456 26.5594 18.84L26.7354 15.24H31.5514V13.88H25.2954L24.9274 20.376H26.1434C26.6554 19.88 27.4234 19.464 28.3994 19.464C29.8714 19.464 30.7194 20.216 30.7194 21.752V21.944C30.7194 23.016 29.9994 24.152 28.3194 24.152C27.2474 24.152 26.2554 23.912 25.1514 23.048L24.3674 24.312C25.4554 25.176 26.7194 25.592 28.2874 25.592C31.1674 25.592 32.3034 23.64 32.3034 21.944V21.704ZM37.541 25.4L44.421 13.88H42.997L36.101 25.4H37.541ZM36.757 13.704C35.141 13.704 34.149 14.728 34.149 16.408V17.08C34.149 18.76 35.141 19.784 36.757 19.784C38.373 19.784 39.365 18.76 39.365 17.08V16.408C39.365 14.728 38.373 13.704 36.757 13.704ZM36.757 18.696C35.845 18.696 35.397 18.152 35.397 17.048V16.44C35.397 15.352 35.845 14.792 36.757 14.792C37.669 14.792 38.117 15.352 38.117 16.44V17.048C38.117 18.152 37.669 18.696 36.757 18.696ZM43.781 19.464C42.165 19.464 41.173 20.488 41.173 22.168V22.84C41.173 24.52 42.165 25.544 43.781 25.544C45.397 25.544 46.389 24.52 46.389 22.84V22.168C46.389 20.488 45.397 19.464 43.781 19.464ZM43.781 24.456C42.869 24.456 42.421 23.912 42.421 22.808V22.2C42.421 21.112 42.869 20.552 43.781 20.552C44.693 20.552 45.141 21.112 45.141 22.2V22.808C45.141 23.912 44.693 24.456 43.781 24.456ZM21.4058 44.592C24.1578 44.592 26.0938 42.912 26.0938 39.52V37.776C26.0938 34.416 24.1418 32.704 21.4058 32.704C18.6698 32.704 16.7178 34.416 16.7178 37.776V39.52C16.7178 42.912 18.6538 44.592 21.4058 44.592ZM21.4058 34.144C23.2138 34.144 24.4938 35.248 24.4938 37.952V39.344C24.4938 42.048 23.2138 43.152 21.4058 43.152C19.6138 43.152 18.3178 42.048 18.3178 39.344V37.952C18.3178 35.248 19.6138 34.144 21.4058 34.144ZM28.3667 32.88V44.416H29.9507V39.456H35.1667V38.096H29.9507V34.24H35.5027V32.88H28.3667ZM37.4604 32.88V44.416H39.0444V39.456H44.2604V38.096H39.0444V34.24H44.5964V32.88H37.4604Z" fill="white"/>
</svg>
