<svg width="60" height="60" viewBox="0 0 60 60" fill="none" xmlns="http://www.w3.org/2000/svg">
<rect width="60" height="60" rx="30" fill="#7DB0C9"/>
<path d="M17.8672 28.52V14.1H16.2072L11.5672 16.82L12.5072 18.42L15.8872 16.42V28.52H17.8672ZM32.7542 23.88C32.7542 21.44 31.1942 19.42 28.4542 19.42C27.2542 19.42 26.2142 19.82 25.5742 20.3L25.7942 15.8H31.8142V14.1H23.9942L23.5342 22.22H25.0542C25.6942 21.6 26.6542 21.08 27.8742 21.08C29.7142 21.08 30.7742 22.02 30.7742 23.94V24.18C30.7742 25.52 29.8742 26.94 27.7742 26.94C26.4342 26.94 25.1942 26.64 23.8142 25.56L22.8342 27.14C24.1942 28.22 25.7742 28.74 27.7342 28.74C31.3342 28.74 32.7542 26.3 32.7542 24.18V23.88ZM39.3013 28.5L47.9013 14.1H46.1213L37.5013 28.5H39.3013ZM38.3213 13.88C36.3013 13.88 35.0613 15.16 35.0613 17.26V18.1C35.0613 20.2 36.3013 21.48 38.3213 21.48C40.3413 21.48 41.5813 20.2 41.5813 18.1V17.26C41.5813 15.16 40.3413 13.88 38.3213 13.88ZM38.3213 20.12C37.1813 20.12 36.6213 19.44 36.6213 18.06V17.3C36.6213 15.94 37.1813 15.24 38.3213 15.24C39.4613 15.24 40.0213 15.94 40.0213 17.3V18.06C40.0213 19.44 39.4613 20.12 38.3213 20.12ZM47.1013 21.08C45.0812 21.08 43.8413 22.36 43.8413 24.46V25.3C43.8413 27.4 45.0812 28.68 47.1013 28.68C49.1213 28.68 50.3613 27.4 50.3613 25.3V24.46C50.3613 22.36 49.1213 21.08 47.1013 21.08ZM47.1013 27.32C45.9613 27.32 45.4013 26.64 45.4013 25.26V24.5C45.4013 23.14 45.9613 22.44 47.1013 22.44C48.2413 22.44 48.8013 23.14 48.8013 24.5V25.26C48.8013 26.64 48.2413 27.32 47.1013 27.32ZM22.5426 45.518C24.9506 45.518 26.6446 44.048 26.6446 41.08V39.554C26.6446 36.614 24.9366 35.116 22.5426 35.116C20.1486 35.116 18.4406 36.614 18.4406 39.554V41.08C18.4406 44.048 20.1346 45.518 22.5426 45.518ZM22.5426 36.376C24.1246 36.376 25.2446 37.342 25.2446 39.708V40.926C25.2446 43.292 24.1246 44.258 22.5426 44.258C20.9746 44.258 19.8406 43.292 19.8406 40.926V39.708C19.8406 37.342 20.9746 36.376 22.5426 36.376ZM28.6334 35.27V45.364H30.0194V41.024H34.5834V39.834H30.0194V36.46H34.8774V35.27H28.6334ZM36.5904 35.27V45.364H37.9764V41.024H42.5404V39.834H37.9764V36.46H42.8344V35.27H36.5904Z" fill="white"/>
</svg>
