<svg width="54" height="54" viewBox="0 0 54 54" fill="none" xmlns="http://www.w3.org/2000/svg">
<circle cx="27" cy="27" r="26" fill="white" stroke="#A1CBDF" stroke-width="2"/>
<path d="M32.4773 30.856C31.0373 32.272 29.3093 32.68 27.6533 32.68C25.0373 32.68 23.1173 30.928 23.1173 26.968V24.976C23.1173 21.016 25.0373 19.264 27.6533 19.264C29.2133 19.264 30.5813 19.576 32.1413 20.848L33.3653 18.904C31.7573 17.632 30.0293 17.056 27.6533 17.056C23.5493 17.056 20.7173 19.624 20.7173 24.664V27.28C20.7173 32.368 23.5253 34.888 27.6533 34.888C29.9813 34.888 32.0453 34.336 33.7733 32.68L32.4773 30.856Z" fill="#336177"/>
</svg>
