<svg width="54" height="54" viewBox="0 0 54 54" fill="none" xmlns="http://www.w3.org/2000/svg">
<circle cx="27" cy="27" r="27" fill="#A1CBDF"/>
<path d="M21.3508 34.624H28.2388C31.9828 34.624 33.7828 32.896 33.7828 30.064V29.464C33.7828 27.064 32.3188 25.816 30.2068 25.504C32.2708 25 32.9908 23.56 32.9908 22.048V21.544C32.9908 18.712 31.1668 17.32 27.4948 17.32H21.3508V34.624ZM23.7268 26.56H26.8228C30.2788 26.56 31.3348 27.376 31.3348 29.488V30.016C31.3348 32.056 30.0628 32.56 27.3508 32.56H23.7268V26.56ZM26.6308 19.36C29.3428 19.36 30.5668 19.552 30.5668 21.592V22.024C30.5668 24.184 29.1988 24.616 26.7988 24.616H23.7268V19.36H26.6308Z" fill="#336177"/>
</svg>
