<svg width="320" height="205" viewBox="0 0 320 205" fill="none" xmlns="http://www.w3.org/2000/svg">
<path d="M60.2949 126.466L56.3922 96.8218L87.6227 92.7103L86.213 82.0027L54.9825 86.1142L52.2936 65.6905L85.6062 61.3048L84.1965 50.5972L38.1935 56.6536L47.6044 128.137L60.2949 126.466ZM144.474 115.384L158.255 113.569C152.126 103.786 146.32 94.1612 140.19 84.3775C147.096 80.1399 150.015 73.1995 149.036 65.7637L148.553 62.0953C147.052 50.6937 137.74 43.5481 122.868 45.506L95.8018 49.0693L105.213 120.552L117.903 118.882L114.131 90.229L128.705 88.3103L144.474 115.384ZM122.679 56.3233C131.403 55.1746 135.283 58.5975 136.014 64.1496L136.406 67.1239C137.124 72.5768 134.249 76.7881 124.433 78.0803L112.734 79.6205L109.889 58.007L122.679 56.3233ZM161.253 40.4525L170.664 111.936L217.361 105.788L215.977 95.2786L181.871 99.7687L179.117 78.8492L210.447 74.7246L209.089 64.4136L177.76 68.5382L175.228 49.3042L208.639 44.9054L207.256 34.3961L161.253 40.4525ZM221.572 32.5114L230.983 103.995L277.68 97.8468L276.296 87.3374L242.191 91.8275L239.437 70.9081L270.766 66.7834L269.409 56.4724L238.079 60.597L235.547 41.363L268.959 36.9643L267.575 26.4549L221.572 32.5114Z" fill="url(#paint0_linear_469_6397)"/>
<path d="M60.2949 126.466L60.556 128.449L62.5388 128.188L62.2778 126.205L60.2949 126.466ZM56.3922 96.8218L56.1311 94.839L54.1482 95.1L54.4093 97.0829L56.3922 96.8218ZM87.6227 92.7103L87.8837 94.6932L89.8666 94.4321L89.6056 92.4492L87.6227 92.7103ZM86.213 82.0027L88.1959 81.7416L87.9348 79.7587L85.9519 80.0198L86.213 82.0027ZM54.9825 86.1142L52.9996 86.3753L53.2606 88.3582L55.2435 88.0971L54.9825 86.1142ZM52.2936 65.6905L52.0326 63.7076L50.0497 63.9686L50.3108 65.9515L52.2936 65.6905ZM85.6062 61.3048L85.8672 63.2877L87.8501 63.0266L87.5891 61.0437L85.6062 61.3048ZM84.1965 50.5972L86.1794 50.3361L85.9183 48.3532L83.9355 48.6143L84.1965 50.5972ZM38.1935 56.6536L37.9324 54.6707L35.9495 54.9318L36.2106 56.9147L38.1935 56.6536ZM47.6044 128.137L45.6215 128.398L45.8826 130.381L47.8655 130.12L47.6044 128.137ZM62.2778 126.205L58.3751 96.5608L54.4093 97.0829L58.312 126.727L62.2778 126.205ZM56.6532 98.8047L87.8837 94.6932L87.3616 90.7274L56.1311 94.839L56.6532 98.8047ZM89.6056 92.4492L88.1959 81.7416L84.2301 82.2637L85.6398 92.9713L89.6056 92.4492ZM85.9519 80.0198L54.7214 84.1314L55.2435 88.0971L86.4741 83.9856L85.9519 80.0198ZM56.9654 85.8532L54.2765 65.4294L50.3108 65.9515L52.9996 86.3753L56.9654 85.8532ZM52.5547 67.6734L85.8672 63.2877L85.3451 59.3219L52.0326 63.7076L52.5547 67.6734ZM87.5891 61.0437L86.1794 50.3361L82.2136 50.8582L83.6233 61.5658L87.5891 61.0437ZM83.9355 48.6143L37.9324 54.6707L38.4545 58.6365L84.4576 52.5801L83.9355 48.6143ZM36.2106 56.9147L45.6215 128.398L49.5873 127.876L40.1764 56.3926L36.2106 56.9147ZM47.8655 130.12L60.556 128.449L60.0338 124.483L47.3434 126.154L47.8655 130.12ZM144.474 115.384L142.746 116.39L143.416 117.54L144.735 117.367L144.474 115.384ZM158.255 113.569L158.516 115.552L161.603 115.146L159.95 112.508L158.255 113.569ZM140.19 84.3775L139.144 82.6729L137.424 83.7287L138.495 85.4394L140.19 84.3775ZM95.8018 49.0693L95.5408 47.0864L93.5579 47.3475L93.8189 49.3304L95.8018 49.0693ZM105.213 120.552L103.23 120.814L103.491 122.796L105.474 122.535L105.213 120.552ZM117.903 118.882L118.164 120.865L120.147 120.604L119.886 118.621L117.903 118.882ZM114.131 90.229L113.87 88.2461L111.887 88.5072L112.148 90.4901L114.131 90.229ZM128.705 88.3103L130.434 87.3037L129.764 86.1537L128.444 86.3274L128.705 88.3103ZM112.734 79.6205L110.752 79.8816L111.013 81.8645L112.995 81.6034L112.734 79.6205ZM109.889 58.007L109.628 56.0242L107.645 56.2852L107.906 58.2681L109.889 58.007ZM144.735 117.367L158.516 115.552L157.994 111.586L144.213 113.401L144.735 117.367ZM159.95 112.508C156.89 107.624 153.911 102.779 150.926 97.9258C147.943 93.0748 144.955 88.2157 141.885 83.3157L138.495 85.4394C141.555 90.323 144.534 95.168 147.519 100.021C150.502 104.872 153.49 109.731 156.56 114.631L159.95 112.508ZM141.236 86.0822C148.851 81.4098 152.096 73.6788 151.019 65.5026L147.053 66.0247C147.935 72.7201 145.342 78.87 139.144 82.6729L141.236 86.0822ZM151.019 65.5026L150.536 61.8343L146.57 62.3564L147.053 66.0247L151.019 65.5026ZM150.536 61.8343C149.72 55.6327 146.747 50.4583 141.847 47.1356C136.971 43.8286 130.4 42.4971 122.607 43.5231L123.129 47.4888C130.208 46.5569 135.729 47.8193 139.602 50.4461C143.452 53.0571 145.886 57.1563 146.57 62.3564L150.536 61.8343ZM122.607 43.5231L95.5408 47.0864L96.0629 51.0522L123.129 47.4888L122.607 43.5231ZM93.8189 49.3304L103.23 120.814L107.196 120.291L97.7847 48.8083L93.8189 49.3304ZM105.474 122.535L118.164 120.865L117.642 116.899L104.952 118.57L105.474 122.535ZM119.886 118.621L116.114 89.968L112.148 90.4901L115.92 119.143L119.886 118.621ZM114.392 92.2119L128.966 90.2932L128.444 86.3274L113.87 88.2461L114.392 92.2119ZM126.977 89.3169L142.746 116.39L146.202 114.377L130.434 87.3037L126.977 89.3169ZM122.94 58.3061C127.049 57.7652 129.652 58.3537 131.25 59.3979C132.79 60.4038 133.72 62.0471 134.031 64.4106L137.997 63.8885C137.577 60.6999 136.203 57.8557 133.438 56.0494C130.732 54.2813 127.033 53.7327 122.418 54.3404L122.94 58.3061ZM134.031 64.4106L134.423 67.385L138.389 66.8628L137.997 63.8885L134.031 64.4106ZM134.423 67.385C134.725 69.6763 134.257 71.4181 132.94 72.7634C131.536 74.1975 128.885 75.4771 124.172 76.0974L124.695 80.0632C129.798 79.3914 133.491 77.9192 135.799 75.5614C138.194 73.1148 138.805 70.0244 138.389 66.8628L134.423 67.385ZM124.172 76.0974L112.473 77.6377L112.995 81.6034L124.695 80.0632L124.172 76.0974ZM114.717 79.3595L111.872 57.746L107.906 58.2681L110.752 79.8816L114.717 79.3595ZM110.15 59.9899L122.94 58.3061L122.418 54.3404L109.628 56.0242L110.15 59.9899ZM161.253 40.4525L160.992 38.4697L159.009 38.7307L159.27 40.7136L161.253 40.4525ZM170.664 111.936L168.681 112.197L168.942 114.18L170.925 113.919L170.664 111.936ZM217.361 105.788L217.622 107.771L219.605 107.51L219.344 105.527L217.361 105.788ZM215.977 95.2786L217.96 95.0176L217.699 93.0347L215.716 93.2957L215.977 95.2786ZM181.871 99.7687L179.889 100.03L180.15 102.013L182.132 101.752L181.871 99.7687ZM179.117 78.8492L178.856 76.8664L176.873 77.1274L177.134 79.1103L179.117 78.8492ZM210.447 74.7246L210.708 76.7075L212.691 76.4465L212.43 74.4636L210.447 74.7246ZM209.089 64.4136L211.072 64.1525L210.811 62.1696L208.828 62.4307L209.089 64.4136ZM177.76 68.5382L175.777 68.7993L176.038 70.7822L178.021 70.5211L177.76 68.5382ZM175.228 49.3042L174.967 47.3213L172.984 47.5823L173.245 49.5652L175.228 49.3042ZM208.639 44.9054L208.9 46.8883L210.883 46.6273L210.622 44.6444L208.639 44.9054ZM207.256 34.3961L209.239 34.1351L208.978 32.1522L206.995 32.4132L207.256 34.3961ZM159.27 40.7136L168.681 112.197L172.647 111.675L163.236 40.1915L159.27 40.7136ZM170.925 113.919L217.622 107.771L217.1 103.805L170.403 109.953L170.925 113.919ZM219.344 105.527L217.96 95.0176L213.994 95.5397L215.378 106.049L219.344 105.527ZM215.716 93.2957L181.61 97.7858L182.132 101.752L216.238 97.2615L215.716 93.2957ZM183.854 99.5077L181.1 78.5882L177.134 79.1103L179.889 100.03L183.854 99.5077ZM179.378 80.8321L210.708 76.7075L210.186 72.7417L178.856 76.8664L179.378 80.8321ZM212.43 74.4636L211.072 64.1525L207.107 64.6746L208.464 74.9857L212.43 74.4636ZM208.828 62.4307L177.499 66.5553L178.021 70.5211L209.351 66.3965L208.828 62.4307ZM179.743 68.2772L177.211 49.0431L173.245 49.5652L175.777 68.7993L179.743 68.2772ZM175.489 51.2871L208.9 46.8883L208.378 42.9226L174.967 47.3213L175.489 51.2871ZM210.622 44.6444L209.239 34.1351L205.273 34.6572L206.656 45.1665L210.622 44.6444ZM206.995 32.4132L160.992 38.4697L161.514 42.4354L207.517 36.379L206.995 32.4132ZM221.572 32.5114L221.311 30.5285L219.328 30.7895L219.589 32.7724L221.572 32.5114ZM230.983 103.995L229 104.256L229.261 106.238L231.244 105.977L230.983 103.995ZM277.68 97.8468L277.941 99.8296L279.924 99.5686L279.663 97.5857L277.68 97.8468ZM276.296 87.3374L278.279 87.0764L278.018 85.0935L276.035 85.3545L276.296 87.3374ZM242.191 91.8275L240.208 92.0886L240.469 94.0715L242.452 93.8104L242.191 91.8275ZM239.437 70.9081L239.176 68.9252L237.193 69.1862L237.454 71.1691L239.437 70.9081ZM270.766 66.7834L271.027 68.7663L273.01 68.5053L272.749 66.5224L270.766 66.7834ZM269.409 56.4724L271.392 56.2113L271.131 54.2285L269.148 54.4895L269.409 56.4724ZM238.079 60.597L236.096 60.8581L236.357 62.841L238.34 62.5799L238.079 60.597ZM235.547 41.363L235.286 39.3801L233.303 39.6412L233.564 41.624L235.547 41.363ZM268.959 36.9643L269.22 38.9471L271.203 38.6861L270.942 36.7032L268.959 36.9643ZM267.575 26.4549L269.558 26.1939L269.297 24.211L267.314 24.472L267.575 26.4549ZM219.589 32.7724L229 104.256L232.966 103.733L223.555 32.2503L219.589 32.7724ZM231.244 105.977L277.941 99.8296L277.419 95.8639L230.722 102.012L231.244 105.977ZM279.663 97.5857L278.279 87.0764L274.314 87.5985L275.697 98.1078L279.663 97.5857ZM276.035 85.3545L241.93 89.8446L242.452 93.8104L276.558 89.3203L276.035 85.3545ZM244.174 91.5665L241.42 70.647L237.454 71.1691L240.208 92.0886L244.174 91.5665ZM239.698 72.8909L271.027 68.7663L270.505 64.8005L239.176 68.9252L239.698 72.8909ZM272.749 66.5224L271.392 56.2113L267.426 56.7334L268.783 67.0445L272.749 66.5224ZM269.148 54.4895L237.818 58.6141L238.34 62.5799L269.67 58.4553L269.148 54.4895ZM240.062 60.336L237.53 41.1019L233.564 41.624L236.096 60.8581L240.062 60.336ZM235.808 43.3459L269.22 38.9471L268.698 34.9814L235.286 39.3801L235.808 43.3459ZM270.942 36.7032L269.558 26.1939L265.592 26.716L266.976 37.2253L270.942 36.7032ZM267.314 24.472L221.311 30.5285L221.833 34.4942L267.836 28.4378L267.314 24.472Z" fill="white" fill-opacity="0.6"/>
<path d="M78.7467 160.298L77.1856 148.44L81.9445 147.814L81.5164 144.562L55.5405 147.982L55.9687 151.233L60.8069 150.597L62.368 162.454L57.2521 163.128L57.6803 166.38L84.251 162.882L83.8229 159.63L78.7467 160.298ZM55.0936 173.7L55.5322 177.031L89.0827 172.614L88.6441 169.283L55.0936 173.7ZM64.733 150.08L73.2595 148.957L74.8206 160.815L66.2941 161.937L64.733 150.08ZM105.237 161.047L106.02 166.995L91.1884 168.948L91.627 172.279L125.177 167.862L124.739 164.531L109.907 166.484L109.124 160.535L119.95 159.11L119.512 155.778L98.5724 158.535L97.9407 153.736L118.008 151.095L116.509 139.713L92.3972 142.887L92.8357 146.218L113.061 143.556L113.683 148.275L93.6157 150.917L95.1245 162.378L105.237 161.047ZM152.699 135.069L128.746 138.223L131.043 155.672L141.037 154.357L142.076 162.249L127.283 164.196L127.722 167.527L161.272 163.11L160.834 159.779L146.041 161.726L145.002 153.835L154.996 152.519L152.699 135.069ZM133.071 141.042L149.251 138.912L150.671 149.699L134.491 151.829L133.071 141.042ZM193.453 153.145L190.023 127.089L186.176 127.596L186.834 132.593L179.814 133.517L180.253 136.848L187.272 135.924L187.716 139.295L180.697 140.219L181.135 143.55L188.155 142.626L189.606 153.651L193.453 153.145ZM172.634 143.943C172.95 144.507 173.898 145.27 175.218 146.104C177.331 147.44 179.353 148.707 181.619 149.982L183.559 146.943C180.995 145.546 178.499 144.059 176.411 142.599C174.277 141.104 173.947 139.817 173.623 137.358L172.793 131.052L168.827 131.574L169.678 138.039C170.043 140.815 169.687 142.395 167.93 144.684C166.725 146.254 164.543 148.68 162.261 150.957L164.966 153.425C166.849 151.483 168.927 149.192 170.355 147.471C171.438 146.199 172.485 144.649 172.594 143.948L172.634 143.943ZM174.27 153.612L170.344 154.129L171.942 166.265L195.657 163.142L195.208 159.732L175.419 162.337L174.27 153.612ZM213.027 153.15C226.349 142.48 226.612 140.186 225.661 132.968L224.737 125.948L208.358 128.105L208.802 131.476L221.294 129.831L221.77 133.44C222.511 139.071 222.227 141.207 210.553 150.288L213.027 153.15ZM240.767 157.607L235.953 121.043L232.027 121.559L236.84 158.124L240.767 157.607ZM256.757 127.018C257.284 131.024 255.711 133.167 245.021 139.618L246.985 142.587C258.995 135.438 261.403 132.579 260.63 126.71L259.784 120.285L244.278 122.327L244.716 125.658L256.376 124.123L256.757 127.018ZM277.167 126.066L271.972 126.75L270.62 116.479L266.733 116.99L270.169 143.085L274.055 142.573L272.421 130.16L277.616 129.477L277.167 126.066ZM255.398 143.053L251.472 143.57L253.054 155.586L276.373 152.516L275.924 149.105L256.531 151.658L255.398 143.053Z" fill="url(#paint1_linear_469_6397)"/>
<path d="M78.7467 160.298L76.7638 160.559L77.0248 162.542L79.0077 162.281L78.7467 160.298ZM77.1856 148.44L76.9245 146.457L74.9416 146.718L75.2027 148.701L77.1856 148.44ZM81.9445 147.814L82.2056 149.797L84.1885 149.536L83.9274 147.553L81.9445 147.814ZM81.5164 144.562L83.4993 144.301L83.2382 142.318L81.2553 142.579L81.5164 144.562ZM55.5405 147.982L55.2795 145.999L53.2966 146.26L53.5576 148.243L55.5405 147.982ZM55.9687 151.233L53.9858 151.495L54.2468 153.477L56.2297 153.216L55.9687 151.233ZM60.8069 150.597L62.7898 150.335L62.5287 148.353L60.5459 148.614L60.8069 150.597ZM62.368 162.454L62.6291 164.437L64.6119 164.176L64.3509 162.193L62.368 162.454ZM57.2521 163.128L56.9911 161.145L55.0082 161.406L55.2693 163.389L57.2521 163.128ZM57.6803 166.38L55.6974 166.641L55.9584 168.624L57.9413 168.363L57.6803 166.38ZM84.251 162.882L84.5121 164.864L86.4949 164.603L86.2339 162.62L84.251 162.882ZM83.8229 159.63L85.8058 159.369L85.5447 157.386L83.5618 157.647L83.8229 159.63ZM55.0936 173.7L54.8326 171.717L52.8497 171.978L53.1107 173.961L55.0936 173.7ZM55.5322 177.031L53.5493 177.292L53.8104 179.275L55.7933 179.014L55.5322 177.031ZM89.0827 172.614L89.3437 174.597L91.3266 174.336L91.0656 172.353L89.0827 172.614ZM88.6441 169.283L90.627 169.022L90.366 167.039L88.3831 167.3L88.6441 169.283ZM64.733 150.08L64.472 148.097L62.4891 148.358L62.7501 150.341L64.733 150.08ZM73.2595 148.957L75.2423 148.696L74.9813 146.713L72.9984 146.974L73.2595 148.957ZM74.8206 160.815L75.0816 162.798L77.0645 162.537L76.8034 160.554L74.8206 160.815ZM66.2941 161.937L64.3112 162.198L64.5723 164.181L66.5552 163.92L66.2941 161.937ZM80.7296 160.037L79.1685 148.179L75.2027 148.701L76.7638 160.559L80.7296 160.037ZM77.4466 150.423L82.2056 149.797L81.6835 145.831L76.9245 146.457L77.4466 150.423ZM83.9274 147.553L83.4993 144.301L79.5335 144.823L79.9616 148.075L83.9274 147.553ZM81.2553 142.579L55.2795 145.999L55.8016 149.964L81.7774 146.545L81.2553 142.579ZM53.5576 148.243L53.9858 151.495L57.9515 150.972L57.5234 147.72L53.5576 148.243ZM56.2297 153.216L61.068 152.579L60.5459 148.614L55.7076 149.251L56.2297 153.216ZM58.824 150.858L60.3851 162.715L64.3509 162.193L62.7898 150.335L58.824 150.858ZM62.107 160.471L56.9911 161.145L57.5132 165.111L62.6291 164.437L62.107 160.471ZM55.2693 163.389L55.6974 166.641L59.6632 166.119L59.235 162.867L55.2693 163.389ZM57.9413 168.363L84.5121 164.864L83.9899 160.899L57.4192 164.397L57.9413 168.363ZM86.2339 162.62L85.8058 159.369L81.84 159.891L82.2681 163.143L86.2339 162.62ZM83.5618 157.647L78.4856 158.315L79.0077 162.281L84.0839 161.612L83.5618 157.647ZM53.1107 173.961L53.5493 177.292L57.5151 176.77L57.0765 173.439L53.1107 173.961ZM55.7933 179.014L89.3437 174.597L88.8216 170.631L55.2711 175.048L55.7933 179.014ZM91.0656 172.353L90.627 169.022L86.6612 169.544L87.0998 172.875L91.0656 172.353ZM88.3831 167.3L54.8326 171.717L55.3547 175.683L88.9052 171.266L88.3831 167.3ZM64.9941 152.063L73.5205 150.94L72.9984 146.974L64.472 148.097L64.9941 152.063ZM71.2766 149.218L72.8377 161.076L76.8034 160.554L75.2423 148.696L71.2766 149.218ZM74.5595 158.832L66.0331 159.954L66.5552 163.92L75.0816 162.798L74.5595 158.832ZM68.277 161.676L66.7159 149.819L62.7501 150.341L64.3112 162.198L68.277 161.676ZM105.237 161.047L107.22 160.786L106.959 158.803L104.976 159.064L105.237 161.047ZM106.02 166.995L106.281 168.978L108.264 168.717L108.003 166.734L106.02 166.995ZM91.1884 168.948L90.9274 166.965L88.9445 167.226L89.2055 169.209L91.1884 168.948ZM91.627 172.279L89.6441 172.54L89.9052 174.523L91.888 174.262L91.627 172.279ZM125.177 167.862L125.439 169.845L127.421 169.584L127.16 167.601L125.177 167.862ZM124.739 164.531L126.722 164.27L126.461 162.287L124.478 162.548L124.739 164.531ZM109.907 166.484L107.924 166.745L108.185 168.728L110.168 168.466L109.907 166.484ZM109.124 160.535L108.863 158.552L106.88 158.813L107.141 160.796L109.124 160.535ZM119.95 159.11L120.211 161.092L122.194 160.831L121.933 158.849L119.95 159.11ZM119.512 155.778L121.495 155.517L121.234 153.534L119.251 153.795L119.512 155.778ZM98.5724 158.535L96.5895 158.796L96.8506 160.779L98.8335 160.518L98.5724 158.535ZM97.9407 153.736L97.6796 151.754L95.6967 152.015L95.9578 153.997L97.9407 153.736ZM118.008 151.095L118.269 153.077L120.251 152.816L119.99 150.834L118.008 151.095ZM116.509 139.713L118.492 139.452L118.231 137.469L116.248 137.73L116.509 139.713ZM92.3972 142.887L92.1361 140.904L90.1532 141.165L90.4143 143.148L92.3972 142.887ZM92.8357 146.218L90.8528 146.48L91.1139 148.462L93.0968 148.201L92.8357 146.218ZM113.061 143.556L115.044 143.295L114.783 141.312L112.8 141.573L113.061 143.556ZM113.683 148.275L113.944 150.258L115.926 149.997L115.665 148.014L113.683 148.275ZM93.6157 150.917L93.3546 148.934L91.3717 149.195L91.6328 151.178L93.6157 150.917ZM95.1245 162.378L93.1417 162.639L93.4027 164.622L95.3856 164.361L95.1245 162.378ZM103.254 161.308L104.038 167.256L108.003 166.734L107.22 160.786L103.254 161.308ZM105.759 165.012L90.9274 166.965L91.4495 170.931L106.281 168.978L105.759 165.012ZM89.2055 169.209L89.6441 172.54L93.6099 172.018L93.1713 168.687L89.2055 169.209ZM91.888 174.262L125.439 169.845L124.916 165.879L91.3659 170.296L91.888 174.262ZM127.16 167.601L126.722 164.27L122.756 164.792L123.195 168.123L127.16 167.601ZM124.478 162.548L109.646 164.501L110.168 168.466L125 166.514L124.478 162.548ZM111.89 166.223L111.107 160.274L107.141 160.796L107.924 166.745L111.89 166.223ZM109.385 162.518L120.211 161.092L119.689 157.127L108.863 158.552L109.385 162.518ZM121.933 158.849L121.495 155.517L117.529 156.039L117.967 159.371L121.933 158.849ZM119.251 153.795L98.3114 156.552L98.8335 160.518L119.773 157.761L119.251 153.795ZM100.555 158.274L99.9236 153.475L95.9578 153.997L96.5895 158.796L100.555 158.274ZM98.2017 155.719L118.269 153.077L117.746 149.112L97.6796 151.754L98.2017 155.719ZM119.99 150.834L118.492 139.452L114.526 139.974L116.025 151.356L119.99 150.834ZM116.248 137.73L92.1361 140.904L92.6582 144.87L116.77 141.696L116.248 137.73ZM90.4143 143.148L90.8528 146.48L94.8186 145.957L94.38 142.626L90.4143 143.148ZM93.0968 148.201L113.322 145.539L112.8 141.573L92.5747 144.236L93.0968 148.201ZM111.078 143.817L111.7 148.536L115.665 148.014L115.044 143.295L111.078 143.817ZM113.421 146.292L93.3546 148.934L93.8767 152.9L113.944 150.258L113.421 146.292ZM91.6328 151.178L93.1417 162.639L97.1074 162.117L95.5985 150.656L91.6328 151.178ZM95.3856 164.361L105.498 163.029L104.976 159.064L94.8635 160.395L95.3856 164.361ZM152.699 135.069L154.682 134.808L154.421 132.825L152.438 133.086L152.699 135.069ZM128.746 138.223L128.485 136.24L126.502 136.501L126.763 138.484L128.746 138.223ZM131.043 155.672L129.06 155.933L129.321 157.916L131.304 157.655L131.043 155.672ZM141.037 154.357L143.019 154.096L142.758 152.113L140.776 152.374L141.037 154.357ZM142.076 162.249L142.337 164.231L144.32 163.97L144.058 161.987L142.076 162.249ZM127.283 164.196L127.022 162.213L125.039 162.474L125.3 164.457L127.283 164.196ZM127.722 167.527L125.739 167.788L126 169.771L127.983 169.51L127.722 167.527ZM161.272 163.11L161.533 165.093L163.516 164.832L163.255 162.849L161.272 163.11ZM160.834 159.779L162.817 159.518L162.556 157.535L160.573 157.796L160.834 159.779ZM146.041 161.726L144.058 161.987L144.32 163.97L146.302 163.709L146.041 161.726ZM145.002 153.835L144.741 151.852L142.758 152.113L143.019 154.096L145.002 153.835ZM154.996 152.519L155.257 154.502L157.24 154.241L156.979 152.258L154.996 152.519ZM133.071 141.042L132.81 139.06L130.827 139.321L131.088 141.304L133.071 141.042ZM149.251 138.912L151.234 138.651L150.973 136.668L148.99 136.929L149.251 138.912ZM150.671 149.699L150.932 151.682L152.915 151.421L152.654 149.438L150.671 149.699ZM134.491 151.829L132.508 152.09L132.769 154.073L134.752 153.812L134.491 151.829ZM152.438 133.086L128.485 136.24L129.007 140.206L152.96 137.052L152.438 133.086ZM126.763 138.484L129.06 155.933L133.026 155.411L130.728 137.962L126.763 138.484ZM131.304 157.655L141.298 156.339L140.776 152.374L130.782 153.689L131.304 157.655ZM139.054 154.618L140.093 162.51L144.058 161.987L143.019 154.096L139.054 154.618ZM141.815 160.266L127.022 162.213L127.544 166.179L142.337 164.231L141.815 160.266ZM125.3 164.457L125.739 167.788L129.705 167.266L129.266 163.935L125.3 164.457ZM127.983 169.51L161.533 165.093L161.011 161.127L127.461 165.544L127.983 169.51ZM163.255 162.849L162.817 159.518L158.851 160.04L159.289 163.371L163.255 162.849ZM160.573 157.796L145.78 159.744L146.302 163.709L161.095 161.762L160.573 157.796ZM148.024 161.465L146.985 153.573L143.019 154.096L144.058 161.987L148.024 161.465ZM145.263 155.817L155.257 154.502L154.735 150.536L144.741 151.852L145.263 155.817ZM156.979 152.258L154.682 134.808L150.716 135.33L153.013 152.78L156.979 152.258ZM133.332 143.025L149.512 140.895L148.99 136.929L132.81 139.06L133.332 143.025ZM147.268 139.173L148.688 149.96L152.654 149.438L151.234 138.651L147.268 139.173ZM150.41 147.716L134.23 149.847L134.752 153.812L150.932 151.682L150.41 147.716ZM136.474 151.568L135.053 140.781L131.088 141.304L132.508 152.09L136.474 151.568ZM193.453 153.145L193.714 155.127L195.697 154.866L195.436 152.883L193.453 153.145ZM190.023 127.089L192.006 126.828L191.745 124.845L189.762 125.106L190.023 127.089ZM186.176 127.596L185.915 125.613L183.932 125.874L184.193 127.857L186.176 127.596ZM186.834 132.593L187.095 134.576L189.078 134.315L188.817 132.332L186.834 132.593ZM179.814 133.517L179.553 131.534L177.57 131.795L177.832 133.778L179.814 133.517ZM180.253 136.848L178.27 137.109L178.531 139.092L180.514 138.831L180.253 136.848ZM187.272 135.924L189.255 135.663L188.994 133.68L187.011 133.941L187.272 135.924ZM187.716 139.295L187.977 141.278L189.96 141.017L189.699 139.034L187.716 139.295ZM180.697 140.219L180.436 138.236L178.453 138.497L178.714 140.48L180.697 140.219ZM181.135 143.55L179.152 143.811L179.414 145.794L181.396 145.533L181.135 143.55ZM188.155 142.626L190.138 142.365L189.877 140.382L187.894 140.643L188.155 142.626ZM189.606 153.651L187.623 153.912L187.884 155.895L189.867 155.634L189.606 153.651ZM172.634 143.943L174.378 142.964L173.715 141.784L172.373 141.96L172.634 143.943ZM175.218 146.104L176.287 144.414L176.287 144.414L175.218 146.104ZM181.619 149.982L180.638 151.725L182.287 152.653L183.305 151.058L181.619 149.982ZM183.559 146.943L185.245 148.019L186.398 146.212L184.516 145.187L183.559 146.943ZM176.411 142.599L175.263 144.237L175.265 144.238L176.411 142.599ZM172.793 131.052L174.776 130.791L174.515 128.808L172.532 129.069L172.793 131.052ZM168.827 131.574L168.566 129.591L166.583 129.853L166.844 131.835L168.827 131.574ZM167.93 144.684L166.344 143.466L166.344 143.466L167.93 144.684ZM162.261 150.957L160.848 149.541L159.364 151.022L160.913 152.435L162.261 150.957ZM164.966 153.425L163.618 154.903L165.052 156.211L166.402 154.817L164.966 153.425ZM170.355 147.471L168.832 146.174L168.824 146.184L168.816 146.194L170.355 147.471ZM172.594 143.948L172.333 141.966L170.85 142.161L170.618 143.639L172.594 143.948ZM174.27 153.612L176.253 153.351L175.992 151.368L174.009 151.63L174.27 153.612ZM170.344 154.129L170.083 152.146L168.1 152.407L168.361 154.39L170.344 154.129ZM171.942 166.265L169.959 166.526L170.22 168.509L172.203 168.247L171.942 166.265ZM195.657 163.142L195.918 165.125L197.901 164.864L197.64 162.881L195.657 163.142ZM195.208 159.732L197.191 159.471L196.93 157.488L194.947 157.749L195.208 159.732ZM175.419 162.337L173.436 162.598L173.697 164.581L175.68 164.32L175.419 162.337ZM195.436 152.883L192.006 126.828L188.04 127.35L191.47 153.406L195.436 152.883ZM189.762 125.106L185.915 125.613L186.437 129.579L190.284 129.072L189.762 125.106ZM184.193 127.857L184.851 132.854L188.817 132.332L188.159 127.335L184.193 127.857ZM186.573 130.61L179.553 131.534L180.075 135.5L187.095 134.576L186.573 130.61ZM177.832 133.778L178.27 137.109L182.236 136.587L181.797 133.256L177.832 133.778ZM180.514 138.831L187.533 137.907L187.011 133.941L179.992 134.865L180.514 138.831ZM185.29 136.185L185.733 139.556L189.699 139.034L189.255 135.663L185.29 136.185ZM187.455 137.312L180.436 138.236L180.958 142.202L187.977 141.278L187.455 137.312ZM178.714 140.48L179.152 143.811L183.118 143.289L182.68 139.958L178.714 140.48ZM181.396 145.533L188.416 144.609L187.894 140.643L180.874 141.567L181.396 145.533ZM186.172 142.887L187.623 153.912L191.589 153.39L190.138 142.365L186.172 142.887ZM189.867 155.634L193.714 155.127L193.192 151.162L189.345 151.668L189.867 155.634ZM170.89 144.922C171.234 145.536 171.786 146.059 172.274 146.463C172.803 146.901 173.447 147.351 174.149 147.795L176.287 144.414C175.669 144.023 175.179 143.674 174.825 143.382C174.43 143.055 174.35 142.914 174.378 142.964L170.89 144.922ZM174.149 147.795C176.263 149.132 178.324 150.423 180.638 151.725L182.6 148.239C180.383 146.991 178.398 145.749 176.287 144.414L174.149 147.795ZM183.305 151.058L185.245 148.019L181.873 145.867L179.933 148.906L183.305 151.058ZM184.516 145.187C181.989 143.81 179.563 142.362 177.557 140.96L175.265 144.238C177.435 145.755 180 147.281 182.602 148.699L184.516 145.187ZM177.558 140.961C176.688 140.351 176.345 139.9 176.143 139.478C175.906 138.981 175.769 138.337 175.606 137.097L171.64 137.619C171.8 138.837 171.991 140.067 172.534 141.202C173.111 142.412 174 143.352 175.263 144.237L177.558 140.961ZM175.606 137.097L174.776 130.791L170.81 131.313L171.64 137.619L175.606 137.097ZM172.532 129.069L168.566 129.591L169.088 133.557L173.054 133.035L172.532 129.069ZM166.844 131.835L167.695 138.3L171.661 137.778L170.81 131.313L166.844 131.835ZM167.695 138.3C167.862 139.564 167.836 140.368 167.662 141.048C167.49 141.722 167.128 142.444 166.344 143.466L169.517 145.901C170.489 144.634 171.184 143.422 171.537 142.039C171.889 140.663 171.86 139.289 171.661 137.778L167.695 138.3ZM166.344 143.466C165.212 144.941 163.097 147.298 160.848 149.541L163.673 152.373C165.989 150.062 168.238 147.568 169.517 145.901L166.344 143.466ZM160.913 152.435L163.618 154.903L166.314 151.948L163.609 149.48L160.913 152.435ZM166.402 154.817C168.311 152.848 170.426 150.518 171.894 148.748L168.816 146.194C167.429 147.866 165.386 150.118 163.53 152.033L166.402 154.817ZM171.878 148.767C172.467 148.075 173.053 147.3 173.518 146.583C173.75 146.224 173.968 145.856 174.143 145.502C174.301 145.183 174.495 144.737 174.57 144.258L170.618 143.639C170.639 143.51 170.661 143.52 170.558 143.728C170.472 143.902 170.34 144.132 170.161 144.408C169.805 144.958 169.326 145.594 168.832 146.174L171.878 148.767ZM172.855 145.931L172.895 145.926L172.373 141.96L172.333 141.966L172.855 145.931ZM174.009 151.63L170.083 152.146L170.605 156.112L174.531 155.595L174.009 151.63ZM168.361 154.39L169.959 166.526L173.924 166.004L172.327 153.868L168.361 154.39ZM172.203 168.247L195.918 165.125L195.396 161.16L171.68 164.282L172.203 168.247ZM197.64 162.881L197.191 159.471L193.225 159.993L193.674 163.403L197.64 162.881ZM194.947 157.749L175.158 160.354L175.68 164.32L195.469 161.715L194.947 157.749ZM177.402 162.076L176.253 153.351L172.287 153.873L173.436 162.598L177.402 162.076ZM213.027 153.15L211.515 154.458L212.775 155.915L214.278 154.711L213.027 153.15ZM224.737 125.948L226.72 125.687L226.459 123.705L224.476 123.966L224.737 125.948ZM208.358 128.105L208.097 126.122L206.115 126.383L206.376 128.366L208.358 128.105ZM208.802 131.476L206.819 131.737L207.08 133.72L209.063 133.459L208.802 131.476ZM221.294 129.831L223.277 129.57L223.016 127.587L221.033 127.848L221.294 129.831ZM210.553 150.288L209.325 148.71L207.662 150.003L209.04 151.596L210.553 150.288ZM240.767 157.607L241.028 159.59L243.01 159.329L242.749 157.346L240.767 157.607ZM235.953 121.043L237.936 120.782L237.675 118.799L235.692 119.06L235.953 121.043ZM232.027 121.559L231.766 119.577L229.783 119.838L230.044 121.82L232.027 121.559ZM236.84 158.124L234.858 158.385L235.119 160.368L237.101 160.107L236.84 158.124ZM214.278 154.711C220.892 149.413 224.6 145.95 226.431 142.759C228.403 139.323 228.123 136.341 227.644 132.707L223.678 133.229C224.15 136.812 224.214 138.586 222.961 140.769C221.568 143.197 218.484 146.216 211.777 151.589L214.278 154.711ZM227.644 132.707L226.72 125.687L222.754 126.21L223.678 133.229L227.644 132.707ZM224.476 123.966L208.097 126.122L208.62 130.088L224.998 127.931L224.476 123.966ZM206.376 128.366L206.819 131.737L210.785 131.215L210.341 127.844L206.376 128.366ZM209.063 133.459L221.556 131.814L221.033 127.848L208.541 129.493L209.063 133.459ZM219.312 130.092L219.787 133.701L223.752 133.179L223.277 129.57L219.312 130.092ZM219.787 133.701C220.147 136.439 220.168 137.781 219.107 139.534C217.888 141.545 215.198 144.141 209.325 148.71L211.781 151.867C217.582 147.354 220.871 144.342 222.528 141.607C224.341 138.613 224.133 136.072 223.752 133.179L219.787 133.701ZM209.04 151.596L211.515 154.458L214.54 151.841L212.066 148.98L209.04 151.596ZM242.749 157.346L237.936 120.782L233.97 121.304L238.784 157.868L242.749 157.346ZM235.692 119.06L231.766 119.577L232.288 123.542L236.214 123.025L235.692 119.06ZM230.044 121.82L234.858 158.385L238.823 157.863L234.01 121.298L230.044 121.82ZM237.101 160.107L241.028 159.59L240.506 155.624L236.579 156.141L237.101 160.107ZM245.021 139.618L243.988 137.905L242.203 138.983L243.353 140.721L245.021 139.618ZM246.985 142.587L245.317 143.69L246.37 145.281L248.008 144.305L246.985 142.587ZM259.784 120.285L261.767 120.024L261.506 118.042L259.523 118.303L259.784 120.285ZM244.278 122.327L244.017 120.344L242.034 120.605L242.295 122.588L244.278 122.327ZM244.716 125.658L242.734 125.919L242.995 127.902L244.977 127.641L244.716 125.658ZM256.376 124.123L258.359 123.862L258.098 121.879L256.115 122.14L256.376 124.123ZM277.167 126.066L279.15 125.805L278.889 123.822L276.906 124.083L277.167 126.066ZM271.972 126.75L269.989 127.011L270.25 128.994L272.233 128.733L271.972 126.75ZM270.62 116.479L272.603 116.217L272.342 114.235L270.359 114.496L270.62 116.479ZM266.733 116.99L266.472 115.007L264.489 115.268L264.751 117.251L266.733 116.99ZM270.169 143.085L268.186 143.346L268.447 145.329L270.43 145.068L270.169 143.085ZM274.055 142.573L274.316 144.556L276.299 144.295L276.038 142.312L274.055 142.573ZM272.421 130.16L272.16 128.178L270.177 128.439L270.438 130.422L272.421 130.16ZM277.616 129.477L277.877 131.459L279.86 131.198L279.599 129.215L277.616 129.477ZM255.398 143.053L257.381 142.792L257.12 140.809L255.137 141.07L255.398 143.053ZM251.472 143.57L251.211 141.587L249.228 141.848L249.489 143.831L251.472 143.57ZM253.054 155.586L251.071 155.847L251.332 157.83L253.315 157.569L253.054 155.586ZM276.373 152.516L276.634 154.499L278.617 154.238L278.356 152.255L276.373 152.516ZM275.924 149.105L277.907 148.844L277.646 146.861L275.663 147.122L275.924 149.105ZM256.531 151.658L254.548 151.92L254.809 153.902L256.792 153.641L256.531 151.658ZM254.774 127.279C254.887 128.134 254.864 128.724 254.722 129.234C254.583 129.733 254.287 130.312 253.611 131.061C252.175 132.651 249.366 134.66 243.988 137.905L246.054 141.33C251.366 138.125 254.688 135.837 256.58 133.741C257.568 132.647 258.234 131.536 258.576 130.305C258.915 129.085 258.891 127.905 258.74 126.757L254.774 127.279ZM243.353 140.721L245.317 143.69L248.653 141.483L246.689 138.514L243.353 140.721ZM248.008 144.305C253.979 140.752 257.868 138.098 260.12 135.47C261.289 134.106 262.059 132.704 262.452 131.152C262.84 129.618 262.825 128.065 262.613 126.449L258.647 126.971C258.821 128.29 258.795 129.295 258.574 130.171C258.357 131.029 257.92 131.89 257.082 132.867C255.321 134.923 252.002 137.273 245.962 140.868L248.008 144.305ZM262.613 126.449L261.767 120.024L257.801 120.547L258.647 126.971L262.613 126.449ZM259.523 118.303L244.017 120.344L244.539 124.31L260.045 122.268L259.523 118.303ZM242.295 122.588L242.734 125.919L246.699 125.397L246.261 122.066L242.295 122.588ZM244.977 127.641L256.637 126.106L256.115 122.14L244.455 123.675L244.977 127.641ZM254.393 124.384L254.774 127.279L258.74 126.757L258.359 123.862L254.393 124.384ZM276.906 124.083L271.711 124.767L272.233 128.733L277.428 128.049L276.906 124.083ZM273.955 126.489L272.603 116.217L268.637 116.74L269.989 127.011L273.955 126.489ZM270.359 114.496L266.472 115.007L266.994 118.973L270.881 118.461L270.359 114.496ZM264.751 117.251L268.186 143.346L272.152 142.824L268.716 116.729L264.751 117.251ZM270.43 145.068L274.316 144.556L273.794 140.59L269.908 141.102L270.43 145.068ZM276.038 142.312L274.404 129.899L270.438 130.422L272.072 142.834L276.038 142.312ZM272.682 132.143L277.877 131.459L277.355 127.494L272.16 128.178L272.682 132.143ZM279.599 129.215L279.15 125.805L275.184 126.327L275.633 129.738L279.599 129.215ZM255.137 141.07L251.211 141.587L251.733 145.552L255.659 145.036L255.137 141.07ZM249.489 143.831L251.071 155.847L255.037 155.325L253.455 143.309L249.489 143.831ZM253.315 157.569L276.634 154.499L276.112 150.533L252.793 153.603L253.315 157.569ZM278.356 152.255L277.907 148.844L273.941 149.366L274.39 152.777L278.356 152.255ZM275.663 147.122L256.27 149.676L256.792 153.641L276.185 151.088L275.663 147.122ZM258.514 151.397L257.381 142.792L253.415 143.314L254.548 151.92L258.514 151.397Z" fill="white" fill-opacity="0.6"/>
<rect x="20.0898" y="38.5303" width="260" height="6" transform="rotate(-7.5 20.0898 38.5303)" fill="url(#paint2_linear_469_6397)"/>
<rect x="18.9679" y="37.6694" width="262" height="8" transform="rotate(-7.5 18.9679 37.6694)" stroke="white" stroke-opacity="0.6" stroke-width="2"/>
<rect x="40.5684" y="194.081" width="260" height="6" transform="rotate(-7.5 40.5684 194.081)" fill="url(#paint3_linear_469_6397)"/>
<rect x="39.4464" y="193.22" width="262" height="8" transform="rotate(-7.5 39.4464 193.22)" stroke="white" stroke-opacity="0.6" stroke-width="2"/>
<defs>
<linearGradient id="paint0_linear_469_6397" x1="44.0825" y1="35.2014" x2="290.322" y2="35.2478" gradientUnits="userSpaceOnUse">
<stop stop-color="#FF8CA9"/>
<stop offset="1" stop-color="#E18CFF"/>
</linearGradient>
<linearGradient id="paint1_linear_469_6397" x1="37.5339" y1="140.387" x2="308.697" y2="199.193" gradientUnits="userSpaceOnUse">
<stop stop-color="#FF8CA9"/>
<stop offset="1" stop-color="#E18CFF"/>
</linearGradient>
<linearGradient id="paint2_linear_469_6397" x1="40.8898" y1="38.5303" x2="71.4472" y2="121.434" gradientUnits="userSpaceOnUse">
<stop stop-color="#FF8CA9"/>
<stop offset="1" stop-color="#E18CFF"/>
</linearGradient>
<linearGradient id="paint3_linear_469_6397" x1="61.3684" y1="194.081" x2="91.9258" y2="276.985" gradientUnits="userSpaceOnUse">
<stop stop-color="#FF8CA9"/>
<stop offset="1" stop-color="#E18CFF"/>
</linearGradient>
</defs>
</svg>
